<svg width="25" height="21" viewBox="0 0 25 21" fill="none" xmlns="http://www.w3.org/2000/svg">
<path d="M20.9545 11.4761L1.48246 11.4761C1.35371 11.4769 1.22608 11.4521 1.10692 11.4034C0.987755 11.3546 0.879406 11.2828 0.788101 11.192C0.696797 11.1012 0.624338 10.9933 0.574896 10.8744C0.525454 10.7555 0.5 10.628 0.5 10.4993C0.5 10.3705 0.525454 10.2431 0.574896 10.1242C0.624338 10.0053 0.696797 9.89736 0.788101 9.80658C0.879406 9.7158 0.987755 9.64397 1.10692 9.59521C1.22608 9.54645 1.35371 9.52173 1.48246 9.52248L20.9545 9.52248L13.386 2.39947C13.2901 2.31162 13.2135 2.20476 13.1611 2.0857C13.1087 1.96664 13.0816 1.83798 13.0816 1.70789C13.0816 1.5778 13.1087 1.44914 13.1611 1.33008C13.2135 1.21102 13.2901 1.10416 13.386 1.01631C13.5861 0.83248 13.8479 0.730469 14.1196 0.730469C14.3913 0.730469 14.6531 0.83248 14.8532 1.01631L24.1956 9.8077C24.2915 9.89555 24.3681 10.0024 24.4205 10.1215C24.4729 10.2405 24.5 10.3692 24.5 10.4993C24.5 10.6294 24.4729 10.7581 24.4205 10.8771C24.3681 10.9962 24.2915 11.103 24.1956 11.1909L14.8532 19.9823C14.6532 20.1656 14.3919 20.2673 14.1206 20.2673C13.8494 20.2673 13.588 20.1656 13.388 19.9823C13.2921 19.8945 13.2154 19.7876 13.163 19.6685C13.1106 19.5495 13.0835 19.4208 13.0835 19.2907C13.0835 19.1606 13.1106 19.032 13.163 18.9129C13.2154 18.7938 13.2921 18.687 13.388 18.5991L20.9525 11.4761L20.9545 11.4761Z" fill="white"/>
</svg>
