<svg width="24" height="24" viewBox="0 0 24 24" fill="none" xmlns="http://www.w3.org/2000/svg">
<path d="M21.615 9.59985C21.615 9.28158 21.4886 8.97636 21.2635 8.75131C21.0385 8.52626 20.7332 8.39983 20.415 8.39983C20.0967 8.39983 19.7915 8.52626 19.5664 8.75131C19.3414 8.97636 19.215 9.28158 19.215 9.59985H21.615ZM4.8148 9.59985C4.8148 9.28158 4.68837 8.97636 4.46332 8.75131C4.23828 8.52626 3.93305 8.39983 3.61478 8.39983C3.29652 8.39983 2.99129 8.52626 2.76625 8.75131C2.5412 8.97636 2.41477 9.28158 2.41477 9.59985H4.8148ZM21.9666 12.8483C22.1929 13.0669 22.496 13.1878 22.8107 13.1851C23.1253 13.1824 23.4263 13.0562 23.6488 12.8337C23.8713 12.6112 23.9975 12.3102 24.0002 11.9956C24.0029 11.6809 23.882 11.3778 23.6634 11.1515L21.9666 12.8483ZM12.0149 1.19976L12.8633 0.351347C12.6382 0.12638 12.3331 0 12.0149 0C11.6967 0 11.3915 0.12638 11.1665 0.351347L12.0149 1.19976ZM0.36635 11.1515C0.251736 11.2622 0.160317 11.3946 0.0974253 11.541C0.0345338 11.6874 0.0014299 11.8449 4.53085e-05 12.0042C-0.00133929 12.1635 0.0290231 12.3215 0.0893608 12.469C0.149699 12.6165 0.238803 12.7505 0.351476 12.8632C0.464148 12.9758 0.598132 13.0649 0.745609 13.1253C0.893086 13.1856 1.0511 13.216 1.21044 13.2146C1.36978 13.2132 1.52724 13.1801 1.67365 13.1172C1.82006 13.0543 1.95247 12.9629 2.06317 12.8483L0.36635 11.1515ZM6.01481 24H18.0149V21.6H6.01481V24ZM21.615 20.4V9.59985H19.215V20.4H21.615ZM4.8148 20.4V9.59985H2.41477V20.4H4.8148ZM23.6634 11.1515L12.8633 0.351347L11.1665 2.04817L21.9666 12.8483L23.6634 11.1515ZM11.1665 0.351347L0.36635 11.1515L2.06317 12.8483L12.8633 2.04817L11.1665 0.351347ZM18.0149 24C18.9697 24 19.8854 23.6207 20.5606 22.9456C21.2357 22.2704 21.615 21.3548 21.615 20.4H19.215C19.215 20.7182 19.0885 21.0235 18.8635 21.2485C18.6384 21.4735 18.3332 21.6 18.0149 21.6V24ZM6.01481 21.6C5.69655 21.6 5.39132 21.4735 5.16627 21.2485C4.94123 21.0235 4.8148 20.7182 4.8148 20.4H2.41477C2.41477 21.3548 2.79406 22.2704 3.4692 22.9456C4.14434 23.6207 5.06002 24 6.01481 24V21.6Z" fill="white"/>
</svg>
