<svg width="37" height="38" viewBox="0 0 37 38" fill="none" xmlns="http://www.w3.org/2000/svg">
<path d="M10.73 0H26.27C32.19 0 37 4.94 37 11.02V26.98C37 29.9027 35.8695 32.7057 33.8573 34.7723C31.845 36.839 29.1158 38 26.27 38H10.73C4.81 38 0 33.06 0 26.98V11.02C0 8.09731 1.13048 5.29433 3.14274 3.22768C5.15501 1.16103 7.88423 0 10.73 0ZM10.36 3.8C8.59366 3.8 6.89966 4.52064 5.65067 5.80339C4.40168 7.08614 3.7 8.82592 3.7 10.64V27.36C3.7 31.141 6.6785 34.2 10.36 34.2H26.64C28.4063 34.2 30.1003 33.4794 31.3493 32.1966C32.5983 30.9139 33.3 29.1741 33.3 27.36V10.64C33.3 6.859 30.3215 3.8 26.64 3.8H10.36ZM28.2125 6.65C28.8258 6.65 29.414 6.90022 29.8477 7.34562C30.2814 7.79102 30.525 8.39511 30.525 9.025C30.525 9.65489 30.2814 10.259 29.8477 10.7044C29.414 11.1498 28.8258 11.4 28.2125 11.4C27.5992 11.4 27.011 11.1498 26.5773 10.7044C26.1436 10.259 25.9 9.65489 25.9 9.025C25.9 8.39511 26.1436 7.79102 26.5773 7.34562C27.011 6.90022 27.5992 6.65 28.2125 6.65ZM18.5 9.5C20.9533 9.5 23.306 10.5009 25.0407 12.2825C26.7754 14.0641 27.75 16.4804 27.75 19C27.75 21.5196 26.7754 23.9359 25.0407 25.7175C23.306 27.4991 20.9533 28.5 18.5 28.5C16.0467 28.5 13.694 27.4991 11.9593 25.7175C10.2246 23.9359 9.25 21.5196 9.25 19C9.25 16.4804 10.2246 14.0641 11.9593 12.2825C13.694 10.5009 16.0467 9.5 18.5 9.5ZM18.5 13.3C17.028 13.3 15.6164 13.9005 14.5756 14.9695C13.5347 16.0384 12.95 17.4883 12.95 19C12.95 20.5117 13.5347 21.9616 14.5756 23.0305C15.6164 24.0995 17.028 24.7 18.5 24.7C19.972 24.7 21.3836 24.0995 22.4244 23.0305C23.4653 21.9616 24.05 20.5117 24.05 19C24.05 17.4883 23.4653 16.0384 22.4244 14.9695C21.3836 13.9005 19.972 13.3 18.5 13.3Z" fill="white"/>
</svg>
