<svg width="200" height="72" viewBox="0 0 200 72" fill="none" xmlns="http://www.w3.org/2000/svg">
<g clip-path="url(#clip0_344_2080)">
<path d="M104.779 48.3006C104.167 48.38 104.115 48.4046 103.946 49.2642L103.299 52.574C103.105 53.6335 102.828 54.3179 102.068 54.7121C101.642 54.9311 101.094 55.0105 100.961 55.0105L100.945 54.8791C101.592 54.7477 101.866 54.5205 102.264 52.4864L102.892 49.2615C103.041 48.473 102.989 48.3854 102.264 48.2978L102.292 48.1582H104.806L104.779 48.2978V48.3006Z" fill="white"/>
<path d="M110.275 50.4728C110.275 52.2961 108.983 53.9852 107.061 53.9852C105.68 53.9852 104.759 53.0489 104.759 51.6117C104.759 49.7556 106.159 48.0391 108.034 48.0391C109.415 48.0391 110.275 48.9589 110.275 50.4728ZM105.938 52.0251C105.938 53.0763 106.308 53.7854 107.133 53.7854C108.433 53.7854 109.108 51.6829 109.108 49.9308C109.108 49.0903 108.914 48.2389 107.985 48.2389C106.718 48.2389 105.94 50.1744 105.94 52.0223L105.938 52.0251Z" fill="white"/>
<path d="M115.896 48.2849C115.382 48.3643 115.276 48.4081 114.87 48.942C114.568 49.328 113.525 50.8254 113.293 51.2115C113.241 51.2991 113.205 51.3593 113.177 51.4743L112.928 52.761C112.767 53.5412 112.795 53.6206 113.548 53.7164L113.512 53.856H110.884L110.92 53.7164C111.644 53.6288 111.7 53.5686 111.866 52.761L112.095 51.6659C112.14 51.4469 112.112 51.2799 112.043 51.0253C111.927 50.5955 111.741 50.0096 111.495 49.1144C111.31 48.441 111.246 48.3616 110.682 48.2986L110.726 48.159H112.975L112.939 48.2986L112.673 48.3588C112.391 48.4191 112.4 48.4902 112.496 48.8571C112.673 49.5223 112.922 50.319 113.124 51.039C113.559 50.4175 114.223 49.3827 114.532 48.9009C114.79 48.4985 114.657 48.3917 114.339 48.3315L114.117 48.2877L114.153 48.1562H115.932L115.896 48.2794V48.2849Z" fill="white"/>
<path d="M121.287 53.855H118.825L118.853 53.7154C119.489 53.6114 119.545 53.532 119.489 53.0748C119.437 52.6723 119.384 52.2863 119.321 51.7525H117.736C117.506 52.1823 117.265 52.6012 117.088 52.979C116.839 53.4772 116.85 53.6086 117.611 53.7154L117.583 53.855H115.689L115.716 53.7154C116.344 53.6278 116.433 53.5566 116.939 52.6723L119.578 48.0649L119.791 48.0293C120.117 50.2358 120.322 51.4979 120.499 52.7682C120.604 53.5292 120.676 53.6086 121.312 53.7154L121.285 53.855H121.287ZM119.022 49.4638H119.005C118.635 50.1209 118.281 50.7943 117.899 51.4869H119.279L119.022 49.4638Z" fill="white"/>
<path d="M127.323 52.4704C127.226 52.7852 126.917 53.5928 126.792 53.8556H122.693L122.729 53.716C123.365 53.6448 123.437 53.5764 123.605 52.7359L124.314 49.1085C124.446 48.4433 124.374 48.3803 123.694 48.3037L123.722 48.1641H126.272L126.244 48.3037C125.553 48.3749 125.492 48.4515 125.343 49.2509L124.67 52.7633C124.546 53.4121 124.565 53.612 125.085 53.612H125.511C126.026 53.612 126.256 53.5764 126.502 53.3765C126.74 53.1849 127.005 52.8153 127.202 52.4293L127.326 52.4731L127.323 52.4704Z" fill="white"/>
<path d="M133.398 50.4728C133.398 52.2961 132.106 53.9852 130.184 53.9852C128.803 53.9852 127.882 53.0489 127.882 51.6117C127.882 49.7556 129.282 48.0391 131.157 48.0391C132.538 48.0391 133.398 48.9589 133.398 50.4728ZM129.06 52.0251C129.06 53.0763 129.431 53.7854 130.255 53.7854C131.556 53.7854 132.231 51.6829 132.231 49.9308C132.231 49.0903 132.037 48.2389 131.107 48.2389C129.841 48.2389 129.063 50.1744 129.063 52.0223L129.06 52.0251Z" fill="white"/>
<path d="M140.134 48.3006C139.506 48.3882 139.425 48.4758 139.301 48.9384C139.24 49.1301 139.152 49.5079 138.955 50.4879L138.275 53.9401H138.037L135.345 49.2368L134.911 51.4708C134.717 52.4782 134.673 52.7328 134.629 53.0641C134.568 53.5021 134.601 53.6253 135.434 53.7129L135.406 53.8525H133.362L133.398 53.7129C134.009 53.6253 134.123 53.5212 134.247 53.0997C134.344 52.7574 134.416 52.4782 134.618 51.4954L135.096 49.1465C135.124 49.0233 135.141 48.8563 135.024 48.6647C134.875 48.4101 134.706 48.3225 134.308 48.2978L134.336 48.1582H135.901L138.319 52.2592L138.673 50.5153C138.878 49.5243 138.903 49.2971 138.955 48.9549C139.027 48.4812 138.919 48.3772 138.159 48.2978L138.186 48.1582H140.159L140.131 48.2978L140.134 48.3006Z" fill="white"/>
<path d="M144.966 49.6234C144.922 48.5447 144.488 48.2299 143.655 48.2299C142.266 48.2299 141.257 49.867 141.257 51.5069C141.257 52.873 141.771 53.7928 142.709 53.7928C143.107 53.7928 143.356 53.697 143.461 53.1631L143.647 52.2269C143.779 51.5534 143.719 51.5178 142.903 51.4111L142.939 51.2796H145.425L145.398 51.4111C144.911 51.4822 144.839 51.5425 144.706 52.2269L144.546 53.0235C144.501 53.2425 144.493 53.5054 144.51 53.6723C144.015 53.812 143.298 53.9872 142.634 53.9872C141.033 53.9872 140.04 53.0591 140.04 51.526C140.04 49.44 141.625 48.041 143.713 48.041C144.394 48.041 145.057 48.1888 145.315 48.26C145.254 48.5584 145.165 49.032 145.093 49.6179L144.961 49.6261L144.966 49.6234Z" fill="white"/>
<path d="M152.604 47.9863C152.532 48.2574 152.399 48.9144 152.322 49.4318L152.18 49.44C152.172 49.2812 152.172 49.106 152.164 48.9856C152.12 48.5202 151.995 48.4079 151.447 48.4079H150.748L149.898 52.7444C149.738 53.5602 149.802 53.604 150.59 53.7162L150.562 53.8558H147.835L147.862 53.7162C148.598 53.6368 148.667 53.5766 148.836 52.7444L149.694 48.4079H149.179C148.595 48.4079 148.435 48.4599 148.205 48.7228C148.073 48.8624 147.932 49.1334 147.79 49.44L147.658 49.4236C147.79 48.9856 147.94 48.4244 148.02 47.9863H148.136C148.241 48.1698 148.297 48.1615 148.535 48.1615H152.048C152.269 48.1615 152.33 48.1259 152.482 47.9863H152.606H152.604Z" fill="white"/>
<path d="M155.597 48.3017C154.916 48.4058 154.844 48.4769 154.695 49.2654L154.015 52.7531C153.854 53.5498 153.89 53.6128 154.598 53.7168L154.571 53.8564H152.056L152.084 53.7168C152.731 53.621 152.784 53.569 152.952 52.7531L153.644 49.2654C153.804 48.4687 153.749 48.3975 153.052 48.3017L153.08 48.1621H155.63L155.602 48.3017H155.597Z" fill="white"/>
<path d="M162.952 48.3017C162.227 48.3975 162.155 48.4605 162.05 49.2134C161.857 50.4836 161.713 51.5349 161.591 52.5588C161.467 53.558 161.486 53.61 162.211 53.714L162.183 53.8537H159.66L159.688 53.714C160.344 53.6264 160.388 53.5471 160.546 52.5588C160.723 51.4363 160.891 50.2893 161.077 49.1066H161.06C160.183 50.5794 159.149 52.3315 158.263 53.8893H158.139C157.882 52.4712 157.439 50.5247 157.138 49.1942H157.121L156.537 51.4801C156.316 52.3398 156.219 52.8106 156.183 53.0214C156.111 53.4594 156.122 53.6347 156.9 53.714L156.872 53.8537H154.819L154.847 53.714C155.494 53.6264 155.572 53.5553 155.777 53.0652C155.882 52.8106 156.103 52.0742 156.299 51.3843L156.963 48.967C157.052 48.6521 157.024 48.4249 156.194 48.3017L156.222 48.1621H157.887C158.18 49.405 158.631 51.0969 158.913 52.2795L161.409 48.1621H162.994L162.958 48.3017H162.952Z" fill="white"/>
<path d="M166.368 48.1625C166.819 48.1625 167.201 48.1625 167.511 48.1543C167.45 48.4527 167.35 49.0221 167.29 49.4328L167.157 49.441C167.121 48.6881 167.016 48.4062 166.449 48.4062H165.644C165.35 48.4062 165.29 48.4582 165.245 48.6854L164.839 50.7441H165.599C166.202 50.7441 166.396 50.6209 166.634 50.0077H166.775L166.393 51.7598H166.244C166.28 51.0671 166.155 50.9878 165.563 50.9878H164.775L164.457 52.696C164.332 53.3449 164.352 53.6077 164.891 53.6077H165.395C166.103 53.6077 166.272 53.5119 166.529 53.2573C166.698 53.0821 166.839 52.8548 167.016 52.529L167.14 52.5646C167.043 52.8713 166.794 53.5557 166.662 53.8513H162.404L162.432 53.7117C163.168 53.6159 163.22 53.5721 163.397 52.7316L164.078 49.2713C164.219 48.5184 164.227 48.3678 163.486 48.2994L163.514 48.1598H166.371L166.368 48.1625Z" fill="white"/>
<path d="M78.7099 39.1828C78.4415 39.2239 78.176 39.2704 77.916 39.3279C77.6559 39.3854 77.4236 39.432 77.2189 39.473C77.0142 39.5141 76.8814 39.5333 76.815 39.5333C76.685 39.5333 76.4969 39.4977 76.2535 39.4237C76.01 39.3526 75.7279 39.254 75.4098 39.1336C75.0917 39.0131 74.7625 38.868 74.4195 38.6983C74.0765 38.5285 73.75 38.3561 73.443 38.1781C73.443 38.1152 73.4541 38.0221 73.479 37.8989C73.5038 37.7784 73.537 37.658 73.5758 37.5375C73.6173 37.4171 73.6615 37.3075 73.7113 37.2117C73.7611 37.1159 73.8164 37.0666 73.8828 37.0666C73.9962 37.0666 74.2701 37.0776 74.7016 37.1022C75.1331 37.1269 75.6228 37.1542 76.1677 37.1871C76.7127 37.2199 77.2797 37.2473 77.8662 37.272C78.4526 37.2966 78.9561 37.3075 79.3821 37.3075H83.4373C83.4041 37.0338 83.3765 36.7518 83.3516 36.4616C83.3267 36.1714 83.3156 35.9141 83.3156 35.6869L83.2907 32.6152C82.5079 32.503 81.797 32.284 81.1524 31.9637C80.5079 31.6406 79.963 31.2382 79.5148 30.7536C79.0667 30.2691 78.7154 29.7188 78.4637 29.0974C78.2119 28.4759 78.0847 27.8107 78.0847 27.1016C78.0847 26.2968 78.2424 25.5494 78.5605 24.865C78.8786 24.1806 79.3212 23.5865 79.891 23.0882C80.4609 22.59 81.1414 22.1985 81.9325 21.9165C82.7236 21.6345 83.5978 21.4922 84.5604 21.4922C85.523 21.4922 86.3778 21.6345 87.1745 21.9165C87.9711 22.1985 88.6572 22.59 89.227 23.0882C89.7968 23.5892 90.2422 24.1806 90.5576 24.865C90.8757 25.5494 91.0333 26.2968 91.0333 27.1016C91.0333 27.7942 90.9144 28.4431 90.6793 29.0481C90.4441 29.6531 90.1094 30.1979 89.6779 30.6797C89.2464 31.1643 88.7263 31.5667 88.115 31.8898C87.5037 32.2128 86.8232 32.4455 86.0735 32.5906L86.0237 35.3228C86.0237 35.5171 85.9988 35.8101 85.9518 36.2043C85.902 36.5985 85.8467 36.9653 85.7803 37.3048H90.1786C90.4718 37.3048 90.7318 37.2774 90.9614 37.2199C91.1883 37.1625 91.4013 37.1022 91.5977 37.0393C91.7941 36.9763 91.9656 36.9133 92.1122 36.8586C92.2588 36.8011 92.3971 36.7737 92.5271 36.7737C92.7069 36.7737 92.9586 36.7929 93.285 36.8339C93.6115 36.875 93.9351 36.927 94.2615 36.99C94.5879 37.0557 94.8756 37.1241 95.1301 37.1953C95.3818 37.2692 95.5257 37.3377 95.5589 37.4006C95.6225 37.5129 95.664 37.6552 95.6806 37.825C95.6972 37.9947 95.6916 38.1644 95.6695 38.3314C95.6446 38.5012 95.6114 38.6572 95.5727 38.8023C95.5312 38.9474 95.4869 39.0514 95.4372 39.1171H79.3793C79.1995 39.1171 78.9754 39.1363 78.7071 39.1774L78.7099 39.1828ZM86.0625 30.4306C86.5272 30.2609 86.9255 30.0199 87.2602 29.7051C87.5949 29.3903 87.8577 29.0125 88.0541 28.569C88.2505 28.1255 88.3474 27.6382 88.3474 27.1071C88.3474 26.576 88.2505 26.0914 88.0541 25.6561C87.8577 25.2209 87.5949 24.8458 87.2602 24.531C86.9255 24.2161 86.5272 23.9698 86.0625 23.7945C85.5977 23.6166 85.097 23.529 84.5604 23.529C84.0238 23.529 83.5231 23.6166 83.0584 23.7945C82.5936 23.9725 82.1953 24.2189 81.8606 24.531C81.5259 24.8458 81.2631 25.2209 81.0667 25.6561C80.8703 26.0914 80.7735 26.576 80.7735 27.1071C80.7735 27.6382 80.8703 28.1255 81.0667 28.569C81.2631 29.0125 81.5259 29.3903 81.8606 29.7051C82.1953 30.0199 82.5936 30.2609 83.0584 30.4306C83.5231 30.6003 84.0238 30.6852 84.5604 30.6852C85.097 30.6852 85.5977 30.6003 86.0625 30.4306Z" fill="white"/>
<path d="M110.46 40.9724C110.394 40.7068 110.333 40.3947 110.278 40.0416C110.22 39.6857 110.173 39.2997 110.131 38.8808C110.09 38.462 110.07 38.0431 110.07 37.6242V35.0372C109.434 35.3109 108.682 35.5847 107.81 35.8585C106.939 36.1322 106.093 36.3814 105.268 36.6086C104.447 36.8358 103.714 37.0165 103.069 37.1534C102.425 37.2903 102.015 37.3587 101.835 37.3587C101.575 37.3587 101.293 37.2711 100.992 37.0931C100.69 36.9152 100.408 36.7099 100.148 36.4772C99.888 36.2445 99.6722 36.0173 99.5007 35.801C99.3292 35.5847 99.2434 35.4259 99.2434 35.3301L99.2185 30.8814C99.2185 30.6405 99.1162 30.4023 98.9143 30.1669C98.7096 29.9342 98.5519 29.7919 98.4385 29.7426C98.4385 29.7097 98.4495 29.6468 98.4744 29.5482C98.4993 29.4524 98.527 29.3538 98.5602 29.258C98.5934 29.1622 98.6376 29.0773 98.6957 29.0034C98.7538 28.9295 98.8064 28.8939 98.8534 28.8939C98.9502 28.8939 99.1411 28.9021 99.4288 28.9185C99.7137 28.935 100.024 28.9459 100.358 28.9541C100.693 28.9623 101.008 28.9733 101.313 28.9897C101.614 29.0062 101.83 29.0144 101.96 29.0144H104.745C104.745 28.8364 104.748 28.5791 104.756 28.2396C104.765 27.9001 104.773 27.5497 104.781 27.1884C104.79 26.8242 104.792 26.4738 104.792 26.1371V25.3623H102.057C101.927 25.3623 101.788 25.3733 101.642 25.3979C101.495 25.4226 101.351 25.4472 101.213 25.4719C101.075 25.4965 100.953 25.5157 100.845 25.5321C100.74 25.5485 100.662 25.5567 100.613 25.5567C100.516 25.5567 100.361 25.5157 100.148 25.4363C99.935 25.3569 99.7192 25.2556 99.5007 25.1351C99.2822 25.0147 99.0636 24.8887 98.8534 24.7601C98.6404 24.6314 98.4855 24.5192 98.3887 24.4206C98.4219 24.2262 98.4827 24.01 98.5712 23.769C98.6598 23.5281 98.7455 23.4077 98.8285 23.4077C98.8949 23.4077 99.0387 23.4159 99.2683 23.4323C99.4952 23.4487 99.7662 23.4652 100.076 23.4816C100.386 23.498 100.715 23.5144 101.066 23.5309C101.418 23.5473 101.747 23.5555 102.057 23.5555H103.816C104.126 23.5555 104.436 23.5117 104.745 23.4214C105.055 23.3338 105.274 23.2872 105.404 23.2872C105.777 23.2872 106.148 23.3146 106.516 23.3721C106.884 23.4296 107.13 23.4734 107.26 23.5062C107.586 23.602 107.725 23.8785 107.675 24.3275C107.642 24.5684 107.597 24.9408 107.539 25.439C107.481 25.94 107.418 26.4519 107.343 26.9748C107.268 27.4977 107.196 27.9795 107.124 28.4148C107.05 28.8501 106.989 29.1321 106.942 29.2608C107.088 29.31 107.224 29.4031 107.346 29.54C107.467 29.6769 107.528 29.8028 107.528 29.915C107.528 30.0766 107.47 30.2408 107.357 30.4106C107.243 30.5803 107.072 30.6652 106.842 30.6652H101.954V35.0673C102.344 35.0837 102.884 35.0563 103.567 34.9824C104.25 34.9112 104.981 34.8045 105.755 34.6676C106.53 34.5307 107.299 34.3692 108.065 34.183C108.831 33.9969 109.498 33.7915 110.068 33.5671V23.8868C110.068 23.7252 110.026 23.5938 109.946 23.4871C109.866 23.383 109.783 23.29 109.702 23.2078L108.308 21.9978C108.375 21.8198 108.455 21.62 108.552 21.3928C108.649 21.1683 108.756 21.0533 108.87 21.0533C109.066 21.0533 109.318 21.0779 109.628 21.1245C109.938 21.1738 110.264 21.2367 110.604 21.3188C110.947 21.401 111.279 21.4886 111.606 21.5844C111.932 21.6802 112.209 21.7788 112.436 21.8746C112.566 21.9403 112.654 22.0087 112.704 22.0799C112.754 22.1511 112.776 22.2524 112.776 22.3811C112.776 22.5097 112.765 22.7205 112.74 23.0107C112.715 23.3009 112.704 23.5747 112.704 23.832L112.679 28.5955H115V22.4303C115 22.2688 114.958 22.1374 114.878 22.0306C114.795 21.9266 114.715 21.8335 114.635 21.7514L113.243 20.5414C113.323 20.347 113.409 20.1417 113.5 19.9254C113.589 19.7091 113.691 19.5996 113.805 19.5996C114.001 19.5996 114.256 19.6242 114.574 19.6708C114.892 19.7201 115.224 19.783 115.575 19.8652C115.926 19.9473 116.267 20.0349 116.601 20.1307C116.936 20.2265 117.216 20.3251 117.445 20.4209C117.575 20.4866 117.664 20.555 117.713 20.6262C117.763 20.6974 117.785 20.7987 117.785 20.9274C117.785 21.056 117.774 21.2668 117.749 21.557C117.725 21.8472 117.713 22.121 117.713 22.3783L117.664 38.3853C117.664 38.9 117.622 39.4119 117.542 39.9211C117.459 40.4276 117.368 40.9039 117.26 41.3474C117.155 41.7909 117.041 42.1742 116.917 42.4973C116.795 42.8203 116.684 43.0448 116.588 43.1735H115.586C115.52 43.0612 115.456 42.8668 115.39 42.5931C115.323 42.3193 115.263 41.9963 115.207 41.6267C115.149 41.2571 115.102 40.8574 115.061 40.4303C115.019 40.0033 115 39.5789 115 39.1601V30.3093H112.679L112.654 36.8385C112.654 37.356 112.613 37.8624 112.532 38.3607C112.449 38.8589 112.358 39.3243 112.25 39.7514C112.145 40.1785 112.032 40.5508 111.907 40.8629C111.785 41.1777 111.675 41.3995 111.578 41.5281H110.649C110.582 41.4159 110.519 41.227 110.452 40.9587L110.46 40.9724Z" fill="white"/>
<path d="M125.558 31.7353C125.085 31.3247 124.842 30.7881 124.825 30.1283L124.776 24.664C124.776 24.4696 124.693 24.2944 124.532 24.1329C124.516 24.1165 124.463 24.0727 124.375 23.9987C124.286 23.9248 124.186 23.8454 124.081 23.7578C123.976 23.6702 123.866 23.5799 123.752 23.4923C123.639 23.4047 123.547 23.3362 123.484 23.287C123.484 23.2076 123.495 23.109 123.52 22.9968C123.545 22.8845 123.581 22.775 123.63 22.671C123.68 22.567 123.733 22.4766 123.788 22.4054C123.846 22.3343 123.899 22.2959 123.946 22.2959C124.043 22.2959 124.242 22.3014 124.543 22.3069C124.845 22.3151 125.182 22.326 125.558 22.3425C125.932 22.3589 126.311 22.3753 126.695 22.3918C127.077 22.4082 127.392 22.4246 127.636 22.441H134.574C134.817 22.441 135.066 22.4219 135.318 22.3808C135.569 22.3397 135.81 22.3014 136.04 22.2603C136.266 22.2193 136.479 22.1837 136.676 22.1508C136.872 22.118 137.033 22.1016 137.166 22.1016C137.362 22.118 137.572 22.1344 137.802 22.1508C138.029 22.1673 138.242 22.1919 138.438 22.2248C138.634 22.2576 138.809 22.2959 138.964 22.3452C139.118 22.3945 139.221 22.4492 139.268 22.5149C139.318 22.5807 139.348 22.6956 139.365 22.8654C139.381 23.0351 139.384 23.2076 139.376 23.3855C139.367 23.5635 139.34 23.7359 139.29 23.9057C139.24 24.0754 139.177 24.1931 139.094 24.2561H127.708V29.7451C127.708 30.0517 127.794 30.257 127.965 30.361C128.137 30.4651 128.344 30.5171 128.587 30.5171H134.524C134.767 30.5171 135.016 30.4924 135.268 30.4432C135.52 30.3939 135.76 30.3473 135.99 30.2981C136.217 30.2488 136.43 30.205 136.626 30.1639C136.823 30.1229 136.983 30.1037 137.116 30.1037C137.296 30.1201 137.511 30.1365 137.763 30.153C138.015 30.1694 138.258 30.194 138.496 30.2241C138.731 30.257 138.939 30.2981 139.118 30.3446C139.298 30.3939 139.412 30.4486 139.461 30.5143C139.511 30.58 139.542 30.695 139.558 30.8648C139.575 31.0345 139.578 31.2152 139.569 31.4095C139.561 31.6039 139.533 31.7846 139.484 31.9543C139.434 32.1241 139.37 32.2418 139.287 32.3048L133.473 32.3294L133.423 35.182C133.423 35.3764 133.398 35.6857 133.351 36.1128C133.301 36.5399 133.246 36.9396 133.179 37.3092H137.578C137.871 37.3092 138.131 37.2818 138.361 37.2243C138.587 37.1668 138.8 37.1066 138.997 37.0436C139.193 36.9807 139.365 36.9177 139.511 36.8629C139.658 36.8054 139.796 36.7781 139.926 36.7781C140.106 36.7781 140.358 36.7972 140.684 36.8383C141.011 36.8794 141.334 36.9314 141.661 36.9943C141.987 37.06 142.275 37.1285 142.529 37.1997C142.781 37.2736 142.925 37.342 142.958 37.405C143.022 37.5172 143.063 37.6596 143.08 37.8293C143.096 37.9991 143.091 38.1688 143.069 38.3358C143.044 38.5055 143.011 38.6616 142.972 38.8067C142.93 38.9518 142.886 39.0558 142.836 39.1215H126.784C126.604 39.1215 126.38 39.1407 126.112 39.1817C125.843 39.2228 125.578 39.2693 125.318 39.3268C125.058 39.3843 124.825 39.4308 124.621 39.4719C124.416 39.513 124.283 39.5321 124.217 39.5321C124.087 39.5321 123.899 39.4965 123.655 39.4226C123.412 39.3514 123.13 39.2529 122.812 39.1324C122.494 39.012 122.164 38.8669 121.821 38.6972C121.478 38.5274 121.152 38.3549 120.845 38.177C120.845 38.114 120.856 38.021 120.881 37.8978C120.906 37.7773 120.939 37.6568 120.978 37.5364C121.019 37.4159 121.063 37.3064 121.113 37.2106C121.163 37.1148 121.218 37.0655 121.285 37.0655C121.398 37.0655 121.672 37.0765 122.103 37.1011C122.535 37.1257 123.025 37.1531 123.57 37.186C124.115 37.2188 124.682 37.2462 125.268 37.2708C125.854 37.2955 126.358 37.3064 126.784 37.3064H130.839C130.806 37.0162 130.778 36.7096 130.753 36.3866C130.729 36.0635 130.717 35.7898 130.717 35.5653L130.693 32.3486H127.395C126.646 32.3486 126.034 32.1432 125.564 31.7326L125.558 31.7353Z" fill="white"/>
<path d="M150.2 29.885C149.915 29.7728 149.674 29.6277 149.478 29.4498C149.281 29.2718 149.135 29.0747 149.038 28.8584C148.941 28.6422 148.891 28.4204 148.891 28.1932L148.867 26.693C148.867 26.5643 148.825 26.4356 148.745 26.3069C148.662 26.1783 148.565 26.0606 148.452 25.9565C148.338 25.8525 148.222 25.7594 148.109 25.6773C147.995 25.5979 147.904 25.5404 147.84 25.5076C147.904 25.2831 147.987 25.0723 148.084 24.8779C148.18 24.6835 148.288 24.5877 148.402 24.5877C148.598 24.5877 149.013 24.6069 149.647 24.6479C150.283 24.689 150.966 24.7082 151.699 24.7082H159.395L159.445 22.8466H152.579C152.203 22.8466 151.848 22.9068 151.517 23.0273C151.182 23.1477 150.911 23.2079 150.698 23.2079C150.584 23.2079 150.405 23.1641 150.161 23.0738C149.918 22.9862 149.652 22.8794 149.367 22.759C149.082 22.6385 148.8 22.5098 148.524 22.373C148.247 22.2361 148.017 22.1184 147.84 22.0225C147.857 21.9431 147.885 21.8364 147.926 21.7077C147.968 21.579 148.015 21.4531 148.073 21.3327C148.131 21.2122 148.192 21.1109 148.255 21.0315C148.319 20.9521 148.385 20.9111 148.452 20.9111C148.745 20.9439 149.063 20.9713 149.406 20.9959C149.749 21.0206 150.103 21.0397 150.468 21.0562C150.836 21.0726 151.196 21.0835 151.555 21.0917C151.912 21.1 152.255 21.1027 152.582 21.1027H157.763C157.926 21.1027 158.1 21.0863 158.288 21.0534C158.476 21.0206 158.653 20.9904 158.825 20.9576C158.996 20.9247 159.151 20.8946 159.29 20.8618C159.428 20.8289 159.522 20.8125 159.572 20.8125C159.669 20.8125 159.815 20.818 160.012 20.8235C160.208 20.8317 160.418 20.8481 160.648 20.8727C160.875 20.8974 161.107 20.9247 161.345 20.9576C161.58 20.9904 161.796 21.0315 161.992 21.0781C162.252 21.1438 162.424 21.2752 162.507 21.4777C162.587 21.6803 162.612 21.861 162.579 22.0225C162.545 22.2169 162.501 22.4387 162.443 22.6878C162.385 22.9369 162.33 23.1942 162.272 23.4625C162.214 23.7281 162.158 23.9854 162.1 24.2373C162.042 24.4864 161.998 24.7 161.965 24.8779C162.111 24.9272 162.233 25.0038 162.332 25.1079C162.429 25.2119 162.479 25.3542 162.479 25.5322C162.479 25.7594 162.407 25.9428 162.261 26.0879C162.114 26.233 161.926 26.3042 161.699 26.3042H151.705V27.5608C151.705 27.8017 151.801 27.9879 151.998 28.1165C152.194 28.2452 152.438 28.3109 152.731 28.3109H158.106C158.349 28.3109 158.598 28.2917 158.85 28.2507C159.102 28.2096 159.334 28.1658 159.547 28.1165C159.757 28.0673 159.942 28.0235 160.097 27.9824C160.252 27.9413 160.363 27.9222 160.427 27.9222C160.637 27.9222 160.877 27.9331 161.149 27.9577C161.417 27.9824 161.674 28.0152 161.918 28.0536C162.161 28.0946 162.382 28.1357 162.576 28.174C162.772 28.2151 162.911 28.2425 162.991 28.2589C163.104 28.3082 163.187 28.4012 163.234 28.5381C163.284 28.675 163.309 28.8365 163.309 29.0227C163.309 29.2089 163.281 29.395 163.223 29.5784C163.165 29.7646 163.096 29.9206 163.016 30.0493H157.151L157.126 31.0403C157.11 31.169 157.085 31.3415 157.055 31.5605C157.021 31.7768 156.983 31.9985 156.933 32.2257H161.281C161.575 32.2257 161.835 32.1984 162.064 32.1409C162.291 32.0834 162.504 32.0231 162.7 31.9602C162.897 31.8972 163.068 31.8343 163.215 31.7795C163.361 31.722 163.5 31.6946 163.63 31.6946C163.81 31.6946 164.061 31.7138 164.388 31.7549C164.714 31.7959 165.038 31.8479 165.364 31.9109C165.691 31.9766 165.978 32.045 166.233 32.1162C166.485 32.1874 166.628 32.2586 166.662 32.3216C166.725 32.4338 166.767 32.5762 166.783 32.7459C166.8 32.9156 166.794 33.0799 166.772 33.2414C166.747 33.4029 166.714 33.5562 166.675 33.7013C166.634 33.8464 166.59 33.9504 166.54 34.0162H150.488C150.308 34.0162 150.084 34.0353 149.815 34.0764C149.547 34.1174 149.281 34.164 149.021 34.2215C148.761 34.279 148.529 34.3255 148.324 34.3666C148.12 34.4076 147.987 34.4268 147.92 34.4268C147.79 34.4268 147.602 34.3912 147.359 34.3173C147.116 34.2461 146.833 34.1476 146.515 34.0271C146.197 33.9066 145.868 33.7616 145.525 33.5918C145.182 33.4221 144.856 33.2496 144.548 33.0717C144.548 33.0087 144.56 32.9156 144.584 32.7924C144.609 32.672 144.643 32.5515 144.681 32.4283C144.723 32.3079 144.767 32.2038 144.817 32.1135C144.867 32.0259 144.922 31.9793 144.988 31.9793C145.102 31.9793 145.376 31.9903 145.807 32.0149C146.239 32.0396 146.728 32.067 147.273 32.0998C147.818 32.1327 148.385 32.16 148.972 32.1847C149.558 32.2093 150.062 32.2203 150.488 32.2203H154.568C154.534 32.0259 154.51 31.837 154.496 31.6508C154.479 31.4647 154.471 31.3086 154.471 31.18L154.446 30.0438H151.221C150.831 30.0438 150.49 29.9863 150.205 29.8741L150.2 29.885ZM162.637 37.3095C162.612 37.5203 162.592 37.7366 162.576 37.9611L162.454 40.6933C162.438 40.967 162.396 41.249 162.332 41.5392C162.266 41.8294 162.189 42.1086 162.1 42.3742C162.012 42.6397 161.918 42.8779 161.818 43.0887C161.721 43.2968 161.622 43.4528 161.525 43.5486H160.18C160.131 43.4665 160.078 43.3351 160.023 43.1489C159.965 42.9628 159.909 42.7547 159.851 42.5193C159.793 42.2866 159.746 42.0402 159.705 41.7828C159.663 41.5255 159.644 41.2819 159.644 41.0574V37.8406H153.071C152.858 37.8406 152.634 37.8571 152.399 37.8899C152.164 37.9228 151.943 37.9611 151.738 38.0104C151.533 38.0597 151.356 38.098 151.201 38.1308C151.046 38.1637 150.944 38.1801 150.897 38.1801C150.767 38.1801 150.568 38.1308 150.299 38.035C150.031 37.9392 149.749 37.8215 149.456 37.6846C149.163 37.5477 148.886 37.4136 148.626 37.2849C148.366 37.1562 148.186 37.0522 148.089 36.9701C148.089 36.7456 148.131 36.5184 148.211 36.2939C148.291 36.0694 148.391 35.9544 148.504 35.9544C148.568 35.9544 148.792 35.9626 149.176 35.979C149.558 35.9955 149.99 36.0064 150.471 36.0146C150.952 36.0228 151.436 36.0338 151.926 36.0502C152.416 36.0666 152.797 36.0749 153.074 36.0749H158.767C158.897 36.0749 159.052 36.0639 159.232 36.0393C159.411 36.0146 159.594 35.9873 159.782 35.9544C159.97 35.9216 160.136 35.8942 160.283 35.8695C160.429 35.8449 160.534 35.8339 160.601 35.8339C160.811 35.8339 161.077 35.8586 161.395 35.9079C161.713 35.9571 161.937 35.9955 162.067 36.0283C162.197 36.0612 162.332 36.1241 162.471 36.2227C162.609 36.3185 162.678 36.4718 162.678 36.6826C162.678 36.8934 162.667 37.1015 162.642 37.3123L162.637 37.3095Z" fill="white"/>
<path d="M195.884 17.248H176.227C173.952 17.248 172.108 19.0731 172.108 21.3244V40.7781C172.108 43.0294 173.952 44.8544 176.227 44.8544H195.884C198.159 44.8544 200.003 43.0294 200.003 40.7781V21.3244C200.003 19.0731 198.159 17.248 195.884 17.248Z" fill="white"/>
<path d="M182.858 26.1326C182.764 26.2257 182.543 26.2586 182.191 26.2312C181.815 26.7103 181.331 27.3153 180.739 28.0463C180.147 28.7635 179.588 29.4424 179.065 30.0831L181.749 29.8449C181.602 29.593 181.466 29.3795 181.345 29.207C181.198 28.9798 181.049 28.7936 180.902 28.6485L181.024 28.4897C181.4 28.717 181.743 28.9825 182.053 29.2891C182.363 29.5821 182.645 29.9407 182.899 30.3678C182.98 30.6607 183.007 30.9071 182.98 31.1069C182.952 31.2657 182.886 31.3725 182.778 31.4272C182.67 31.4683 182.562 31.4409 182.454 31.3478C182.332 31.2411 182.252 31.0878 182.213 30.8879C182.186 30.7812 182.147 30.6607 182.092 30.5293C182.039 30.4088 181.978 30.2774 181.909 30.1296L180.457 30.428C179.785 30.5621 179.306 30.6607 179.024 30.7264C178.567 30.8332 178.224 30.9399 177.995 31.0467C177.834 31.419 177.693 31.6134 177.572 31.6244C177.45 31.6353 177.323 31.4519 177.187 31.0659L176.966 30.3267C177.195 30.2856 177.464 30.2473 177.774 30.2063C178.003 30.1789 178.305 30.1542 178.681 30.1269C179.018 29.541 179.414 28.884 179.87 28.1503C180.152 27.6849 180.576 27.0251 181.14 26.1737L181.845 25.0759L182.612 25.6152C182.88 25.8534 182.96 26.0286 182.852 26.1354L182.858 26.1326ZM193.646 32.4593L194.916 33.3983C195.076 33.5325 195.098 33.6365 194.977 33.7186C194.883 33.7844 194.728 33.8172 194.512 33.8172H186.991C187.865 35.0546 188.955 36.0402 190.257 36.7711C191.588 37.5021 193.215 38.0085 195.137 38.2878V38.4876C194.517 38.4739 194.047 38.5342 193.726 38.6683C193.458 38.7751 193.289 38.9421 193.223 39.1666C191.771 38.7012 190.468 38.0031 189.311 37.0723C188.155 36.1552 187.234 35.0628 186.548 33.798H186.346V38.7066L186.388 39.0872C186.429 39.287 186.435 39.4266 186.407 39.506C186.354 39.6402 186.205 39.7716 185.964 39.9057C185.641 40.0645 185.439 40.1193 185.359 40.0645C185.306 40.0371 185.284 39.9304 185.298 39.7442V34.3565C184.061 35.7938 182.717 36.9655 181.265 37.8689C179.934 38.6793 178.562 39.2514 177.151 39.5854L177.029 39.4047C178.321 38.9393 179.624 38.2139 180.941 37.2283C182.299 36.2181 183.455 35.0793 184.41 33.8145H179.267L177.453 33.9349L177.292 33.4148L178.905 33.4942H185.298V31.1179L186.327 31.3561C186.797 31.4628 187.018 31.5833 186.993 31.7147C186.98 31.8351 186.764 31.9611 186.349 32.0952V33.4914H192.661L193.649 32.4539L193.646 32.4593ZM181.223 23.1979C181.17 23.2499 180.974 23.2964 180.639 23.3375L180.62 23.3567C180.512 23.4771 180.379 23.6496 180.216 23.8768C180.122 24.0219 179.967 24.2574 179.751 24.5749C179.536 24.9089 179.367 25.1608 179.248 25.3332C179.074 25.5988 178.924 25.8123 178.805 25.9711C178.993 26.1299 179.168 26.2914 179.331 26.4502C179.505 26.6364 179.66 26.8307 179.796 27.0278C179.89 27.2797 179.923 27.5206 179.895 27.7451C179.868 27.9586 179.801 28.0983 179.693 28.164C179.585 28.2434 179.472 28.2242 179.35 28.1037C179.215 27.9696 179.11 27.7451 179.027 27.4248C178.974 27.1729 178.764 26.8253 178.401 26.3872C177.998 25.9082 177.583 25.5632 177.151 25.3497L177.273 25.1909C177.502 25.2703 177.715 25.3579 177.917 25.451C178.147 25.5577 178.36 25.6782 178.562 25.8096L178.966 24.8104C179.248 24.1588 179.45 23.6852 179.572 23.3923C179.787 22.8858 179.962 22.5217 180.097 22.2945L180.783 22.675C181.159 22.9269 181.309 23.1021 181.226 23.1951L181.223 23.1979ZM187.596 23.7372L188.302 24.397C188.598 24.6242 188.725 24.7885 188.686 24.8952C188.659 24.9883 188.493 25.054 188.183 25.0951V30.4636L188.202 30.7428C188.23 30.9153 188.23 31.0412 188.202 31.1234C188.15 31.2438 188.014 31.3561 187.798 31.4628C187.502 31.5833 187.32 31.6161 187.253 31.5614C187.201 31.534 187.187 31.4355 187.212 31.263L187.231 31.0631V30.7839H184.529V30.9837L184.548 31.2219C184.576 31.3424 184.562 31.4272 184.507 31.482C184.454 31.5614 184.299 31.649 184.042 31.7421C183.76 31.8215 183.585 31.816 183.516 31.7229C183.464 31.6709 183.45 31.5313 183.475 31.304L183.516 31.0248V24.7173L183.455 23.8002L184.565 24.3778H185.251L185.635 22.0234L186.382 22.2233C186.786 22.3301 186.988 22.4505 186.988 22.5819C186.988 22.7024 186.8 22.8091 186.424 22.9022L186.302 23.1212C186.141 23.4142 186.02 23.6332 185.939 23.781C185.818 24.0082 185.71 24.1999 185.616 24.3586H186.908L187.594 23.7399L187.596 23.7372ZM184.531 27.329H187.193V24.6954H184.531V27.329ZM184.531 30.4636H187.193V27.6493H184.531V30.4636ZM194.576 25.6536C194.523 25.7466 194.307 25.7986 193.931 25.8123L190.523 29.8832L193.466 29.645C193.372 29.4999 193.264 29.3384 193.143 29.1659C193.062 29.0729 192.955 28.9332 192.819 28.7471L192.517 28.3474L192.598 28.1475C193.054 28.3994 193.511 28.7799 193.97 29.2864C194.332 29.6998 194.589 30.0502 194.736 30.3431C194.764 30.6087 194.742 30.8551 194.675 31.0823C194.623 31.2685 194.534 31.3944 194.412 31.4628C194.304 31.5148 194.205 31.4902 194.111 31.3834C194.003 31.2493 193.937 31.0303 193.909 30.7237C193.881 30.5895 193.842 30.4581 193.787 30.324C193.746 30.2172 193.693 30.0913 193.627 29.9434L189.693 30.7812C189.571 31.2082 189.439 31.419 189.289 31.419C189.14 31.419 189.007 31.2 188.885 30.7593L188.684 30.0995L189.408 30.0009L189.992 29.9407L193.461 24.6516L194.166 25.0896C194.504 25.3415 194.636 25.5276 194.57 25.6481L194.576 25.6536ZM192.578 23.4388C192.564 23.5729 192.363 23.6304 191.973 23.6195C191.69 24.0055 191.447 24.345 191.248 24.6379C190.924 25.065 190.65 25.4236 190.421 25.7165C190.595 25.8507 190.75 25.9903 190.885 26.1354C191.021 26.2695 191.121 26.3955 191.187 26.5159C191.347 27.047 191.314 27.3728 191.087 27.4932C190.858 27.6274 190.636 27.3947 190.421 26.7951C190.34 26.5679 190.18 26.3215 189.937 26.056C189.668 25.7357 189.311 25.4099 188.869 25.0786L188.991 24.898C189.165 24.95 189.367 25.0431 189.596 25.1772C189.771 25.2703 189.973 25.3962 190.202 25.5577L190.706 24.3012C190.88 23.8741 191.007 23.5702 191.09 23.384C191.226 23.0501 191.353 22.7845 191.475 22.5847L192.221 23.0227C192.476 23.1951 192.598 23.3348 192.584 23.4415L192.578 23.4388Z" fill="#212A52"/>
</g>
<g clip-path="url(#clip1_344_2080)">
<path d="M44.0575 16.8719C42.5527 15.3771 40.5472 14.5586 38.4144 14.5586H21.9527C19.8172 14.5586 17.8144 15.3771 16.3041 16.8719L4.66387 28.3919C3.15351 29.8867 2.32642 31.8687 2.32642 33.9822V50.2739C2.32642 52.3819 3.15351 54.3694 4.66387 55.8587L16.3041 67.3787C17.8144 68.8734 19.8172 69.6947 21.9527 69.6947H38.4144C40.5499 69.6947 42.5527 68.8707 44.0575 67.3787L55.6977 55.8587C57.2081 54.3694 58.038 52.3819 58.038 50.2739V33.9822C58.038 31.8714 57.2053 29.8867 55.6977 28.3919L44.0575 16.8719ZM56.7461 50.2739C56.7461 52.0397 56.049 53.7041 54.7849 54.9552L43.1447 66.4753C41.8805 67.7264 40.1986 68.4162 38.4144 68.4162H21.9527C20.163 68.4162 18.4811 67.7236 17.2197 66.4753L5.57948 54.9552C4.31532 53.7041 3.621 52.0397 3.621 50.2739V33.9822C3.621 32.2109 4.31532 30.5464 5.57948 29.2981L17.2197 17.7781C18.4839 16.527 20.1657 15.8398 21.9527 15.8398H38.4144C40.1986 15.8398 41.8805 16.527 43.1447 17.7781L54.7849 29.2981C56.049 30.5492 56.7461 32.2136 56.7461 33.9822V50.2739Z" fill="white"/>
<path d="M60.3643 50.9702V33.285C60.3643 31.0101 59.4708 28.8692 57.8471 27.2595L54.6051 24.051L54.1486 24.5027L57.4681 21.2175C59.0061 19.6981 59.0061 17.2233 57.4681 15.7039C55.9328 14.1818 53.4322 14.1818 51.8969 15.7039L49.0311 18.5374L45.211 14.7512C43.5817 13.1415 41.4213 12.2545 39.1198 12.2545H38.2484C38.2318 11.759 38.1959 11.2552 38.1406 10.7433C37.579 4.29067 36.0106 -0.00195312 30.1739 -0.00195312C24.3371 -0.00195312 22.7659 4.29067 22.2099 10.7241C22.1491 11.2498 22.1159 11.7535 22.0937 12.2517H21.2501C18.9513 12.2517 16.7881 13.1387 15.1616 14.7485L11.9196 17.957L9.05658 15.1208C7.52133 13.6014 5.02068 13.6014 3.48543 15.1208C1.94741 16.6429 1.94741 19.115 3.48543 20.6371L6.34846 23.4706L2.52279 27.254C0.896253 28.8638 0 31.0046 0 33.2796V50.9647C0 53.2425 0.896253 55.3806 2.52279 56.993L5.76479 60.1988L2.89899 63.0323C1.36374 64.5544 1.36374 67.0292 2.89899 68.5486C3.66523 69.3069 4.6749 69.6875 5.68457 69.6875C6.69424 69.6875 7.70667 69.3069 8.47291 68.5486L11.3359 65.7151L15.1588 69.4958C16.7854 71.1083 18.9486 71.9953 21.2473 71.9953H39.117C41.4185 71.9953 43.5789 71.1083 45.2082 69.4958L48.4447 66.2928L47.9883 65.8411L51.3077 69.1263C52.0795 69.8846 53.0892 70.2706 54.0961 70.2706C55.103 70.2706 56.1126 69.8873 56.8816 69.1263C58.4169 67.6069 58.4169 65.132 56.8816 63.6126L54.0186 60.7764L57.8415 56.9958C59.4681 55.3833 60.3588 53.2452 60.3588 50.9675L60.3643 50.9702ZM52.8098 16.6073C53.8388 15.5834 55.5207 15.5834 56.5525 16.6073C57.587 17.6285 57.587 19.2902 56.5525 20.3114L53.6894 23.1448L49.9468 19.4408L52.8098 16.6073ZM23.4935 10.8528C24.1048 3.78694 25.8558 1.282 30.1711 1.282C34.4864 1.282 36.2319 3.78694 36.8487 10.8692C36.9013 11.3483 36.9345 11.8028 36.9511 12.2572H23.3828C23.4049 11.8055 23.4354 11.3401 23.4907 10.8528H23.4935ZM4.39828 19.7364C3.36372 18.7126 3.36372 17.0536 4.39828 16.0297C5.43284 15.0058 7.1064 15.0085 8.14097 16.0297L11.004 18.8659L7.26131 22.5699L4.39828 19.7364ZM7.55729 67.6479C6.52273 68.6691 4.84641 68.6691 3.81184 67.6479C2.78004 66.6241 2.78004 64.965 3.81184 63.9439L6.67764 61.105L10.4203 64.809L7.55729 67.6452V67.6479ZM55.9716 64.5215C57.0006 65.5427 57.0006 67.2044 55.9716 68.2256C54.937 69.2495 53.2607 69.2467 52.2289 68.2256L49.3631 65.3921L53.1085 61.6881L55.9716 64.5215ZM44.2926 68.5952C42.9123 69.964 41.0755 70.7196 39.1198 70.7196H21.2501C19.2971 70.7196 17.4603 69.964 16.0772 68.5952L3.44117 56.0896C2.06083 54.7235 1.29735 52.9057 1.29735 50.9702V33.285C1.29735 31.3523 2.06083 29.5345 3.44117 28.1657L16.0772 15.6601C17.4603 14.294 19.2971 13.5384 21.2501 13.5384H39.1198C41.0783 13.5384 42.915 14.294 44.2926 15.6601L56.9287 28.1657C58.3118 29.5345 59.0725 31.3523 59.0725 33.285V50.9702C59.0725 52.9085 58.3145 54.7263 56.9287 56.0896L44.2926 68.5952Z" fill="white"/>
<path d="M25.7645 19.9883H23.5266C22.4865 19.9883 21.499 20.377 20.7549 21.0806L9.43002 31.5466C8.63611 32.294 8.17969 33.348 8.17969 34.4321V37.5037C8.17969 39.702 9.98603 41.4897 12.2073 41.4897H25.7673C27.9885 41.4897 29.7949 39.702 29.7949 37.5037V23.9688C29.7949 21.7705 27.9885 19.9883 25.7673 19.9883H25.7645ZM28.4975 37.5037C28.4975 38.9985 27.2721 40.2085 25.7645 40.2085H12.2045C10.6997 40.2085 9.47151 38.9957 9.47151 37.5037V34.4321C9.47151 33.6984 9.78133 32.9811 10.3152 32.4774L21.6401 22.0114C22.1491 21.5323 22.8157 21.2695 23.5239 21.2695H25.7617C27.2721 21.2695 28.4948 22.4823 28.4948 23.9715V37.5065L28.4975 37.5037Z" fill="white"/>
<path d="M51.2745 37.724C50.6051 40.0263 49.0892 40.3302 46.8292 40.2015C43.5872 40.2015 36.3757 40.2015 35.1171 40.2015C33.7644 40.2672 32.3508 39.2516 32.1683 37.8472C32.0549 37.1299 32.1434 36.6727 32.1157 35.9253C32.1157 32.7168 32.1157 25.4511 32.1157 24.2082C32.1157 21.0298 35.6122 20.934 38.005 21.4651C38.3701 21.591 38.6633 21.7964 38.951 21.7608C39.4351 21.7334 39.8445 21.101 39.4628 20.7889C38.0133 19.6802 35.615 19.9129 33.8833 20.1428C30.882 20.923 30.6635 23.6525 30.8184 26.3135C30.8184 29.7875 30.8184 36.1142 30.8184 37.264C30.7437 39.1448 32.16 41.0639 34.1129 41.3815C37.7256 41.6552 42.5167 41.4006 46.0408 41.4855C47.6563 41.4252 48.8651 41.7291 50.3589 40.99C51.4571 40.7463 53.8056 36.9821 51.3852 37.6254L51.2773 37.7267L51.2745 37.724Z" fill="white"/>
<path d="M49.5263 42.9648H31.4906C31.1365 42.9648 30.8433 43.2496 30.8433 43.6055C30.8433 43.9613 31.1365 44.2461 31.4906 44.2461H49.5263C50.4281 44.2461 51.1639 44.9715 51.1639 45.8667V47.6763C51.1639 48.5688 50.4253 49.297 49.5263 49.297H33.7754C32.16 49.297 30.8433 50.5974 30.8433 52.1989V60.9238C30.8433 62.5198 32.1572 63.8257 33.7754 63.8257H37.875C38.6467 63.8257 39.4019 63.5136 39.9496 62.9715L47.2358 55.7606C47.4848 55.5142 47.4848 55.109 47.2358 54.8572C46.9813 54.6108 46.572 54.6108 46.323 54.8572L39.0313 62.0681C38.7297 62.372 38.3065 62.5472 37.875 62.5472H33.7754C32.8737 62.5472 32.1378 61.8162 32.1378 60.9265V52.2016C32.1378 51.3064 32.8764 50.581 33.7754 50.581H49.5263C51.1417 50.581 52.4585 49.2806 52.4585 47.6791V45.8695C52.4585 44.2707 51.1445 42.9676 49.5263 42.9676V42.9648Z" fill="white"/>
<path d="M11.1119 44.2422H29.1476C29.5044 44.2422 29.7949 43.952 29.7949 43.6015C29.7949 43.2511 29.5072 42.9609 29.1476 42.9609H11.1119C9.4964 42.9609 8.17969 44.2613 8.17969 45.8628V47.6724C8.17969 49.2712 9.49364 50.5743 11.1119 50.5743H26.8627C27.7645 50.5743 28.5003 51.2998 28.5003 52.195V60.9199C28.5003 61.8123 27.7617 62.5406 26.8627 62.5406H22.7632C22.3289 62.5406 21.9139 62.3708 21.6069 62.0615L14.3207 54.8505C14.0662 54.6041 13.6568 54.6041 13.4078 54.8505C13.1533 55.1024 13.1533 55.5076 13.4078 55.7539L20.694 62.9649C21.2473 63.5152 21.9831 63.819 22.7632 63.819H26.8627C28.4782 63.819 29.7949 62.5132 29.7949 60.9171V52.1923C29.7949 50.5935 28.4809 49.2904 26.8627 49.2904H11.1119C10.2101 49.2904 9.47428 48.5594 9.47428 47.6697V45.8601C9.47428 44.9649 10.2129 44.2394 11.1119 44.2394V44.2422Z" fill="white"/>
</g>
<defs>
<clipPath id="clip0_344_2080">
<rect width="126.695" height="37.763" fill="white" transform="translate(73.3047 17.248)"/>
</clipPath>
<clipPath id="clip1_344_2080">
<rect width="60.3643" height="72" fill="white"/>
</clipPath>
</defs>
</svg>
