<svg width="48" height="36" viewBox="0 0 48 36" fill="none" xmlns="http://www.w3.org/2000/svg">
<path d="M28.4 17.6594L20.7 22.1664V13.1523L28.4 17.6594Z" fill="white" stroke="white" stroke-width="3.5" stroke-linecap="round" stroke-linejoin="round"/>
<path d="M2 19.2556V16.0647C2 9.54072 2 6.27762 3.991 4.17959C5.9842 2.07931 9.1214 1.98917 15.3936 1.80664C18.3636 1.721 21.3996 1.66016 24 1.66016C26.6004 1.66016 29.6342 1.721 32.6064 1.80664C38.8786 1.98917 42.0158 2.07931 44.0068 4.17959C45.9978 6.27987 46 9.54297 46 16.0647V19.2534C46 25.7796 46 29.0404 44.009 31.1407C42.0158 33.2387 38.8808 33.3311 32.6064 33.5114C29.6364 33.5993 26.6004 33.6602 24 33.6602C21.3996 33.6602 18.3658 33.5993 15.3936 33.5114C9.1214 33.3311 5.9842 33.241 3.991 31.1407C1.9978 29.0404 2 25.7773 2 19.2556Z" stroke="white" stroke-width="3"/>
</svg>
