<svg width="144" height="40" viewBox="0 0 144 40" fill="none" xmlns="http://www.w3.org/2000/svg">
<g clip-path="url(#clip0_480_3048)">
<path d="M51.9441 10.388V7.66575H66.5823V10.388H60.3504L66.8392 18.3313L64.6382 20.1669L59.3756 13.5991L54.2005 20.5991L51.9131 18.7613L58.4042 10.388H51.9441ZM72.2149 27.0546C72.2198 27.8918 72.0389 28.7196 71.6854 29.478C71.3388 30.2255 70.8591 30.9033 70.2698 31.478C69.6611 32.0624 68.9468 32.5247 68.1651 32.8402C66.5094 33.5106 64.659 33.5106 63.0033 32.8402C62.2177 32.526 61.4995 32.0635 60.8876 31.478C60.2983 30.9038 59.8192 30.2259 59.4742 29.478C59.1254 28.7182 58.9448 27.8917 58.9448 27.0552C58.9448 26.2187 59.1254 25.3922 59.4742 24.6324C59.8186 23.8842 60.2978 23.2061 60.8876 22.6324C61.4993 22.0465 62.2175 21.584 63.0033 21.2702C64.6592 20.6007 66.5092 20.6007 68.1651 21.2702C68.947 21.5853 69.6614 22.0477 70.2698 22.6324C70.8596 23.2066 71.3394 23.8845 71.6854 24.6324C72.0388 25.3904 72.2196 26.2178 72.2149 27.0546ZM69.1011 27.0224C69.1059 26.5613 69.0155 26.1041 68.8358 25.6796C68.656 25.2551 68.3907 24.8725 68.0566 24.5557C67.731 24.2231 67.3416 23.9601 66.912 23.7825C66.4823 23.6049 66.0212 23.5164 65.5565 23.5224C64.6311 23.5224 63.7436 23.8912 63.0893 24.5475C62.4349 25.2039 62.0673 26.0942 62.0673 27.0224C62.0673 27.9507 62.4349 28.8409 63.0893 29.4973C63.7436 30.1537 64.6311 30.5224 65.5565 30.5224C66.0204 30.5291 66.4808 30.4424 66.9106 30.2674C67.3405 30.0924 67.7309 29.8326 68.0588 29.5035C68.395 29.1854 68.6613 28.8004 68.8408 28.3732C69.0203 27.946 69.109 27.4859 69.1011 27.0224ZM71.2146 20.4835V14.948H66.4693V12.1891H71.2146V6.91797H74.3904V20.4835H71.2146Z" fill="#464749" stroke="#464749" stroke-width="0.4"/>
<path d="M78.1466 23.0941H101.589V25.9041H91.4422V32.5007H88.2665V25.9041H78.1444L78.1466 23.0941ZM83.1479 10.5896H96.5576V7.34961H99.7001V19.6541H80.0341V7.34961H83.1489L83.1479 10.5896ZM96.5576 13.3418H83.1489V16.8696H96.5587L96.5576 13.3418Z" fill="#464749" stroke="#464749" stroke-width="0.4"/>
<path d="M121.917 32.8182H105.878V29.226L115.032 20.6771C115.169 20.5449 115.329 20.3971 115.494 20.2382C116.843 18.9638 118.884 17.0382 118.884 14.7005C118.884 12.2838 117.627 9.45935 114.087 9.45935C111.263 9.45935 109.366 11.2705 109.01 14.3016L108.926 14.916L105.884 14.4649L105.982 13.8227C107.015 7.36157 111.92 6.66602 113.98 6.66602C118.801 6.66602 121.915 9.88824 121.915 14.8771C121.915 18.066 119.786 20.1682 118.074 21.856L117.788 22.1382L109.358 30.0271H121.915V32.8205L121.917 32.8182Z" fill="#464749" stroke="#464749" stroke-width="0.4"/>
<path d="M141.08 25.197H138.242V7.02148H135.554L123.788 24.7715V27.9937H135.382V32.8193H138.242V27.9915H141.581V25.197H141.08ZM126.902 25.197L135.382 12.1637V25.197H126.902Z" fill="#464749" stroke="#464749" stroke-width="0.4"/>
<path d="M31.886 19.0899C31.0826 18.5305 30.1739 18.1414 29.2154 17.9465C28.2569 17.7517 27.2689 17.7551 26.3118 17.9566C25.3546 18.158 24.4486 18.5534 23.6491 19.1183C22.8496 19.6832 22.1734 20.4059 21.662 21.2421C20.9113 22.418 19.8367 23.3505 18.5686 23.9264C17.3004 24.5024 15.8929 24.6973 14.5166 24.4874C13.1403 24.2776 11.8542 23.672 10.8139 22.744C9.77367 21.816 9.02393 20.6054 8.65548 19.2587L8.63554 19.1821L8.61007 19.091C8.33711 18.1605 8.21188 17.1927 8.23899 16.2232C8.23899 9.7543 14.8541 2.55653 24.3836 2.55653C28.0152 2.58549 31.5549 3.70491 34.5463 5.77047C37.5378 7.83602 39.8439 10.753 41.1674 14.1454L41.0931 13.9232C39.5147 9.3083 36.3555 5.40465 32.1774 2.90664C27.9993 0.408629 23.0734 -0.521778 18.2757 0.280922C13.4781 1.08362 9.1198 3.56738 5.97619 7.29039C2.83258 11.0134 1.10745 15.7342 1.10767 20.6132C1.10767 30.7887 8.41844 39.5021 18.5671 39.5021C22.0354 39.6159 25.4512 38.6302 28.329 36.6852C31.2069 34.7401 33.4003 31.9347 34.5976 28.6676C35.3026 26.9997 35.4181 25.1401 34.9249 23.3973C34.4317 21.6545 33.3595 20.1331 31.886 19.0854" fill="#002C52"/>
<path d="M41.2947 14.5469C40.0359 11.0533 37.7404 8.03033 34.7171 5.8849C31.6938 3.73946 28.0879 2.57453 24.3847 2.54688C14.8585 2.54688 8.24005 9.7491 8.24005 16.2135C8.2122 17.1828 8.33592 18.1505 8.60669 19.0813C8.48461 18.6004 8.42138 18.1064 8.41839 17.6102C8.41839 10.8724 15.141 6.20465 22.053 6.20465C26.5478 6.20465 30.8585 7.99572 34.0368 11.1838C37.2151 14.372 39.0007 18.696 39.0007 23.2047C39.003 26.6924 38.0349 30.1115 36.2054 33.0774C34.3759 36.0433 31.7575 38.4381 28.6448 39.9924C32.6148 38.5496 36.0455 35.9156 38.4707 32.4484C40.8959 28.9812 42.1979 24.849 42.1997 20.6135C42.2046 18.5571 41.8995 16.5118 41.2947 14.5469Z" fill="#E5002B"/>
</g>
<defs>
<clipPath id="clip0_480_3048">
<rect width="144" height="40" fill="white"/>
</clipPath>
</defs>
</svg>
