<svg width="100" height="41" viewBox="0 0 100 41" fill="none" xmlns="http://www.w3.org/2000/svg">
<path d="M63.4425 0.608279C63.3887 0.561995 63.3252 0.528287 63.2566 0.509619C62.964 0.450919 62.6802 0.665722 62.2381 1.02167L61.9041 1.28395C60.706 1.93715 59.7955 4.99829 59.5946 6.25722L59.469 6.32842C59.1211 5.65585 58.6302 5.06662 58.0303 4.60164C57.4305 4.13665 56.7361 3.80705 55.9954 3.6357C56.5479 5.8126 58.4141 12.3858 60.8931 11.8175C62.149 11.5302 64.7862 6.07239 64.8126 3.07494V2.96128C64.7963 1.37138 64.0817 0.799366 63.4425 0.608279Z" fill="#FF7F15"/>
<path d="M80.188 34.084C77.0748 34.2176 76.0437 34.0503 72.9858 35.0756C72.5388 35.2409 72.1472 35.5273 71.8555 35.9024C71.902 36.5619 71.5177 37.6047 72.118 37.8545C72.1468 37.8545 72.1469 37.9569 72.1758 38.0119C72.3503 38.193 72.5324 38.223 72.7107 38.4503C72.8263 38.6189 72.9167 38.4353 73.0422 38.5015C73.1 38.5602 73.1289 38.6651 73.188 38.6788C73.4894 38.8237 73.7619 38.7663 74.0595 38.9111C74.1934 38.9998 74.3522 39.0436 74.5129 39.036C74.6033 39.001 74.7238 39.2196 74.7515 39.2721C75.2975 39.4048 75.8669 39.4104 76.4154 39.2883C78.141 39.2608 77.817 39.0872 79.5412 39.0572C80.993 39.036 82.4121 39.2633 83.8626 39.2408C84.6513 39.2146 85.5077 39.2408 86.2889 39.1846C87.6803 39.101 89.0756 39.3208 90.4696 39.337C91.1653 39.3195 91.9766 39.6005 92.6786 39.6555C93.4211 39.5634 94.1713 39.5508 94.9165 39.618C95.1651 39.6024 95.4144 39.6359 95.6499 39.7167C95.8602 39.8431 96.093 39.9279 96.3356 39.9665C96.9984 39.9592 97.651 39.8029 98.2445 39.5094C98.6391 39.4234 99.0196 39.2825 99.3747 39.091C99.5931 38.9322 99.7401 38.6945 99.7841 38.429C100.013 37.881 100.061 37.275 99.9223 36.698C99.8859 36.698 99.7967 36.7405 99.764 36.6855C99.7 36.5794 99.7138 36.3346 99.6234 36.3246C99.3509 36.2361 99.0727 36.166 98.7908 36.1147C98.4216 36.0361 98.0373 35.865 97.6769 35.7875C91.9153 34.666 86.0589 34.0956 80.188 34.084Z" fill="#00A475"/>
<path d="M50.0553 35.258C50.3693 35.3292 50.7272 35.3205 50.8942 35.5353C51.0637 35.7051 50.7297 35.9774 50.751 36.1997C50.7435 36.7268 50.9357 37.1989 50.9294 37.7284C50.9298 37.78 50.9188 37.8311 50.8971 37.8779C50.8754 37.9248 50.8435 37.9663 50.8038 37.9994C50.7014 38.142 50.5737 38.2647 50.427 38.3616C49.9912 38.6439 49.4224 38.5352 48.92 38.6851C48.2632 38.8653 47.5902 38.9807 46.9107 39.0298C45.7125 39.0586 44.5139 39.0015 43.324 38.8587C42.8635 38.8302 42.402 38.8935 41.9664 39.0448C41.4166 39.1672 40.851 39.2039 40.2899 39.1535C37.3763 39.0448 34.513 38.9811 31.612 39.0073C31.1009 39.0261 30.5458 39.091 30.0372 39.111C27.7038 39.2459 25.3755 39.2034 23.0371 39.2659C22.2233 39.2871 21.4133 39.3133 20.5933 39.2921C20.1412 39.3008 19.6778 39.3133 19.2709 39.3221C17.5479 39.4157 15.7759 39.4957 14.0403 39.4207C13.381 39.4307 12.6714 39.432 12.0084 39.442C10.0709 39.6553 8.12301 39.7608 6.17373 39.7579C4.74805 39.6951 3.35426 39.3175 2.09348 38.6526C1.24082 38.2059 0.519448 37.5466 0 36.7393C0.355161 36.3303 0.844663 36.0599 1.38143 35.9762C2.68374 35.6177 3.8931 35.3867 5.20169 35.1556C6.30934 34.9658 7.32154 34.8721 8.38901 34.7747C20.2744 33.8144 32.2129 33.6859 44.1164 34.39C46.1161 34.5221 48.102 34.8124 50.0553 35.258Z" fill="#4370B5"/>
<path d="M75.2589 21.8461V22.0122C75.3845 22.3394 75.6281 22.4193 75.8868 22.6654H76.6956C76.6956 22.5018 76.8827 22.6654 76.8827 22.5018C77.0015 22.504 77.1187 22.4752 77.2227 22.4182C77.3268 22.3612 77.4139 22.278 77.4755 22.177H77.6086C77.66 22.0587 77.7437 21.9571 77.8503 21.8838C77.9568 21.8105 78.082 21.7684 78.2114 21.7624C78.5417 21.3515 78.8745 20.9443 79.2085 20.5347C79.2041 20.4546 79.2201 20.3747 79.255 20.3025C79.2899 20.2302 79.3426 20.1679 79.4082 20.1213C79.5679 19.3389 79.7901 18.5705 80.0726 17.8232C80.1281 17.5526 80.15 17.2762 80.1379 17.0002C80.2057 17.0002 80.271 17.0002 80.271 16.919C80.2548 16.796 80.271 16.671 80.3179 16.5561C80.3648 16.4412 80.4408 16.3403 80.5385 16.2633C80.6703 16.2633 80.8047 16.2633 80.8713 16.0997V15.9336C81.0644 15.9562 81.2506 16.019 81.4178 16.1177C81.5851 16.2165 81.7296 16.349 81.842 16.5069H82.2803C82.2803 16.673 82.3644 16.673 82.4561 16.7566C82.9479 16.702 83.4453 16.7295 83.928 16.8378C83.928 17.0876 84.2796 17.0002 84.3675 17.245C84.4125 17.5054 84.5017 17.7562 84.6313 17.9868C84.6374 18.0325 84.6324 18.079 84.6169 18.1224C84.6014 18.1659 84.5758 18.205 84.5421 18.2366C84.7166 18.4864 84.8925 18.8948 84.6313 19.1409C84.7167 19.4656 84.6312 19.8765 84.8058 20.205C84.6312 20.3686 84.7167 20.6184 84.7167 20.782C84.8557 21.1526 84.9452 21.5397 84.9829 21.9335C85.3333 22.3431 85.2428 22.834 85.5091 23.2461V23.7357C85.6824 23.7357 85.5091 23.9855 85.6824 23.9855C85.6678 24.5106 85.6098 25.0336 85.5091 25.5492C85.4186 25.6316 85.3333 25.7128 85.2429 25.799V25.9638C85.1562 25.9638 85.0683 25.9638 85.0683 25.8801C84.8937 26.1237 84.6313 26.2923 84.4517 26.5371C84.2796 26.4522 84.1892 26.6158 84.1063 26.6158C83.9293 26.6158 84.1063 26.8656 83.9292 26.8656C83.7681 26.8677 83.6127 26.9255 83.4897 27.0292C83.3151 27.1116 82.7198 26.9467 82.5428 27.1116L82.4561 27.0292C82.413 27.0797 82.3596 27.1207 82.2994 27.1493C82.2392 27.1779 82.1737 27.1936 82.107 27.1953C82.107 27.1116 82.107 27.0292 82.0166 27.0292C81.9532 27.1535 81.8497 27.2531 81.7227 27.3122C81.5957 27.3713 81.4525 27.3864 81.3158 27.3551C81.2392 27.194 81.2706 27.0704 81.0646 26.9942C81.0561 26.5065 80.9431 26.0262 80.7331 25.5854C80.7997 25.5854 80.7997 25.513 80.7997 25.4418C80.7031 25.2278 80.6364 25.0017 80.6013 24.7698C80.3991 24.4776 80.3325 24.0317 80.0663 23.8107C80.1316 23.7345 79.9331 23.662 79.9997 23.5846L79.6657 23.2174C79.5338 23.2174 79.5338 23.2911 79.4685 23.3635C79.4007 23.7382 79.0654 24.0305 79.0013 24.4051L78.9348 24.3277C78.8669 24.5475 78.6685 24.6961 78.6685 24.9209C78.5341 24.9934 78.4689 25.2169 78.3357 25.2956V25.4455C77.8698 25.8901 77.6174 26.6033 77.0573 26.918C76.9204 27.2252 76.5688 27.2927 76.4294 27.6324C76.1561 27.6538 75.8871 27.7118 75.6294 27.8048C75.4586 27.7186 75.1961 27.545 75.0228 27.7186C75.0228 27.6324 74.9349 27.6324 74.8483 27.6324L74.7629 27.7186C74.5883 27.545 74.3258 27.7186 74.0658 27.6324C73.5154 27.2649 72.9329 26.9472 72.3253 26.6832C72.1482 26.6832 72.3253 26.4234 72.1482 26.4234C72.1025 26.4287 72.0562 26.4237 72.0127 26.4088C71.9692 26.3939 71.9297 26.3694 71.897 26.3372C71.897 26.0775 71.9812 25.9039 71.7187 25.7328L71.8053 25.6453C71.8053 25.5592 71.7187 25.5592 71.6346 25.5592C71.5479 25.0433 71.2867 24.61 71.2 24.0954C71.1071 24.0067 71.1071 24.0067 71.0255 23.9218C71.0205 23.6815 70.9599 23.4456 70.8484 23.2324C70.7643 22.8877 71.0657 22.5954 70.8974 22.267C70.8921 22.223 70.8968 22.1784 70.9111 22.1365C70.9255 22.0945 70.9491 22.0563 70.9802 22.0247C70.9243 21.667 70.9536 21.3012 71.0657 20.9568C70.9803 20.9568 70.9802 20.8756 70.9802 20.792C71.1171 20.4827 71.1749 20.1446 71.1485 19.8078C71.2289 19.558 71.3997 19.3157 71.4788 19.0684L71.3972 18.986C71.5592 18.8211 71.4788 18.5726 71.7287 18.409C71.7287 18.3303 71.7287 18.2466 71.6433 18.2466C71.6433 18.0805 71.8079 17.9968 71.8945 17.9157C72.0447 17.5752 72.2472 17.26 72.4948 16.9815L72.4307 16.8865C72.647 16.6757 72.9379 16.5577 73.2408 16.5581C73.5156 16.5911 73.7795 16.685 74.0131 16.8328C74.1086 17.0264 74.0131 17.1813 74.1387 17.4261H74.2643V17.5909C74.2643 17.6734 74.3258 17.6734 74.3899 17.6734C74.4936 17.9045 74.5368 18.158 74.5154 18.4102C74.5154 18.4952 74.5795 18.4952 74.641 18.4952C74.577 18.6563 74.7666 18.8224 74.7666 18.9873C74.641 19.1521 74.7666 19.3981 74.7026 19.6429C74.8897 20.0538 74.8282 20.5484 75.0115 20.9581C75.0271 21.2686 75.1115 21.5719 75.2589 21.8461Z" fill="#231815"/>
<path d="M43.1194 24.8897C43.2761 24.9922 43.4156 25.1186 43.5326 25.2644C43.6182 25.4329 43.7485 25.575 43.9093 25.6753C44.0265 25.7234 44.1398 25.7801 44.2484 25.8452L44.3564 26.0737L44.6264 26.331C44.9127 26.4184 44.9705 26.2473 45.189 26.5533C45.2857 26.5533 45.3799 26.5533 45.3799 26.6407L45.4754 26.5533C45.5777 26.6944 45.7086 26.8127 45.8596 26.9005C46.13 26.9012 46.3901 27.0034 46.588 27.1865C46.681 27.1865 46.6935 27.3851 46.6935 27.2989C46.9874 27.3776 47.1871 27.5824 47.378 27.4038C47.4722 27.4038 47.5688 27.4038 47.5688 27.4912L47.663 27.4038C47.8539 27.3164 47.8954 27.5525 48.0863 27.4638C48.1855 27.4638 48.1854 27.5525 48.1854 27.6411H48.3739C48.5673 27.8147 49.3785 27.5837 49.5757 27.766C50.5261 27.8279 51.4805 27.789 52.4227 27.6499C52.4327 27.4775 52.6989 27.6598 52.7052 27.4937L52.7931 27.5824C53.1548 27.6836 53.5466 27.254 53.8983 27.4363C53.995 27.3601 53.995 27.3601 54.0904 27.2827C54.2776 27.2065 54.5387 27.5574 54.7309 27.3127C54.7309 27.3963 54.8213 27.4001 54.9092 27.4063C54.9092 27.3214 54.9092 27.3214 54.9193 27.2377C55.2018 27.0829 55.5472 27.1253 55.7544 26.8943C55.8448 26.9017 56.0269 26.9217 56.1211 26.9317L56.3183 26.7831C56.7942 26.6669 57.2074 26.2835 57.7474 26.1586C57.8303 26.065 58.0112 26.05 58.089 25.8751C58.1807 25.8664 58.2698 25.8576 58.3628 25.8514C58.4457 25.764 58.5323 25.669 58.614 25.5804C58.8965 25.6366 59.1414 25.2394 59.4127 25.197C59.4001 25.1158 59.3851 25.0333 59.4755 25.0171L59.5797 25.0833C59.748 24.9746 59.748 24.9746 59.8095 24.7923C60.0933 24.831 60.2491 24.4751 60.401 24.2802L60.5831 24.2515C60.6572 24.1541 60.6572 24.1541 60.7376 24.0579C60.828 24.0404 60.828 24.0404 60.9184 24.0279C61.1621 23.8169 61.3027 23.5409 61.6468 23.4035C61.6355 23.321 61.6217 23.2374 61.7121 23.2224C61.9043 23.2786 61.8641 23.0263 61.9419 22.9326C62.0185 22.8752 62.2572 22.6991 62.3187 22.779C62.3074 22.9176 62.556 22.4243 62.5422 22.5567C62.6038 22.6429 62.919 21.8073 62.9956 21.7461L62.2321 19.6991C61.9507 20.1113 60.9498 21.4476 60.4148 21.5725C60.4236 22.0047 59.959 22.0259 59.64 22.2719C59.6588 22.3531 59.6814 22.4331 59.5872 22.4593C59.3197 22.518 59.2105 22.8252 59.0271 22.8652C59.0058 22.784 58.9217 22.8052 58.8262 22.8277C58.7559 22.9276 58.5813 22.9701 58.5311 23.1524C58.2623 23.2186 58.1832 23.4884 58.0287 23.6795L57.9233 23.6108C57.6018 23.9168 57.1346 23.8856 56.9186 24.2578C56.3999 24.5075 55.9566 24.5987 55.4204 24.801C55.3299 24.8073 55.2395 24.8135 55.2358 24.7286C55.1554 24.9022 54.7774 24.7598 54.6957 24.9347C54.1754 24.9278 53.6553 24.9641 53.141 25.0433C53.1335 24.8747 52.8672 25.0583 52.8584 24.8922C52.4088 25.0883 51.9517 24.8285 51.4933 24.8285C51.4004 24.7448 51.217 24.7448 51.1254 24.5787C50.9506 24.628 50.7658 24.6309 50.5895 24.5871C50.4133 24.5432 50.2516 24.4542 50.1207 24.3289C49.8457 24.3289 49.6611 24.0792 49.3873 23.993V23.8256L49.2014 23.6583C49.2014 23.4085 49.4777 23.4085 49.6598 23.3235C49.8457 23.0738 50.3392 23.1337 50.5213 22.8814C50.5213 22.7952 50.7725 22.6316 50.7725 22.5492C50.8617 22.3831 50.9282 22.2232 51.0174 22.2232C51.2937 22.0571 51.1153 21.866 51.4808 21.7799C51.4808 21.6974 51.7709 21.4888 51.6755 21.4052C52.0434 21.1554 52.0346 21.0118 52.1263 20.5084C52.3632 20.2771 52.5217 19.978 52.5797 19.6529C52.6713 19.5692 52.5583 19.2033 52.7467 19.1184C52.8346 18.5351 52.5985 18.2241 52.5985 17.6384L52.4164 17.4735C52.4164 17.2237 52.2343 17.0526 52.326 16.8016C52.0535 16.5518 52.1163 16.4694 51.8437 16.2221L51.6842 16.0485H51.5021C51.4092 15.8811 51.1342 15.7987 51.1342 15.6326C50.753 15.5006 50.3851 15.3334 50.0353 15.133L49.9437 15.2167L49.852 15.133L49.6661 15.3004C49.6661 15.0506 49.3936 15.3004 49.3032 15.133C49.116 15.133 48.9352 15.0468 48.7531 15.2167C48.2031 15.0468 47.609 15.3416 47.0577 15.0918C47.0577 15.2579 46.6898 15.0094 46.6898 15.2579C46.5064 15.3391 46.2427 15.3341 46.1498 15.4165H45.876C45.75 15.5773 45.5904 15.7091 45.4083 15.8027C45.2262 15.8962 45.0258 15.9494 44.8211 15.9586C44.6365 15.9586 44.8211 16.2083 44.6365 16.2083H44.4544C44.0389 16.6708 43.5792 17.092 43.0817 17.466C43.0817 17.5472 42.8971 17.6284 42.99 17.8008C42.99 17.8832 42.8971 17.8832 42.8042 17.8832C42.8018 17.949 42.7841 18.0133 42.7525 18.0712C42.7209 18.1291 42.6763 18.1788 42.6221 18.2166C42.6221 18.2991 42.6221 18.3865 42.7138 18.3865C42.7138 18.4652 42.5731 18.6825 42.4827 18.6825C42.3935 19.0147 42.3935 19.3507 42.1172 19.518C42.1172 20.1837 41.9264 20.5059 41.8837 21.2403C41.9444 21.6807 41.9759 22.1247 41.9778 22.5692C42.2642 22.7465 41.9075 22.7365 42.1034 22.9963C42.1964 22.9963 42.1449 23.1524 42.1449 23.2399C42.2403 23.4135 42.5467 23.5384 42.4475 23.712C42.4475 23.7994 42.6095 23.8781 42.6987 23.8781C42.7941 24.0542 42.558 24.2527 42.7527 24.3314C42.7527 24.4201 43.0579 24.3514 42.9574 24.525L43.1194 24.8897ZM49.0985 19.4431C48.9088 19.5318 49.0985 19.7091 48.9088 19.7965L49.0018 19.8827C48.9376 20.3617 48.7726 20.8219 48.5177 21.2334C48.2628 21.6448 47.9237 21.9982 47.5224 22.2707C47.4307 22.2707 47.3353 22.2707 47.3353 22.1858C47.3353 22.0047 47.1519 21.7399 47.2461 21.5613C47.2461 21.4739 47.1519 21.4739 47.059 21.4739C47.2461 21.2953 46.9334 21.1192 47.0288 20.8494C46.9346 20.8494 46.9347 20.762 46.9347 20.6721C47.2122 20.4947 46.9849 20.0376 47.2612 19.864L47.172 19.7766C47.2784 19.5478 47.4204 19.337 47.5927 19.1521V18.9747C47.9793 18.6602 48.4269 18.4281 48.9076 18.2928C49.0005 18.2928 49.0972 18.2928 49.0972 18.379C49.3735 18.7399 49.1901 19.0871 49.0985 19.4431Z" fill="#231815"/>
<path d="M65.03 18.6382C65.0401 18.7556 65.0514 18.8717 65.0652 18.9829C65.6931 19.6074 65.5675 20.6727 65.9857 21.4333C65.786 21.6943 65.9305 22.0278 65.8451 22.2738C65.9706 22.375 65.9707 22.375 66.0862 22.4762C65.9255 23.0806 66.3185 23.6127 66.2645 24.2059L66.0598 24.467C66.0698 24.5794 66.0849 24.6955 66.1992 24.6793L66.0987 24.8042L66.2243 24.9066L66.1264 25.0402C66.2344 25.0252 66.252 25.1414 66.252 25.255C66.056 25.5123 66.424 25.8171 66.1113 26.0881C66.1588 26.1299 66.1964 26.1818 66.2211 26.2399C66.2459 26.2981 66.2573 26.361 66.2544 26.424C65.9443 26.6988 66.1289 27.1934 65.9167 27.5481L66.0297 27.6592L65.9229 27.7841L65.8061 27.673C65.6969 27.673 65.6969 27.7979 65.6981 27.909C65.8237 28.1351 66.046 28.3549 65.8237 28.5959L65.9493 28.7083C65.6716 28.9259 65.4832 29.2368 65.4193 29.5826C65.3151 29.7 65.3151 29.7 65.2146 29.8174C65.2556 29.8608 65.2866 29.9126 65.3054 29.9691C65.3243 30.0256 65.3306 30.0855 65.3239 30.1446C65.1217 30.3794 65.02 30.6067 64.8215 30.8415C64.8215 30.9514 64.9346 31.1688 64.7261 31.2924L64.8341 31.3961C64.7324 31.6234 64.6357 31.9631 64.5402 32.1891C64.6445 32.1891 64.6445 32.2953 64.647 32.4077C64.3368 32.6438 63.9789 32.8973 64.0919 33.3369C63.8935 33.6804 63.6348 33.799 63.4301 34.1425C63.5406 34.3611 63.0533 34.4585 63.0671 34.682C63.0809 34.9056 62.7557 34.8069 62.8675 35.023L62.9742 35.1291C62.8674 35.1291 62.8675 35.1291 62.7657 35.1429C62.6628 35.3689 62.6628 35.3689 62.4606 35.4901C62.4606 35.6025 62.4606 35.7136 62.3576 35.7174C62.1807 35.8865 62.0197 36.0712 61.8766 36.2694C61.9846 36.3743 61.5413 36.6079 61.6455 36.6116C61.5765 36.6622 61.5186 36.7263 61.4754 36.8C61.4322 36.8736 61.4046 36.9553 61.3944 37.04C61.2939 37.04 61.1896 37.0288 61.1771 37.1424V37.2873C61.103 37.3635 61.0854 37.3597 60.9259 37.3972C60.1071 38.3539 58.9166 38.7348 58.0953 39.6865L57.4397 39.9875C57.2187 40.0887 57.2915 40.4234 57.0981 40.2997C57.1069 40.1886 56.8156 40.3934 56.7101 40.3922C56.4815 40.5995 56.1387 40.4484 55.9289 40.4371C55.9365 40.3247 55.8134 40.3497 55.718 40.2348L55.5987 40.336C55.5057 40.2236 55.2709 39.9963 55.1654 39.99C55.0737 39.8764 55.2784 39.7589 55.1767 39.7552L55.2897 39.6491C55.2985 39.5366 55.1277 39.5129 55.0222 39.5042C54.8338 39.2731 55.2357 39.4492 55.1478 39.2232L54.7384 39.1844C54.6405 38.9671 54.4408 38.9609 54.3541 38.7361C54.3755 38.5175 54.8351 38.52 54.8565 38.3002C55.0674 38.3089 55.0059 38.2752 55.2332 38.1753L55.1554 38.0154C55.3814 37.913 55.3462 37.7232 55.4467 37.7294C55.4367 37.8406 55.5258 37.7132 55.6276 37.7194C55.7293 37.7257 55.8373 37.7294 55.8486 37.6183C55.847 37.5581 55.8581 37.4983 55.881 37.4426C55.9039 37.387 55.9382 37.3366 55.9817 37.2948L56.1952 37.306C56.4267 37.1037 56.6371 36.8786 56.8231 36.6341C56.8319 36.5255 56.8319 36.5255 56.8432 36.4131C56.9562 36.3094 56.9688 36.0883 57.1948 35.9872C57.1848 36.0996 57.171 36.2082 57.279 36.2132C57.6118 36.0096 57.4133 35.8872 57.3292 35.6637C57.4447 35.555 57.4448 35.555 57.559 35.4539C57.5502 35.565 57.7349 35.4801 57.6294 35.4763C57.6206 35.585 57.7411 35.2153 57.8454 35.2266C58.1053 34.8157 57.9144 35.3027 58.3 34.5471C58.3803 34.4622 58.5775 34.3835 58.5951 34.3298C58.5712 34.3211 58.8375 34.2187 58.7433 34.1063C58.732 34.0151 58.7684 33.9814 58.5524 34.0825C58.678 33.8677 59.0459 33.5392 59.0623 33.3194C59.3649 33.4443 59.1251 32.9447 59.3298 32.9585C59.2167 33.0596 59.1163 32.8473 59.1175 32.9585L59.4654 32.9448C59.6965 32.7362 59.1414 32.7462 59.3499 32.5101C59.3499 32.399 59.3147 32.3365 59.2092 32.3428C59.2092 32.2316 59.1816 32.1417 59.2871 32.1329L59.3938 32.2391C59.4955 32.1242 59.2946 31.752 59.5018 31.6284C59.5018 31.5147 59.5018 31.4048 59.5018 31.2962C59.8095 31.0576 59.6701 31.0951 59.7655 30.7566L59.6613 30.653C59.6613 30.7604 59.8861 30.548 59.7869 30.5543C59.7869 30.4419 59.7869 30.4419 59.7869 30.3307C59.9941 30.2058 60.1423 29.469 60.1348 29.2466C60.1423 29.469 59.8899 28.7471 60.1008 28.8407C60.4035 28.3786 60.195 27.7629 60.244 27.1959C60.0255 27.1085 60.4136 26.9461 60.2917 26.745C60.185 26.755 60.0845 26.7725 60.072 26.6613L60.2553 26.4116C60.2465 26.3004 60.2352 26.1892 60.1297 26.203C60.1184 26.0918 60.1084 25.9807 60.2101 25.9694C60.1975 25.857 60.1887 25.7484 60.0845 25.7621C60.1774 25.6372 60.1775 25.6372 60.2704 25.5123C60.2591 25.4062 60.1549 25.4149 60.0506 25.4311C60.1134 24.9715 59.6663 24.6431 59.8321 24.1822C59.7266 24.1947 59.7166 24.086 59.7065 23.9724C59.9853 23.5977 59.6073 23.1543 59.7794 22.7984C59.5621 22.7122 59.645 22.4774 59.6186 22.2551C59.714 22.1302 59.4466 22.0216 59.4378 21.9141C59.2691 21.425 59.1492 20.9204 59.0799 20.4079C58.8714 20.599 58.7232 18.863 58.5411 18.1873C58.2698 17.7502 58.4519 17.2631 58.2899 16.8135C58.3992 16.7972 58.5135 16.781 58.5009 16.6686C58.3577 16.3364 58.683 16.179 58.7521 15.8193C58.9781 15.7906 59.1903 15.6445 59.439 15.8468C59.6512 15.7044 59.5144 15.4884 59.5031 15.3735L60.7313 15.2148C60.7476 15.3285 60.7526 15.4459 60.8694 15.4297C61.2022 15.3897 61.3416 15.602 61.6719 15.5545C61.682 15.6719 61.6958 15.7881 61.8075 15.7731C61.8939 15.7636 61.9814 15.7744 62.0628 15.8048C62.1442 15.8352 62.2172 15.8842 62.2759 15.948C62.3877 15.9292 62.502 15.918 62.4895 15.8043L62.615 15.903L62.7155 15.7781C62.7629 15.8162 62.8186 15.8426 62.8782 15.8552C62.9378 15.8678 62.9995 15.8662 63.0584 15.8505C63.1839 15.953 63.2178 16.3002 63.4351 16.154C64.0089 16.9546 64.5412 17.7837 65.03 18.6382Z" fill="#231815"/>
<path d="M15.6341 20.6971C15.5964 20.5135 15.3339 20.4586 15.2272 20.4473C15.1205 20.4361 14.917 20.6796 14.8128 20.4985C14.7086 20.6708 14.5762 20.8244 14.421 20.9531C14.3102 21.0203 14.1812 21.0518 14.0517 21.0431C13.999 21.3253 13.9676 21.3566 14.2112 22.0197C14.3192 22.041 14.436 22.6767 14.5528 22.7017C14.5013 22.4519 14.8718 23.23 14.9899 23.3361L15.1431 23.3748C15.2159 23.3961 15.1833 23.466 15.1431 23.536L15.4784 23.7782C15.5123 23.8707 15.5864 23.9031 15.5022 24.028C15.7299 24.0777 15.9461 24.1701 16.139 24.3003C16.208 24.3353 16.1666 24.3977 16.1226 24.4614C16.1917 24.4914 16.2658 24.5251 16.3072 24.4614C16.4956 24.4614 16.3612 24.6538 16.3901 24.7474L16.5031 24.7162C16.532 24.8099 16.6727 24.8761 16.6727 24.8761C16.9012 25.2283 17.9913 25.6529 18.2651 25.9676L18.3718 25.9164C18.4547 26.0975 18.9344 26.1325 18.9344 26.3686L19.0362 26.3061C19.0864 26.3923 19.8085 26.5346 20.0082 26.6433C20.1087 26.5771 19.9667 26.4685 20.0773 26.4123C20.1915 26.5197 20.444 26.7532 20.5608 26.8619C20.7397 26.877 20.9175 26.9028 21.0932 26.9393C21.372 27.2428 21.951 27.053 22.2926 27.2141C22.3109 27.2495 22.3381 27.2796 22.3715 27.3015C22.405 27.3233 22.4435 27.3363 22.4835 27.339L22.5915 27.2853L22.6342 27.3752C22.8464 27.264 22.9619 27.3752 23.1076 27.2415L23.1491 27.334L23.252 27.2765C23.2972 27.3652 23.2972 27.3652 23.3387 27.4576C23.6376 27.5263 23.9088 27.6699 24.2253 27.5001C24.2438 27.5356 24.2712 27.5657 24.3049 27.5876C24.3385 27.6095 24.3773 27.6224 24.4174 27.625C24.5254 27.5725 24.5254 27.5725 24.6347 27.5163C24.8582 27.565 24.9022 27.6575 25.1559 27.6412L25.1986 27.7336C25.328 27.6679 25.4698 27.6298 25.6149 27.6216C25.7599 27.6135 25.9052 27.6354 26.0412 27.6862C26.1053 27.54 26.2673 27.7399 26.3301 27.5925L26.3703 27.6837C26.6215 27.5001 26.9982 27.5988 27.2581 27.585L27.2996 27.6774C27.4076 27.6225 27.3674 27.6837 27.3674 27.6837C27.5809 27.58 28.1046 27.5725 28.2465 27.4501C28.4622 27.5509 28.7049 27.5798 28.9385 27.5326C29.0214 27.5538 29.1897 27.5925 29.2663 27.6175C29.3918 27.5136 29.5475 27.4526 29.7105 27.4434C29.8735 27.4342 30.0352 27.4773 30.1717 27.5663C30.5676 27.4519 30.9473 27.2882 31.3019 27.0792C31.3836 27.1079 31.469 27.1304 31.5531 27.1554C31.6787 27.1117 31.754 27.1379 31.8382 26.998C32.1819 26.8805 32.5074 26.7157 32.8052 26.5084C32.8404 26.6046 33.0451 26.4222 33.089 26.5147C33.1292 26.446 33.1292 26.446 33.1732 26.3785C33.3352 26.4272 33.457 26.2224 33.6202 26.2724C33.6642 26.2012 33.6642 26.2012 33.7044 26.1313C33.9556 26.0438 33.8538 25.9801 34.1 25.894C34.311 25.7453 34.6023 25.242 35.0909 25.0197C35.0795 24.8586 35.3973 24.7699 35.4676 24.625C35.5002 24.5526 35.5856 24.5726 35.6673 24.5925L35.617 24.5001C35.7426 24.4477 35.7062 24.2066 35.8167 24.3128C35.8468 24.2403 35.99 24.0555 35.9184 24.0355C36.1545 23.8482 36.152 23.2337 36.4961 23.1613C36.5137 23.1122 36.5342 23.0642 36.5577 23.0176C36.6958 22.8265 36.6406 22.4718 36.7197 22.4281C36.7486 22.3557 36.7083 22.3033 36.7812 22.3245C36.8691 22.0397 36.9344 21.6063 37.0185 21.2267C36.9469 21.2079 36.9796 21.1355 37.0098 21.0618C37.0801 21.0818 37.1102 21.0068 37.1353 20.9369C37.065 20.9194 37.0951 20.8445 37.1265 20.7708L37.2283 20.7146C37.0826 20.6834 37.2459 20.4836 37.1027 20.4511L37.1981 20.3899C37.0725 20.0464 37.2521 19.6905 37.1341 19.3458L37.227 19.2908C37.1531 19.2061 37.1124 19.0976 37.1124 18.9854C37.1124 18.8732 37.1531 18.7648 37.227 18.6801C37.2089 18.6429 37.1995 18.6021 37.1995 18.5608C37.1995 18.5195 37.2089 18.4787 37.227 18.4415C37.0361 18.3167 37.2684 18.1918 37.1479 18.0806C37.2182 17.8595 36.9821 17.6422 37.124 17.4361C37.0299 17.255 37.0123 17.1801 36.9093 17.004C36.9307 16.9266 36.9507 16.8504 36.9708 16.7755C36.9005 16.7592 36.8302 16.748 36.8452 16.6705C36.9595 16.5369 36.8365 16.4332 36.8754 16.2834C36.7335 16.2521 36.8088 16.126 36.7598 16.0336C36.7309 15.6551 36.6009 15.2912 36.3831 14.9795C36.4785 14.8321 36.2789 14.2376 36.2914 14.0553L36.1495 13.9791C36.1102 13.8225 36.0163 13.6849 35.8845 13.5907C35.8921 13.4995 35.8921 13.4995 35.8971 13.4083C35.823 13.4083 35.7527 13.4008 35.7564 13.3059C35.7602 13.211 35.764 13.2147 35.7715 13.1198L35.6911 13.211C35.6228 13.1536 35.57 13.0801 35.5375 12.9972C35.5051 12.9143 35.494 12.8246 35.5053 12.7364C35.2403 12.3505 35.1411 12.0757 34.7618 11.5212C34.6136 11.6086 34.7618 11.2289 34.5797 11.3151C34.4441 10.9748 34.2242 10.674 33.9405 10.4408C33.948 10.3497 33.948 10.3497 33.9581 10.2535C33.9029 10.2564 33.8475 10.2564 33.7923 10.2535C33.7081 10.2535 33.7182 10.1623 33.7282 10.0662C33.2548 9.77391 31.5795 9.53036 31.3233 9.05326C31.1751 9.05326 31.0345 8.95085 30.9466 9.13445L30.8147 8.94212C30.4241 9.21064 30.0938 8.73354 29.7284 8.62863L29.6493 8.71856C29.5237 8.4338 29.2826 8.70356 29.1344 8.70107C29.1117 8.66658 29.0799 8.639 29.0424 8.62137C29.0049 8.60374 28.9633 8.59673 28.9221 8.60115C28.5353 8.7735 28.185 8.57618 27.8534 9.03329L27.7856 8.93837L28.6207 10.5395C28.7047 11.0814 28.8522 11.6117 29.0603 12.1194C29.1344 12.1394 29.2298 12.318 29.2851 12.4192C29.2625 12.5078 29.2625 12.5078 29.2449 12.5965C29.3592 12.8051 29.4709 13.0099 29.5764 13.221C29.5023 13.201 29.4847 13.2897 29.4672 13.3784C29.5563 13.6756 29.5526 13.9903 29.6392 14.2788C29.756 14.3862 29.6204 14.4499 29.7485 14.5848C29.7598 14.5985 29.6732 14.7722 29.6882 14.7846C29.6617 14.8909 29.6746 15.0031 29.7246 15.1006C29.7673 15.4204 29.7522 15.1681 29.9657 15.3966C29.7673 15.6464 30.1051 16.0411 29.9004 16.2859C30.0109 16.3995 30.016 16.2372 30.0486 16.3321C30.0122 16.3945 30.0122 16.3945 29.9783 16.457C29.9444 16.5194 30.0122 16.5481 30.0813 16.5819C30.1491 16.7617 30.0248 16.8704 30.1177 17.044C30.1905 17.0602 30.1177 17.285 30.1981 17.3C30.2144 17.4611 30.4166 17.5111 30.227 17.6235C30.1529 17.606 30.1931 17.932 30.1202 18.1468C30.1498 18.3237 30.1425 18.5048 30.0989 18.6788C30.1692 18.6951 30.2244 18.6076 30.193 18.6788C30.1616 18.75 30.1692 18.75 30.1441 18.8225C30.2144 18.8374 30.2069 18.9686 30.1817 19.0435C30.1817 19.2721 30.0361 19.3907 29.9594 19.6055C29.8791 20.0701 30.1152 20.4511 29.8075 20.6184C29.9168 20.7196 29.7862 20.8445 29.7523 20.9157C29.6468 20.9681 29.6756 21.1942 29.5814 21.2491C29.4659 21.5389 29.4144 21.5227 29.2976 21.8074C29.1105 21.9186 29.0804 22.041 28.8945 22.1534C28.877 22.2007 28.8568 22.2469 28.8342 22.292C28.8053 22.3657 28.7438 22.3495 28.676 22.3345C28.5504 22.4594 28.131 22.663 28.0732 22.8016L28.1071 22.8928C27.8941 22.9661 27.6905 23.0642 27.5005 23.185C27.223 23.3561 27.0158 23.3561 26.7282 23.506C26.477 23.4385 26.256 23.6309 26.0036 23.5534C25.9081 23.6059 25.8102 23.6608 25.7172 23.7083C25.5916 23.6746 25.397 23.7745 25.299 23.6708C25.1734 23.6371 25.2036 23.8769 25.0767 23.8419L24.9512 23.8082L24.9198 23.7183C24.7264 23.8245 24.5732 23.7008 24.376 23.7982L24.3446 23.7158C24.1537 23.8145 23.9942 23.707 23.8711 23.8332C23.6173 23.7263 23.3382 23.693 23.0662 23.737C23.0963 23.6646 23.0323 23.6534 22.9644 23.6409L22.8765 23.7033C22.9004 23.6271 22.329 23.6721 22.2662 23.6621L22.1343 23.6371L22.0992 23.5509L22.0024 23.6121C21.902 23.5122 21.2163 23.4448 21.0531 23.2599C20.9275 23.3848 20.8019 23.3311 20.6499 23.3012C20.1609 23.2408 19.6798 23.129 19.2145 22.9677L19.173 22.8753C19.0575 22.9215 18.9297 22.9282 18.8099 22.8943C18.6901 22.8603 18.585 22.7878 18.5112 22.6879C18.4267 22.6768 18.3429 22.6614 18.2601 22.6417C18.1822 22.4581 17.6974 22.4931 17.6321 22.3033C17.5076 22.2165 17.3922 22.1174 17.288 22.0073C17.1323 22.1047 16.7329 21.6176 16.6601 21.5876L16.3939 21.5739L16.2972 21.2804L15.9418 21.0106C15.8275 20.7171 15.6793 20.9307 15.6341 20.6971Z" fill="#231815"/>
<path d="M21.2526 10.0366C21.3531 10.0366 21.451 10.0453 21.5477 10.0528C22.0212 10.5524 22.9555 10.405 23.5734 10.7222C23.8246 10.5436 24.0883 10.6485 24.3093 10.5686L24.4588 10.7647C25.0026 10.5986 25.2964 10.8808 25.8113 10.8434L26.0625 10.676C26.1529 10.6835 26.2533 10.6997 26.2245 10.7922L26.35 10.711L26.4204 10.8147L26.546 10.7335C26.5171 10.8234 26.615 10.8396 26.708 10.8446C26.9591 10.6835 27.1136 10.9021 27.4037 10.656C27.4311 10.6977 27.4683 10.7321 27.512 10.7563C27.5558 10.7804 27.6048 10.7936 27.6549 10.7947C27.945 10.5449 28.0455 10.8084 28.3996 10.691L28.4611 10.8022L28.5867 10.7335L28.5277 10.6186C28.5616 10.5262 28.6533 10.5486 28.7512 10.5699C28.9057 10.7035 29.0137 10.9071 29.2825 10.7809L29.3327 10.8946C29.4984 10.7772 28.2162 10.7135 30.2118 10.6448C30.3374 10.5874 30.3373 10.5873 30.4629 10.5274C30.4851 10.5712 30.5178 10.6089 30.5581 10.6372C30.5984 10.6655 30.6451 10.6836 30.694 10.6898C30.9452 10.5736 31.165 10.5374 31.4186 10.4225C31.5091 10.4462 31.6497 10.5799 31.8155 10.4375L31.867 10.5461C32.0855 10.5124 32.3894 10.5037 32.6066 10.47C32.569 10.5524 32.461 10.3551 32.5439 10.3925C32.8515 10.2352 33.1881 10.0453 33.477 10.2801C33.816 10.2414 33.9642 10.064 34.3096 10.0391C34.4226 10.2077 34.7001 9.87794 34.8622 9.97036C35.0242 10.0628 35.0317 9.818 35.1359 9.99036L35.1661 10.1153L35.2715 9.96413C35.338 9.98102 35.4076 9.98236 35.4747 9.96806C35.5418 9.95376 35.6047 9.92419 35.6584 9.88169C35.7375 9.9254 35.8178 9.97536 35.8706 9.90042C36.0707 9.8406 36.2752 9.79636 36.4822 9.76805C36.5123 9.89295 36.6957 9.70685 36.6492 9.78303C36.7171 9.7587 36.7894 9.74944 36.8612 9.75591C36.9331 9.76239 37.0026 9.78443 37.0649 9.8205C37.1151 9.74556 37.1666 9.66813 37.247 9.71808L37.3412 9.79178C37.4278 9.77554 37.4379 9.7643 37.5446 9.67562C38.6146 9.57821 39.2111 9.04117 40.2723 9.04117L40.8287 8.78264C41.017 8.69272 41.1853 8.93001 41.2192 8.73143C41.1438 8.67773 41.4377 8.60653 41.493 8.53409C41.7555 8.50412 41.9149 8.03452 42.0204 7.89089C41.9451 7.83969 42.0204 7.766 42.0003 7.64111L42.1259 7.61862C42.0879 7.37696 42.0879 7.1309 42.1259 6.88924C42.1033 6.76435 41.9187 6.84553 41.9702 6.77309L41.9225 6.68567C41.8484 6.63072 41.9463 6.49459 41.9966 6.42215C41.9463 6.17236 41.7228 6.45585 41.6198 6.27725L41.8107 5.98002C41.7228 5.79892 41.3297 5.69527 41.174 5.58786C41.0685 5.73898 41.0773 5.67902 40.899 5.77519L40.8324 5.63655C40.6478 5.73771 40.5411 5.61282 40.4908 5.68526C40.5649 5.73771 40.4368 5.73023 40.3866 5.79892C40.3363 5.86761 40.2824 5.94753 40.2045 5.89758C40.1662 5.86433 40.1211 5.83967 40.0723 5.82524C40.0236 5.8108 39.9723 5.80694 39.9219 5.81392C39.8704 5.8926 39.8704 5.89259 39.8189 5.96378C39.2233 6.08466 38.6078 6.06885 38.0193 5.91757C37.8937 5.94879 37.8937 5.94879 37.7682 5.98501C37.851 6.02997 37.7016 6.1224 37.7468 6.04497C37.8297 6.08868 37.5132 6.00375 37.4693 6.08493C37.0548 6.07868 36.1456 6.17609 36.324 6.06244C36.1142 6.05245 35.7048 6.1661 35.5415 6.08117C35.4838 6.35469 35.1924 5.92131 35.1033 6.08117C35.2288 6.04371 34.9438 6.02872 35.0266 6.06494L35.0355 6.17484C34.7843 6.25352 34.7579 6.00748 34.503 6.1024C34.4176 6.06494 34.3774 6.02372 34.4251 5.94379C34.3384 5.91007 34.2794 5.85886 34.238 5.94379L34.2807 6.05745C34.1551 6.10491 33.9328 5.83639 33.7608 5.95879C33.6779 5.92257 33.5925 5.8901 33.5096 5.85637C33.2209 5.98868 32.9056 6.0536 32.5878 6.0462L32.5301 5.9388C32.618 5.96003 32.3818 6.10616 32.412 6.01998C32.3522 6.00324 32.2914 5.9903 32.2299 5.98126C31.9198 6.1122 31.5776 6.1487 31.2466 6.08617C31.4287 6.12613 30.8799 5.7577 30.91 5.95004C30.4529 6.13364 29.9267 5.85637 29.4407 5.85637C29.4118 5.66279 29.2058 5.98127 29.0476 5.85637C29.079 5.7727 29.1092 5.68277 29.0225 5.66778C28.8969 5.73648 28.8077 5.70526 28.6897 5.78144C28.5955 5.7727 28.5013 5.75521 28.5327 5.67028C28.4373 5.65904 28.3418 5.64905 28.318 5.73523C28.225 5.71899 28.1308 5.709 28.1597 5.61907C28.0341 5.69526 27.9161 5.78768 27.8005 5.86886C27.7089 5.86261 27.7302 5.77145 27.7541 5.68152C27.3535 5.74147 27.1262 5.36928 26.7017 5.51291C26.723 5.42673 26.6339 5.42048 26.5397 5.41049C26.1855 5.65154 25.6882 5.38927 25.3605 5.55662C25.3064 5.38302 25.0967 5.46796 24.9084 5.46421C24.7928 5.54914 24.7187 5.33057 24.6271 5.32807C24.2094 5.21852 23.7813 5.1528 23.3498 5.13199C23.5319 4.9459 22.0475 4.93841 21.4774 4.831C21.122 4.63491 20.6837 4.81851 20.3107 4.71484C20.2919 4.80976 20.2668 4.90718 20.1688 4.90343C19.895 4.80477 19.7293 5.08952 19.4153 5.17944C19.3738 5.36928 19.1642 5.46046 19.2244 5.62407C19.0863 5.81141 19.0687 5.84638 18.9732 5.84014C18.8866 6.22231 18.8263 6.18359 18.7296 6.56327C18.8288 6.56327 18.928 6.57202 18.9004 6.66194C18.8288 6.94795 18.9996 7.0541 18.928 7.33636C19.0235 7.33636 19.1277 7.34885 19.1001 7.43878C19.0822 7.50727 19.0821 7.57914 19.0996 7.6477C19.1172 7.71627 19.1519 7.77929 19.2006 7.83094C19.1767 7.92336 19.1516 8.01828 19.0586 8.01454L19.129 8.11319L19.0034 8.20187C19.0324 8.24388 19.05 8.29268 19.0544 8.34346C19.0588 8.39425 19.0499 8.4453 19.0285 8.49163C19.1051 8.58905 19.4053 8.60528 19.2558 8.78887C19.8947 9.24558 20.5616 9.66229 21.2526 10.0366Z" fill="#231815"/>
</svg>
