<svg width="105" height="40" viewBox="0 0 105 40" fill="none" xmlns="http://www.w3.org/2000/svg">
<g clip-path="url(#clip0_492_3047)">
<path d="M74.4238 33.2852H73.9523V35.975H74.4238V33.2852Z" fill="#0073BD"/>
<path d="M78.5756 35.0794C78.5756 35.4935 78.8808 35.6567 79.2556 35.6567C79.6696 35.6567 79.8268 35.4512 79.8268 35.2487C79.8268 35.0462 79.715 34.9585 79.6062 34.9162C79.4188 34.8437 79.174 34.7953 78.8022 34.6956C78.3429 34.5717 78.2069 34.2936 78.2069 34.0125C78.2069 33.4746 78.7025 33.2207 79.1891 33.2207C79.7512 33.2207 80.2257 33.5199 80.2257 34.079H79.7512C79.7271 33.7315 79.4943 33.6045 79.174 33.6045C78.9534 33.6045 78.6753 33.6831 78.6753 33.9551C78.6753 34.1425 78.8053 34.2483 78.9987 34.3027C79.041 34.3148 79.6364 34.4689 79.7784 34.5082C80.129 34.614 80.3043 34.9162 80.3043 35.1943C80.3043 35.7987 79.7664 36.0405 79.2314 36.0405C78.6118 36.0405 78.1132 35.7473 78.1011 35.0794H78.5756Z" fill="#0073BD"/>
<path d="M83.7577 33.2852H84.2292V35.57H85.5983V35.978H83.7577V33.2852Z" fill="#0073BD"/>
<path d="M90.0581 33.2852H90.5598L91.5994 35.975H91.0947L90.8408 35.2617H89.7619L89.508 35.975H89.0214L90.0551 33.2852H90.0581ZM89.8918 34.9051H90.7139L90.3119 33.7476H90.2999L89.8918 34.9051Z" fill="#0073BD"/>
<path d="M95.5271 33.2852H96.0258L97.2528 35.2678H97.2649V33.2852H97.7122V35.978H97.2166L95.9865 33.9984H95.9774V35.978H95.5271V33.2852Z" fill="#0073BD"/>
<path d="M102.096 33.2852H103.214C104.046 33.2852 104.402 33.8866 104.402 34.6301C104.402 35.3736 104.046 35.975 103.214 35.975H102.096V33.2852ZM102.568 35.5942H103.03C103.774 35.5942 103.928 35.1711 103.928 34.6331C103.928 34.0951 103.771 33.672 103.03 33.672H102.568V35.5942Z" fill="#0073BD"/>
<path d="M45.0621 23.0127V22.8857C44.9775 22.6258 44.7932 22.5533 44.6059 22.3568L43.9925 22.3417C43.9925 22.4717 43.8504 22.3417 43.8474 22.4687C43.7054 22.4656 43.4939 22.5231 43.3881 22.7135H43.2884C43.1796 22.9039 43.0286 23.0308 42.8231 23.0248C42.5632 23.3421 42.3003 23.6564 42.0435 23.9768C42.0435 24.1067 41.9861 24.2337 41.8833 24.2971C41.7171 24.8744 41.5993 25.5212 41.3304 26.0954C41.3243 26.2888 41.2186 26.5488 41.2639 26.7422C41.2156 26.7422 41.1642 26.7422 41.1642 26.8056C41.2065 27.0656 41.0524 27.1925 40.9496 27.3164C40.8469 27.3164 40.7472 27.3134 40.6898 27.4403V27.5703C40.4329 27.5642 40.1549 27.3617 39.9616 27.0988L39.6292 27.0897C39.6322 26.9598 39.5657 26.9598 39.4992 26.8933C39.2364 26.8872 38.6502 26.9356 38.3842 26.7996C38.3903 26.6062 38.1214 26.6636 38.0579 26.4702C38.0005 26.2707 38.0035 26.0803 37.8706 25.8808C37.8706 25.8204 37.8766 25.7539 37.9431 25.6874C37.8162 25.491 37.6923 25.1645 37.8947 24.9741C37.8343 24.7112 37.9098 24.3908 37.786 24.1279C37.9189 24.004 37.8585 23.8075 37.8615 23.6776C37.7376 23.4146 37.7437 23.0913 37.6832 22.7679C37.4234 22.4384 37.5049 22.0516 37.3116 21.7191L37.3236 21.3353C37.1877 21.3323 37.3267 21.1389 37.1937 21.1358C37.1363 20.746 37.3508 20.2987 37.3599 19.9088C37.4294 19.8453 37.4959 19.7849 37.5684 19.7184V19.5914C37.6349 19.5914 37.7044 19.5945 37.7013 19.661C37.8403 19.4706 38.0398 19.3466 38.1818 19.1532C38.3117 19.2227 38.3812 19.0958 38.4477 19.0958C38.5807 19.0958 38.4537 18.8993 38.5867 18.9054C38.7197 18.9084 38.8556 18.8449 38.9251 18.7845C39.0611 18.724 39.5083 18.8631 39.6473 18.7361L39.7077 18.8026C39.7803 18.7392 39.8467 18.6757 39.9797 18.6787C39.9797 18.7452 39.9767 18.8087 40.0431 18.8117C40.1187 18.6213 40.4088 18.4974 40.584 18.5669C40.6384 18.6968 40.6112 18.7936 40.7623 18.854C40.8016 19.2681 40.7955 19.6156 40.9889 19.9753C40.9376 19.9753 40.9376 20.0327 40.9345 20.0901C40.9799 20.2654 41.0735 20.4437 41.0705 20.622C41.2186 20.8578 41.2579 21.2114 41.4573 21.3897C41.4029 21.4471 41.554 21.5106 41.5026 21.568C41.5993 21.6859 41.6507 21.7463 41.7504 21.8642C41.8501 21.8642 41.8531 21.8068 41.9045 21.7494C41.9619 21.4592 42.2187 21.2325 42.2792 20.9424L42.3275 21.0029C42.3789 20.8306 42.536 20.7157 42.539 20.5404C42.6418 20.483 42.6962 20.3107 42.7989 20.2563V20.1385C43.1645 19.797 43.37 19.2378 43.8021 19.0021C43.9139 18.7603 44.1828 18.718 44.2946 18.449C44.4518 18.452 44.7056 18.3916 44.905 18.3281C45.0349 18.4007 45.2283 18.5397 45.3643 18.4097C45.3643 18.4762 45.4278 18.4762 45.4942 18.4792L45.5607 18.4158C45.6906 18.5548 45.8931 18.4248 46.0865 18.4944C46.4763 18.8449 46.9326 18.993 47.3888 19.2771C47.5218 19.2771 47.3828 19.4796 47.5188 19.4826C47.5822 19.4826 47.6487 19.4826 47.7121 19.5552C47.7061 19.7607 47.6396 19.8937 47.83 20.0357L47.7635 20.1022C47.7635 20.1687 47.8239 20.1717 47.8934 20.1717C47.9478 20.5828 48.1382 20.9243 48.1926 21.3383C48.2369 21.3847 48.2802 21.431 48.3225 21.4773C48.3165 21.6829 48.3799 21.8884 48.4434 22.0274C48.5038 22.2994 48.2681 22.52 48.386 22.783C48.386 22.8464 48.383 22.9099 48.3195 22.9764C48.3739 23.3028 48.3044 23.4932 48.2349 23.8166C48.2983 23.8166 48.2953 23.8831 48.2923 23.9496C48.1624 24.2035 48.1533 24.4634 48.1473 24.7233C48.0838 24.9167 47.9509 25.1071 47.8844 25.3005L47.9448 25.364C47.8149 25.491 47.8753 25.6874 47.6789 25.8113C47.6789 25.8748 47.6789 25.9383 47.7424 25.9413C47.7424 26.0743 47.6094 26.1317 47.546 26.1982C47.4825 26.3281 47.2257 26.8298 47.0715 26.9235L47.1169 27.0021C47.002 27.1653 46.718 27.2288 46.4944 27.2439C46.3252 27.256 46.0109 27.0716 45.9173 27.0112C45.8508 26.857 45.9173 26.7392 45.8296 26.5427H45.736L45.739 26.4097C45.739 26.3463 45.6937 26.3432 45.6483 26.3432C45.606 26.1498 45.5184 25.9534 45.5668 25.7599C45.5668 25.6934 45.5245 25.6934 45.4731 25.6904C45.5275 25.5635 45.3855 25.4305 45.3885 25.3005C45.4852 25.1766 45.3975 24.9772 45.4519 24.7837C45.316 24.4543 45.3734 24.0675 45.2404 23.741C45.2465 23.4811 45.1619 23.2212 45.0682 23.0248" fill="#F08300"/>
<path d="M52.7462 18.813L52.7251 18.8251C52.7251 18.8251 52.7402 18.8311 52.7462 18.813ZM49.3892 18.4866C49.3892 18.4866 49.3892 18.4533 49.3892 18.4382C49.3771 18.4533 49.368 18.4715 49.3892 18.4866ZM49.4828 15.4129L49.4375 15.4341C49.4496 15.4643 49.4647 15.4492 49.4828 15.4129ZM49.5251 15.3948C49.5191 15.3736 49.5191 15.3555 49.5161 15.3373C49.504 15.3646 49.4949 15.3918 49.4828 15.4129L49.5251 15.3948ZM54.8584 7.55193C54.9641 7.30713 54.7708 7.13486 54.7375 6.83263C54.6015 6.77823 54.5562 6.58178 54.4293 6.62107C54.3054 6.47902 54.2812 6.45786 54.2933 6.3672C54.0244 6.25537 54.0576 6.20399 53.7887 6.08008C53.7736 6.16772 53.7615 6.26142 53.692 6.22817C53.4926 6.1375 53.3929 6.28257 53.1934 6.1919C53.1783 6.28257 53.1632 6.37324 53.0968 6.33999C52.9608 6.27955 52.8822 6.33999 52.7976 6.39742C52.7311 6.3672 52.6647 6.33697 52.6798 6.24933L52.5982 6.30675L52.5438 6.18888C52.4622 6.2463 52.3957 6.2191 52.3292 6.18888C52.2477 6.2463 52.2054 6.51831 52.0845 6.3672C51.7007 6.96561 51.2656 7.44313 50.9483 8.07177C50.9363 8.16243 50.9212 8.2531 50.906 8.34377C50.486 8.73365 50.4921 9.60407 50.1899 10.142C50.2957 10.3868 50.1869 10.6226 50.2231 10.8341C50.1688 10.8744 50.1144 10.9147 50.06 10.955C50.1234 11.4658 49.8847 11.7106 49.8545 12.1881C49.8847 12.2687 49.9159 12.3513 49.9482 12.436C49.93 12.5236 49.9089 12.6112 49.8454 12.578L49.8938 12.7019L49.8092 12.7563L49.8545 12.8802C49.791 12.844 49.7669 12.9316 49.7518 13.0223C49.8454 13.2641 49.6672 13.385 49.8152 13.6751C49.7276 13.7265 49.7064 13.8141 49.6853 13.9018C49.8364 14.1859 49.6309 14.2554 49.6823 14.5939L49.5916 14.6392L49.6309 14.7631L49.7215 14.7208C49.785 14.7601 49.7578 14.8447 49.7306 14.9293C49.6249 15.0472 49.4828 15.1258 49.51 15.3404C49.5765 15.1681 49.6339 14.9777 49.5161 16.2712C49.5342 16.3538 49.5533 16.4365 49.5735 16.5191C49.4859 16.5584 49.4587 16.6369 49.4315 16.7155C49.4889 16.9603 49.4919 17.1598 49.5493 17.4076C49.5191 17.4892 49.4073 17.6041 49.4919 17.7703L49.4073 17.8066C49.4073 17.9939 49.3861 18.2478 49.3831 18.4443C49.4103 18.414 49.4707 18.3959 49.4466 18.4443C49.5282 18.7374 49.6339 19.0638 49.4284 19.3086C49.4164 19.626 49.5312 19.7771 49.5131 20.0944C49.3771 20.1851 49.5886 20.4692 49.504 20.6112C49.4254 20.7503 49.5946 20.7775 49.4617 20.8621L49.368 20.8772C49.4002 20.9135 49.4335 20.9497 49.4677 20.986C49.4436 21.115 49.4496 21.2379 49.4859 21.3547C49.4436 21.4212 49.3982 21.4877 49.4466 21.5451C49.4828 21.7265 49.4647 21.8776 49.4798 22.1194C49.3831 22.1375 49.4979 22.3219 49.4496 22.2705C49.4587 22.3914 49.4617 22.5153 49.3741 22.6513C49.4254 22.7027 49.4738 22.7571 49.4315 22.8266L49.365 22.9052C49.365 22.9868 49.3771 22.9958 49.4284 23.1016C49.3831 24.0929 49.7155 24.6883 49.5977 25.6615C49.64 25.8398 49.6853 26.0181 49.7276 26.1964C49.7729 26.3747 49.5795 26.5108 49.7215 26.5591C49.7669 26.4956 49.7941 26.7707 49.8364 26.8281C49.8303 27.0699 50.1567 27.2603 50.2534 27.3691C50.3017 27.3026 50.344 27.3842 50.4407 27.3721V27.493C50.5374 27.4839 50.9302 27.5021 50.9816 27.5565C51.0753 27.5444 51.039 27.3691 51.0873 27.4235L51.1599 27.3872L51.172 27.3781C51.2173 27.3872 51.2535 27.4144 51.2958 27.4295C51.314 27.4477 51.3291 27.4658 51.3412 27.4809C51.3804 27.4749 51.4046 27.4628 51.4167 27.4446C51.4258 27.4688 51.4227 27.5142 51.4167 27.5565C51.5889 27.5021 51.5799 27.4567 51.7491 27.4114C51.7551 27.3419 51.7702 27.3298 51.8639 27.2361C51.9304 27.2845 51.9848 27.1394 52.0724 27.1182C52.1359 26.8916 52.2718 26.7858 52.2477 26.5833C52.2537 26.5138 52.299 26.4987 52.3413 26.4896C52.3262 26.2146 52.438 25.9093 52.3776 25.6464C52.3776 25.2323 52.4834 24.1594 52.3897 24.2833C52.3806 23.9388 52.4471 23.6758 52.4018 23.3555C52.4048 23.289 52.3172 23.2255 52.3655 23.1469C52.3776 23.0109 52.432 22.8628 52.3564 22.8145C52.4531 22.5908 52.3776 22.2191 52.5105 21.9743C52.5105 21.9048 52.5166 21.8383 52.4773 21.8504C52.571 21.5512 52.429 21.3729 52.4834 21.0857C52.4441 21.0978 52.4018 21.1129 52.4078 21.0465C52.4501 20.9649 52.5015 20.8802 52.5408 20.7956C52.5015 20.8107 52.5045 20.7472 52.5045 20.6777C52.5438 20.6626 52.5468 20.5901 52.5468 20.5266H52.5408C52.571 20.4662 52.5982 20.4239 52.5498 20.3816L52.5196 20.3906C52.5529 20.312 52.5498 20.2486 52.5861 20.17C52.5861 20.1488 52.58 20.1398 52.574 20.1337C52.6012 20.0703 52.6163 20.0098 52.5891 19.9494C52.6254 19.8738 52.6586 19.7982 52.6949 19.7227C52.5982 19.4326 52.6375 19.1394 52.6556 18.8553L52.719 18.8251C52.6858 18.8009 52.6495 18.6709 52.6919 18.7012C52.71 18.6488 52.7261 18.5954 52.7402 18.541C52.6465 18.3808 52.7221 17.7884 52.7734 17.6252C52.7221 17.7884 53.0545 17.3169 52.9094 17.3321C52.8218 16.8938 53.0847 16.4375 53.1421 15.9871C53.2871 15.9751 53.0756 15.7605 53.1814 15.6305C53.2418 15.6668 53.3022 15.697 53.3234 15.6184C53.2871 15.5036 53.3173 15.422 53.2781 15.3041C53.2962 15.2225 53.3143 15.1379 53.3747 15.1681C53.3959 15.0895 53.414 14.9989 53.3536 14.9656C53.3747 14.884 53.3929 14.8024 53.4533 14.8326C53.411 14.7178 53.3566 14.5939 53.3113 14.482C53.3264 14.3974 53.3899 14.4276 53.4503 14.4579C53.4533 14.0861 53.7525 13.9078 53.692 13.5089C53.7555 13.5361 53.7676 13.4545 53.7857 13.3668C53.6467 13.0223 53.8945 12.5871 53.8038 12.2758C53.9398 12.2395 53.9005 12.037 53.9217 11.8647C53.8703 11.7529 54.0395 11.7015 54.0516 11.6169C54.2359 11.2331 54.2087 10.8855 54.3356 10.4624C54.4535 10.6468 54.6227 9.2837 54.7617 8.76992C54.946 8.46164 54.8584 8.04457 54.9732 7.70909C54.9067 7.68189 54.8403 7.65167 54.8523 7.561L54.8584 7.55193Z" fill="#009F73"/>
<path d="M93.2457 20.5239C93.2457 20.5874 93.2457 20.6538 93.2457 20.7173C93.566 21.1042 93.4421 21.6875 93.6355 22.1378C93.5086 22.2708 93.5751 22.4642 93.5116 22.5942C93.5539 22.6365 93.5972 22.6798 93.6415 22.7241C93.5146 23.0475 93.711 23.3709 93.6476 23.6973C93.6053 23.7416 93.563 23.7849 93.5207 23.8273C93.5207 23.8907 93.5207 23.9572 93.5841 23.9542L93.5207 24.0207L93.5841 24.0841L93.5207 24.1506C93.5841 24.1506 93.5841 24.2111 93.5841 24.2806C93.4602 24.4106 93.6506 24.604 93.4602 24.7339C93.5237 24.7974 93.5237 24.8639 93.5237 24.9304C93.3363 25.0603 93.4179 25.3505 93.2759 25.5348L93.3363 25.6044L93.2668 25.6648L93.2064 25.5953C93.143 25.5923 93.1369 25.6557 93.1339 25.7222C93.1883 25.8552 93.3061 25.9942 93.1701 26.1151L93.2276 26.1846C93.0281 26.3025 92.9556 26.4566 92.8861 26.641C92.8438 26.6793 92.8015 26.7176 92.7592 26.7559C92.8166 26.8223 92.8106 26.8828 92.8045 26.9432C92.6776 27.0611 92.6081 27.179 92.4842 27.2968C92.4782 27.3603 92.5296 27.4872 92.4057 27.5416L92.4601 27.6051C92.3906 27.726 92.3211 27.9073 92.2516 28.0282C92.312 28.0313 92.3059 28.0917 92.2999 28.1552C92.1156 28.267 91.901 28.3849 91.9433 28.6357C91.8104 28.814 91.6593 28.8594 91.5264 29.0407C91.5777 29.1676 91.3028 29.1918 91.2937 29.3157C91.2846 29.4396 91.1094 29.3671 91.1607 29.494L91.2151 29.5605C91.1769 29.5585 91.1376 29.5565 91.0973 29.5545C91.051 29.6331 90.9875 29.6915 90.9069 29.7298C90.9009 29.7902 90.8979 29.8537 90.8374 29.8507C90.7256 29.9202 90.6652 30.0109 90.5383 30.1257C90.5927 30.1922 90.3328 30.2919 90.3902 30.301C90.3207 30.3524 90.2512 30.4038 90.2301 30.5246C90.1696 30.5156 90.1122 30.5065 90.1001 30.567V30.6455C90.0518 30.6848 90.0397 30.6818 89.9521 30.6909C89.4414 31.1714 88.7494 31.3014 88.2358 31.7789C88.1089 31.8242 87.9789 31.8635 87.852 31.9058C87.7221 31.9481 87.7463 32.1385 87.6405 32.0569C87.6526 31.9965 87.4773 32.0932 87.4229 32.0841C87.2809 32.1839 87.0966 32.0781 86.9757 32.0569C86.9878 31.9965 86.9183 32.0025 86.87 31.93L86.8005 31.9814C86.7551 31.9119 86.6313 31.7698 86.5738 31.7608C86.5285 31.6912 86.6494 31.6399 86.592 31.6308L86.6615 31.5794C86.6736 31.519 86.5769 31.4918 86.5194 31.4827C86.4258 31.3407 86.6403 31.4646 86.6071 31.3346L86.3805 31.2863C86.3351 31.1593 86.2233 31.1412 86.1871 31.0112C86.2112 30.8903 86.4681 30.9236 86.4892 30.7997C86.6071 30.8208 86.5738 30.7967 86.7038 30.7513L86.6705 30.6606C86.7974 30.6183 86.7884 30.5095 86.8488 30.5186C86.8398 30.579 86.8941 30.5186 86.9516 30.5246C87.009 30.5367 87.0664 30.5428 87.0815 30.4854C87.0936 30.4249 87.1026 30.3614 87.1752 30.3101C87.2134 30.3181 87.2517 30.3252 87.29 30.3312C87.568 30.1257 87.3927 30.2617 87.6828 29.9988C87.6888 29.9585 87.6959 29.9182 87.7039 29.8779C87.7734 29.8265 87.7946 29.7056 87.9245 29.6633C87.9124 29.7268 87.9004 29.7842 87.9608 29.7963C88.1602 29.7026 88.0545 29.624 88.0182 29.494C88.0645 29.4598 88.1119 29.4265 88.1602 29.3943C88.1481 29.4548 88.2569 29.4185 88.1965 29.4094C88.1844 29.4699 88.272 29.2704 88.3325 29.2795C88.4986 29.0679 88.3657 29.3248 88.6225 28.9319C88.6709 28.8896 88.7857 28.8594 88.8008 28.8322C88.7887 28.8231 88.9428 28.7838 88.8945 28.7143C88.8945 28.6659 88.9156 28.6478 88.7887 28.6901C88.8703 28.5783 89.0939 28.4211 89.1151 28.2972C89.2813 28.3879 89.1664 28.0947 89.2843 28.1129C89.2148 28.1642 89.1695 28.0373 89.1634 28.1008L89.3598 28.1189C89.4988 28.0161 89.1906 27.9859 89.3175 27.8681C89.3175 27.8046 89.3054 27.7683 89.248 27.7653C89.251 27.7018 89.242 27.6504 89.3024 27.6535L89.3538 27.7169C89.4172 27.6595 89.3236 27.4389 89.4474 27.3845C89.4535 27.324 89.4565 27.2606 89.4595 27.2001C89.6439 27.0883 89.5653 27.1004 89.6378 26.916L89.5834 26.8526C89.5804 26.913 89.7164 26.8072 89.6559 26.8042C89.66 26.7619 89.664 26.7206 89.668 26.6803C89.7889 26.6259 89.9098 26.227 89.9188 26.103C89.9128 26.227 89.807 25.8069 89.9188 25.8764C90.1122 25.6376 90.0306 25.284 90.085 24.9697C89.9672 24.9092 90.1938 24.8458 90.1334 24.7219C90.076 24.7219 90.0155 24.7218 90.0155 24.6614C90.0558 24.6191 90.0951 24.5768 90.1334 24.5345C90.1334 24.474 90.1334 24.4106 90.076 24.4136C90.076 24.3501 90.076 24.2897 90.1334 24.2897C90.1334 24.2262 90.1334 24.1657 90.0729 24.1657C90.1112 24.1234 90.1505 24.0811 90.1908 24.0388C90.1908 23.9784 90.1303 23.9784 90.0729 23.9814C90.1334 23.7305 89.8947 23.519 90.0125 23.2681C89.9551 23.2681 89.9551 23.2077 89.9551 23.1442C90.1304 22.9568 89.943 22.6848 90.0548 22.4944C89.94 22.434 89.9944 22.3101 89.9944 22.1831C90.0548 22.1197 89.9067 22.0411 89.9067 21.9806C89.7859 21.6693 89.8493 21.4457 89.7829 21.1193C89.6559 21.2099 89.665 20.2368 89.5985 19.8499C89.4686 19.593 89.5985 19.3301 89.529 19.0732C89.5895 19.0732 89.6559 19.0732 89.6559 19.0067C89.5895 18.8133 89.7829 18.7438 89.8433 18.5473C89.9702 18.5473 90.0971 18.4808 90.227 18.6078C90.354 18.5413 90.2905 18.4113 90.2905 18.3509C90.5443 18.3478 90.7347 18.3448 90.9885 18.3418C90.9885 18.4083 90.9885 18.4718 91.055 18.4718C91.2423 18.4718 91.3118 18.5987 91.4961 18.5957C91.4961 18.6622 91.4961 18.7287 91.5626 18.7226C91.6895 18.7226 91.753 18.7861 91.8195 18.8495C91.8829 18.8495 91.9464 18.8495 91.9464 18.7861L92.0098 18.8495L92.0733 18.7861C92.1367 18.8495 92.2002 18.8495 92.2636 18.8465C92.3301 18.91 92.3301 19.1064 92.457 19.0399C92.7139 19.5568 93.0342 20.0071 93.2306 20.5239" fill="#0073BD"/>
<path d="M97.9414 23.0242V23.1511C98.0139 23.411 98.1801 23.4805 98.3493 23.677L98.8992 23.6921C98.8992 23.5621 99.0261 23.6951 99.0292 23.5652C99.1561 23.5682 99.3464 23.5138 99.4401 23.3234H99.5308C99.6275 23.136 99.7634 23.0091 99.9477 23.0151C100.18 22.7008 100.416 22.3865 100.649 22.0722C100.652 21.9452 100.7 21.8153 100.794 21.7548C100.945 21.1806 101.048 20.5399 101.289 19.9686C101.295 19.7752 101.389 19.5183 101.35 19.3249C101.395 19.3249 101.44 19.3249 101.44 19.2645C101.401 19.0045 101.54 18.8806 101.634 18.7567C101.728 18.7567 101.815 18.7628 101.867 18.6358V18.5059C102.096 18.5149 102.347 18.7144 102.519 18.9773L102.818 18.9864C102.818 19.1164 102.876 19.1164 102.936 19.1829C103.172 19.1889 103.701 19.1405 103.933 19.2735C103.927 19.4669 104.169 19.4095 104.223 19.603C104.275 19.7994 104.272 19.9898 104.39 20.1893C104.39 20.2497 104.387 20.3162 104.326 20.3797C104.441 20.5761 104.55 20.8995 104.368 21.0869C104.42 21.3468 104.353 21.6642 104.465 21.9271C104.344 22.051 104.399 22.2444 104.396 22.3744C104.507 22.6343 104.501 22.9547 104.556 23.2781C104.785 23.6075 104.716 23.9913 104.888 24.3177L104.879 24.7016C105 24.7046 104.873 24.898 104.994 24.901C105.045 25.2879 104.852 25.7322 104.846 26.119C104.782 26.1825 104.722 26.2429 104.659 26.3064V26.4333C104.598 26.4333 104.538 26.4333 104.541 26.3638C104.417 26.5542 104.235 26.6751 104.112 26.8685C103.994 26.799 103.933 26.926 103.873 26.9229C103.755 26.9229 103.87 27.1164 103.749 27.1133C103.631 27.1103 103.507 27.1708 103.447 27.2312C103.326 27.2917 102.924 27.1526 102.8 27.2765L102.746 27.2101C102.682 27.2735 102.619 27.337 102.501 27.334C102.501 27.2675 102.501 27.204 102.444 27.201C102.377 27.3914 102.114 27.5153 101.96 27.4458C101.912 27.3189 101.936 27.2221 101.8 27.1617C101.764 26.7537 101.773 26.4061 101.598 26.0495C101.643 26.0495 101.643 25.9951 101.646 25.9377C101.604 25.7624 101.519 25.5871 101.525 25.4118C101.392 25.1761 101.359 24.8285 101.181 24.6472C101.229 24.5897 101.093 24.5293 101.141 24.4719C101.054 24.354 101.005 24.2966 100.918 24.1757C100.827 24.1727 100.827 24.2331 100.782 24.2875C100.727 24.5776 100.498 24.8013 100.443 25.0884L100.398 25.031C100.35 25.2002 100.211 25.3151 100.208 25.4904C100.117 25.5448 100.066 25.717 99.9749 25.7745V25.8893C99.6456 26.2278 99.4582 26.7839 99.0745 27.0166C98.9748 27.2554 98.7361 27.2977 98.6333 27.5667C98.4913 27.5606 98.2647 27.6211 98.0864 27.6846C97.9716 27.612 97.7963 27.473 97.6724 27.603C97.6724 27.5365 97.615 27.5365 97.5576 27.5334L97.4972 27.5969C97.3824 27.4579 97.2011 27.5878 97.0258 27.5183C96.6783 27.1708 96.2674 27.0227 95.8564 26.7386C95.7386 26.7356 95.8625 26.5361 95.7416 26.5331C95.6842 26.5331 95.6268 26.5331 95.5694 26.4605C95.5754 26.258 95.6358 26.1251 95.4636 25.986L95.521 25.9195C95.521 25.853 95.4666 25.853 95.4062 25.85C95.3578 25.445 95.1856 25.1005 95.1373 24.6925C95.097 24.6461 95.0587 24.5998 95.0224 24.5535C95.0285 24.351 94.9711 24.1485 94.9136 24.0094C94.8593 23.7374 95.0708 23.5198 94.965 23.2569C94.965 23.1934 94.965 23.13 95.0255 23.0665C94.9771 22.7431 95.0375 22.5527 95.101 22.2323C95.0466 22.2323 95.0466 22.1659 95.0496 22.1024C95.1675 21.8485 95.1735 21.5916 95.1796 21.3347C95.24 21.1413 95.3578 20.9539 95.4183 20.7635L95.3639 20.7C95.4787 20.5731 95.4273 20.3797 95.6026 20.2558C95.6026 20.1923 95.6056 20.1288 95.5482 20.1288C95.5512 19.9958 95.666 19.9384 95.7235 19.875C95.7839 19.748 96.0135 19.2463 96.1495 19.1557L96.1072 19.0771C96.213 18.9139 96.4668 18.8534 96.6662 18.8383C96.8173 18.8262 97.1013 19.0106 97.1829 19.071C97.2434 19.2252 97.1799 19.34 97.2615 19.5365H97.3461L97.3431 19.6694C97.3431 19.7329 97.3854 19.7329 97.4277 19.7359C97.4639 19.9294 97.5455 20.1258 97.5002 20.3162C97.5002 20.3827 97.5395 20.3827 97.5848 20.3857C97.5365 20.5127 97.6634 20.6426 97.6604 20.7756C97.5727 20.8995 97.6543 21.096 97.6029 21.2864C97.7238 21.6128 97.6724 21.9966 97.7933 22.32C97.7873 22.5769 97.8628 22.8368 97.9474 23.0332" fill="#0073BD"/>
<path d="M88.7132 25.3666C88.6195 25.3484 88.5258 25.3817 88.4382 25.43V25.424C88.4171 25.3817 88.4261 25.3515 88.3838 25.3333C88.2871 25.291 88.1572 25.3666 88.0635 25.4028C87.9547 25.4421 87.8429 25.4482 87.7311 25.4996C87.6919 25.5177 87.6556 25.5419 87.6224 25.5751C87.5982 25.5993 87.5801 25.6174 87.5529 25.6386C87.5347 25.6567 87.5166 25.6628 87.5045 25.69C87.4713 25.69 87.4471 25.6779 87.4169 25.6748C87.3867 25.6748 87.3716 25.6839 87.3413 25.6839C87.3262 25.6779 87.3111 25.6748 87.296 25.6688C87.2809 25.6688 87.2688 25.6718 87.2598 25.6869C87.2386 25.693 87.2054 25.7051 87.1842 25.7172C87.1631 25.7323 87.157 25.7564 87.1268 25.7716C87.1026 25.7836 87.0845 25.7867 87.0634 25.7957C87.018 25.8139 86.9667 25.8411 86.9425 25.8834L86.9274 25.8894L86.8881 25.8804C86.8095 25.9257 86.6977 25.9045 86.598 26.0012C86.4258 25.971 86.2807 26.1101 86.1176 26.1886L86.0873 26.1221C85.7942 26.2219 85.5434 26.0859 85.2836 26.2521C84.8998 26.2733 84.6188 26.2158 84.2441 26.2007C84.1928 26.1796 84.1384 26.1614 84.1686 26.1101C84.0598 26.1947 83.8997 26.0164 83.7909 26.098C83.4736 25.9831 83.4011 26.1312 83.0868 25.9982C83.1714 25.9076 82.9539 25.9076 83.0355 25.8199C82.7242 25.7595 82.6547 25.4633 82.4432 25.2971C82.4432 25.2215 82.3616 25.158 82.407 25.0371C82.1562 24.9132 82.0746 24.7742 82.0836 24.5475C81.9567 24.4478 82.0051 24.2544 81.9265 24.1123L82.0141 24.0277C82.0141 23.9773 82.0162 23.927 82.0202 23.8766C82.1531 23.7496 82.28 23.8464 82.407 23.8705C82.6215 23.8071 82.8179 24.0156 83.0355 23.9521C83.0778 23.9098 83.2832 23.9159 83.3255 23.8736C83.4555 23.8222 83.5703 23.7617 83.6096 23.795C83.8271 23.8071 83.8453 23.6439 84.0598 23.7345C84.1021 23.6922 84.3438 23.6922 84.3438 23.6136C84.649 23.6136 84.7216 23.5411 85.0298 23.3175C85.2443 23.257 85.5132 23.2117 85.6885 23.0424C85.7761 23.0334 85.9212 22.8067 86.0511 22.8309C86.4016 22.5649 86.459 22.3201 86.7702 22.0209C86.7702 21.9725 86.7713 21.9222 86.7733 21.8698C86.9092 21.7398 86.9123 21.5887 87.0875 21.495C87.0966 21.2683 87.1691 21.2502 87.1782 21.0235L87.1963 20.8785L87.1117 20.812C87.157 20.6941 87.0754 20.5521 87.1661 20.4644C87.0422 20.2921 87.009 20.0292 86.9304 19.8146L86.8428 19.8237V19.7481C86.7864 19.7542 86.73 19.7602 86.6736 19.7663C86.8065 19.6363 86.5466 19.6665 86.595 19.5487C86.5104 19.4822 86.4711 19.3734 86.2989 19.3945C86.1387 19.1104 85.7096 19.047 85.5918 18.7206C85.5042 18.8052 85.4679 18.5453 85.335 18.6752C85.208 18.651 85.0902 18.5513 85.0056 18.5604L84.8817 18.4606C84.6218 18.4909 84.362 18.5574 84.1112 18.3579C84.0266 18.2914 83.9782 18.4848 83.8966 18.4183L83.8151 18.3549C83.383 18.4032 82.9478 18.5271 82.5188 18.4999C82.4765 18.5422 82.3465 18.5181 82.2982 18.6359C82.2528 18.6813 82.2105 18.645 82.1713 18.6118C82.0836 18.6964 81.996 18.7054 81.9114 18.7175C81.8691 18.7598 81.8208 18.8052 81.8631 18.8354C81.8177 18.8777 81.6425 18.9382 81.6002 18.9049C81.3796 19.0439 81.2013 19.2132 80.9868 19.2011C80.6332 19.5426 80.3734 19.6393 79.9655 19.996C79.7872 20.2196 79.488 20.5339 79.3037 20.7122C79.34 20.9057 79.1828 20.7727 79.1284 20.9752C79.1738 21.0084 79.068 21.0689 79.0197 21.1142C78.9713 21.2381 79.0438 21.4104 78.9048 21.4648C78.8565 21.5101 78.8897 21.6068 78.9351 21.6401C78.8837 21.767 78.6752 21.7791 78.7175 21.8909C78.6692 21.9363 78.8474 22.0118 78.7115 22.0662L78.5845 22.3201C78.5845 22.3201 78.6178 22.5468 78.5725 22.6586C78.5271 22.7734 78.4999 22.9366 78.5271 23.0031C78.5664 23.0999 78.5906 23.2147 78.5906 23.2147L78.5211 23.3688L78.506 23.5985C78.5906 23.7466 78.7084 23.6771 78.645 23.9128C78.6903 23.9491 78.7326 23.9824 78.6873 24.0277L78.7749 24.0186C78.7266 24.1425 78.7658 24.2544 78.7628 24.336C78.8928 24.4387 78.9502 24.5838 78.9441 24.741C78.9895 24.7742 78.8867 24.88 78.9351 24.8346C79.0227 24.9827 79.0076 25.158 79.1889 25.1369C79.2312 25.1701 79.2765 25.2064 79.2312 25.2487L79.3188 25.2396C79.4548 25.2638 79.349 25.3998 79.482 25.421C79.5273 25.4572 79.482 25.5026 79.4336 25.5479L79.5213 25.6174C79.5152 25.7746 80.0108 25.9499 80.0078 26.1101C80.4278 26.5725 81.3705 27.0772 81.3705 27.0772C81.4612 26.9926 81.6515 27.2253 81.718 27.1255L81.7331 27.2011C81.8963 27.3522 82.274 27.1951 82.4039 27.3915C82.4583 27.3774 82.5137 27.3623 82.5701 27.3462C82.7001 27.3462 82.7152 27.6212 82.9146 27.5245C82.8783 27.5728 82.9297 27.6 82.978 27.6242C83.0022 27.59 83.0244 27.5567 83.0445 27.5245C83.2591 27.5064 83.4373 27.6152 83.6398 27.5275C83.6851 27.5577 83.7788 27.6152 83.8271 27.6424C83.8815 27.6303 83.9369 27.6182 83.9933 27.6061C84.3015 27.6544 84.6762 27.5305 85.0237 27.588C85.1053 27.5517 85.2141 27.588 85.3198 27.5033C85.3742 27.5215 85.4286 27.5396 85.483 27.5577C85.5616 27.5245 85.6432 27.4912 85.7217 27.458C85.8577 27.5608 86.1448 27.3885 86.311 27.4308C86.317 27.4157 86.323 27.4006 86.3321 27.3885C86.3623 27.3885 86.3956 27.3794 86.4288 27.3703L86.4469 27.4066L86.462 27.3613H86.4741C86.4953 27.3522 86.5255 27.3522 86.5436 27.3401C86.5587 27.3311 86.5708 27.3008 86.5829 27.2978C86.6252 27.2797 86.6494 27.322 86.6977 27.2887C86.7159 27.2767 86.7159 27.2585 86.737 27.2495C86.7672 27.2343 86.7672 27.2495 86.7944 27.2464C86.8277 27.2464 86.87 27.2495 86.9062 27.2313L86.9425 27.1951C86.9576 27.186 86.9727 27.186 86.9848 27.1951C87.0029 27.189 87.018 27.183 87.0362 27.1769C87.0694 27.1648 87.1238 27.1558 87.154 27.1316C87.1752 27.1135 87.1721 27.0893 87.1812 27.0711C87.2023 27.0681 87.2205 27.0621 87.2447 27.0591C87.3776 27.0228 87.4139 26.9563 87.5317 26.8777C87.707 26.7598 87.9124 26.6934 88.0756 26.5694C88.124 26.5332 88.1572 26.4818 88.2176 26.4516C88.3053 26.4093 88.3687 26.4425 88.4412 26.4123C88.5742 26.3549 88.5893 26.2914 88.6346 26.1735C88.7464 25.8894 88.7736 25.6628 88.7041 25.3787L88.7132 25.3666ZM81.9446 22.4531C82.0383 22.3624 82.0927 22.1599 82.2317 22.1055C82.277 22.0602 82.2317 22.0269 82.1924 21.9937C82.3737 21.9695 82.3254 21.767 82.5097 21.6673C82.4644 21.631 82.5097 21.5887 82.5611 21.5404C82.7816 21.5524 82.9206 21.2351 83.1382 21.2472L83.1473 21.1686C83.2802 21.1142 83.4948 21.0235 83.67 20.9994L83.7637 20.9087C84.1233 20.8603 84.4254 20.957 84.7306 21.0326C84.7729 21.0659 84.8152 21.0991 84.7669 21.1444C84.7064 21.4255 84.4375 21.5373 84.2049 21.6854C84.0719 21.6643 84.0628 21.8214 83.9329 21.8003V21.8758C83.5159 22.2173 82.7968 22.5589 81.9839 22.5619C81.9416 22.5286 81.8993 22.4954 81.9446 22.4501V22.4531Z" fill="#0073BD"/>
<path d="M72.7981 25.7561L72.8404 25.7621C72.8162 25.741 72.8011 25.7198 72.7981 25.7561ZM71.6922 27.2944H71.6831C71.6831 27.3096 71.6831 27.3065 71.6922 27.2944ZM73.765 15.1176L73.7529 15.0179C73.7408 15.0663 73.7469 15.0935 73.765 15.1176ZM77.9349 18.2427C77.947 18.1974 77.9591 18.149 77.9742 18.1006C78.0074 17.9616 78.0226 17.8619 78.0256 17.7138C78.0286 17.5325 77.9712 17.5053 77.8866 17.3451C77.8201 17.2181 77.7083 16.934 77.9621 16.922C77.9138 16.7316 77.7838 16.6258 77.7869 16.4172C77.7869 16.3749 77.7657 16.257 77.7808 16.2208C77.802 16.1754 77.8382 16.1513 77.8866 16.1452C77.9349 16.0787 77.947 15.9155 77.8896 15.849C77.808 15.7523 77.7597 15.7946 77.7385 15.704C77.7506 15.5921 77.7325 15.4441 77.7325 15.3836C77.7325 15.1902 77.7385 14.9937 77.7385 14.8033C77.7385 14.6764 77.7808 14.6522 77.808 14.5464C77.8261 14.4739 77.808 14.3621 77.808 14.2835C77.808 14.0326 77.8171 13.8392 77.7355 13.6005C77.6841 13.4493 77.7566 13.1562 77.5693 13.1139C77.4726 13.0897 77.3517 13.129 77.252 13.1169C77.1432 13.1018 77.1644 13.0776 77.0828 13.0292C76.9801 12.9688 76.8955 13.0081 76.7776 12.9658C76.6991 12.9386 76.6568 12.8388 76.5631 12.8419C76.4573 12.8419 76.3637 12.9114 76.2458 12.9114C76.1461 12.9114 76.1159 12.9446 76.0343 12.9597C75.7714 13.0111 75.4995 12.9507 75.2366 12.9658C75.1399 12.9718 75.0794 13.0141 74.9888 13.0323C74.7984 13.0323 74.6081 13.0323 74.4147 13.0262C74.3633 13.0262 74.2787 13.002 74.2334 13.0353C74.2243 13.0685 74.2183 13.1048 74.2062 13.138C74.1578 13.2015 74.0823 13.2408 74.0279 13.2952C73.8738 13.4524 73.9101 13.6246 73.8345 13.812C73.8043 13.8876 73.7227 13.9843 73.7167 14.0508C73.7106 14.1233 73.8043 14.2654 73.8134 14.3288C73.8436 14.489 73.8496 14.6643 73.8466 14.8456H73.8285C73.8466 14.9605 73.8345 15.0753 73.8164 15.1872C73.7983 15.163 73.7801 15.1448 73.768 15.1237L73.7922 15.3745C73.7771 15.5015 73.7771 15.6314 73.8285 15.7614C73.8617 16.2208 73.7529 17.3662 73.901 17.2665C73.9403 17.6533 73.8466 17.9133 73.9493 18.285C73.9433 18.3575 74.0944 18.4603 74.0249 18.5298C74.0128 18.6779 73.9373 18.82 74.0581 18.8985C73.9131 19.1131 74.0944 19.4425 73.8829 19.6541C73.8768 19.7297 73.8708 19.8022 73.9342 19.8052C73.7801 20.0893 74.0158 20.3553 73.9252 20.6484C73.9886 20.6484 74.0551 20.6515 74.0491 20.724C73.9765 20.7935 74.0279 21.0504 73.9614 21.1229C74.0249 21.1229 74.0219 21.1955 74.0219 21.268C73.9584 21.268 73.9554 21.3436 73.9524 21.4161C74.0188 21.4161 74.0128 21.4856 74.0128 21.5581C73.9705 21.6085 73.9262 21.6589 73.8798 21.7093C73.8798 21.7818 73.9433 21.7818 74.0098 21.7818C74.0702 21.9299 73.8164 22.0024 73.9433 22.075C73.8708 22.4437 73.9463 22.8638 73.7257 23.1418C73.6019 23.0602 73.6985 23.5589 73.7137 23.4108C73.7016 23.5559 73.5505 24.0274 73.4175 24.0908C73.4115 24.1392 73.4064 24.1875 73.4024 24.2359C73.4538 24.2389 73.3722 24.3145 73.3359 24.3145L73.3752 24.3689C73.2876 24.5835 73.3752 24.5683 73.1667 24.7013C73.1577 24.7739 73.1546 24.8464 73.1456 24.9189C73.0096 24.9824 73.1033 25.2453 73.0308 25.3118L72.9733 25.2363C72.9069 25.2332 72.9159 25.2937 72.9099 25.3662C72.9733 25.3693 72.9885 25.4146 72.9824 25.4871C72.8343 25.6261 73.1758 25.6624 73.0187 25.7833L72.8464 25.7652C72.8464 25.7652 72.8766 25.7863 72.8918 25.7863C72.8343 25.8468 72.8918 26.0795 72.7407 25.9888C72.7105 26.1339 72.4597 26.3183 72.366 26.4512C72.511 26.3999 72.4808 26.424 72.4838 26.4815C72.5322 26.5631 72.3599 26.6084 72.3751 26.6175C72.3569 26.6507 72.23 26.687 72.1756 26.7353C71.8765 27.2008 72.0336 26.8955 71.8402 27.1464C71.7949 27.1373 71.7224 27.2642 71.6982 27.3005C71.7345 27.3126 71.6317 27.3428 71.6468 27.2793C71.5945 27.3176 71.5411 27.3569 71.4867 27.3972C71.5199 27.5513 71.6347 27.645 71.4111 27.7538C71.3447 27.7417 71.3628 27.6722 71.3779 27.5967C71.2329 27.645 71.2057 27.7901 71.1271 27.8475C71.117 27.8959 71.108 27.9432 71.0999 27.9896C70.7705 28.3009 70.97 28.1407 70.6557 28.3795C70.6114 28.3734 70.5691 28.3653 70.5288 28.3553C70.4502 28.4157 70.4351 28.4883 70.42 28.5608C70.4019 28.6303 70.3415 28.6212 70.275 28.6091C70.2115 28.6001 70.1511 28.6726 70.1632 28.6001C70.0997 28.588 70.1028 28.7149 69.9638 28.7663L69.997 28.8751C69.852 28.9265 69.8882 28.9537 69.7583 28.9295C69.7281 29.0746 69.4501 29.0323 69.4199 29.1743C69.4531 29.3285 69.577 29.3496 69.6193 29.5007L69.8701 29.5551C69.9033 29.7123 69.6707 29.5642 69.7704 29.7304C69.8338 29.7425 69.9366 29.7727 69.9215 29.8453L69.8429 29.9057C69.9063 29.9178 69.7704 29.9752 69.8187 30.0598C69.8822 30.0719 70.0091 30.2382 70.0574 30.3228L70.136 30.2623C70.1874 30.347 70.2629 30.3409 70.2478 30.4135C70.3807 30.4376 70.5772 30.5646 70.7373 30.4467C70.8008 30.4588 70.9941 30.347 70.979 30.4165C71.0908 30.5102 71.0697 30.2865 71.2178 30.2382C71.3598 30.1898 71.4988 30.1414 71.6438 30.0931C72.227 29.534 72.9915 29.3798 73.5686 28.8147C73.6653 28.8026 73.6774 28.8086 73.7288 28.7633L73.7378 28.6696C73.7529 28.6001 73.8164 28.6091 73.8798 28.6212C73.907 28.4792 73.9856 28.4187 74.0672 28.3583C74.0068 28.3492 74.2968 28.2314 74.2394 28.1528C74.3814 28.0168 74.454 27.911 74.5778 27.8294C74.6443 27.8354 74.6534 27.7599 74.6594 27.6873C74.7501 27.645 74.8226 27.5775 74.877 27.4849C74.9193 27.4869 74.9616 27.4899 75.0039 27.4939L74.9495 27.4153C74.8981 27.2672 75.0855 27.3519 75.1006 27.2068C75.1157 27.0617 75.4179 27.0315 75.3665 26.8834C75.5206 26.6749 75.6898 26.6175 75.8409 26.4089C75.8046 26.1127 76.0434 25.9737 76.2519 25.8438C76.2609 25.7682 76.27 25.6987 76.2065 25.6926C76.2851 25.5506 76.3697 25.336 76.4513 25.194L76.3939 25.1154C76.5329 25.0519 76.4815 24.9008 76.4906 24.8283C76.6326 24.6923 76.7142 24.5502 76.8562 24.4142C76.8653 24.3417 76.8713 24.2691 76.8139 24.1906C76.8622 24.1442 76.9106 24.0989 76.9589 24.0546C77.0435 23.84 77.1281 23.6556 77.3548 23.5196L77.2913 23.438C77.4454 23.296 77.3215 23.1328 77.2671 22.9756C77.2732 22.9 77.2822 22.8245 77.3517 22.8275L77.4152 22.9091L77.4938 22.8366L77.4303 22.755C77.5935 22.5374 77.5149 22.1989 77.7264 22.0447C77.7295 21.9662 77.7355 21.8906 77.666 21.815C77.8775 21.6609 77.6751 21.4312 77.8201 21.2801C77.8201 21.2015 77.7627 21.0716 77.6932 21.0716L77.7687 20.999L77.7053 20.9204L77.7808 20.8479C77.7113 20.8449 77.7143 20.7663 77.7204 20.6938C77.7728 20.6454 77.8241 20.5961 77.8745 20.5457C77.9742 20.1679 77.7899 19.778 77.9651 19.4033C77.9208 19.3509 77.8775 19.2975 77.8352 19.2431C77.9168 19.095 77.8654 18.8653 78.0165 18.7172C77.9742 18.5721 77.9531 18.418 77.944 18.2608L77.9349 18.2427ZM73.3299 24.3115L73.3148 24.2903C73.3148 24.3054 73.3208 24.3115 73.3299 24.3115Z" fill="#0073BD"/>
<path d="M92.5092 15.257C92.5092 15.1573 92.479 15.1029 92.4669 15.0122C92.4548 14.9216 92.4669 14.8188 92.4669 14.7251C92.4669 14.6405 92.473 14.6254 92.4186 14.5529C92.3581 14.4773 92.3642 14.4803 92.346 14.3987C92.3188 14.2929 92.2614 14.2083 92.213 14.1116C92.1677 14.024 92.0952 13.9514 91.9924 13.9212C91.8957 13.894 91.932 13.9152 91.8534 13.9393C91.805 13.9544 91.6841 13.9272 91.6509 13.9696C91.6418 13.8819 91.5753 13.7761 91.5209 13.7278C91.4605 13.6734 91.4212 13.6885 91.3577 13.6643C91.2761 13.6371 91.2127 13.5555 91.119 13.5434C91.1129 13.5827 91.1311 13.6552 91.0767 13.6643C90.983 13.5827 90.9467 13.5434 90.8258 13.5404C90.7774 13.5404 90.711 13.5555 90.6626 13.5434C90.5599 13.5192 90.4873 13.3923 90.3725 13.4135C90.2516 13.4346 90.315 13.489 90.2334 13.3772C90.1488 13.2654 90.037 13.2321 89.9221 13.2956C89.8345 13.3439 89.6441 13.3046 89.6773 13.4588L89.635 13.3379C89.5746 13.3198 89.5836 13.3621 89.5444 13.3711C89.5081 13.3772 89.4658 13.3711 89.4295 13.3772C89.2996 13.4044 89.3963 13.5041 89.3207 13.5797C89.3026 13.5978 89.221 13.6129 89.1908 13.6371C89.1696 13.6522 89.1515 13.6794 89.1333 13.6975C89.1001 13.7308 89.0729 13.761 89.0457 13.7943C88.9852 13.8215 88.9339 13.9484 88.9067 14.0028C88.8704 14.0663 88.8402 14.0784 88.7918 14.1237C88.7253 14.1872 88.7404 14.2355 88.7314 14.3171C88.7253 14.3806 88.6981 14.4199 88.686 14.4803C88.683 14.5075 88.686 14.5347 88.686 14.5589C88.6739 14.5831 88.6618 14.6073 88.6558 14.6405L88.6498 14.6798C88.6316 14.704 88.6105 14.7281 88.6044 14.7644C88.5923 14.8279 88.6165 14.8551 88.6377 14.8974C88.6377 14.9639 88.6467 15.0304 88.6558 15.0818L88.6891 15.1724C88.7223 15.2601 88.6498 15.1936 88.7374 15.2661C88.7858 15.3054 88.8402 15.3386 88.8976 15.3749C88.8946 15.4565 88.8825 15.5411 88.9036 15.6197C88.9157 15.6651 88.9369 15.7164 88.9641 15.7527C88.9762 15.7829 88.9973 15.8041 89.0275 15.8162C89.0487 15.8162 89.0729 15.8222 89.094 15.8222C89.1333 15.8283 89.1545 15.8524 89.1545 15.8978C89.2149 15.9552 89.2149 15.9461 89.2996 15.9461C89.3177 15.9461 89.3449 15.9461 89.3781 15.9492L89.4144 15.9854C89.4356 16.0277 89.4688 16.058 89.5081 16.0821C89.5716 16.1456 89.5897 16.1335 89.6743 16.1547C89.7831 16.1819 89.9131 16.3179 90.0279 16.2423C90.1065 16.3058 90.1549 16.3783 90.2093 16.4629C90.2274 16.4901 90.2304 16.5325 90.2637 16.5506C90.3453 16.602 90.4208 16.5113 90.4722 16.6352C90.5145 16.6231 90.5115 16.5869 90.5478 16.5687C90.5991 16.5355 90.7291 16.5506 90.7926 16.5597C90.9074 16.5717 91.0041 16.6957 91.119 16.6866C91.2127 16.6775 91.3426 16.6261 91.4303 16.5899C91.5088 16.5566 91.5663 16.5355 91.6449 16.5113C91.7567 16.4781 91.7325 16.3451 91.8171 16.3118C91.8685 16.2907 91.9229 16.33 91.9833 16.2876C92.0226 16.2604 92.0287 16.2393 92.0529 16.197C92.1042 16.0972 92.1375 16.0368 92.2282 15.9733C92.3188 15.9068 92.3037 15.8252 92.34 15.7376C92.3581 15.6983 92.3581 15.662 92.4004 15.6348C92.479 15.5835 92.5002 15.653 92.5183 15.5442C92.5334 15.4565 92.5183 15.3477 92.5183 15.257H92.5092Z" fill="#F08300"/>
<path d="M36.0938 21.1557C36.112 21.0378 35.9609 20.9079 35.976 20.7749C36.0062 20.4968 36.2026 20.4303 36.0606 20.1493L35.8642 18.8588L35.4381 17.9702L35.1541 16.6797C35.1541 16.6797 34.9245 16.1568 34.9245 16.1055C34.9245 16.0541 34.8701 15.5312 34.8701 15.5312L34.8006 15.2018L34.6767 14.7484L34.5679 14.6789L34.4803 14.8512L34.444 15.1837L34.2476 15.4466C34.2476 15.4466 34.2295 15.4466 34.1932 15.3257C34.157 15.2018 34.1056 14.9056 34.1056 14.9056L33.9636 14.5036L33.9998 14.1561L34.1056 13.9989L34.0331 13.8931L33.9092 13.8599L33.6795 14.0352C33.6795 14.0352 33.6614 14.2619 33.6614 14.3495C33.6614 14.4371 33.6795 14.7152 33.6795 14.7152L33.4499 14.6276H33.3774L33.326 14.7666L33.5919 15.1685L33.6614 15.3438L33.61 15.5342V15.8999L33.5556 16.1961L33.3623 16.3019L33.2202 16.3714C33.2202 16.3714 33.181 16.2928 33.1356 16.2082C33.1387 16.2324 33.1417 16.2505 33.1356 16.2566C33.1175 16.2838 33.0722 16.3684 33.0722 16.3684V16.4832L33.1356 16.6585L33.0117 16.7704C33.0117 16.7704 32.9845 16.858 32.9302 16.7885C32.8758 16.719 32.7791 16.6132 32.7791 16.6132L32.6461 16.5709L32.4678 16.4651L32.4406 16.3261L32.6371 16.317L32.7972 16.3261C32.7972 16.3261 32.8516 16.3079 32.8848 16.2747C32.9211 16.2415 33.0269 16.1689 33.0269 16.1689L33.0631 16.0722C33.051 16.045 33.042 16.0269 33.0389 16.0208C32.7881 15.5312 32.5524 14.416 32.7761 13.9113C32.6491 13.9657 32.5706 14.0835 32.5041 14.2044C32.2563 14.1107 31.9662 13.6211 32.3319 13.5123C32.2745 13.3189 32.1083 13.0983 31.9028 13.0529C31.8786 13.0469 31.8393 12.521 31.8303 12.4424L31.7064 12.252L31.513 12.2158L31.4949 12.0616L31.4254 11.9377H31.3559L31.2471 12.0254V12.1463H31.1232L30.9268 12.0767L31.0325 11.9377L31.0869 11.8501C31.0869 11.8501 31.0869 11.7624 31.0507 11.711C31.0174 11.6597 30.8754 11.5388 30.8754 11.5388L30.821 11.433L30.8573 11.294L30.9117 11.3453L31.0537 11.4662L31.1776 11.5902V11.3121C31.1776 11.2426 31.2682 11.1005 31.1776 10.9796C31.09 10.8588 31.0356 10.8044 31.0356 10.8044L30.7697 10.5263L30.5038 10.2996C30.5038 10.2996 30.4161 10.1939 30.4161 10.1425C30.4161 10.0911 30.398 10.0004 30.398 9.93091C30.398 9.8614 30.3799 9.77376 30.3799 9.77376L30.2922 9.65286L30.6125 9.60148L30.8241 9.53197L30.9842 9.56824C30.9842 9.56824 31.1443 9.63775 31.1081 9.55011L31.0718 9.46246L31.0023 9.34157L30.7364 9.25392L30.6125 9.18441L30.5038 9.1149L30.398 9.06352L30.114 9.09676L30.0596 9.13001L29.9901 9.18139L29.9719 9.09374V9.00609L29.9176 8.88218L29.845 8.8308L30.0233 8.74618H30.1653L30.2892 8.62226L30.3768 8.4651V8.39559L30.5007 8.25657C30.5007 8.25657 30.5189 8.09941 30.4312 8.11754C30.3436 8.13265 30.1986 8.13265 30.1986 8.13265L29.9508 8.20216H29.7725L29.7544 8.07825C29.7544 8.07825 29.842 7.95736 29.842 7.90296C29.842 7.84856 29.7876 7.6914 29.7876 7.6914L29.7332 7.65815L29.6637 7.41335L29.5942 7.30757L29.3616 7.37708L29.3253 7.02952L29.1652 6.87236L28.9536 6.73333L28.9355 6.41901C28.8509 6.2951 28.866 6.35555 28.7451 6.34043C28.7059 6.33439 28.6787 6.47039 28.6031 6.46133C28.5518 6.45528 28.5215 6.38879 28.4702 6.3767C28.2677 6.32835 28.0713 6.00496 27.8326 6.05332C27.7299 5.58184 27.4791 5.16779 27.2132 4.76884C27.0258 4.48777 26.8234 4.03745 26.5877 3.80171L26.3762 3.62642L26.2885 3.45415L26.216 3.24259C26.216 3.24259 26.0559 2.77413 26.0196 2.71973C25.9864 2.66835 25.932 2.52631 25.8594 2.49306C25.7869 2.45679 25.6449 2.28452 25.6449 2.28452L25.521 2.02158L25.2914 1.9158L25.0255 1.75864L24.7082 1.671L24.4937 1.68913C24.4937 1.68913 24.4242 1.75864 24.4604 1.84629C24.4937 1.93394 24.6357 2.0911 24.6357 2.0911L24.7596 2.14247L24.6175 2.35101C24.6175 2.35101 24.5632 2.36915 24.5632 2.43866C24.5632 2.50817 24.6538 2.66533 24.6538 2.66533C24.687 2.55955 24.7233 2.49004 24.7233 2.49004L24.814 2.38426C24.814 2.38426 24.9378 2.36612 24.9892 2.36612C25.0406 2.36612 25.1826 2.4175 25.1826 2.4175V2.53839C25.1826 2.53839 25.237 2.71369 25.1826 2.71369C25.1312 2.71369 24.8804 2.76507 24.8804 2.76507C24.8804 2.76507 24.7928 2.87085 24.7414 2.87085C24.6901 2.87085 24.5813 2.87085 24.5088 2.83458C24.4393 2.80133 24.261 2.80133 24.261 2.80133C24.261 2.80133 24.2429 2.74995 24.1703 2.83458C24.1008 2.92223 24.1008 2.9736 24.1008 2.9736L24.0464 3.02498C24.0464 3.02498 23.9558 3.06125 23.9044 3.06125C23.5449 3.06125 23.5932 2.53235 23.5237 2.30266C23.4451 2.03367 23.2185 1.28414 22.9647 1.14512C23.0825 0.915425 23.1279 0.667598 22.9647 0.449993C22.6988 0.640397 22.6565 0.404658 22.3966 0.344213L22.167 0.292834L22.0612 0.241455L21.9011 0.153808L21.8104 0.205187L21.6684 0.362346L21.475 0.38048H21.3874L21.049 0.398614L20.9251 0.241455L20.9432 0.066162C20.9432 0.066162 20.9795 -0.0214844 20.9069 -0.0214844C20.8344 -0.0214844 20.4627 0.0480283 20.3751 0.066162C20.2875 0.0842957 19.9672 0.135675 19.9672 0.135675L17.7312 0.570884L16.9153 0.81569L16.3503 0.990983L14.2018 1.47757C14.2018 1.47757 13.8664 1.68611 13.7395 1.68611C13.6126 1.68611 13.3497 1.64984 13.2953 1.68611C13.241 1.72238 13.2258 1.807 13.1352 1.87651C13.0476 1.94603 12.8874 2.05181 12.8874 2.05181L12.4795 2.13945L11.3071 2.81947L10.2797 3.63851L9.94129 4.04047L9.09221 4.94716L8.59665 5.33099C8.59665 5.33099 8.54226 5.43375 8.47276 5.47002C8.40326 5.50628 8.13434 5.64531 8.13434 5.64531L7.97419 5.94149C7.97419 5.94149 7.81404 5.94149 7.81404 6.08052V6.42808L7.7808 6.63662C7.23388 7.37406 6.64767 8.12056 6.22766 8.93658C6.08867 9.20556 5.90434 9.61055 5.67772 9.82211C5.49944 9.98834 5.18821 10.0881 4.95554 10.1908C4.73496 10.2906 4.57179 10.3087 4.40862 10.49C4.31192 10.5928 4.29984 10.7651 4.23336 10.8346C4.12156 10.9585 3.97954 10.9706 3.85565 11.0764C3.78011 11.1398 3.69248 11.3181 3.61996 11.4028C3.43564 11.6143 3.22412 11.8047 3.04282 12.0193C2.6772 12.4515 2.18769 12.8837 1.91574 13.3673C1.48364 14.1349 1.28723 15.0084 1.03643 15.8425L0.806787 16.8006L0.879307 17.0454L0.773548 17.7435L0.737288 18.1455L0.63153 18.5988L0.438143 19.2789L0.277994 19.7836L0.099716 20.2037C0.099716 20.2037 0.0302176 20.5512 0.0120875 20.657C-0.00604248 20.7598 -0.00604248 21.0771 -0.00604248 21.0771L0.0120875 21.1648L0.117846 21.2887L0.169214 21.4458L0.205474 21.9506L0.471381 23.2048L0.788657 24.32L1.09082 25.0877L1.35673 25.9581L1.53501 26.3601L1.71329 26.7076L1.88854 27.022L1.9943 27.3181V27.5811L2.08193 27.6687L2.1333 28.0163L2.16956 28.3125L2.25719 28.4696L2.32669 28.3125L2.38108 28.2943L2.66511 28.66L2.73763 28.923L3.1093 29.5849L3.49909 30.3888L3.88889 30.9116L4.0853 31.1021L4.31495 31.2592L4.36631 31.5221L4.70474 31.8002L4.82863 32.0269L5.09454 32.3231L5.34231 32.6011L5.4662 32.722C5.67168 32.9245 5.74117 33.2237 5.91039 33.4534C5.99197 33.5652 6.16421 33.668 6.23068 33.7466C6.47242 33.5773 6.75041 34.0367 6.87128 34.1999C7.05258 34.4477 7.28222 34.6321 7.50281 34.8406C7.70828 35.0371 7.97419 35.3151 8.20686 35.4511C8.46068 35.5992 8.85349 35.6808 9.11033 35.7926C9.55754 35.9861 10.0078 36.0767 10.4489 36.2943H10.9294L11.1046 36.2792L11.2134 36.2611L11.2648 36.2792L11.3705 36.2279L11.4763 36.1221L11.6546 36.0888L11.6908 36.1583L11.6546 36.2974L11.8147 36.3336L12.2045 36.3155L12.3103 36.2279L12.5248 36.0888L12.6819 36.0163L12.8784 35.8954L12.9297 35.7715L13.0536 35.6687L13.247 35.7564L13.3709 35.6325L13.4404 35.5629L13.6005 35.5811C13.6731 35.5902 13.8332 35.7654 13.9087 35.7987C14.1203 35.572 14.4526 35.4632 14.7578 35.5327C14.9663 35.5811 15.066 35.6506 15.2745 35.6385C15.4679 35.6264 15.6371 35.4572 15.8033 35.6325C15.8728 35.6022 15.9725 35.5902 16.033 35.5448L16.0209 35.4874C16.0843 35.4753 16.1992 35.4995 16.2626 35.5267C16.2687 35.6325 16.3321 35.6597 16.3503 35.7382C16.5829 35.4511 16.8398 35.3725 17.2024 35.3907C17.2024 35.4209 17.2114 35.4632 17.2205 35.4934C17.2507 35.3605 17.296 35.3816 17.3625 35.303C17.435 35.4783 17.6314 35.4874 17.7976 35.4269C18.0212 35.3453 17.9517 35.2033 18.0877 35.0884C18.411 34.8104 18.4866 35.2365 18.8885 34.9555C18.8824 34.9585 19.0003 35.2033 19.0123 35.2335C19.0546 35.2124 19.0939 35.1882 19.1362 35.167L19.1725 35.0975L19.2783 34.9736L19.4565 34.8346V35.1821L19.526 35.2335L19.6862 35.2003L19.8101 35.025L19.8977 34.886L20.0397 34.7983L20.1999 34.6925L20.2331 34.6412L20.3751 34.5535L20.4446 34.5021L20.638 34.4659L21.1184 34.4326L21.3662 34.2936L21.3844 34.2059L21.4357 33.8916L21.7016 33.6468H21.9675L22.1096 33.4715L22.2516 33.3144L22.4299 33.1572L22.6444 33.1058L22.7139 33.3325L22.8015 33.1753L22.8378 33L23.0856 32.8248L23.2457 32.7371L23.4572 32.58L23.7231 32.5286L23.705 32.4077V32.2838L24.1492 32.4409C24.1492 32.4409 24.3305 32.3382 24.3577 32.3231C25.6087 31.6068 27.0893 31.4859 28.4128 30.957C28.9083 30.7605 29.4643 30.7847 29.975 30.6366C30.5551 30.4674 31.102 30.2044 31.6883 30.0563C32.2593 29.9113 32.7912 29.4972 33.3562 29.2887C33.8125 29.1194 34.4893 28.9048 34.6011 28.3639L34.6374 28.1886L34.6888 28.1372C34.6888 28.1372 34.7583 28.1886 34.7432 28.1372C34.725 28.0828 34.6374 27.8924 34.6374 27.8924V27.6838L34.6888 27.5811L34.7432 27.4934L34.5498 27.4572L34.5135 27.3514L34.4078 27.3695L34.3352 27.5629L34.3534 27.6838L34.4229 27.8229L34.4591 28.1372L34.3534 28.2581L34.3352 28.3971L34.2295 28.3457L34.1418 28.2067L34.1056 28.0828L34.1932 27.98L34.2265 27.8047V27.439L34.2627 27.2305L34.2808 26.9524L34.3685 26.8829L34.4229 26.8134L34.3685 26.7258L34.2446 26.5868L34.2083 26.5172L34.1026 26.5686L34.03 26.8829L34.0482 27.1973L34.0119 27.5811L33.9243 27.9468L33.7823 28.1553L33.6584 28.3125L33.5707 28.382L33.4982 28.4847L33.3562 28.5543H33.2142L33.1598 28.5029L33.1417 28.4001L33.4438 28.2762L33.4801 28.0314V27.7352L33.3562 27.5085L33.1961 27.7352L33.1084 27.9982L32.9483 28.1553L32.77 28.2762L32.6975 28.3457L32.6099 28.1886L32.6612 27.9438C32.6612 27.9438 32.767 27.8742 32.7851 27.8047C32.8032 27.7352 32.8727 27.5599 32.8727 27.5599L33.0661 27.4209L33.1538 27.2789L33.2444 27.2607L33.3683 27.1036L33.2807 26.9283L33.3532 26.7892L33.601 26.6865L33.8125 26.5988L34.0059 26.4779L34.4863 26.218L34.8761 26.0095C34.8761 26.0095 35 25.9037 35.0181 25.8523C35.0363 25.801 35.1058 25.6589 35.1058 25.6589L35.0514 25.4141L35.1058 25.2751L35.2296 24.997L35.4079 24.7885V24.9456L35.5499 24.858L35.6557 24.6646L35.8521 24.5255C35.8521 24.5255 36.0304 24.6313 35.9397 24.4228C35.8521 24.2143 35.7615 24.0208 35.7615 24.0208L35.692 23.8999L35.7464 23.5856L35.6043 23.4103L35.7464 23.1141L35.8159 22.957L35.9035 22.7666L35.9579 22.6094C36.0969 22.2014 35.8249 21.8055 35.8279 21.3975C35.8279 21.3763 36.0304 21.2252 36.0425 21.1376L36.0938 21.1557ZM27.0047 20.5664V20.6026C27.0047 20.6419 26.9986 20.6782 26.9896 20.7114C26.9835 20.7296 26.9503 20.7809 26.9291 20.8112C26.917 20.8535 26.914 20.8867 26.9049 20.9351C26.8929 20.9985 26.8687 21.0318 26.8566 21.0892C26.8415 21.1678 26.8566 21.195 26.8264 21.2675C26.8083 21.2826 26.7931 21.3008 26.775 21.3159C26.7629 21.3461 26.7599 21.3793 26.766 21.4156C26.7267 21.5214 26.6934 21.6151 26.6723 21.733C26.6541 21.8357 26.6118 21.9657 26.5454 22.0533C26.5091 22.1017 26.4668 22.1077 26.4245 22.141C26.3641 22.1923 26.3429 22.2558 26.3097 22.3314C26.2492 22.4643 26.1858 22.555 26.0679 22.6215C26.0256 22.6638 25.9773 22.7031 25.938 22.7545C25.8715 22.8421 25.8292 22.9056 25.7839 23.0053C25.6842 23.229 25.4697 23.3469 25.2702 23.4194C25.2098 23.4405 25.1463 23.4738 25.0829 23.4889C25.0073 23.504 24.9529 23.4768 24.8714 23.504C24.7716 23.5584 24.6719 23.6098 24.5722 23.6582C24.4514 23.7095 24.3305 23.7549 24.2066 23.7942C24.1099 23.8334 24.1039 23.8546 24.0344 23.9362C23.9769 24.0057 23.9226 24.0601 23.8349 24.0722C23.7624 24.0843 23.7261 24.0873 23.6627 24.1085C23.5297 24.1478 23.4179 24.2233 23.3061 24.3049C23.2336 24.3593 23.152 24.3926 23.0795 24.45C22.9889 24.5255 22.9798 24.5286 22.871 24.5437C22.6595 24.5739 22.3876 24.58 22.1881 24.6888C22.0159 24.7855 21.895 24.988 21.7258 25.0937C21.6019 25.1693 21.4629 25.0786 21.3541 25.1814C21.2997 25.2328 21.2544 25.3174 21.2 25.3718C21.1426 25.4353 21.1124 25.4564 21.0369 25.5108C20.913 25.5985 20.777 25.677 20.6864 25.7979C20.6561 25.8372 20.635 25.8856 20.5987 25.9158C20.499 25.9944 20.3721 25.9914 20.2694 26.073C20.1848 26.1395 20.079 26.1727 20.0004 26.2422C19.9853 26.2815 19.9612 26.3147 19.934 26.3419C19.8977 26.348 19.8645 26.354 19.8282 26.3631C19.7557 26.3903 19.7194 26.4507 19.665 26.4991C19.6016 26.5565 19.384 26.6956 19.3054 26.6714C19.1665 26.6956 19.0275 26.7288 18.8945 26.7772C18.8159 26.8074 18.7404 26.8164 18.6618 26.8436C18.6195 26.8588 18.5561 26.9132 18.5138 26.9373C18.4473 26.9766 18.402 26.9796 18.3264 27.0008C18.1874 27.0401 18.0001 27.1459 17.8611 27.0582C17.7886 27.0129 17.7584 26.9615 17.6858 26.9222C17.6163 26.8829 17.574 26.8799 17.4894 26.8829C17.3142 26.8829 17.1117 26.8497 16.9425 26.895C16.8428 26.9222 16.7944 26.9434 16.7219 27.0159C16.6494 27.0854 16.5527 27.167 16.4621 27.1912C16.2777 27.2396 16.0753 27.1731 15.8879 27.2003C15.7882 27.2154 15.7248 27.2577 15.622 27.2547C15.48 27.2517 15.3561 27.303 15.2141 27.3121C15.0479 27.3242 14.8757 27.3121 14.7065 27.3121C14.5554 27.3121 14.359 27.3605 14.2139 27.3151C14.1052 27.2819 14.087 27.1459 14.0054 27.0673C13.8785 26.9464 13.7395 27.0552 13.6096 26.9948C13.5854 27.0099 13.5673 27.0068 13.5552 26.9796C13.5401 26.9555 13.525 26.9283 13.5129 26.9011C13.3074 26.7469 13.0929 26.617 12.8663 26.5112C12.688 26.4145 12.6064 26.3873 12.5127 26.209C12.4886 26.1334 12.4583 26.0609 12.416 25.9974C12.3042 25.8523 12.1894 25.7435 12.0988 25.5713C12.0383 25.4594 11.9658 25.396 11.9084 25.2902C11.8993 25.2539 11.8812 25.2207 11.8601 25.1905C11.7754 25.0575 11.6304 25.0121 11.5367 24.9033C11.4733 24.8278 11.437 24.6525 11.428 24.5467C11.4219 24.4591 11.4431 24.3684 11.4219 24.2838C11.3887 24.1447 11.2678 24.045 11.2376 23.906C11.2013 23.7246 11.2799 23.5886 11.3222 23.4285C11.3464 23.3408 11.3766 23.2562 11.3826 23.1625C11.3887 23.0476 11.3857 22.9963 11.428 22.8965L11.4793 22.9207C11.4823 22.8512 11.4914 22.7847 11.5095 22.7243C11.5398 22.6155 11.57 22.5369 11.567 22.419C11.567 22.3193 11.5579 22.2135 11.579 22.1168C11.6062 21.9747 11.6123 21.8387 11.6939 21.7148C11.7815 21.5879 11.8631 21.4609 11.9416 21.3098C11.9567 21.2796 12.0142 21.2161 12.0232 21.1829C12.0383 21.1376 12.0293 21.0922 12.0414 21.0409C12.0655 20.9472 12.1169 20.8323 12.1532 20.7416C12.1683 20.6993 12.2045 20.5512 12.2287 20.5119C12.2559 20.4727 12.3224 20.4666 12.3556 20.4424C12.4735 20.3639 12.5339 20.2188 12.6276 20.113C12.685 20.0465 12.7545 20.0193 12.8149 19.9589C12.8693 19.9045 12.9056 19.8138 12.9569 19.7503C13.0174 19.6748 13.0929 19.6174 13.1533 19.5448C13.2319 19.4511 13.2833 19.3061 13.3377 19.1973C13.3951 19.0824 13.4706 18.9736 13.5371 18.8648C13.6489 18.6835 13.7335 18.5596 13.9118 18.4598C14.0447 18.3843 14.2018 18.3268 14.2834 18.1787C14.3378 18.079 14.3892 18.0034 14.4587 17.9128C14.5191 17.8312 14.5614 17.7617 14.6309 17.6861C14.6914 17.6226 14.7669 17.5471 14.8183 17.4745C14.8666 17.4081 14.8424 17.3899 14.924 17.3657C14.9875 17.3446 14.9996 17.3537 15.063 17.3144C15.1476 17.263 15.2322 17.2207 15.3199 17.1693C15.3591 17.1451 15.3954 17.1089 15.4347 17.0877C15.4679 17.0696 15.5374 17.0635 15.5676 17.0363C15.6371 16.9728 15.6371 16.8761 15.6704 16.7945C15.7066 16.7039 15.7399 16.6797 15.8094 16.6253C15.8759 16.5739 15.8698 16.58 15.9151 16.4923C15.9484 16.4288 15.9846 16.3442 16.03 16.2898C16.1025 16.1991 16.178 16.178 16.2717 16.1478C16.3503 16.1236 16.4409 16.1266 16.5164 16.0813C16.5467 16.0601 16.5799 16.0178 16.6041 16.0027C16.8851 15.8274 17.2477 15.8062 17.5529 15.7367C17.6435 15.7156 17.7735 15.7156 17.855 15.6582C17.9185 15.6158 17.9668 15.5373 18.0363 15.4919C18.1119 15.4466 18.2116 15.4133 18.272 15.3378C18.3204 15.2743 18.2871 15.235 18.3718 15.1988C18.4141 15.1806 18.4594 15.1897 18.5017 15.1776C18.5349 15.1685 18.5561 15.1413 18.6014 15.1353C18.6588 15.1262 18.7162 15.1353 18.7767 15.1232C19.0184 15.0749 19.248 14.9298 19.4988 14.9177C19.5744 14.9147 19.6529 14.9388 19.7255 14.9116C19.7919 14.8844 19.8222 14.8331 19.8917 14.8119C20.0397 14.7726 20.1817 14.8603 20.3268 14.8663C20.5866 14.8784 20.8525 14.8663 21.1124 14.8663C21.2393 14.8663 21.4236 14.9116 21.5022 14.7636C21.7711 14.7938 22.0098 14.9358 22.2878 14.9207C22.5084 14.9086 22.7381 15.0265 22.9103 15.1837C22.9586 15.226 22.9919 15.2834 23.0433 15.3227C23.1913 15.4375 23.3182 15.5524 23.4512 15.6884C23.5146 15.7549 23.56 15.7881 23.6385 15.8244C23.7292 15.8667 23.8138 15.9271 23.9044 15.9694C24.0676 16.042 24.2398 16.0359 24.3939 16.1417C24.4906 16.2052 24.5662 16.3079 24.6598 16.3775C24.7324 16.4319 24.7686 16.5014 24.8502 16.5195C24.8955 16.5286 24.9469 16.5044 24.9922 16.5135C25.0436 16.5255 25.1071 16.58 25.1554 16.6102C25.3155 16.7069 25.4576 16.864 25.5845 17.0091C25.654 17.0877 25.7235 17.124 25.796 17.1935C25.8504 17.2449 25.8534 17.3083 25.8866 17.3718C25.9289 17.4504 25.9833 17.4564 26.0287 17.5259C26.0619 17.5743 26.0407 17.6347 26.0831 17.677C26.1072 17.7042 26.1616 17.7254 26.1918 17.7526L26.2734 17.8584C26.3097 17.9098 26.2795 17.943 26.3127 17.9944C26.352 18.0518 26.3641 18.0367 26.3973 18.1123C26.4245 18.1727 26.4305 18.2059 26.4336 18.2724C26.4426 18.4477 26.4154 18.5021 26.5242 18.6291C26.6572 18.7832 26.6934 18.9676 26.769 19.158C26.8083 19.2577 26.8475 19.3816 26.8536 19.4934C26.8596 19.6446 26.8929 19.6355 26.9563 19.7564C27.0409 19.9135 26.9896 20.2158 26.9896 20.3971C26.9896 20.4455 26.9956 20.5029 26.9956 20.5603L27.0047 20.5664ZM30.8724 27.0371L30.5612 26.9313L30.8029 26.8255C30.8029 26.8255 30.9359 26.7651 30.9721 26.7469C31.0084 26.7288 31.2199 26.6956 31.2199 26.6956L31.3619 26.5747L31.4435 26.7318L31.3196 26.8618C31.3196 26.8618 31.2138 26.8799 31.1867 26.8799C31.1595 26.8799 31.0325 26.9222 31.0084 26.9313C30.9812 26.9404 30.8754 27.0371 30.8754 27.0371H30.8724ZM31.4677 27.1852L31.4133 27.2909L31.3589 27.3605L31.2954 27.4844V27.6053C31.2954 27.6506 31.1987 27.6929 31.1806 27.7201C31.1625 27.7473 31.0718 27.7896 31.0718 27.7896L31.0386 27.6838L31.0205 27.5811L31.1353 27.3967L31.1262 27.3181L31.0628 27.2305H31.1867L31.2833 27.1519L31.3619 27.0643L31.4344 26.9766L31.4616 27.0733V27.1882L31.4677 27.1852ZM32.4437 26.1485L32.3802 26.2362L32.4255 26.3752L32.2473 26.5414C32.2473 26.5414 32.1052 26.7076 32.069 26.7167C32.0327 26.7258 31.8998 26.7772 31.8998 26.7772L31.7577 26.9706L31.7396 27.1187L31.658 27.4239C31.658 27.4239 31.5704 27.294 31.5855 27.2426C31.6036 27.1912 31.6369 27.0945 31.6369 27.022C31.6369 26.9494 31.6127 26.8074 31.6006 26.762C31.5916 26.7197 31.5553 26.5172 31.5553 26.5172L31.6067 26.3873C31.6067 26.3873 31.7487 26.2906 31.7759 26.2664C31.8031 26.2392 31.8484 26.215 31.8635 26.1787C31.8816 26.1455 31.9088 26.0911 31.9088 26.0911L31.9511 25.9883L32.0055 25.9188H32.0932L32.1989 25.9793C32.1989 25.9793 32.1717 26.0578 32.2231 25.9974C32.2775 25.937 32.3379 25.8916 32.3379 25.8916L32.489 25.8826L32.4255 26.1546L32.4437 26.1485ZM32.8335 17.6589L32.7791 17.6166C32.7791 17.6166 32.7247 17.5048 32.7005 17.4081C32.6733 17.3113 32.631 17.26 32.631 17.26C32.631 17.26 32.5857 17.0877 32.5706 17.0333C32.5524 16.9819 32.5615 16.7885 32.5615 16.7885C32.5615 16.7885 32.6159 16.9456 32.634 16.9819C32.6522 17.0152 32.7579 17.1028 32.8123 17.1542C32.8637 17.2086 32.9453 17.3295 32.9876 17.3809C33.0329 17.4322 33.0238 17.5017 33.0238 17.5017L33.0178 17.7375L32.8395 17.6589H32.8335ZM33.8004 25.3718C33.8004 25.3718 33.7369 25.4957 33.7309 25.5289C33.7218 25.5652 33.7037 25.6408 33.7037 25.677C33.7037 25.7133 33.5798 25.7647 33.5798 25.7647C33.5798 25.7647 33.4922 25.8946 33.4831 25.9218C33.4771 25.938 33.4741 25.9551 33.4741 25.9732C33.4741 25.9974 33.2988 26.0186 33.2535 26.0246C33.2082 26.0337 33.1115 26.1032 33.1115 26.1032L32.9362 26.1999L32.9634 26.085L32.9815 25.9007C32.9815 25.9007 33.0692 25.8402 33.0963 25.8312C33.1235 25.8221 33.2112 25.7254 33.2112 25.7254L33.3351 25.6196L33.5556 25.5773L33.8064 25.3416V25.3657L33.8004 25.3718Z" fill="url(#paint0_linear_492_3047)"/>
<path d="M33.0994 16.0547L33.0662 16.0698C33.0843 16.1061 33.1085 16.1544 33.1357 16.2058C33.1266 16.1454 33.0994 16.0547 33.0994 16.0547Z" fill="url(#paint1_linear_492_3047)"/>
<path d="M57.1277 36.2521H57.1186C57.1126 36.2703 57.1186 36.2673 57.1277 36.2521ZM58.4361 34.475L58.4814 34.4811C58.4572 34.4539 58.4451 34.4297 58.4361 34.475ZM59.1371 32.7826L59.122 32.7554C59.119 32.7735 59.122 32.7826 59.1371 32.7826ZM64.6456 21.8872C64.5519 21.6635 64.5912 21.4731 64.567 21.2616C64.5398 21.053 64.2679 21.0651 64.3072 20.8747C64.2437 20.8234 64.1501 20.7841 64.0443 20.7508C64.002 20.6481 63.9567 20.5423 63.9053 20.4697C63.8086 20.3337 63.6424 20.3186 63.5276 20.2159C63.4339 20.1282 63.4128 20.0194 63.2919 19.9378C63.2284 19.9318 63.165 19.9167 63.1046 19.8925C63.0351 19.8683 62.9414 19.8351 62.8689 19.8109C62.8024 19.829 62.7359 19.82 62.6785 19.7897C62.4368 19.6628 62.3461 19.152 62.044 19.5177C61.9503 19.6295 61.9654 19.8079 61.917 19.9197L61.8868 19.9167C61.7629 20.0255 61.5907 20.1282 61.5847 20.3972C61.5726 20.4607 61.5242 20.4516 61.4759 20.4425C61.4849 20.645 61.3339 20.8898 61.2946 21.0833C60.932 21.6152 60.7054 22.2469 60.4394 22.7999C60.3276 22.8453 60.2521 22.9662 60.2249 23.0961C59.9167 23.3711 59.6024 23.6462 59.2942 23.9182C59.0948 23.8789 58.9226 23.9786 58.7836 24.1569L58.6869 24.1358C58.5509 24.3111 58.3333 24.3322 58.1943 24.305C58.1671 24.435 58.0584 24.2778 58.0312 24.4078L57.4329 24.2899C57.2848 24.0602 57.1156 23.9575 57.0763 23.6794L57.1005 23.5495C57.0461 23.3349 57.0068 23.0568 57.0582 22.7999C56.9857 22.4463 57.1096 22.0685 57.034 21.7149C57.1217 21.5306 57.0703 21.316 57.1881 21.2072C57.2153 21.0772 57.0975 20.9201 57.173 20.7992C57.1247 20.7901 57.0824 20.781 57.0945 20.7146C57.1791 20.5302 57.1247 20.3156 57.1186 20.1131C57.0733 20.104 57.028 20.095 57.0401 20.0315L57.0642 19.9016L56.9736 19.8834C56.9222 19.6719 57.0099 19.5631 56.9736 19.3968C56.892 19.3213 56.614 19.0795 56.4478 19.0644C56.2272 19.0432 55.9372 19.0583 55.7951 19.2004L55.8254 19.288C55.6592 19.3575 55.3207 19.82 55.2331 19.9378C55.1576 19.9922 55.0216 20.0285 54.9944 20.1615C55.0579 20.1736 55.0458 20.237 55.0337 20.3035C54.8191 20.3942 54.8433 20.6027 54.6952 20.7115L54.7436 20.7871C54.6439 20.9684 54.4837 21.1377 54.384 21.322C54.3326 21.5819 54.2783 21.8419 54.106 22.0746C54.0939 22.1411 54.0788 22.2045 54.1423 22.2166C54.0154 22.5279 53.9157 22.7093 53.9126 23.0447C53.8371 23.1022 53.825 23.1656 53.8129 23.2291C53.8824 23.5132 53.6135 23.6975 53.6256 23.9816C53.6618 24.1328 53.689 24.3473 53.6467 24.5559C53.679 24.6083 53.7132 24.6617 53.7495 24.7161C53.7283 25.1392 53.8552 25.52 53.8371 25.9401C53.9036 25.9522 53.964 25.9643 53.9519 26.0338L53.8764 26.0912C54.0395 26.2665 53.9519 26.3904 53.9096 26.5959C53.961 26.6745 54.0214 26.6896 54.0879 26.7017C54.2178 26.7289 54.0456 26.9042 54.1755 26.9314C54.5744 27.2941 54.9944 27.5207 55.3147 27.9408C55.493 28.0466 55.7166 27.9499 55.8163 28.1101L55.8949 28.0557C55.9583 28.0678 56.0218 28.0829 56.0097 28.1464C56.1668 28.0376 56.333 28.2098 56.4478 28.3065C56.6533 28.2763 56.9132 28.2582 57.0673 28.2884C57.2244 28.0376 57.4933 28.0406 57.6474 27.8139C58.1097 27.6507 58.4119 27.1218 58.8259 26.8407L58.847 26.7229C58.9558 26.6836 59.0404 26.5204 59.1522 26.4811C59.1885 26.3028 59.3607 26.2151 59.4423 26.0519L59.4816 26.1214C59.5904 25.8404 59.8835 25.656 59.9892 25.3719C60.0496 25.3235 60.0617 25.2631 60.1584 25.2843C60.1947 25.3507 60.2219 25.3991 60.2491 25.4505C60.243 25.6107 60.243 25.7708 60.2793 25.9552C60.2702 26.0398 60.4243 26.1607 60.3458 26.2423C60.3276 26.4176 60.24 26.5899 60.3639 26.6805C60.2038 26.9374 60.376 27.3273 60.1463 27.5842C60.1373 27.6719 60.1282 27.7595 60.1947 27.7595C60.0225 28.101 60.2581 28.4123 60.1494 28.7599C60.2158 28.7599 60.2823 28.7599 60.2763 28.8506C60.2239 28.907 60.1715 28.9634 60.1192 29.0198C60.1856 29.0198 60.1766 29.1044 60.1675 29.1951C60.101 29.1921 60.092 29.2797 60.0799 29.3674C60.1463 29.3674 60.1373 29.455 60.1282 29.5396C60.0779 29.5981 60.0265 29.6555 59.9741 29.7119C59.9681 29.7996 60.0345 29.7996 60.101 29.8026C60.1494 29.9809 59.8774 30.0534 60.0043 30.1471C59.8925 30.5823 59.9258 31.084 59.6689 31.4074C59.5481 31.3047 59.5994 31.9 59.6266 31.7278C59.5994 31.9 59.397 32.4531 59.2489 32.5226C59.2368 32.5791 59.2257 32.6365 59.2157 32.6949C59.267 32.704 59.1764 32.7856 59.1401 32.7856L59.1764 32.8521C59.0616 33.1029 59.1583 33.0908 58.9256 33.2389C58.9105 33.3235 58.8984 33.4112 58.8803 33.4958C58.7322 33.5653 58.8017 33.8796 58.7201 33.9582L58.6687 33.8645C58.5992 33.8555 58.6023 33.928 58.5902 34.0156C58.6567 34.0217 58.6657 34.0761 58.6536 34.1637C58.4874 34.3209 58.838 34.3813 58.6627 34.5173L58.4844 34.4901C58.4844 34.4901 58.5116 34.5173 58.5297 34.5204C58.4633 34.5869 58.4995 34.8679 58.3515 34.7531C58.3061 34.9223 58.0221 35.1309 57.9133 35.285C58.0674 35.2336 58.0372 35.2578 58.0312 35.3243C58.0735 35.424 57.8922 35.4694 57.9043 35.4815C57.8831 35.5207 57.7471 35.557 57.6837 35.6144C57.3271 36.1524 57.5175 35.7988 57.2939 36.0859C57.2455 36.0738 57.1609 36.2189 57.1307 36.2612C57.167 36.2793 57.0582 36.3096 57.0793 36.234C57.0209 36.2783 56.9615 36.3227 56.9011 36.367C56.9222 36.5513 57.031 36.6692 56.7893 36.7871C56.7228 36.769 56.747 36.6873 56.7681 36.6027C56.611 36.6541 56.5687 36.8203 56.4811 36.8898C56.4649 36.9463 56.4498 37.0027 56.4357 37.0591C56.058 37.4127 56.2846 37.2314 55.9341 37.5034C55.8898 37.4933 55.8465 37.4812 55.8042 37.4671C55.7136 37.5336 55.6924 37.6212 55.6713 37.7059C55.6471 37.7875 55.5836 37.7754 55.5171 37.7542C55.4507 37.7391 55.3781 37.8268 55.4023 37.7421C55.3389 37.724 55.3298 37.8751 55.1757 37.9295L55.1999 38.0595C55.0458 38.1139 55.079 38.1471 54.946 38.1139C54.9007 38.2831 54.6137 38.2227 54.5653 38.3889C54.5865 38.5733 54.7104 38.6035 54.7406 38.7848L54.9944 38.8634C55.0155 39.0508 54.7859 38.8634 54.8705 39.0689C54.937 39.087 55.0397 39.1294 55.0186 39.211L54.9309 39.2805C54.9944 39.2956 54.8494 39.3591 54.8917 39.4618C54.9551 39.4799 55.073 39.6824 55.1153 39.7852L55.2029 39.7157C55.2482 39.8184 55.3298 39.8154 55.3056 39.897C55.4386 39.9333 55.635 40.0935 55.8133 39.9605C55.8767 39.9756 56.0913 39.8517 56.0701 39.9363C56.1789 40.0542 56.1789 39.7852 56.336 39.7368C56.4901 39.6855 56.6412 39.6341 56.7953 39.5827C57.4601 38.942 58.2729 38.7969 58.9347 38.1532C59.0374 38.1441 59.0495 38.1471 59.1069 38.0988L59.125 37.9869C59.1492 37.9053 59.2126 37.9204 59.2791 37.9356C59.3214 37.7693 59.4121 37.7028 59.4997 37.6333C59.4363 37.6182 59.7505 37.4913 59.6991 37.3976C59.8623 37.2435 59.9439 37.1195 60.0859 37.0289C60.1554 37.0379 60.1705 36.9503 60.1826 36.8626C60.2793 36.8163 60.3619 36.7387 60.4304 36.6299C60.4747 36.634 60.519 36.639 60.5633 36.645L60.5089 36.5483C60.4727 36.37 60.66 36.4818 60.6902 36.3096C60.7205 36.1373 61.0377 36.1161 61.0015 35.9378C61.1828 35.696 61.3641 35.6356 61.5454 35.3938C61.5363 35.0402 61.7992 34.8861 62.0319 34.741C62.05 34.6503 62.0651 34.5657 61.9986 34.5597C62.0953 34.3934 62.2041 34.1456 62.3038 33.9794L62.2524 33.8857C62.4035 33.8162 62.3642 33.6348 62.3824 33.5472C62.5425 33.39 62.6422 33.2298 62.8084 33.0697C62.8235 32.982 62.8387 32.9004 62.7843 32.8037C62.8407 32.7513 62.8951 32.6989 62.9474 32.6465C63.0592 32.3927 63.165 32.1811 63.4158 32.027L63.3584 31.9272C63.5336 31.7671 63.4188 31.5676 63.3795 31.3772C63.3946 31.2895 63.4128 31.1958 63.4823 31.2049L63.5397 31.3047L63.6273 31.223L63.5699 31.1233C63.7633 30.8725 63.7149 30.4645 63.9536 30.2922C63.9657 30.1985 63.9778 30.1078 63.9113 30.0141C64.1501 29.8388 63.9597 29.5608 64.1259 29.3855C64.1349 29.2918 64.144 29.2042 64.0715 29.2011L64.1531 29.1135L64.0926 29.0198L64.1742 28.9291C64.1047 28.9291 64.1108 28.8354 64.1198 28.7448C64.1762 28.6863 64.2316 28.6279 64.286 28.5695C64.4069 28.1161 64.2347 27.6567 64.4341 27.2094C64.425 27.1943 64.4129 27.1823 64.4069 27.1732C64.4492 27.0462 64.4824 26.9193 64.4855 26.7924C64.3646 26.7682 64.4975 26.6231 64.419 26.5778C64.4401 26.5083 64.4704 26.4448 64.5247 26.3904L64.4401 26.3572L64.4734 26.1819C64.3434 25.8162 64.4885 25.4414 64.2921 25.0636C64.2921 24.7251 64.3555 24.4017 64.28 24.1176C64.3072 23.9877 64.28 23.7792 64.4341 23.6764C64.3586 23.3893 64.4885 23.078 64.4764 22.806C64.706 22.6518 64.6426 22.3013 64.5519 22.0806C64.6305 22.0262 64.6456 21.9597 64.6577 21.8993L64.6456 21.8872Z" fill="#898989"/>
</g>
<defs>
<linearGradient id="paint0_linear_492_3047" x1="-0.869092" y1="7.98356" x2="35.1434" y2="7.98356" gradientUnits="userSpaceOnUse">
<stop stop-color="#0087C9"/>
<stop offset="1" stop-color="#0056A3"/>
</linearGradient>
<linearGradient id="paint1_linear_492_3047" x1="32.1045" y1="5.94558" x2="32.172" y2="5.94558" gradientUnits="userSpaceOnUse">
<stop stop-color="#0087C8"/>
<stop offset="1" stop-color="#0057A3"/>
</linearGradient>
<clipPath id="clip0_492_3047">
<rect width="105" height="40" fill="white"/>
</clipPath>
</defs>
</svg>
