<svg width="250" height="90" viewBox="0 0 250 90" fill="none" xmlns="http://www.w3.org/2000/svg">
<g clip-path="url(#clip0_344_1901)">
<path d="M130.973 60.3752C130.209 60.4745 130.143 60.5052 129.932 61.5798L129.123 65.717C128.881 67.0414 128.536 67.8969 127.585 68.3897C127.052 68.6634 126.368 68.7627 126.202 68.7627L126.181 68.5984C126.99 68.4341 127.332 68.1501 127.83 65.6075L128.615 61.5764C128.802 60.5908 128.736 60.4813 127.83 60.3718L127.865 60.1973H131.008L130.973 60.3718V60.3752Z" fill="#EBBD2F"/>
<path d="M137.844 63.0891C137.844 65.3682 136.229 67.4796 133.826 67.4796C132.101 67.4796 130.949 66.3092 130.949 64.5127C130.949 62.1925 132.699 60.0469 135.043 60.0469C136.769 60.0469 137.844 61.1967 137.844 63.0891ZM132.422 65.0294C132.422 66.3435 132.885 67.2298 133.916 67.2298C135.541 67.2298 136.385 64.6016 136.385 62.4115C136.385 61.3609 136.143 60.2967 134.981 60.2967C133.397 60.2967 132.426 62.7161 132.426 65.026L132.422 65.0294Z" fill="#EBBD2F"/>
<path d="M144.87 60.3542C144.227 60.4534 144.096 60.5082 143.587 61.1755C143.21 61.658 141.907 63.5299 141.616 64.0124C141.551 64.1219 141.506 64.1972 141.471 64.3409L141.16 65.9493C140.959 66.9245 140.994 67.0238 141.934 67.1436L141.889 67.3181H138.605L138.65 67.1436C139.555 67.034 139.625 66.9588 139.832 65.9493L140.119 64.5804C140.174 64.3067 140.14 64.0979 140.053 63.7797C139.908 63.2424 139.676 62.5101 139.369 61.3911C139.137 60.5493 139.058 60.45 138.352 60.3713L138.407 60.1968H141.219L141.174 60.3713L140.842 60.4466C140.489 60.5219 140.499 60.6108 140.62 61.0694C140.842 61.901 141.153 62.8968 141.405 63.7968C141.948 63.02 142.778 61.7264 143.165 61.1242C143.487 60.6211 143.321 60.4877 142.923 60.4124L142.647 60.3576L142.692 60.1934H144.915L144.87 60.3474V60.3542Z" fill="#EBBD2F"/>
<path d="M151.609 67.3183H148.532L148.566 67.1437C149.362 67.0137 149.431 66.9145 149.362 66.343C149.296 65.8399 149.23 65.3574 149.151 64.6901H147.169C146.882 65.2274 146.582 65.751 146.36 66.2232C146.049 66.846 146.063 67.0103 147.014 67.1437L146.979 67.3183H144.611L144.645 67.1437C145.43 67.0342 145.541 66.9453 146.174 65.8399L149.472 60.0806L149.739 60.0361C150.147 62.7943 150.402 64.3719 150.624 65.9597C150.755 66.911 150.845 67.0103 151.64 67.1437L151.606 67.3183H151.609ZM148.777 61.8293H148.757C148.293 62.6506 147.851 63.4924 147.373 64.3582H149.099L148.777 61.8293Z" fill="#212A52"/>
<path d="M159.154 65.587C159.033 65.9805 158.646 66.99 158.49 67.3186H153.366L153.411 67.144C154.206 67.0551 154.296 66.9695 154.507 65.9189L155.392 61.3847C155.558 60.5531 155.468 60.4744 154.617 60.3786L154.652 60.2041H157.84L157.805 60.3786C156.941 60.4676 156.865 60.5634 156.678 61.5627L155.838 65.9531C155.682 66.7642 155.707 67.014 156.357 67.014H156.889C157.532 67.014 157.819 66.9695 158.127 66.7197C158.424 66.4801 158.756 66.0182 159.002 65.5357L159.157 65.5904L159.154 65.587Z" fill="#212A52"/>
<path d="M166.747 63.0891C166.747 65.3682 165.133 67.4796 162.729 67.4796C161.004 67.4796 159.853 66.3092 159.853 64.5127C159.853 62.1925 161.602 60.0469 163.947 60.0469C165.672 60.0469 166.747 61.1967 166.747 63.0891ZM161.326 65.0294C161.326 66.3435 161.789 67.2298 162.819 67.2298C164.444 67.2298 165.288 64.6016 165.288 62.4115C165.288 61.3609 165.046 60.2967 163.884 60.2967C162.301 60.2967 161.329 62.7161 161.329 65.026L161.326 65.0294Z" fill="#212A52"/>
<path d="M175.167 60.3752C174.382 60.4847 174.282 60.5942 174.126 61.1726C174.05 61.4121 173.939 61.8843 173.694 63.1094L172.843 67.4246H172.546L169.182 61.5456L168.639 64.3379C168.397 65.5973 168.341 65.9155 168.286 66.3296C168.21 66.8771 168.251 67.0311 169.292 67.1406L169.258 67.3151H166.702L166.747 67.1406C167.512 67.0311 167.653 66.9011 167.809 66.3741C167.93 65.9463 168.02 65.5973 168.272 64.3687L168.87 61.4326C168.905 61.2786 168.926 61.0699 168.781 60.8303C168.594 60.5121 168.383 60.4026 167.885 60.3718L167.92 60.1973H169.877L172.899 65.3235L173.341 63.1437C173.597 61.9049 173.628 61.6208 173.694 61.1931C173.784 60.6011 173.649 60.471 172.698 60.3718L172.733 60.1973H175.198L175.164 60.3718L175.167 60.3752Z" fill="#212A52"/>
<path d="M181.208 62.0278C181.152 60.6795 180.61 60.2859 179.569 60.2859C177.833 60.2859 176.571 62.3323 176.571 64.3821C176.571 66.0897 177.214 67.2395 178.386 67.2395C178.884 67.2395 179.195 67.1198 179.327 66.4525L179.558 65.2821C179.724 64.4403 179.648 64.3958 178.628 64.2624L178.673 64.0981H181.782L181.747 64.2624C181.139 64.3513 181.049 64.4266 180.883 65.2821L180.682 66.2779C180.627 66.5517 180.616 66.8802 180.637 67.089C180.018 67.2635 179.123 67.4825 178.293 67.4825C176.291 67.4825 175.049 66.3224 175.049 64.4061C175.049 61.7985 177.031 60.0498 179.641 60.0498C180.492 60.0498 181.322 60.2346 181.643 60.3236C181.567 60.6966 181.457 61.2886 181.367 62.0209L181.201 62.0312L181.208 62.0278Z" fill="#212A52"/>
<path d="M190.755 59.9814C190.665 60.3202 190.499 61.1415 190.402 61.7883L190.226 61.7986C190.215 61.6001 190.215 61.3811 190.205 61.2305C190.149 60.6487 189.994 60.5084 189.309 60.5084H188.434L187.373 65.929C187.172 66.9487 187.252 67.0035 188.237 67.1438L188.203 67.3183H184.793L184.828 67.1438C185.748 67.0446 185.834 66.9693 186.045 65.929L187.117 60.5084H186.474C185.744 60.5084 185.544 60.5735 185.257 60.902C185.091 61.0765 184.914 61.4153 184.738 61.7986L184.572 61.778C184.738 61.2305 184.925 60.529 185.025 59.9814H185.17C185.302 60.2107 185.371 60.2005 185.668 60.2005H190.06C190.336 60.2005 190.412 60.156 190.602 59.9814H190.758H190.755Z" fill="#212A52"/>
<path d="M194.496 60.3747C193.645 60.5048 193.555 60.5937 193.369 61.5793L192.518 65.939C192.317 66.9348 192.362 67.0135 193.248 67.1435L193.213 67.3181H190.07L190.105 67.1435C190.914 67.0238 190.979 66.9588 191.19 65.939L192.055 61.5793C192.255 60.5835 192.186 60.4945 191.315 60.3747L191.349 60.2002H194.537L194.503 60.3747H194.496Z" fill="#212A52"/>
<path d="M203.69 60.3747C202.784 60.4945 202.694 60.5732 202.563 61.5143C202.321 63.1021 202.141 64.4162 201.989 65.696C201.833 66.9451 201.857 67.0101 202.763 67.1401L202.729 67.3146H199.575L199.61 67.1401C200.429 67.0306 200.485 66.9314 200.682 65.696C200.903 64.293 201.114 62.8591 201.346 61.3808H201.325C200.229 63.2219 198.936 65.412 197.829 67.3591H197.674C197.352 65.5865 196.799 63.1534 196.422 61.4903H196.401L195.672 64.3477C195.395 65.4222 195.274 66.0108 195.229 66.2743C195.139 66.8219 195.153 67.0409 196.124 67.1401L196.09 67.3146H193.524L193.559 67.1401C194.368 67.0306 194.465 66.9416 194.721 66.3291C194.852 66.0108 195.129 65.0903 195.374 64.228L196.204 61.2063C196.315 60.8127 196.28 60.5287 195.243 60.3747L195.277 60.2002H197.359C197.725 61.7538 198.289 63.8686 198.642 65.347L201.761 60.2002H203.742L203.697 60.3747H203.69Z" fill="#212A52"/>
<path d="M207.96 60.2007C208.524 60.2007 209.001 60.2007 209.388 60.1904C209.312 60.5634 209.188 61.2752 209.112 61.7885L208.946 61.7988C208.901 60.8577 208.77 60.5053 208.061 60.5053H207.054C206.688 60.5053 206.612 60.5703 206.557 60.8543L206.048 63.4277H206.999C207.753 63.4277 207.995 63.2737 208.292 62.5072H208.469L207.992 64.6973H207.805C207.85 63.8315 207.694 63.7323 206.954 63.7323H205.969L205.571 65.8676C205.415 66.6786 205.44 67.0072 206.114 67.0072H206.743C207.628 67.0072 207.839 66.8874 208.161 66.5691C208.372 66.3501 208.548 66.0661 208.77 65.6589L208.925 65.7034C208.804 66.0866 208.493 66.9421 208.327 67.3117H203.005L203.04 67.1372C203.96 67.0174 204.025 66.9627 204.247 65.9121L205.097 61.5866C205.274 60.6456 205.284 60.4573 204.357 60.3718L204.392 60.1973H207.964L207.96 60.2007Z" fill="#212A52"/>
<path d="M98.3873 48.9756C98.0519 49.0269 97.7199 49.0851 97.3949 49.157C97.0699 49.2288 96.7794 49.287 96.5236 49.3384C96.2677 49.3897 96.1017 49.4136 96.0187 49.4136C95.8562 49.4136 95.6211 49.3691 95.3168 49.2768C95.0125 49.1878 94.6598 49.0646 94.2622 48.914C93.8645 48.7634 93.4531 48.5821 93.0243 48.3699C92.5955 48.1577 92.1875 47.9422 91.8037 47.7197C91.8037 47.641 91.8175 47.5247 91.8487 47.3707C91.8798 47.2201 91.9213 47.0695 91.9697 46.919C92.0216 46.7684 92.0769 46.6315 92.1391 46.5117C92.2014 46.392 92.2705 46.3304 92.3535 46.3304C92.4953 46.3304 92.8376 46.3441 93.377 46.3749C93.9164 46.4056 94.5284 46.4399 95.2096 46.4809C95.8908 46.522 96.5996 46.5562 97.3327 46.587C98.0657 46.6178 98.695 46.6315 99.2275 46.6315H104.297C104.255 46.2893 104.221 45.9368 104.189 45.5741C104.158 45.2114 104.144 44.8897 104.144 44.6056L104.113 40.7661C103.135 40.6258 102.246 40.352 101.441 39.9517C100.635 39.5479 99.9537 39.0448 99.3935 38.4391C98.8334 37.8334 98.3942 37.1456 98.0796 36.3688C97.7649 35.592 97.6058 34.7604 97.6058 33.8741C97.6058 32.868 97.8029 31.9338 98.2006 31.0783C98.5982 30.2228 99.1515 29.4802 99.8638 28.8574C100.576 28.2345 101.427 27.7452 102.416 27.3927C103.405 27.0403 104.497 26.8623 105.7 26.8623C106.904 26.8623 107.972 27.0403 108.968 27.3927C109.964 27.7452 110.821 28.2345 111.534 28.8574C112.246 29.4836 112.803 30.2228 113.197 31.0783C113.595 31.9338 113.792 32.868 113.792 33.8741C113.792 34.7399 113.643 35.5509 113.349 36.3072C113.055 37.0634 112.637 37.7444 112.097 38.3467C111.558 38.9524 110.908 39.4555 110.144 39.8593C109.38 40.2631 108.529 40.5539 107.592 40.7353L107.53 44.1505C107.53 44.3935 107.499 44.7596 107.44 45.2524C107.377 45.7452 107.308 46.2038 107.225 46.6281H112.723C113.09 46.6281 113.415 46.5939 113.702 46.522C113.985 46.4501 114.252 46.3749 114.497 46.2961C114.743 46.2174 114.957 46.1387 115.14 46.0703C115.323 45.9984 115.496 45.9642 115.659 45.9642C115.884 45.9642 116.198 45.9882 116.606 46.0395C117.014 46.0908 117.419 46.1558 117.827 46.2345C118.235 46.3167 118.594 46.4022 118.913 46.4912C119.227 46.5836 119.407 46.6691 119.449 46.7479C119.528 46.8882 119.58 47.0661 119.601 47.2783C119.621 47.4904 119.615 47.7026 119.587 47.9114C119.556 48.1235 119.514 48.3186 119.466 48.4999C119.414 48.6813 119.359 48.8114 119.296 48.8935H99.2241C98.9993 48.8935 98.7192 48.9174 98.3838 48.9688L98.3873 48.9756ZM107.578 38.0353C108.159 37.8231 108.657 37.522 109.075 37.1285C109.494 36.7349 109.822 36.2627 110.068 35.7083C110.313 35.1539 110.434 34.5448 110.434 33.8809C110.434 33.2171 110.313 32.6114 110.068 32.0672C109.822 31.5231 109.494 31.0543 109.075 30.6608C108.657 30.2672 108.159 29.9593 107.578 29.7403C106.997 29.5178 106.371 29.4083 105.7 29.4083C105.03 29.4083 104.404 29.5178 103.823 29.7403C103.242 29.9627 102.744 30.2707 102.326 30.6608C101.907 31.0543 101.579 31.5231 101.333 32.0672C101.088 32.6114 100.967 33.2171 100.967 33.8809C100.967 34.5448 101.088 35.1539 101.333 35.7083C101.579 36.2627 101.907 36.7349 102.326 37.1285C102.744 37.522 103.242 37.8231 103.823 38.0353C104.404 38.2475 105.03 38.3536 105.7 38.3536C106.371 38.3536 106.997 38.2475 107.578 38.0353Z" fill="#212A52"/>
<path d="M138.076 51.214C137.993 50.8821 137.916 50.492 137.847 50.0505C137.775 49.6057 137.716 49.1231 137.664 48.5996C137.612 48.076 137.588 47.5524 137.588 47.0288V43.795C136.793 44.1372 135.852 44.4794 134.763 44.8216C133.674 45.1638 132.616 45.4752 131.585 45.7593C130.558 46.0433 129.642 46.2691 128.836 46.4403C128.031 46.6114 127.519 46.6969 127.294 46.6969C126.969 46.6969 126.616 46.5874 126.24 46.365C125.863 46.1425 125.51 45.8859 125.185 45.595C124.86 45.3041 124.59 45.0201 124.376 44.7498C124.161 44.4794 124.054 44.2809 124.054 44.1612L124.023 38.6003C124.023 38.2992 123.895 38.0015 123.643 37.7072C123.387 37.4163 123.19 37.2384 123.048 37.1768C123.048 37.1357 123.062 37.057 123.093 36.9338C123.124 36.814 123.159 36.6908 123.2 36.5711C123.242 36.4513 123.297 36.3452 123.37 36.2528C123.442 36.1604 123.508 36.1159 123.567 36.1159C123.688 36.1159 123.926 36.1262 124.286 36.1467C124.642 36.1672 125.029 36.1809 125.448 36.1912C125.866 36.2015 126.26 36.2152 126.641 36.2357C127.018 36.2562 127.287 36.2665 127.45 36.2665H130.932C130.932 36.0441 130.935 35.7224 130.946 35.298C130.956 34.8737 130.966 34.4357 130.977 33.984C130.987 33.5288 130.991 33.0908 130.991 32.6699V31.7015H127.571C127.408 31.7015 127.235 31.7152 127.052 31.746C126.869 31.7768 126.689 31.8076 126.516 31.8384C126.343 31.8692 126.191 31.8931 126.056 31.9136C125.925 31.9342 125.828 31.9444 125.766 31.9444C125.645 31.9444 125.451 31.8931 125.185 31.7939C124.919 31.6946 124.649 31.568 124.376 31.4174C124.103 31.2669 123.83 31.1095 123.567 30.9486C123.3 30.7878 123.107 30.6475 122.986 30.5243C123.027 30.2813 123.103 30.011 123.214 29.7098C123.325 29.4087 123.432 29.2581 123.536 29.2581C123.619 29.2581 123.798 29.2684 124.085 29.2889C124.369 29.3095 124.708 29.33 125.095 29.3505C125.482 29.3711 125.894 29.3916 126.333 29.4121C126.772 29.4326 127.184 29.4429 127.571 29.4429H129.77C130.157 29.4429 130.545 29.3882 130.932 29.2752C131.319 29.1657 131.592 29.1076 131.755 29.1076C132.222 29.1076 132.685 29.1418 133.145 29.2136C133.605 29.2855 133.912 29.3403 134.075 29.3813C134.483 29.5011 134.656 29.8467 134.594 30.4079C134.552 30.7091 134.497 31.1745 134.424 31.7973C134.352 32.4235 134.272 33.0634 134.179 33.7171C134.085 34.3707 133.995 34.973 133.905 35.5171C133.812 36.0612 133.736 36.4136 133.677 36.5745C133.861 36.6361 134.03 36.7524 134.182 36.9235C134.334 37.0946 134.41 37.252 134.41 37.3923C134.41 37.5942 134.338 37.7996 134.196 38.0117C134.054 38.2239 133.84 38.33 133.553 38.33H127.443V43.8326C127.93 43.8532 128.605 43.819 129.459 43.7266C130.313 43.6376 131.226 43.5041 132.194 43.333C133.162 43.1619 134.123 42.96 135.081 42.7273C136.039 42.4946 136.872 42.238 137.585 41.9574V29.857C137.585 29.6551 137.533 29.4908 137.432 29.3574C137.332 29.2273 137.228 29.111 137.128 29.0083L135.385 27.4958C135.468 27.2733 135.569 27.0235 135.69 26.7395C135.811 26.4589 135.946 26.3152 136.087 26.3152C136.333 26.3152 136.647 26.346 137.035 26.4041C137.422 26.4657 137.83 26.5444 138.255 26.6471C138.684 26.7498 139.099 26.8593 139.507 26.979C139.915 27.0988 140.261 27.222 140.544 27.3418C140.707 27.4239 140.818 27.5095 140.88 27.5984C140.942 27.6874 140.97 27.814 140.97 27.9749C140.97 28.1357 140.956 28.3992 140.925 28.7619C140.894 29.1247 140.88 29.4669 140.88 29.7885L140.849 35.7429H143.75V28.0365C143.75 27.8345 143.698 27.6703 143.598 27.5368C143.494 27.4068 143.394 27.2904 143.293 27.1878L141.554 25.6752C141.654 25.4323 141.762 25.1756 141.876 24.9053C141.986 24.6349 142.114 24.498 142.256 24.498C142.501 24.498 142.82 24.5288 143.217 24.587C143.615 24.6486 144.03 24.7273 144.469 24.83C144.908 24.9326 145.333 25.0422 145.752 25.1619C146.17 25.2817 146.519 25.4049 146.806 25.5247C146.969 25.6068 147.08 25.6923 147.142 25.7813C147.204 25.8703 147.232 25.9969 147.232 26.1577C147.232 26.3186 147.218 26.5821 147.187 26.9448C147.156 27.3076 147.142 27.6498 147.142 27.9714L147.08 47.9802C147.08 48.6235 147.028 49.2634 146.927 49.8999C146.824 50.533 146.71 51.1285 146.575 51.6828C146.443 52.2372 146.302 52.7163 146.146 53.1201C145.994 53.5239 145.856 53.8045 145.734 53.9653H144.483C144.4 53.825 144.32 53.5821 144.237 53.2399C144.154 52.8977 144.078 52.4939 144.009 52.0319C143.936 51.5699 143.878 51.0703 143.826 50.5364C143.774 50.0026 143.75 49.4722 143.75 48.9486V37.8851H140.849L140.818 46.0467C140.818 46.6935 140.766 47.3266 140.665 47.9494C140.562 48.5722 140.448 49.1539 140.313 49.6878C140.181 50.2216 140.04 50.687 139.884 51.0771C139.732 51.4707 139.593 51.7479 139.472 51.9087H138.311C138.228 51.7684 138.148 51.5323 138.065 51.1969L138.076 51.214Z" fill="#212A52"/>
<path d="M156.948 39.6682C156.357 39.1549 156.053 38.4842 156.032 37.6594L155.97 30.829C155.97 30.5861 155.866 30.367 155.665 30.1651C155.644 30.1446 155.579 30.0899 155.468 29.9975C155.357 29.9051 155.233 29.8058 155.102 29.6963C154.97 29.5868 154.832 29.4739 154.69 29.3644C154.548 29.2549 154.434 29.1693 154.355 29.1077C154.355 29.0085 154.369 28.8853 154.4 28.745C154.431 28.6047 154.476 28.4678 154.538 28.3378C154.6 28.2077 154.666 28.0948 154.735 28.0058C154.808 27.9169 154.873 27.8689 154.932 27.8689C155.053 27.8689 155.302 27.8758 155.679 27.8826C156.056 27.8929 156.478 27.9066 156.948 27.9271C157.415 27.9476 157.889 27.9682 158.369 27.9887C158.846 28.0092 159.241 28.0298 159.545 28.0503H168.217C168.521 28.0503 168.832 28.0264 169.147 27.975C169.462 27.9237 169.763 27.8758 170.05 27.8245C170.333 27.7731 170.599 27.7286 170.845 27.6876C171.09 27.6465 171.291 27.626 171.457 27.626C171.702 27.6465 171.965 27.667 172.252 27.6876C172.536 27.7081 172.802 27.7389 173.047 27.78C173.293 27.821 173.511 27.8689 173.704 27.9305C173.898 27.9921 174.026 28.0606 174.085 28.1427C174.147 28.2248 174.185 28.3686 174.206 28.5807C174.227 28.7929 174.23 29.0085 174.22 29.2309C174.209 29.4534 174.175 29.6689 174.112 29.8811C174.05 30.0933 173.971 30.2404 173.867 30.3191H159.635V37.1804C159.635 37.5636 159.742 37.8203 159.956 37.9503C160.171 38.0804 160.43 38.1454 160.734 38.1454H168.155C168.459 38.1454 168.77 38.1146 169.085 38.053C169.399 37.9914 169.7 37.9332 169.987 37.8716C170.271 37.81 170.537 37.7553 170.783 37.7039C171.028 37.6526 171.229 37.6286 171.395 37.6286C171.619 37.6492 171.889 37.6697 172.204 37.6902C172.518 37.7108 172.823 37.7416 173.12 37.7792C173.414 37.8203 173.673 37.8716 173.898 37.9298C174.123 37.9914 174.265 38.0598 174.327 38.1419C174.389 38.2241 174.427 38.3678 174.448 38.58C174.469 38.7921 174.472 39.018 174.462 39.261C174.451 39.5039 174.417 39.7298 174.354 39.9419C174.292 40.1541 174.213 40.3013 174.109 40.38L166.841 40.4108L166.778 43.9765C166.778 44.2195 166.747 44.6062 166.689 45.14C166.626 45.6739 166.557 46.1735 166.474 46.6355H171.972C172.339 46.6355 172.664 46.6013 172.951 46.5294C173.234 46.4575 173.5 46.3823 173.746 46.3035C173.991 46.2248 174.206 46.1461 174.389 46.0777C174.572 46.0058 174.745 45.9716 174.908 45.9716C175.132 45.9716 175.447 45.9956 175.855 46.0469C176.263 46.0982 176.668 46.1632 177.076 46.2419C177.484 46.3241 177.843 46.4096 178.161 46.4986C178.476 46.591 178.656 46.6765 178.697 46.7553C178.777 46.8956 178.829 47.0735 178.85 47.2857C178.87 47.4978 178.863 47.71 178.836 47.9188C178.805 48.1309 178.763 48.326 178.715 48.5073C178.663 48.6887 178.608 48.8188 178.545 48.9009H158.48C158.255 48.9009 157.975 48.9248 157.64 48.9762C157.304 49.0275 156.972 49.0857 156.647 49.1575C156.322 49.2294 156.032 49.2876 155.776 49.3389C155.52 49.3902 155.354 49.4142 155.271 49.4142C155.109 49.4142 154.873 49.3697 154.569 49.2773C154.265 49.1883 153.912 49.0651 153.515 48.9146C153.117 48.764 152.705 48.5826 152.277 48.3705C151.848 48.1583 151.44 47.9427 151.056 47.7203C151.056 47.6416 151.07 47.5252 151.101 47.3712C151.132 47.2207 151.174 47.0701 151.222 46.9195C151.274 46.7689 151.329 46.6321 151.391 46.5123C151.454 46.3925 151.523 46.3309 151.606 46.3309C151.748 46.3309 152.09 46.3446 152.629 46.3754C153.169 46.4062 153.781 46.4404 154.462 46.4815C155.143 46.5226 155.852 46.5568 156.585 46.5876C157.318 46.6184 157.947 46.6321 158.48 46.6321H163.549C163.507 46.2693 163.473 45.8861 163.442 45.4823C163.411 45.0785 163.397 44.7362 163.397 44.4556L163.366 40.4347H159.244C158.307 40.4347 157.543 40.1781 156.955 39.6648L156.948 39.6682Z" fill="#212A52"/>
<path d="M187.75 37.3544C187.394 37.2141 187.093 37.0327 186.847 36.8102C186.602 36.5878 186.419 36.3414 186.298 36.0711C186.177 35.8007 186.114 35.5236 186.114 35.2395L186.083 33.3642C186.083 33.2034 186.031 33.0426 185.931 32.8817C185.827 32.7209 185.706 32.5737 185.565 32.4437C185.423 32.3137 185.278 32.1973 185.136 32.0947C184.994 31.9954 184.88 31.9236 184.8 31.8825C184.88 31.6019 184.984 31.3384 185.105 31.0954C185.226 30.8525 185.361 30.7327 185.502 30.7327C185.748 30.7327 186.266 30.7566 187.058 30.808C187.854 30.8593 188.708 30.8833 189.624 30.8833H199.243L199.306 28.5563H190.724C190.253 28.5563 189.811 28.6315 189.396 28.7821C188.977 28.9327 188.638 29.008 188.372 29.008C188.23 29.008 188.006 28.9532 187.701 28.8403C187.397 28.7308 187.065 28.5973 186.709 28.4468C186.353 28.2962 186 28.1353 185.654 27.9642C185.309 27.7931 185.022 27.646 184.8 27.5262C184.821 27.427 184.856 27.2935 184.908 27.1327C184.959 26.9718 185.018 26.8144 185.091 26.6639C185.163 26.5133 185.239 26.3867 185.319 26.2874C185.399 26.1882 185.482 26.1369 185.565 26.1369C185.931 26.1779 186.329 26.2122 186.757 26.2429C187.186 26.2737 187.629 26.2977 188.085 26.3182C188.545 26.3388 188.995 26.3525 189.444 26.3627C189.89 26.373 190.319 26.3764 190.727 26.3764H197.203C197.407 26.3764 197.625 26.3559 197.86 26.3148C198.095 26.2737 198.317 26.2361 198.531 26.195C198.746 26.154 198.939 26.1163 199.112 26.0753C199.285 26.0342 199.402 26.0137 199.465 26.0137C199.586 26.0137 199.769 26.0205 200.015 26.0274C200.26 26.0376 200.523 26.0582 200.81 26.089C201.093 26.1198 201.384 26.154 201.681 26.195C201.975 26.2361 202.245 26.2874 202.49 26.3456C202.815 26.4277 203.03 26.592 203.133 26.8452C203.234 27.0985 203.265 27.3243 203.223 27.5262C203.182 27.7692 203.127 28.0464 203.054 28.3578C202.981 28.6692 202.912 28.9909 202.84 29.3262C202.767 29.6582 202.698 29.9798 202.625 30.2947C202.553 30.6061 202.497 30.873 202.456 31.0954C202.639 31.157 202.791 31.2528 202.916 31.3829C203.037 31.5129 203.099 31.6909 203.099 31.9133C203.099 32.1973 203.009 32.4266 202.826 32.608C202.642 32.7893 202.407 32.8783 202.124 32.8783H189.631V34.449C189.631 34.7502 189.752 34.9829 189.997 35.1437C190.243 35.3045 190.547 35.3867 190.914 35.3867H197.632C197.936 35.3867 198.248 35.3627 198.562 35.3114C198.877 35.2601 199.167 35.2053 199.434 35.1437C199.696 35.0821 199.928 35.0274 200.122 34.976C200.315 34.9247 200.454 34.9007 200.533 34.9007C200.796 34.9007 201.097 34.9144 201.436 34.9452C201.771 34.976 202.093 35.0171 202.397 35.065C202.701 35.1163 202.978 35.1677 203.22 35.2156C203.465 35.2669 203.638 35.3011 203.739 35.3217C203.88 35.3833 203.984 35.4996 204.043 35.6707C204.105 35.8418 204.136 36.0437 204.136 36.2764C204.136 36.5091 204.102 36.7418 204.029 36.9711C203.956 37.2038 203.87 37.3988 203.77 37.5597H196.439L196.408 38.7985C196.387 38.9593 196.356 39.1749 196.318 39.4487C196.277 39.719 196.228 39.9962 196.166 40.2802H201.602C201.968 40.2802 202.293 40.246 202.58 40.1741C202.864 40.1023 203.13 40.027 203.375 39.9483C203.621 39.8696 203.835 39.7909 204.019 39.7224C204.202 39.6506 204.375 39.6163 204.537 39.6163C204.762 39.6163 205.077 39.6403 205.485 39.6916C205.893 39.7429 206.297 39.808 206.705 39.8867C207.113 39.9688 207.473 40.0544 207.791 40.1433C208.106 40.2323 208.286 40.3213 208.327 40.4C208.407 40.5403 208.458 40.7182 208.479 40.9304C208.5 41.1426 208.493 41.3479 208.465 41.5498C208.434 41.7517 208.393 41.9433 208.344 42.1247C208.292 42.3061 208.237 42.4361 208.175 42.5182H188.109C187.885 42.5182 187.605 42.5422 187.269 42.5935C186.934 42.6448 186.602 42.703 186.277 42.7749C185.952 42.8468 185.661 42.9049 185.405 42.9563C185.15 43.0076 184.984 43.0315 184.901 43.0315C184.738 43.0315 184.503 42.9871 184.199 42.8947C183.894 42.8057 183.542 42.6825 183.144 42.5319C182.746 42.3814 182.335 42.2 181.906 41.9878C181.477 41.7756 181.069 41.5601 180.686 41.3376C180.686 41.2589 180.699 41.1426 180.731 40.9886C180.762 40.838 180.803 40.6874 180.852 40.5334C180.903 40.3829 180.959 40.2528 181.021 40.1399C181.083 40.0304 181.152 39.9722 181.235 39.9722C181.377 39.9722 181.719 39.9859 182.259 40.0167C182.798 40.0475 183.41 40.0817 184.092 40.1228C184.773 40.1639 185.482 40.1981 186.215 40.2289C186.948 40.2597 187.577 40.2734 188.109 40.2734H193.21C193.168 40.0304 193.137 39.7943 193.12 39.5616C193.099 39.3289 193.089 39.1338 193.089 38.973L193.057 37.5528H189.026C188.538 37.5528 188.113 37.481 187.757 37.3407L187.75 37.3544ZM203.296 46.635C203.265 46.8985 203.241 47.1688 203.22 47.4494L203.068 50.8646C203.047 51.2068 202.995 51.5593 202.916 51.922C202.833 52.2848 202.736 52.6338 202.625 52.9658C202.514 53.2977 202.397 53.5954 202.272 53.8589C202.151 54.119 202.027 54.3141 201.906 54.4338H200.225C200.163 54.3312 200.098 54.1669 200.028 53.9342C199.956 53.7015 199.887 53.4414 199.814 53.1471C199.741 52.8563 199.683 52.5483 199.631 52.2266C199.579 51.9049 199.555 51.6004 199.555 51.3198V47.2988H191.339C191.073 47.2988 190.793 47.3194 190.499 47.3604C190.205 47.4015 189.928 47.4494 189.672 47.511C189.416 47.5726 189.195 47.6205 189.002 47.6616C188.808 47.7026 188.68 47.7232 188.621 47.7232C188.459 47.7232 188.21 47.6616 187.874 47.5418C187.539 47.422 187.186 47.2749 186.82 47.1038C186.453 46.9327 186.107 46.765 185.782 46.6042C185.457 46.4433 185.233 46.3133 185.112 46.2106C185.112 45.93 185.163 45.646 185.264 45.3654C185.364 45.0848 185.488 44.941 185.63 44.941C185.71 44.941 185.99 44.9513 186.47 44.9718C186.948 44.9924 187.487 45.0061 188.089 45.0163C188.69 45.0266 189.295 45.0403 189.907 45.0608C190.52 45.0814 190.997 45.0916 191.342 45.0916H198.459C198.621 45.0916 198.815 45.0779 199.039 45.0471C199.264 45.0163 199.492 44.9821 199.728 44.941C199.963 44.9 200.17 44.8658 200.353 44.835C200.537 44.8042 200.668 44.7905 200.751 44.7905C201.014 44.7905 201.346 44.8213 201.743 44.8829C202.141 44.9445 202.421 44.9924 202.584 45.0334C202.746 45.0745 202.916 45.1532 203.088 45.2764C203.261 45.3962 203.348 45.5878 203.348 45.8513C203.348 46.1148 203.334 46.3749 203.303 46.6384L203.296 46.635Z" fill="#212A52"/>
<path d="M244.855 21.5586H220.284C217.44 21.5586 215.135 23.8399 215.135 26.654V50.9711C215.135 53.7853 217.44 56.0666 220.284 56.0666H244.855C247.698 56.0666 250.003 53.7853 250.003 50.9711V26.654C250.003 23.8399 247.698 21.5586 244.855 21.5586Z" fill="#212A52"/>
<path d="M228.572 32.6629C228.455 32.7792 228.178 32.8203 227.739 32.7861C227.269 33.3849 226.664 34.1412 225.924 35.0549C225.184 35.9515 224.485 36.8001 223.832 37.6009L227.186 37.3032C227.002 36.9883 226.833 36.7214 226.681 36.5058C226.498 36.2218 226.311 35.9891 226.128 35.8077L226.28 35.6093C226.75 35.8933 227.179 36.2252 227.566 36.6085C227.953 36.9747 228.306 37.4229 228.624 37.9568C228.724 38.3229 228.759 38.6309 228.724 38.8807C228.69 39.0792 228.607 39.2127 228.472 39.2811C228.337 39.3324 228.202 39.2982 228.067 39.1819C227.915 39.0484 227.815 38.8568 227.767 38.607C227.732 38.4735 227.684 38.3229 227.614 38.1587C227.549 38.0081 227.473 37.8439 227.386 37.6591L225.571 38.0321C224.731 38.1998 224.132 38.3229 223.78 38.4051C223.209 38.5385 222.78 38.672 222.494 38.8055C222.293 39.2709 222.117 39.5138 221.964 39.5275C221.812 39.5412 221.653 39.3119 221.484 38.8294L221.207 37.9055C221.494 37.8541 221.83 37.8062 222.217 37.7549C222.504 37.7207 222.881 37.6899 223.351 37.6556C223.773 36.9233 224.267 36.102 224.838 35.1849C225.191 34.6032 225.72 33.7785 226.425 32.7142L227.307 31.342L228.265 32.0161C228.6 32.3138 228.7 32.5328 228.565 32.6663L228.572 32.6629ZM242.058 40.5712L243.645 41.745C243.845 41.9127 243.873 42.0427 243.721 42.1454C243.603 42.2275 243.41 42.2686 243.14 42.2686H233.738C234.831 43.8153 236.193 45.0473 237.822 45.961C239.485 46.8747 241.518 47.5077 243.921 47.8568V48.1066C243.147 48.0895 242.559 48.1648 242.158 48.3324C241.822 48.4659 241.612 48.6747 241.529 48.9553C239.713 48.3735 238.085 47.5009 236.639 46.3374C235.194 45.191 234.042 43.8256 233.185 42.2446H232.933V48.3804L232.984 48.856C233.036 49.1058 233.043 49.2804 233.009 49.3796C232.943 49.5473 232.756 49.7115 232.455 49.8792C232.051 50.0777 231.798 50.1461 231.698 50.0777C231.632 50.0435 231.605 49.91 231.622 49.6773V42.9427C230.076 44.7393 228.396 46.2039 226.581 47.3332C224.917 48.3461 223.202 49.0613 221.439 49.4788L221.287 49.253C222.902 48.6712 224.53 47.7644 226.176 46.5325C227.874 45.2697 229.319 43.8461 230.512 42.2652H224.084L221.816 42.4157L221.615 41.7655L223.631 41.8648H231.622V38.8944L232.908 39.1921C233.496 39.3256 233.773 39.4762 233.742 39.6404C233.724 39.791 233.455 39.9484 232.936 40.1161V41.8613H240.827L242.061 40.5644L242.058 40.5712ZM226.529 28.9944C226.463 29.0594 226.218 29.1176 225.799 29.169L225.775 29.1929C225.64 29.3435 225.474 29.5591 225.27 29.8431C225.153 30.0245 224.959 30.3188 224.689 30.7157C224.419 31.1332 224.209 31.448 224.06 31.6636C223.842 31.9956 223.655 32.2625 223.507 32.461C223.742 32.6594 223.96 32.8613 224.164 33.0598C224.381 33.2925 224.575 33.5355 224.745 33.7819C224.862 34.0967 224.904 34.3979 224.869 34.6785C224.834 34.9454 224.751 35.1199 224.617 35.202C224.482 35.3013 224.34 35.2773 224.188 35.1267C224.018 34.9591 223.887 34.6785 223.783 34.2781C223.718 33.9632 223.455 33.5286 223.002 32.9811C222.497 32.3823 221.978 31.9511 221.439 31.6842L221.591 31.4857C221.878 31.5849 222.144 31.6944 222.397 31.8108C222.684 31.9442 222.95 32.0948 223.202 32.2591L223.707 31.01C224.06 30.1956 224.312 29.6036 224.464 29.2374C224.734 28.6043 224.952 28.1492 225.121 27.8652L225.979 28.3408C226.449 28.6556 226.636 28.8747 226.532 28.991L226.529 28.9944ZM234.495 29.6686L235.377 30.4933C235.747 30.7773 235.906 30.9826 235.858 31.1161C235.823 31.2325 235.616 31.3146 235.228 31.3659V38.0766L235.253 38.4256C235.287 38.6412 235.287 38.7986 235.253 38.9013C235.187 39.0518 235.018 39.1921 234.748 39.3256C234.378 39.4762 234.15 39.5172 234.067 39.4488C234.001 39.4146 233.984 39.2914 234.015 39.0758L234.039 38.826V38.4769H230.661V38.7267L230.685 39.0245C230.72 39.175 230.702 39.2811 230.633 39.3496C230.567 39.4488 230.374 39.5583 230.052 39.6747C229.699 39.7739 229.482 39.7671 229.395 39.6507C229.33 39.5857 229.312 39.4112 229.343 39.1271L229.395 38.7781V30.8937L229.319 29.7473L230.706 30.4693H231.563L232.044 27.5264L232.977 27.7762C233.482 27.9096 233.735 28.0602 233.735 28.2245C233.735 28.375 233.5 28.5085 233.029 28.6248L232.877 28.8986C232.677 29.2648 232.524 29.5385 232.424 29.7233C232.272 30.0074 232.137 30.2469 232.02 30.4454H233.634L234.492 29.672L234.495 29.6686ZM230.664 34.1583H233.991V30.8663H230.664V34.1583ZM230.664 38.0766H233.991V34.5587H230.664V38.0766ZM243.219 32.064C243.154 32.1804 242.884 32.2454 242.414 32.2625L238.154 37.3511L241.833 37.0534C241.715 36.872 241.58 36.6701 241.428 36.4545C241.328 36.3382 241.193 36.1636 241.024 35.9309L240.647 35.4313L240.747 35.1815C241.318 35.4963 241.888 35.972 242.462 36.6051C242.915 37.1218 243.237 37.5598 243.42 37.926C243.454 38.2579 243.427 38.5659 243.344 38.8499C243.278 39.0826 243.167 39.2401 243.015 39.3256C242.88 39.3906 242.756 39.3598 242.638 39.2264C242.504 39.0587 242.421 38.7849 242.386 38.4017C242.351 38.234 242.303 38.0697 242.234 37.902C242.182 37.7686 242.116 37.6112 242.033 37.4264L237.116 38.4735C236.964 39.0074 236.798 39.2709 236.612 39.2709C236.425 39.2709 236.259 38.9971 236.107 38.4461L235.854 37.6214L236.76 37.4982L237.49 37.4229L241.826 30.8115L242.708 31.3591C243.129 31.6739 243.295 31.9066 243.212 32.0572L243.219 32.064ZM240.723 29.2956C240.706 29.4632 240.453 29.5351 239.966 29.5214C239.613 30.0039 239.309 30.4283 239.06 30.7944C238.655 31.3283 238.313 31.7766 238.026 32.1427C238.244 32.3104 238.437 32.4849 238.607 32.6663C238.776 32.834 238.901 32.9914 238.984 33.142C239.184 33.8058 239.143 34.2131 238.859 34.3636C238.572 34.5313 238.296 34.2404 238.026 33.491C237.926 33.207 237.725 32.899 237.421 32.5671C237.085 32.1667 236.639 31.7594 236.086 31.3454L236.238 31.1195C236.456 31.1845 236.708 31.3009 236.995 31.4686C237.213 31.5849 237.466 31.7423 237.753 31.9442L238.382 30.3735C238.6 29.8397 238.759 29.4598 238.863 29.2271C239.032 28.8096 239.191 28.4777 239.343 28.2279L240.277 28.7754C240.595 28.991 240.747 29.1655 240.73 29.299L240.723 29.2956Z" fill="#EBBD2F"/>
</g>
<g clip-path="url(#clip1_344_1901)">
<path d="M55.0718 21.0899C53.1908 19.2214 50.6839 18.1982 48.018 18.1982H27.4408C24.7714 18.1982 22.268 19.2214 20.3801 21.0899L5.82977 35.4899C3.94183 37.3583 2.90796 39.8359 2.90796 42.4777V62.8423C2.90796 65.4773 3.94183 67.9617 5.82977 69.8233L20.3801 84.2233C22.268 86.0918 24.7714 87.1184 27.4408 87.1184H48.018C50.6874 87.1184 53.1908 86.0884 55.0718 84.2233L69.6221 69.8233C71.5101 67.9617 72.5474 65.4773 72.5474 62.8423V42.4777C72.5474 39.8393 71.5066 37.3583 69.6221 35.4899L55.0718 21.0899ZM70.9326 62.8423C70.9326 65.0496 70.0612 67.1302 68.481 68.6941L53.9308 83.0941C52.3506 84.6579 50.2482 85.5203 48.018 85.5203H27.4408C25.2036 85.5203 23.1013 84.6545 21.5246 83.0941L6.97429 68.6941C5.39409 67.1302 4.52619 65.0496 4.52619 62.8423V42.4777C4.52619 40.2636 5.39409 38.183 6.97429 36.6226L21.5246 22.2226C23.1048 20.6587 25.2071 19.7998 27.4408 19.7998H48.018C50.2482 19.7998 52.3506 20.6587 53.9308 22.2226L68.481 36.6226C70.0612 38.1865 70.9326 40.2671 70.9326 42.4777V62.8423Z" fill="#212A52"/>
<path d="M75.4554 63.7113V41.6048C75.4554 38.7611 74.3385 36.0851 72.3088 34.0729L68.2563 30.0623L67.6858 30.6269L71.8351 26.5204C73.7576 24.6212 73.7576 21.5277 71.8351 19.6284C69.916 17.7257 66.7902 17.7257 64.8712 19.6284L61.2889 23.1702L56.5137 18.4375C54.4771 16.4254 51.7766 15.3166 48.8997 15.3166H47.8105C47.7898 14.6972 47.7448 14.0676 47.6757 13.4277C46.9738 5.36187 45.0132 -0.00390625 37.7173 -0.00390625C30.4214 -0.00390625 28.4574 5.36187 27.7624 13.4037C27.6863 14.0607 27.6448 14.6904 27.6172 15.3132H26.5626C23.6892 15.3132 20.9852 16.4219 18.952 18.4341L14.8995 22.4448L11.3207 18.8995C9.40167 17.0003 6.27585 17.0003 4.35679 18.8995C2.43427 20.8022 2.43427 23.8923 4.35679 25.795L7.93557 29.3368L3.15348 34.0661C1.12032 36.0782 0 38.7543 0 41.598V63.7045C0 66.5516 1.12032 69.2242 3.15348 71.2398L7.20599 75.247L3.62374 78.7889C1.70468 80.6915 1.70468 83.7851 3.62374 85.6843C4.58154 86.6322 5.84363 87.1079 7.10571 87.1079C8.36779 87.1079 9.63334 86.6322 10.5911 85.6843L14.1699 82.1425L18.9486 86.8683C20.9817 88.8839 23.6857 89.9927 26.5591 89.9927H48.8963C51.7731 89.9927 54.4737 88.8839 56.5103 86.8683L60.5559 82.8645L59.9853 82.2999L64.1347 86.4064C65.0994 87.3543 66.3615 87.8368 67.6201 87.8368C68.8787 87.8368 70.1408 87.3577 71.1021 86.4064C73.0211 84.5071 73.0211 81.4136 71.1021 79.5143L67.5233 75.9691L72.3019 71.2432C74.3351 69.2277 75.4485 66.555 75.4485 63.7079L75.4554 63.7113ZM66.0122 20.7577C67.2985 19.4778 69.4008 19.4778 70.6906 20.7577C71.9838 22.0341 71.9838 24.1113 70.6906 25.3877L67.1118 28.9296L62.4334 24.2995L66.0122 20.7577ZM29.3668 13.5645C30.131 4.73221 32.3197 1.60104 37.7139 1.60104C43.108 1.60104 45.2898 4.73221 46.0609 13.5851C46.1266 14.1839 46.1681 14.752 46.1888 15.32H29.2285C29.2562 14.7554 29.2942 14.1737 29.3634 13.5645H29.3668ZM5.49785 24.6691C4.20464 23.3892 4.20464 21.3155 5.49785 20.0356C6.79105 18.7558 8.883 18.7592 10.1762 20.0356L13.755 23.5809L9.07664 28.2109L5.49785 24.6691ZM9.44662 84.5584C8.15341 85.8349 6.05801 85.8349 4.7648 84.5584C3.47506 83.2786 3.47506 81.2048 4.7648 79.9284L8.34705 76.3797L13.0254 81.0098L9.44662 84.555V84.5584ZM69.9644 80.6505C71.2507 81.9269 71.2507 84.0041 69.9644 85.2805C68.6712 86.5603 66.5758 86.5569 65.2861 85.2805L61.7038 81.7387L66.3857 77.1086L69.9644 80.6505ZM55.3658 85.7425C53.6403 87.4535 51.3444 88.398 48.8997 88.398H26.5626C24.1214 88.398 21.8254 87.4535 20.0965 85.7425L4.30146 70.1105C2.57604 68.4029 1.62169 66.1307 1.62169 63.7113V41.6048C1.62169 39.1889 2.57604 36.9166 4.30146 35.2056L20.0965 19.5737C21.8254 17.8661 24.1214 16.9216 26.5626 16.9216H48.8997C51.3478 16.9216 53.6438 17.8661 55.3658 19.5737L71.1608 35.2056C72.8897 36.9166 73.8406 39.1889 73.8406 41.6048V63.7113C73.8406 66.1341 72.8932 68.4064 71.1608 70.1105L55.3658 85.7425Z" fill="#212A52"/>
<path d="M32.2056 24.9844H29.4083C28.1082 24.9844 26.8738 25.4703 25.9436 26.3498L11.7875 39.4323C10.7951 40.3665 10.2246 41.684 10.2246 43.0391V46.8787C10.2246 49.6266 12.4825 51.8612 15.2591 51.8612H32.2091C34.9857 51.8612 37.2436 49.6266 37.2436 46.8787V29.96C37.2436 27.2121 34.9857 24.9844 32.2091 24.9844H32.2056ZM35.6219 46.8787C35.6219 48.7471 34.0901 50.2597 32.2056 50.2597H15.2557C13.3746 50.2597 11.8394 48.7437 11.8394 46.8787V43.0391C11.8394 42.122 12.2267 41.2254 12.894 40.5958L27.0501 27.5133C27.6863 26.9144 28.5197 26.5859 29.4048 26.5859H32.2022C34.0901 26.5859 35.6184 28.1019 35.6184 29.9635V46.8821L35.6219 46.8787Z" fill="#212A52"/>
<path d="M64.0931 47.1554C63.2563 50.0334 61.3615 50.4132 58.5365 50.2524C54.484 50.2524 45.4696 50.2524 43.8963 50.2524C42.2054 50.3345 40.4385 49.0649 40.2103 47.3094C40.0685 46.4128 40.1792 45.8414 40.1446 44.9071C40.1446 40.8965 40.1446 31.8144 40.1446 30.2608C40.1446 26.2878 44.5152 26.168 47.5062 26.8319C47.9626 26.9893 48.3291 27.2459 48.6888 27.2014C49.2939 27.1672 49.8056 26.3767 49.3284 25.9866C47.5166 24.6007 44.5187 24.8916 42.3541 25.179C38.6024 26.1543 38.3293 29.5661 38.5229 32.8923C38.5229 37.2349 38.5229 45.1433 38.5229 46.5805C38.4296 48.9315 40.1999 51.3303 42.6411 51.7273C47.157 52.0695 53.1458 51.7512 57.551 51.8573C59.5703 51.782 61.0814 52.1619 62.9486 51.2379C64.3213 50.9334 67.257 46.2281 64.2314 47.0322L64.0966 47.1589L64.0931 47.1554Z" fill="#212A52"/>
<path d="M61.9078 53.7061H39.3632C38.9206 53.7061 38.5541 54.0619 38.5541 54.5068C38.5541 54.9517 38.9206 55.3076 39.3632 55.3076H61.9078C63.0351 55.3076 63.9548 56.2144 63.9548 57.3334V59.5954C63.9548 60.711 63.0316 61.6213 61.9078 61.6213H42.2193C40.2 61.6213 38.5541 63.2467 38.5541 65.2486V76.1547C38.5541 78.1498 40.1965 79.7821 42.2193 79.7821H47.3437C48.3084 79.7821 49.2524 79.392 49.937 78.7144L59.0448 69.7007C59.356 69.3927 59.356 68.8863 59.0448 68.5715C58.7267 68.2635 58.2149 68.2635 57.9037 68.5715L48.7891 77.5851C48.4122 77.965 47.8831 78.184 47.3437 78.184H42.2193C41.0921 78.184 40.1723 77.2703 40.1723 76.1581V65.2521C40.1723 64.133 41.0955 63.2262 42.2193 63.2262H61.9078C63.9272 63.2262 65.5731 61.6007 65.5731 59.5988V57.3369C65.5731 55.3384 63.9306 53.7095 61.9078 53.7095V53.7061Z" fill="#212A52"/>
<path d="M13.8898 55.3037H36.4345C36.8805 55.3037 37.2436 54.9409 37.2436 54.5029C37.2436 54.0649 36.884 53.7021 36.4345 53.7021H13.8898C11.8705 53.7021 10.2246 55.3276 10.2246 57.3295V59.5915C10.2246 61.59 11.867 63.2189 13.8898 63.2189H33.5784C34.7056 63.2189 35.6254 64.1257 35.6254 65.2447V76.1508C35.6254 77.2664 34.7021 78.1767 33.5784 78.1767H28.454C27.9111 78.1767 27.3924 77.9645 27.0086 77.5778L17.9009 68.5641C17.5827 68.2561 17.071 68.2561 16.7598 68.5641C16.4417 68.879 16.4417 69.3854 16.7598 69.6934L25.8675 78.7071C26.5591 79.3949 27.4789 79.7748 28.454 79.7748H33.5784C35.5977 79.7748 37.2436 78.1425 37.2436 76.1474V65.2413C37.2436 63.2428 35.6012 61.6139 33.5784 61.6139H13.8898C12.7626 61.6139 11.8428 60.7003 11.8428 59.5881V57.3261C11.8428 56.2071 12.7661 55.3003 13.8898 55.3003V55.3037Z" fill="#212A52"/>
</g>
<defs>
<clipPath id="clip0_344_1901">
<rect width="158.369" height="47.2038" fill="white" transform="translate(91.6309 21.5586)"/>
</clipPath>
<clipPath id="clip1_344_1901">
<rect width="75.4554" height="90" fill="white"/>
</clipPath>
</defs>
</svg>
