<svg width="80" height="79" viewBox="0 0 80 79" fill="none" xmlns="http://www.w3.org/2000/svg">
<g clip-path="url(#clip0_185_5882)">
<path d="M20.2807 73.7268C19.8715 73.7802 19.8359 73.798 19.7241 74.38L19.2921 76.6215C19.1625 77.3381 18.9769 77.8007 18.4687 78.0675C18.184 78.2149 17.8155 78.2683 17.7266 78.2683L17.7139 78.1793C18.1459 78.0904 18.3314 77.9354 18.5983 76.5605L19.0201 74.38C19.1218 73.8463 19.0862 73.7878 18.5983 73.7268L18.6161 73.6328H20.2984L20.2807 73.7268Z" fill="#FFD000"/>
<path d="M23.9602 75.1962C23.9602 76.4288 23.0936 77.5724 21.8077 77.5724C20.8826 77.5724 20.2676 76.9396 20.2676 75.9663C20.2676 74.7108 21.2053 73.5469 22.4608 73.5469C23.3858 73.5469 23.9602 74.1695 23.9602 75.1937V75.1962ZM21.0554 76.2458C21.0554 76.9574 21.3045 77.4377 21.8559 77.4377C22.7276 77.4377 23.1775 76.0145 23.1775 74.8303C23.1775 74.261 23.0478 73.6866 22.4252 73.6866C21.5789 73.6866 21.0554 74.9955 21.0554 76.2484V76.2458Z" fill="#FFD000"/>
<path d="M27.7243 73.7141C27.3812 73.7675 27.31 73.798 27.0356 74.1589C26.8348 74.4206 26.1334 75.4321 25.9809 75.6939C25.9453 75.7523 25.9224 75.7955 25.9046 75.8718L25.7395 76.7435C25.6327 77.2721 25.6505 77.3254 26.1537 77.389L26.1308 77.483H24.3697L24.3925 77.389C24.8779 77.3305 24.9135 77.2873 25.0279 76.7435L25.1829 76.0039C25.2134 75.8565 25.1956 75.7422 25.1473 75.5719C25.0711 75.2822 24.9465 74.8832 24.7788 74.2809C24.6543 73.8234 24.6136 73.77 24.2324 73.7294L24.2629 73.6353H25.7674L25.7445 73.7294L25.5666 73.77C25.376 73.8107 25.3837 73.859 25.4472 74.108C25.5666 74.5579 25.7318 75.0966 25.8691 75.5846C26.1588 75.1627 26.6035 74.4638 26.8119 74.1385C26.9847 73.8666 26.8958 73.7955 26.6823 73.7523L26.5349 73.7218L26.5578 73.6328H27.7497L27.7268 73.7167L27.7243 73.7141Z" fill="#FFD000"/>
<path d="M31.3327 77.4841H29.6859L29.7037 77.39C30.1306 77.3189 30.1662 77.2655 30.1306 76.958C30.0951 76.6861 30.0595 76.4243 30.0188 76.0634H28.9591C28.804 76.3531 28.6439 76.6378 28.527 76.8945C28.3618 77.2325 28.3669 77.3214 28.8777 77.3926L28.8599 77.4866H27.5918L27.6096 77.3926C28.0315 77.3341 28.0899 77.2858 28.4279 76.6861L30.1942 73.5678L30.3365 73.5449C30.555 75.0393 30.6923 75.8932 30.8117 76.7521C30.8829 77.268 30.9312 77.3214 31.3581 77.3926L31.3403 77.4866L31.3327 77.4841ZM29.8155 74.5157H29.8028C29.5537 74.9605 29.3174 75.4179 29.0607 75.8855H29.9858L29.813 74.5157H29.8155Z" fill="#212A52"/>
<path d="M35.3768 76.5478C35.3108 76.7612 35.1049 77.3076 35.0211 77.4855H32.2764L32.2992 77.3915C32.7262 77.3432 32.7745 77.2975 32.8863 76.7282L33.3615 74.2732C33.4505 73.8234 33.4022 73.7802 32.9473 73.7268L32.9651 73.6328H34.6729L34.6551 73.7268C34.1926 73.7751 34.1519 73.8285 34.0502 74.3673L33.6004 76.7435C33.5166 77.1831 33.5293 77.3178 33.88 77.3178H34.1646C34.5077 77.3178 34.6627 77.2949 34.8279 77.1577C34.988 77.0281 35.1659 76.779 35.2955 76.5173L35.3794 76.5478H35.3768Z" fill="#212A52"/>
<path d="M39.4426 75.1962C39.4426 76.4288 38.576 77.5724 37.2901 77.5724C36.365 77.5724 35.75 76.9396 35.75 75.9663C35.75 74.7108 36.6878 73.5469 37.9432 73.5469C38.8683 73.5469 39.4426 74.1695 39.4426 75.1937V75.1962ZM36.5378 76.2458C36.5378 76.9574 36.7869 77.4377 37.3384 77.4377C38.2101 77.4377 38.6599 76.0145 38.6599 74.8303C38.6599 74.261 38.5303 73.6866 37.9076 73.6866C37.0614 73.6866 36.5378 74.9955 36.5378 76.2484V76.2458Z" fill="#212A52"/>
<path d="M43.9533 73.7282C43.5315 73.7867 43.4781 73.8477 43.3968 74.1602C43.3561 74.2899 43.2951 74.5465 43.1655 75.2098L42.7081 77.5454H42.548L40.7461 74.3636L40.4564 75.8757C40.3268 76.5568 40.2963 76.7296 40.2658 76.9532C40.2251 77.2506 40.248 77.3319 40.8046 77.3929L40.7868 77.4869H39.417L39.4399 77.3929C39.849 77.3344 39.9253 77.2633 40.0091 76.9786C40.0752 76.7474 40.121 76.5568 40.2582 75.8935L40.5784 74.3051C40.5962 74.2212 40.6089 74.1094 40.5301 73.9798C40.4285 73.807 40.3166 73.7485 40.0498 73.7308L40.0676 73.6367H41.1172L42.736 76.4119L42.9724 75.2327C43.1096 74.5618 43.1274 74.4093 43.163 74.178C43.2113 73.8578 43.1401 73.7867 42.6293 73.7333L42.6471 73.6393H43.9686L43.9508 73.7333L43.9533 73.7282Z" fill="#212A52"/>
<path d="M47.1917 74.6232C47.1612 73.8939 46.8715 73.6804 46.3149 73.6804C45.3848 73.6804 44.7087 74.7884 44.7087 75.8965C44.7087 76.8215 45.0518 77.4442 45.6821 77.4442C45.9489 77.4442 46.1141 77.3781 46.1853 77.0172L46.3098 76.3819C46.3988 75.9244 46.3581 75.9016 45.8117 75.8304L45.8346 75.7415H47.4992L47.4814 75.8304C47.1561 75.8787 47.1078 75.9193 47.0189 76.3819L46.9121 76.9206C46.8816 77.068 46.8765 77.2459 46.8892 77.3603C46.5563 77.4543 46.076 77.5738 45.6313 77.5738C44.5588 77.5738 43.8955 76.9461 43.8955 75.9092C43.8955 74.4987 44.9553 73.5508 46.3556 73.5508C46.813 73.5508 47.2552 73.6524 47.428 73.6982C47.3874 73.899 47.3264 74.2192 47.2806 74.6156L47.1917 74.6207V74.6232Z" fill="#212A52"/>
<path d="M52.3071 73.5143C52.2588 73.6972 52.1699 74.142 52.1165 74.4927L52.0225 74.4978C52.0174 74.391 52.0174 74.2716 52.0098 74.1903C51.9793 73.8751 51.898 73.7989 51.5295 73.7989H51.0618L50.4926 76.7342C50.3858 77.2857 50.4265 77.3162 50.9551 77.3924L50.9373 77.4864H49.1126L49.1304 77.3924C49.6234 77.339 49.6692 77.2984 49.7835 76.7342L50.3579 73.7989H50.0148C49.6234 73.7989 49.5167 73.8345 49.3617 74.0124C49.2727 74.1064 49.1787 74.2919 49.0821 74.4978L48.9932 74.4851C49.0821 74.1877 49.1838 73.8091 49.2371 73.5117H49.3134C49.3845 73.6362 49.4201 73.6312 49.5802 73.6312H51.9335C52.0809 73.6312 52.1241 73.6083 52.2233 73.5117H52.3071V73.5143Z" fill="#212A52"/>
<path d="M54.3096 73.7268C53.8521 73.798 53.8064 73.8463 53.7047 74.38L53.2473 76.7384C53.1406 77.2771 53.1634 77.3204 53.6387 77.3915L53.6209 77.4855H51.9385L51.9563 77.3915C52.3883 77.3254 52.4239 77.2899 52.5382 76.7384L53.0008 74.38C53.1075 73.8412 53.0719 73.7929 52.6043 73.7268L52.6221 73.6328H54.3299L54.3121 73.7268H54.3096Z" fill="#212A52"/>
<path d="M59.2345 73.7274C58.7491 73.7935 58.7008 73.8342 58.6296 74.345C58.5 75.204 58.4034 75.9156 58.3221 76.6094C58.2382 77.2854 58.2509 77.3209 58.7363 77.3921L58.7186 77.4861H57.0285L57.0463 77.3921C57.486 77.3336 57.5139 77.2803 57.6207 76.6094C57.7401 75.8495 57.8519 75.0744 57.9765 74.2738H57.9638C57.3767 75.27 56.6829 76.4543 56.0908 77.509H56.0069C55.8341 76.5484 55.5393 75.2319 55.336 74.3323H55.3233L54.9319 75.88C54.7845 76.462 54.7184 76.7796 54.6956 76.9219C54.6473 77.2193 54.6549 77.3362 55.1759 77.3896L55.1581 77.4836H53.7832L53.801 77.3896C54.233 77.3311 54.2864 77.2828 54.4236 76.9499C54.4948 76.7771 54.6422 76.279 54.7743 75.8114L55.2191 74.1747C55.2775 73.9612 55.2597 73.8062 54.7032 73.7249L54.721 73.6309H55.8341C56.0298 74.4721 56.3322 75.6157 56.5203 76.4162L58.1925 73.6309H59.2522L59.2294 73.7249L59.2345 73.7274Z" fill="#212A52"/>
<path d="M61.5249 73.632C61.8273 73.632 62.0814 73.632 62.2898 73.627C62.2492 73.8277 62.1831 74.214 62.1424 74.491L62.0535 74.4961C62.0306 73.9853 61.9595 73.7972 61.5782 73.7972H61.0395C60.8438 73.7972 60.8031 73.8328 60.7726 73.9878L60.5007 75.3805H61.0115C61.4156 75.3805 61.5452 75.2966 61.7053 74.8824H61.7993L61.5452 76.0667H61.4436C61.4664 75.5991 61.3851 75.5457 60.9861 75.5457H60.4575L60.244 76.702C60.1602 77.1417 60.1729 77.3196 60.5337 77.3196H60.8717C61.347 77.3196 61.4588 77.2535 61.6316 77.0832C61.7434 76.9638 61.84 76.8113 61.9569 76.5902L62.0408 76.6131C61.9747 76.8215 61.8095 77.284 61.7206 77.4848H58.8691L58.8869 77.3907C59.38 77.3247 59.4155 77.2967 59.5324 76.7274L59.9899 74.3868C60.0839 73.876 60.0915 73.7769 59.5934 73.7286L59.6112 73.6346H61.5249V73.632Z" fill="#212A52"/>
<path d="M48.7711 11.5097C47.8206 10.5567 46.5525 10.0332 45.203 10.0332H34.7986C33.4491 10.0332 32.181 10.5567 31.228 11.5097L23.8681 18.8696C22.9151 19.8226 22.3916 21.0907 22.3916 22.4402V32.8446C22.3916 34.1915 22.9151 35.4597 23.8681 36.4127L31.228 43.7725C32.181 44.7255 33.4491 45.2516 34.7986 45.2516H45.203C46.5525 45.2516 47.8206 44.7255 48.7711 43.7725L56.1309 36.4127C57.0839 35.4622 57.61 34.1915 57.61 32.8446V22.4402C57.61 21.0907 57.0839 19.8226 56.1309 18.8696L48.7711 11.5097ZM56.7917 32.8446C56.7917 33.973 56.3495 35.0353 55.5515 35.8333L48.1917 43.1931C47.3937 43.9911 46.3314 44.4333 45.203 44.4333H34.7986C33.6677 44.4333 32.6054 43.9911 31.8049 43.1931L24.445 35.8333C23.647 35.0353 23.2074 33.973 23.2074 32.8446V22.4402C23.2074 21.3093 23.647 20.247 24.445 19.4465L31.8049 12.0866C32.6029 11.2886 33.6651 10.849 34.7986 10.849H45.203C46.3314 10.849 47.3937 11.2886 48.1917 12.0866L55.5515 19.4465C56.3495 20.2445 56.7917 21.3068 56.7917 22.4402V32.8446Z" fill="#212A52"/>
<path d="M59.0791 33.2888V21.9924C59.0791 20.5387 58.5149 19.1715 57.4882 18.1448L55.4398 16.0964L55.1501 16.3861L57.2493 14.2869C58.2226 13.3161 58.2226 11.7354 57.2493 10.7646C56.2785 9.79125 54.6977 9.79125 53.7269 10.7646L51.9149 12.5741L49.5006 10.1572C48.4714 9.1305 47.1041 8.56377 45.6504 8.56377H45.099C45.0888 8.24864 45.0659 7.92588 45.0303 7.59804C44.6771 3.47593 43.6834 0.736328 39.9933 0.736328C36.3033 0.736328 35.3121 3.47847 34.9589 7.58788C34.9208 7.92334 34.8979 8.24355 34.8852 8.56377H34.3515C32.8978 8.56377 31.5306 9.1305 30.5038 10.1572L28.4555 12.2056L26.646 10.3936C25.6752 9.42275 24.0945 9.42275 23.1237 10.3936C22.1503 11.3669 22.1503 12.9451 23.1237 13.9184L24.9331 15.7279L22.5163 18.1448C21.4896 19.1715 20.9229 20.5413 20.9229 21.9924V33.2888C20.9229 34.745 21.4896 36.1098 22.5163 37.139L24.5646 39.1848L22.7526 40.9943C21.7818 41.9676 21.7818 43.5484 22.7526 44.5192C23.238 45.0046 23.8759 45.246 24.5138 45.246C25.1517 45.246 25.7921 45.0046 26.2775 44.5192L28.087 42.7097L30.5038 45.124C31.5306 46.1533 32.9004 46.72 34.3515 46.72H45.6479C47.1041 46.72 48.4688 46.1533 49.4981 45.124L51.5439 43.0782L51.2542 42.7885L53.3534 44.8877C53.8413 45.3731 54.4792 45.617 55.1171 45.617C55.755 45.617 56.3928 45.3705 56.8782 44.8877C57.8491 43.9169 57.8491 42.3361 56.8782 41.3653L55.0688 39.5533L57.4856 37.139C58.5124 36.1098 59.0765 34.7425 59.0765 33.2888H59.0791ZM54.3038 11.3415C54.9544 10.6884 56.0193 10.6884 56.6699 11.3415C57.323 11.9921 57.323 13.0569 56.6699 13.7075L54.8604 15.517L52.4944 13.151L54.3038 11.3415ZM35.7721 7.66412C36.1584 3.15064 37.2664 1.55211 39.9933 1.55211C42.7202 1.55211 43.8257 3.15318 44.2146 7.67683C44.2476 7.98179 44.2679 8.27405 44.2806 8.56377H35.7035C35.7162 8.27405 35.7365 7.97671 35.7721 7.66666V7.66412ZM23.7006 13.339C23.0474 12.6859 23.0474 11.6236 23.7006 10.9705C24.3537 10.3173 25.4109 10.3199 26.0666 10.9705L27.8761 12.7825L25.51 15.1485L23.7006 13.339ZM25.6981 43.9423C25.045 44.5929 23.9827 44.5929 23.3295 43.9423C22.6789 43.2891 22.6789 42.2268 23.3295 41.5763L25.1415 39.7643L27.5076 42.1303L25.6981 43.9423ZM56.3014 41.9448C56.9519 42.5953 56.9519 43.6602 56.3014 44.3108C55.6482 44.9639 54.5859 44.9614 53.9353 44.3108L52.1233 42.5013L54.4919 40.1353L56.3014 41.9448ZM48.9187 44.5471C48.047 45.4214 46.8856 45.9042 45.6479 45.9042H34.3515C33.1164 45.9042 31.955 45.4214 31.0807 44.5471L23.0932 36.5596C22.2215 35.6879 21.7386 34.5265 21.7386 33.2888V21.9924C21.7386 20.7573 22.2215 19.5959 23.0932 18.7216L31.0807 10.7341C31.955 9.86241 33.1164 9.37955 34.3515 9.37955H45.6479C46.8856 9.37955 48.047 9.86241 48.9187 10.7341L56.9062 18.7216C57.7804 19.5959 58.2608 20.7573 58.2608 21.9924V33.2888C58.2608 34.5265 57.7804 35.6879 56.9062 36.5596L48.9187 44.5471Z" fill="#212A52"/>
<path d="M37.2084 13.498H35.7928C35.1371 13.498 34.512 13.7471 34.0393 14.1969L26.8802 20.8833C26.3796 21.3611 26.0898 22.0345 26.0898 22.7258V24.6877C26.0898 26.0906 27.2309 27.2342 28.6363 27.2342H37.2084C38.6112 27.2342 39.7548 26.0931 39.7548 24.6877V16.042C39.7548 14.6391 38.6137 13.498 37.2084 13.498ZM38.9365 24.6852C38.9365 25.6382 38.1614 26.4133 37.2084 26.4133H28.6363C27.6858 26.4133 26.9082 25.6382 26.9082 24.6852V22.7232C26.9082 22.2556 27.1039 21.7956 27.4419 21.4754L34.6009 14.7891C34.9237 14.4841 35.3455 14.3138 35.7928 14.3138H37.2084C38.1614 14.3138 38.9365 15.0889 38.9365 16.0394V24.6852Z" fill="#212A52"/>
<path d="M37.2083 27.3291H28.6362C27.18 27.3291 25.9932 26.1448 25.9932 24.6861V22.7241C25.9932 22.0049 26.293 21.3086 26.814 20.813L33.9756 14.1266C34.4636 13.659 35.1091 13.4023 35.7927 13.4023H37.2083C38.6645 13.4023 39.8513 14.5866 39.8513 16.0403V24.6861C39.8513 26.1423 38.667 27.3291 37.2083 27.3291ZM35.7927 13.5955C35.1599 13.5955 34.5601 13.8344 34.1078 14.2664L26.9462 20.9528C26.4633 21.4128 26.1863 22.0583 26.1863 22.7241V24.6861C26.1863 26.0355 27.2842 27.1359 28.6362 27.1359H37.2083C38.5577 27.1359 39.6581 26.0381 39.6581 24.6861V16.0403C39.6581 14.6908 38.5603 13.5929 37.2083 13.5929H35.7927V13.5955ZM37.2083 26.5108H28.6362C27.6298 26.5108 26.8115 25.6924 26.8115 24.6861V22.7241C26.8115 22.2285 27.0173 21.7482 27.3757 21.4051L34.5347 14.7188C34.8753 14.396 35.32 14.2181 35.7902 14.2181H37.2057C38.2121 14.2181 39.0304 15.0364 39.0304 16.0403V24.6861C39.0304 25.6924 38.2121 26.5108 37.2057 26.5108H37.2083ZM35.7927 14.4138C35.3708 14.4138 34.9718 14.5714 34.6694 14.8611L27.5104 21.5475C27.1902 21.8524 27.0072 22.2819 27.0072 22.7241V24.6861C27.0072 25.5857 27.7391 26.3176 28.6387 26.3176H37.2108C38.1104 26.3176 38.8424 25.5857 38.8424 24.6861V16.0403C38.8424 15.1432 38.1104 14.4113 37.2108 14.4113H35.7953L35.7927 14.4138Z" fill="#212A52"/>
<path d="M53.3335 24.8321C52.9116 26.3036 51.9535 26.4967 50.5227 26.4154C48.4718 26.4154 43.9151 26.4154 43.1197 26.4154C42.2658 26.4561 41.3712 25.808 41.2569 24.9109C41.1857 24.4534 41.2416 24.1612 41.2238 23.6834C41.2238 21.6325 41.2238 16.992 41.2238 16.1991C41.2238 14.1685 43.4348 14.1075 44.9469 14.4455C45.1782 14.5268 45.3637 14.6564 45.5442 14.6336C45.8491 14.6158 46.1084 14.2117 45.8669 14.0135C44.9495 13.3044 43.4348 13.4544 42.3395 13.6018C40.4436 14.0999 40.3039 15.8433 40.4004 17.5434C40.4004 19.7621 40.4004 23.8029 40.4004 24.5373C40.3521 25.7394 41.2492 26.9643 42.4818 27.1676C44.7665 27.343 47.7958 27.1803 50.0221 27.2337C51.0437 27.1956 51.8061 27.3887 52.7515 26.916C53.4453 26.7585 54.9295 24.3569 53.3996 24.7686L53.3309 24.8321H53.3335Z" fill="#212A52"/>
<path d="M45.2798 27.3479C44.2937 27.3479 43.3331 27.3301 42.4741 27.264C41.2212 27.0607 40.2529 25.8358 40.3037 24.5346V17.5433C40.2021 15.7516 40.3749 14.0158 42.314 13.5076C43.1628 13.3907 44.9113 13.1543 45.9227 13.9371C46.0447 14.0362 46.0854 14.1887 46.0345 14.3462C45.9659 14.5546 45.755 14.7198 45.5466 14.73C45.4017 14.7503 45.2594 14.6842 45.1095 14.6181C45.0485 14.5902 44.9824 14.5597 44.9113 14.5368C44.4386 14.4326 42.7968 14.1353 41.8921 14.857C41.5109 15.162 41.3178 15.6118 41.3178 16.1989V23.6832C41.3254 23.8611 41.3203 24.0136 41.3178 24.161C41.3127 24.405 41.3076 24.6185 41.3482 24.8955C41.4499 25.6858 42.2123 26.3212 43.0357 26.3212C43.0611 26.3212 43.0866 26.3212 43.112 26.3212H50.5201C51.9814 26.4025 52.8404 26.189 53.2368 24.8091L53.2444 24.7837L53.3486 24.6845L53.3715 24.6769C53.6892 24.5905 53.9179 24.6159 54.0475 24.7481C54.1746 24.8777 54.1949 25.0861 54.1085 25.3707C53.9281 25.9832 53.2317 26.9057 52.7692 27.0124C52.0729 27.3632 51.4451 27.3479 50.7742 27.3327C50.5353 27.3276 50.2863 27.32 50.022 27.3327C49.1604 27.3123 48.1973 27.3225 47.1782 27.3352C46.5454 27.3428 45.9049 27.3504 45.2772 27.3504L45.2798 27.3479ZM43.8312 13.5736C43.2594 13.5736 42.7181 13.6473 42.3521 13.6956C40.5579 14.1658 40.4003 15.8202 40.4969 17.5356V24.5371C40.4486 25.7468 41.3457 26.8828 42.497 27.0709C43.8896 27.1776 45.5619 27.1573 47.1782 27.1395C48.1998 27.1293 49.1655 27.1166 50.0245 27.137C50.2914 27.1268 50.543 27.1319 50.7844 27.137C51.4553 27.1522 52.0347 27.1675 52.7107 26.8295C53.0945 26.7405 53.7527 25.9095 53.9306 25.3148C53.9916 25.109 53.9865 24.9539 53.9154 24.8802C53.8391 24.804 53.679 24.7938 53.4503 24.8548L53.4198 24.8828C52.9852 26.3568 52.0271 26.5982 50.5201 26.5118H43.1221C42.1818 26.555 41.2771 25.8307 41.1627 24.9234C41.117 24.6312 41.1221 24.3999 41.1297 24.1559C41.1322 24.0136 41.1373 23.8611 41.1297 23.6858V16.1989C41.1297 15.5508 41.3483 15.0502 41.7752 14.7071C42.746 13.9294 44.4665 14.2395 44.9672 14.3513C45.0536 14.3818 45.1247 14.4123 45.1908 14.4428C45.3204 14.5012 45.4272 14.547 45.5314 14.5394C45.6864 14.5317 45.8134 14.4047 45.8516 14.2852C45.8694 14.2293 45.877 14.148 45.8033 14.087C45.2823 13.6829 44.5326 13.5736 43.8286 13.5736H43.8312Z" fill="#212A52"/>
<path d="M52.2268 28.1738H40.8262C40.6025 28.1738 40.417 28.3568 40.417 28.583C40.417 28.8092 40.6025 28.9921 40.8262 28.9921H52.2268C52.796 28.9921 53.2637 29.4547 53.2637 30.0265V31.1828C53.2637 31.7521 52.7986 32.2197 52.2268 32.2197H42.2697C41.248 32.2197 40.417 33.0507 40.417 34.0724V39.6456C40.417 40.6647 41.248 41.4983 42.2697 41.4983H44.8619C45.3498 41.4983 45.8276 41.3 46.1732 40.9544L50.7782 36.3494C50.9358 36.1919 50.9358 35.9327 50.7782 35.7725C50.6181 35.615 50.3589 35.615 50.2013 35.7725L45.5938 40.3775C45.4032 40.5707 45.1363 40.6825 44.8644 40.6825H42.2722C41.7029 40.6825 41.2353 40.2174 41.2353 39.6481V34.0749C41.2353 33.5031 41.7004 33.0406 42.2722 33.0406H52.2293C53.2509 33.0406 54.082 32.2095 54.082 31.1879V30.0316C54.082 29.0099 53.2509 28.1789 52.2293 28.1789L52.2268 28.1738Z" fill="#212A52"/>
<path d="M44.8623 41.5957H42.2701C41.1951 41.5957 40.3209 40.7215 40.3209 39.6465V34.0732C40.3209 32.9982 41.1951 32.124 42.2701 32.124H52.2247C52.7432 32.124 53.1625 31.7021 53.1625 31.1837V30.0274C53.1625 29.5089 52.7406 29.0896 52.2247 29.0896H40.8241C40.5445 29.0896 40.3184 28.8634 40.3184 28.5839C40.3184 28.3043 40.5445 28.0781 40.8241 28.0781H52.2247C53.2997 28.0781 54.1739 28.9524 54.1739 30.0274V31.1837C54.1739 32.2587 53.2997 33.1329 52.2247 33.1329H42.2701C41.7517 33.1329 41.3298 33.5548 41.3298 34.0732V39.6465C41.3298 40.1649 41.7517 40.5868 42.2701 40.5868H44.8623C45.1089 40.5868 45.3503 40.4851 45.5256 40.3098L50.1357 35.7023C50.3314 35.5066 50.6491 35.5066 50.8498 35.7023C51.0455 35.903 51.0455 36.2232 50.8498 36.4164L46.2423 41.0214C45.8789 41.3848 45.3757 41.5957 44.8649 41.5957H44.8623ZM42.2727 32.3171C41.3044 32.3171 40.5166 33.105 40.5166 34.0732V39.6465C40.5166 40.6147 41.3044 41.4026 42.2727 41.4026H44.8649C45.3249 41.4026 45.7798 41.2145 46.1076 40.8867L50.7151 36.2817C50.8346 36.1622 50.8346 35.9615 50.7151 35.8395C50.5931 35.72 50.3949 35.72 50.2755 35.8395L45.6654 40.4445C45.457 40.6554 45.1648 40.7774 44.8674 40.7774H42.2752C41.65 40.7774 41.1418 40.2691 41.1418 39.6439V34.0707C41.1418 33.4455 41.65 32.9372 42.2752 32.9372H52.2298C53.1981 32.9372 53.9859 32.1494 53.9859 31.1811V30.0248C53.9859 29.0566 53.1981 28.2687 52.2298 28.2687H40.8292C40.6564 28.2687 40.5166 28.4085 40.5166 28.5813C40.5166 28.7541 40.6589 28.8939 40.8292 28.8939H52.2298C52.855 28.8939 53.3607 29.4022 53.3607 30.0248V31.1811C53.3607 31.8063 52.8524 32.3146 52.2298 32.3146H42.2752L42.2727 32.3171Z" fill="#212A52"/>
<path d="M27.9445 28.9921H39.3451C39.5713 28.9921 39.7542 28.8066 39.7542 28.583C39.7542 28.3593 39.5713 28.1738 39.3451 28.1738H27.9445C26.9228 28.1738 26.0918 29.0049 26.0918 30.0265V31.1828C26.0918 32.2045 26.9228 33.0355 27.9445 33.0355H37.9016C38.4708 33.0355 38.9359 33.498 38.9359 34.0698V39.6431C38.9359 40.2123 38.4708 40.6774 37.9016 40.6774H35.3094C35.0349 40.6774 34.7731 40.5681 34.58 40.3724L29.975 35.7675C29.8149 35.6099 29.5557 35.6099 29.3981 35.7675C29.238 35.9276 29.238 36.1868 29.3981 36.3444L34.0031 40.9493C34.3513 41.3 34.8189 41.4932 35.3119 41.4932H37.9041C38.9257 41.4932 39.7568 40.6596 39.7568 39.6405V34.0673C39.7568 33.0456 38.9257 32.2146 37.9041 32.2146H27.947C27.3777 32.2146 26.9101 31.7495 26.9101 31.1777V30.0214C26.9101 29.4496 27.3752 28.9871 27.947 28.9871L27.9445 28.9921Z" fill="#212A52"/>
<path d="M37.8995 41.5957H35.3073C34.7863 41.5957 34.2984 41.3924 33.9299 41.0214L29.3224 36.4164C29.2283 36.3224 29.175 36.1978 29.175 36.0631C29.175 35.9259 29.2258 35.7988 29.3224 35.7023C29.5181 35.5066 29.8383 35.5066 30.0365 35.7023L34.644 40.3098C34.8194 40.4877 35.0532 40.5868 35.3048 40.5868H37.897C38.4154 40.5868 38.8347 40.1649 38.8347 39.6465V34.0732C38.8347 33.5548 38.4129 33.1329 37.897 33.1329H27.9424C26.8674 33.1329 25.9932 32.2587 25.9932 31.1837V30.0274C25.9932 28.9524 26.8674 28.0781 27.9424 28.0781H39.343C39.6226 28.0781 39.8488 28.3043 39.8488 28.5839C39.8488 28.8634 39.6226 29.0896 39.343 29.0896H27.9424C27.424 29.0896 27.0021 29.5115 27.0021 30.0274V31.1837C27.0021 31.7021 27.424 32.124 27.9424 32.124H37.897C38.972 32.124 39.8462 32.9982 39.8462 34.0732V39.6465C39.8462 40.7215 38.972 41.5957 37.897 41.5957H37.8995ZM29.6832 35.748C29.6045 35.748 29.5231 35.7785 29.4621 35.8369C29.4037 35.8979 29.3707 35.9767 29.3707 36.0606C29.3707 36.1419 29.4037 36.2207 29.4621 36.2791L34.0697 40.8867C34.4 41.2196 34.8397 41.4026 35.3099 41.4026H37.9021C38.8703 41.4026 39.6581 40.6147 39.6581 39.6465V34.0732C39.6581 33.105 38.8703 32.3171 37.9021 32.3171H27.9475C27.3223 32.3171 26.814 31.8089 26.814 31.1837V30.0274C26.814 29.4022 27.3223 28.8964 27.9475 28.8964H39.3481C39.5209 28.8964 39.6607 28.7567 39.6607 28.5839C39.6607 28.411 39.5209 28.2713 39.3481 28.2713H27.9475C26.9792 28.2713 26.1914 29.0591 26.1914 30.0274V31.1837C26.1914 32.152 26.9792 32.9398 27.9475 32.9398H37.9021C38.5272 32.9398 39.033 33.4481 39.033 34.0732V39.6465C39.033 40.2716 38.5247 40.7799 37.9021 40.7799H35.3099C35.0074 40.7799 34.7228 40.6605 34.5119 40.4445L29.9043 35.8395C29.8433 35.7785 29.7646 35.7505 29.6832 35.7505V35.748Z" fill="#212A52"/>
<path d="M3.3292 66.2482C3.15893 66.2736 2.9912 66.3041 2.82601 66.3397C2.66082 66.3752 2.51342 66.4057 2.38635 66.4337C2.25674 66.4591 2.17288 66.4718 2.13222 66.4718C2.04835 66.4718 1.93145 66.4489 1.77642 66.4032C1.6214 66.3575 1.4435 66.2965 1.24273 66.2177C1.04196 66.1414 0.833572 66.0474 0.617555 65.9407C0.401538 65.8314 0.195686 65.7221 0 65.6078C0 65.5671 0.00762413 65.5086 0.0228724 65.4299C0.0381207 65.3536 0.0584517 65.2748 0.0838654 65.1986C0.109279 65.1223 0.137234 65.0512 0.170272 64.9902C0.200769 64.9292 0.236348 64.8987 0.27701 64.8987C0.348169 64.8987 0.520982 64.9063 0.795451 64.9216C1.06992 64.9368 1.37743 64.9546 1.72305 64.9749C2.06868 64.9953 2.42702 65.0131 2.79806 65.0283C3.1691 65.0436 3.48677 65.0512 3.75616 65.0512H6.3204C6.30007 64.8758 6.28228 64.6954 6.26704 64.5099C6.25179 64.3244 6.24416 64.1592 6.24416 64.0143L6.22891 62.0524C5.73589 61.9812 5.28352 61.8414 4.8769 61.6356C4.47028 61.4297 4.12465 61.1731 3.84256 60.863C3.55793 60.553 3.33683 60.2022 3.17926 59.8058C3.01916 59.4093 2.94037 58.9849 2.94037 58.5326C2.94037 58.0167 3.03949 57.5414 3.24026 57.1043C3.44102 56.6672 3.72058 56.2885 4.08145 55.9683C4.44233 55.6481 4.87182 55.399 5.36993 55.2186C5.87058 55.0382 6.42206 54.9492 7.02945 54.9492C7.63684 54.9492 8.17815 55.0407 8.68134 55.2186C9.18708 55.399 9.61911 55.6481 9.97999 55.9683C10.3409 56.2885 10.6204 56.6646 10.8212 57.1043C11.022 57.5414 11.1211 58.0192 11.1211 58.5326C11.1211 58.9748 11.0474 59.389 10.8974 59.7753C10.7475 60.1616 10.5365 60.5097 10.2646 60.8173C9.99269 61.1273 9.66232 61.384 9.27603 61.5898C8.88974 61.7957 8.46024 61.9456 7.98755 62.0371L7.95705 63.783C7.95705 63.9076 7.9418 64.0956 7.91131 64.3472C7.88081 64.5988 7.84523 64.8326 7.80457 65.0487H10.5848C10.7704 65.0487 10.9355 65.0309 11.0804 64.9953C11.2253 64.9597 11.3574 64.9216 11.4819 64.8784C11.6065 64.8352 11.7132 64.7996 11.8072 64.7615C11.9013 64.7234 11.9877 64.7081 12.0715 64.7081C12.1859 64.7081 12.3435 64.7208 12.5493 64.7462C12.7552 64.7716 12.961 64.8047 13.1669 64.8453C13.3727 64.886 13.5557 64.9292 13.7158 64.9775C13.8759 65.0232 13.9649 65.0664 13.9852 65.1096C14.0259 65.1808 14.0513 65.2723 14.0614 65.379C14.0716 65.4883 14.0691 65.595 14.0538 65.7043C14.0386 65.8136 14.0182 65.9127 13.9928 66.0067C13.9674 66.1008 13.9395 66.1669 13.909 66.2075H3.75361C3.63925 66.2075 3.49948 66.2202 3.3292 66.2456V66.2482ZM7.97738 60.6571C8.26964 60.5479 8.52378 60.3954 8.73471 60.1946C8.94565 59.9939 9.11338 59.7524 9.2379 59.4678C9.36243 59.1857 9.42343 58.8731 9.42343 58.5326C9.42343 58.192 9.36243 57.8845 9.2379 57.605C9.11338 57.3254 8.94565 57.0865 8.73471 56.8857C8.52378 56.685 8.27218 56.5274 7.97738 56.4156C7.68258 56.3012 7.36745 56.2453 7.02691 56.2453C6.68636 56.2453 6.37123 56.3012 6.07643 56.4156C5.78163 56.53 5.53004 56.685 5.3191 56.8857C5.10817 57.0865 4.94044 57.3254 4.81591 57.605C4.69392 57.882 4.63039 58.192 4.63039 58.5326C4.63039 58.8731 4.69138 59.1832 4.81591 59.4678C4.94044 59.7524 5.10817 59.9939 5.3191 60.1946C5.53004 60.3954 5.78163 60.5504 6.07643 60.6571C6.36869 60.7664 6.68636 60.8198 7.02691 60.8198C7.36745 60.8198 7.68258 60.7664 7.97738 60.6571Z" fill="#212A52"/>
<path d="M23.3987 67.3915C23.3581 67.2213 23.32 67.023 23.2818 66.7968C23.2463 66.5707 23.2158 66.3216 23.1878 66.0548C23.1624 65.7879 23.1497 65.5185 23.1497 65.2517V63.5998C22.7482 63.7751 22.2729 63.9505 21.7214 64.1259C21.17 64.3012 20.6337 64.4613 20.1153 64.6036C19.5943 64.7485 19.1318 64.8629 18.7252 64.9518C18.3185 65.0382 18.0568 65.084 17.945 65.084C17.7798 65.084 17.6019 65.028 17.4113 64.9137C17.2207 64.7993 17.0428 64.6697 16.8776 64.5198C16.7124 64.3698 16.5777 64.2275 16.4684 64.0877C16.3617 63.948 16.3058 63.8488 16.3058 63.7879L16.2905 60.9466C16.2905 60.7916 16.227 60.6416 16.0974 60.4917C15.9678 60.3417 15.8686 60.2528 15.7975 60.2223C15.7975 60.202 15.8051 60.1613 15.8204 60.0978C15.8356 60.0368 15.8534 59.9732 15.8737 59.9123C15.8941 59.8513 15.922 59.7953 15.9601 59.7496C15.9957 59.7039 16.0288 59.681 16.0592 59.681C16.1202 59.681 16.2422 59.6861 16.4227 59.6962C16.6031 59.7064 16.7988 59.714 17.0097 59.7191C17.2207 59.7242 17.4214 59.7318 17.612 59.742C17.8026 59.7521 17.9373 59.7572 18.0212 59.7572H19.7824C19.7824 59.6429 19.7849 59.4802 19.79 59.2617C19.7951 59.0456 19.8002 58.822 19.8052 58.5907C19.8103 58.3595 19.8129 58.1358 19.8129 57.9198V57.4242H18.0847C18.0009 57.4242 17.9145 57.4319 17.8204 57.4471C17.7289 57.4624 17.6374 57.4776 17.551 57.4929C17.4646 57.5081 17.3858 57.5208 17.3198 57.531C17.2537 57.5411 17.2029 57.5462 17.1724 57.5462C17.1114 57.5462 17.0123 57.5208 16.8801 57.47C16.7454 57.4192 16.6107 57.3531 16.471 57.2768C16.3312 57.2006 16.1965 57.1193 16.0618 57.038C15.9271 56.9566 15.8305 56.8829 15.7695 56.8219C15.7899 56.6974 15.828 56.5602 15.8839 56.4052C15.9398 56.2501 15.9957 56.1739 16.0465 56.1739C16.0872 56.1739 16.1812 56.179 16.3261 56.1891C16.471 56.1993 16.6387 56.2095 16.8369 56.2196C17.0326 56.2298 17.241 56.24 17.4621 56.2501C17.6832 56.2603 17.8916 56.2654 18.0873 56.2654H19.1978C19.3935 56.2654 19.5892 56.2374 19.7849 56.1815C19.9806 56.1256 20.1204 56.0976 20.2017 56.0976C20.438 56.0976 20.6718 56.1154 20.9057 56.151C21.1369 56.1866 21.2945 56.2145 21.3758 56.2349C21.5817 56.2959 21.6681 56.4712 21.6376 56.7609C21.6172 56.916 21.5893 57.1523 21.5512 57.4725C21.5156 57.7927 21.4749 58.118 21.4292 58.4535C21.3834 58.789 21.3351 59.0939 21.2894 59.3735C21.2437 59.6505 21.2055 59.8309 21.175 59.9148C21.2691 59.9453 21.3529 60.0037 21.4292 60.0927C21.5054 60.1791 21.5435 60.2604 21.5435 60.3316C21.5435 60.4358 21.508 60.54 21.4368 60.6467C21.3656 60.756 21.2564 60.8094 21.1115 60.8094H18.0237V63.6201C18.2702 63.6303 18.6108 63.6125 19.0428 63.5668C19.4749 63.521 19.9374 63.4524 20.4253 63.366C20.9158 63.2796 21.4012 63.1754 21.8866 63.0559C22.3695 62.9365 22.7914 62.8069 23.1522 62.662V56.4839C23.1522 56.3797 23.1268 56.2959 23.076 56.2298C23.0252 56.1637 22.9718 56.1027 22.921 56.0519L22.0417 55.2793C22.0823 55.165 22.1331 55.0379 22.1967 54.893C22.2602 54.7482 22.3263 54.677 22.3974 54.677C22.5194 54.677 22.6795 54.6923 22.8752 54.7228C23.0709 54.7533 23.2768 54.7939 23.4928 54.8473C23.7088 54.8981 23.9197 54.954 24.1256 55.0176C24.3314 55.0811 24.5068 55.1421 24.6516 55.2031C24.733 55.2437 24.7914 55.2869 24.8219 55.3352C24.8524 55.3835 24.8677 55.4471 24.8677 55.5284C24.8677 55.6097 24.86 55.7444 24.8448 55.9299C24.8295 56.1154 24.8219 56.2908 24.8219 56.456L24.8067 59.498H26.273V55.5589C26.273 55.4547 26.2476 55.3708 26.1968 55.3047C26.146 55.2387 26.0926 55.1777 26.0418 55.1268L25.1599 54.3543C25.2107 54.2297 25.2667 54.1001 25.3226 53.9603C25.3785 53.8206 25.442 53.752 25.5157 53.752C25.6377 53.752 25.8003 53.7672 26.0011 53.7977C26.2019 53.8282 26.4128 53.8689 26.6339 53.9222C26.855 53.9731 27.071 54.0315 27.282 54.0925C27.4929 54.1535 27.6708 54.217 27.8157 54.278C27.897 54.3187 27.9554 54.3644 27.9859 54.4102C28.0164 54.4559 28.0317 54.522 28.0317 54.6033C28.0317 54.6846 28.0241 54.8193 28.0088 55.0049C27.9936 55.1904 27.9859 55.3657 27.9859 55.5309L27.9554 65.7549C27.9554 66.0853 27.93 66.4105 27.8792 66.7358C27.8284 67.0611 27.7674 67.3636 27.7013 67.6482C27.6352 67.9328 27.5615 68.1768 27.4853 68.3827C27.4065 68.5885 27.3379 68.7334 27.2769 68.8147H26.6441C26.6034 68.7435 26.5602 68.619 26.5196 68.4437C26.4789 68.2683 26.4408 68.0624 26.4027 67.8261C26.3645 67.5898 26.3366 67.3356 26.3086 67.0611C26.2832 66.7892 26.2705 66.5173 26.2705 66.2504V60.5984H24.8041L24.7889 64.7688C24.7889 65.0992 24.7635 65.422 24.7126 65.7422C24.6618 66.0624 24.6008 66.3572 24.5347 66.6291C24.4687 66.901 24.395 67.1374 24.3187 67.3407C24.2425 67.5415 24.1713 67.6838 24.1103 67.7651H23.5233C23.4826 67.6939 23.4394 67.572 23.3987 67.4017V67.3915Z" fill="#212A52"/>
<path d="M32.9441 61.4912C32.6442 61.2294 32.4918 60.8863 32.4791 60.4644L32.4486 56.9726C32.4486 56.8481 32.3977 56.7362 32.2935 56.632C32.2834 56.6219 32.2478 56.5939 32.1944 56.5482C32.136 56.5024 32.075 56.4516 32.0089 56.3931C31.9428 56.3372 31.8717 56.2788 31.8005 56.2229C31.7293 56.167 31.6709 56.1212 31.6302 56.0907C31.6302 56.0399 31.6379 55.9764 31.6531 55.9052C31.6684 55.834 31.6912 55.7629 31.7217 55.6968C31.7522 55.6307 31.7853 55.5723 31.8208 55.5265C31.8564 55.4808 31.8895 55.4579 31.92 55.4579C31.9809 55.4579 32.108 55.4605 32.2986 55.4655C32.4892 55.4706 32.7027 55.4783 32.939 55.4884C33.1754 55.4986 33.4143 55.5088 33.6583 55.5189C33.8997 55.5291 34.0979 55.5392 34.2529 55.5494H38.6393C38.7944 55.5494 38.9519 55.5367 39.1095 55.5113C39.2696 55.4859 39.4196 55.4605 39.5644 55.4351C39.7093 55.4096 39.8414 55.3868 39.9659 55.3664C40.0905 55.3461 40.1921 55.3359 40.276 55.3359C40.4005 55.3461 40.5327 55.3563 40.6775 55.3664C40.8224 55.3766 40.9571 55.3918 41.0791 55.4122C41.2036 55.4325 41.3129 55.4579 41.412 55.4884C41.5111 55.5189 41.5746 55.5545 41.6051 55.5977C41.6356 55.6409 41.656 55.7146 41.6661 55.8213C41.6763 55.9281 41.6788 56.0399 41.6738 56.1543C41.6687 56.2686 41.6509 56.3779 41.6204 56.4872C41.5899 56.5965 41.5492 56.6702 41.4959 56.7108H34.2987V60.2179C34.2987 60.4136 34.3521 60.5458 34.4613 60.6118C34.5681 60.6779 34.7002 60.7135 34.8552 60.7135H38.6089C38.7639 60.7135 38.9214 60.6982 39.079 60.6677C39.2391 60.6372 39.3891 60.6068 39.5339 60.5737C39.6788 60.5432 39.8109 60.5153 39.9355 60.4898C40.06 60.4644 40.1616 60.4517 40.2455 60.4517C40.3599 60.4619 40.4946 60.4721 40.6547 60.4822C40.8148 60.4924 40.9673 60.5076 41.1172 60.528C41.2671 60.5483 41.3967 60.5737 41.5111 60.6042C41.6255 60.6347 41.6966 60.6703 41.7271 60.7135C41.7576 60.7567 41.7779 60.8304 41.7881 60.9371C41.7983 61.0464 41.8008 61.1608 41.7957 61.2853C41.7907 61.4098 41.7729 61.5242 41.7424 61.6335C41.7119 61.7402 41.6712 61.8164 41.6204 61.8571L37.943 61.8724L37.9125 63.6945C37.9125 63.8191 37.8973 64.0173 37.8668 64.2892C37.8363 64.5611 37.8007 64.8178 37.76 65.0542H40.5403C40.7258 65.0542 40.891 65.0364 41.0333 65.0008C41.1782 64.9652 41.3129 64.9271 41.4349 64.8839C41.5568 64.8407 41.6661 64.8051 41.7602 64.767C41.8542 64.7289 41.9406 64.7136 42.0219 64.7136C42.1363 64.7136 42.2938 64.7263 42.4997 64.7517C42.7056 64.7772 42.9114 64.8102 43.1173 64.8508C43.3231 64.8915 43.5061 64.9347 43.6662 64.983C43.8263 65.0313 43.9152 65.072 43.9381 65.1152C43.9788 65.1863 44.0042 65.2778 44.0144 65.3845C44.0245 65.4938 44.022 65.6006 44.0067 65.7098C43.9915 65.8191 43.9712 65.9182 43.9457 66.0123C43.9203 66.1063 43.8924 66.1724 43.8593 66.213H33.7116C33.5973 66.213 33.4575 66.2257 33.2872 66.2511C33.1169 66.2766 32.9492 66.3071 32.784 66.3426C32.6188 66.3782 32.4714 66.4087 32.3444 66.4367C32.2173 66.4646 32.1309 66.4748 32.0902 66.4748C32.0089 66.4748 31.8895 66.4519 31.7344 66.4062C31.5794 66.3604 31.4015 66.2994 31.2007 66.2207C31 66.1419 30.7916 66.0504 30.5756 65.9436C30.3595 65.8344 30.1537 65.7251 29.958 65.6107C29.958 65.5701 29.9656 65.5116 29.9809 65.4328C29.9961 65.3566 30.0165 65.2778 30.0419 65.2016C30.0673 65.1253 30.0952 65.0542 30.1257 64.9932C30.1562 64.9322 30.1918 64.9017 30.235 64.9017C30.3062 64.9017 30.479 64.9093 30.7535 64.9246C31.0254 64.9398 31.3354 64.9576 31.6811 64.9779C32.0267 64.9982 32.385 65.016 32.7535 65.0313C33.1246 65.0465 33.4448 65.0542 33.7116 65.0542H36.2759C36.2555 64.8686 36.2378 64.673 36.2225 64.4671C36.2073 64.2613 36.1996 64.0859 36.1996 63.941L36.1844 61.8876H34.0979C33.6252 61.8876 33.2389 61.7555 32.939 61.4937L32.9441 61.4912Z" fill="#212A52"/>
<path d="M48.5201 60.3094C48.3396 60.2382 48.1871 60.1442 48.0652 60.0298C47.9406 59.9155 47.8491 59.7909 47.7856 59.6512C47.7246 59.5114 47.6916 59.3716 47.6916 59.2267L47.6763 58.2686C47.6763 58.1873 47.6509 58.1035 47.5975 58.0221C47.5467 57.9408 47.4832 57.8646 47.412 57.7985C47.3409 57.7324 47.2672 57.6714 47.196 57.6206C47.1248 57.5698 47.0664 57.5342 47.0257 57.5113C47.0664 57.3665 47.1198 57.2343 47.1808 57.1098C47.2417 56.9853 47.3104 56.9243 47.3815 56.9243C47.5061 56.9243 47.7678 56.937 48.1694 56.9624C48.5709 56.9878 49.0029 57.0005 49.4655 57.0005H54.3296L54.3601 55.8111H50.0195C49.7831 55.8111 49.5569 55.8493 49.3486 55.928C49.1376 56.0043 48.9648 56.0449 48.8301 56.0449C48.759 56.0449 48.6446 56.017 48.4896 55.9585C48.3345 55.9026 48.1668 55.834 47.9864 55.7578C47.8059 55.6815 47.628 55.5977 47.4527 55.5113C47.2773 55.4248 47.1325 55.3486 47.0207 55.2876C47.0308 55.2368 47.0486 55.1682 47.074 55.0868C47.0994 55.0055 47.1299 54.9242 47.1681 54.848C47.2062 54.7717 47.2418 54.7056 47.285 54.6548C47.3256 54.604 47.3663 54.5786 47.4069 54.5786C47.5925 54.5989 47.7932 54.6167 48.0092 54.6319C48.2253 54.6472 48.4489 54.6599 48.6802 54.6701C48.9114 54.6802 49.1402 54.6879 49.3663 54.6929C49.5925 54.698 49.8085 54.7006 50.0169 54.7006H53.2902C53.3944 54.7006 53.5037 54.6904 53.6231 54.6701C53.7401 54.6497 53.8544 54.6294 53.9637 54.6091C54.073 54.5887 54.1695 54.5684 54.256 54.5481C54.3424 54.5277 54.4034 54.5176 54.4338 54.5176C54.4948 54.5176 54.5889 54.5201 54.7109 54.5252C54.8354 54.5303 54.9675 54.5404 55.1124 54.5557C55.2573 54.5709 55.4047 54.5887 55.5521 54.6091C55.6995 54.6294 55.8367 54.6548 55.9612 54.6853C56.1264 54.726 56.2331 54.8124 56.2865 54.9394C56.3373 55.0691 56.3526 55.1834 56.3323 55.2876C56.3119 55.4121 56.284 55.5519 56.2459 55.712C56.2103 55.8721 56.1747 56.0373 56.1391 56.2076C56.1035 56.3779 56.068 56.5431 56.0324 56.7006C55.9968 56.8607 55.9663 56.998 55.946 57.1098C56.04 57.1403 56.1162 57.1886 56.1772 57.2572C56.2382 57.3233 56.2713 57.4147 56.2713 57.5266C56.2713 57.6714 56.2255 57.7883 56.1315 57.8824C56.0375 57.9764 55.9206 58.0221 55.7757 58.0221H49.4578V58.8252C49.4578 58.9802 49.5188 59.0971 49.6434 59.181C49.7679 59.2623 49.9229 59.3055 50.1059 59.3055H53.5037C53.6587 59.3055 53.8163 59.2928 53.9739 59.2674C54.134 59.242 54.2788 59.214 54.4135 59.1835C54.5482 59.153 54.6626 59.1251 54.7617 59.0971C54.8608 59.0717 54.9294 59.059 54.9701 59.059C55.1048 59.059 55.2547 59.0666 55.425 59.0819C55.5953 59.0971 55.7579 59.1175 55.9104 59.1429C56.0654 59.1683 56.2026 59.1937 56.3272 59.2191C56.4517 59.2445 56.5381 59.2623 56.5889 59.2725C56.6601 59.303 56.7135 59.364 56.744 59.4504C56.7745 59.5393 56.7897 59.641 56.7897 59.7604C56.7897 59.8799 56.7719 59.9968 56.7363 60.1162C56.7008 60.2357 56.6576 60.3348 56.6042 60.4161H52.8963L52.8811 61.0489C52.8709 61.1302 52.8557 61.2421 52.8353 61.3818C52.815 61.5216 52.7896 61.6639 52.7591 61.8062H55.5088C55.6944 61.8062 55.8596 61.7885 56.0044 61.7529C56.1493 61.7173 56.2814 61.6792 56.406 61.636C56.5305 61.5953 56.6372 61.5572 56.7313 61.5191C56.8253 61.4835 56.9117 61.4657 56.9956 61.4657C57.1099 61.4657 57.2675 61.4784 57.4733 61.5038C57.6792 61.5292 57.885 61.5623 58.0909 61.6029C58.2967 61.6436 58.4797 61.6893 58.6398 61.7351C58.7999 61.7808 58.8889 61.8266 58.9092 61.8672C58.9499 61.9384 58.9753 62.0299 58.9855 62.1366C58.9956 62.2459 58.9931 62.3501 58.9778 62.4543C58.9626 62.5585 58.9423 62.6551 58.9168 62.7466C58.8914 62.8406 58.8635 62.9067 58.833 62.9473H48.6853C48.5709 62.9473 48.4311 62.96 48.2608 62.9854C48.0906 63.0109 47.9228 63.0414 47.7577 63.0795C47.5925 63.1151 47.4451 63.1456 47.318 63.1735C47.1884 63.1989 47.1045 63.2116 47.0639 63.2116C46.98 63.2116 46.8631 63.1888 46.7081 63.143C46.553 63.0973 46.3751 63.0337 46.1744 62.9575C45.9736 62.8812 45.7652 62.7872 45.5492 62.6805C45.3332 62.5737 45.1273 62.4619 44.9316 62.3476C44.9316 62.3069 44.9393 62.2484 44.9545 62.1697C44.9698 62.0934 44.9901 62.0146 45.0155 61.9384C45.0409 61.8622 45.0689 61.7935 45.1019 61.7376C45.1324 61.6817 45.168 61.6538 45.2086 61.6538C45.2798 61.6538 45.4526 61.6614 45.7271 61.6766C46.0016 61.6919 46.3091 61.7097 46.6547 61.73C47.0003 61.7503 47.3587 61.7681 47.7297 61.7834C48.1007 61.7986 48.4184 61.8062 48.6878 61.8062H51.2673C51.247 61.6817 51.2317 61.5623 51.2215 61.4428C51.2114 61.3259 51.2063 61.2243 51.2063 61.1404L51.191 60.4136H49.1529C48.9064 60.4136 48.6903 60.378 48.5124 60.3068L48.5201 60.3094ZM56.3831 65.0516C56.3678 65.1863 56.3551 65.3235 56.345 65.4684L56.2662 67.2143C56.256 67.3896 56.2306 67.5701 56.1899 67.7556C56.1493 67.9411 56.0984 68.119 56.0425 68.2893C55.9841 68.4596 55.9256 68.612 55.8646 68.7442C55.8037 68.8789 55.7401 68.9755 55.6791 69.0365H54.8303C54.7998 68.9856 54.7642 68.8992 54.7312 68.7823C54.6956 68.6629 54.66 68.5307 54.6219 68.3808C54.5838 68.2308 54.5558 68.0733 54.5279 67.9106C54.5025 67.7454 54.4898 67.5904 54.4898 67.4481V65.3947H50.3346C50.1999 65.3947 50.0601 65.4048 49.9102 65.4252C49.7603 65.4455 49.623 65.4709 49.4934 65.5014C49.3638 65.5319 49.252 65.5573 49.1529 65.5776C49.0563 65.598 48.9902 65.6081 48.9597 65.6081C48.8784 65.6081 48.7513 65.5776 48.5811 65.5141C48.4108 65.4531 48.2329 65.3769 48.0474 65.2905C47.8618 65.2041 47.6865 65.1177 47.5213 65.0363C47.3561 64.955 47.2417 64.8864 47.1808 64.8356C47.1808 64.6907 47.2062 64.5484 47.2595 64.4035C47.3104 64.2587 47.3739 64.1875 47.4451 64.1875C47.4857 64.1875 47.628 64.1926 47.8695 64.2028C48.1109 64.2129 48.3828 64.2206 48.6878 64.2256C48.9928 64.2307 49.2977 64.2383 49.6078 64.2485C49.9153 64.2587 50.1593 64.2638 50.3321 64.2638H53.9307C54.012 64.2638 54.1111 64.2561 54.2229 64.2409C54.3347 64.2256 54.4516 64.2078 54.5711 64.1875C54.6905 64.1672 54.7947 64.1494 54.8888 64.1341C54.9828 64.1189 55.0489 64.1113 55.0895 64.1113C55.2242 64.1113 55.3894 64.1265 55.5927 64.157C55.7935 64.1875 55.9333 64.2129 56.0171 64.2333C56.0984 64.2536 56.1849 64.2943 56.2713 64.3578C56.3577 64.4213 56.4034 64.5179 56.4034 64.65C56.4034 64.7822 56.3958 64.9169 56.3805 65.0516H56.3831Z" fill="#212A52"/>
<path d="M76.4296 52.2383H65.9388C63.9668 52.2383 62.3682 53.8369 62.3682 55.8089V66.2997C62.3682 68.2717 63.9668 69.8704 65.9388 69.8704H76.4296C78.4016 69.8704 80.0002 68.2717 80.0002 66.2997V55.8089C80.0002 53.8369 78.4016 52.2383 76.4296 52.2383Z" fill="#212A52"/>
<path d="M69.1637 57.9135C69.1053 57.972 68.963 57.9949 68.7419 57.9771C68.503 58.282 68.198 58.6709 67.8244 59.1359C67.4508 59.5959 67.0976 60.028 66.7672 60.4371L68.4623 60.2846C68.3683 60.122 68.2844 59.9873 68.2082 59.8755C68.1142 59.7306 68.0201 59.6112 67.9286 59.5197L68.0049 59.418C68.2438 59.5629 68.4598 59.7332 68.6555 59.9288C68.8511 60.1169 69.029 60.3456 69.1917 60.6176C69.2425 60.8056 69.2603 60.9606 69.2425 61.0903C69.2247 61.1919 69.1841 61.2605 69.1154 61.2936C69.0468 61.319 68.9782 61.3012 68.9121 61.2427C68.8359 61.1741 68.7851 61.0775 68.7597 60.9505C68.7419 60.8819 68.7165 60.8056 68.6834 60.7217C68.6504 60.6455 68.6123 60.5591 68.5691 60.4676L67.6516 60.6582C67.2272 60.7421 66.9248 60.8082 66.7469 60.8488C66.4572 60.9174 66.2411 60.9861 66.0963 61.0521C65.9946 61.291 65.9057 61.413 65.8294 61.4206C65.7532 61.4283 65.6719 61.3113 65.588 61.0648L65.4482 60.5921C65.5931 60.5667 65.7634 60.5413 65.9591 60.5159C66.1039 60.4981 66.2945 60.4829 66.5334 60.4651C66.7469 60.0915 66.9959 59.6696 67.2857 59.202C67.4636 58.9047 67.7329 58.4828 68.0887 57.9389L68.536 57.2375L69.0214 57.5806C69.1917 57.7331 69.2425 57.8449 69.1739 57.911L69.1637 57.9135ZM75.9848 61.9543L76.7879 62.5541C76.8895 62.6379 76.9022 62.7066 76.826 62.7574C76.7675 62.8006 76.6684 62.8209 76.5337 62.8209H71.7788C72.3303 63.6113 73.019 64.239 73.845 64.7066C74.6861 65.1742 75.7154 65.497 76.9302 65.6749V65.802C76.5388 65.7943 76.2415 65.8325 76.0382 65.9163C75.8679 65.9849 75.7612 66.0917 75.7205 66.234C74.8031 65.9367 73.9771 65.4894 73.2477 64.8947C72.5158 64.3076 71.9338 63.6113 71.5018 62.8031H71.3747V65.9392L71.4001 66.1806C71.4256 66.3077 71.4306 66.3966 71.4129 66.4475C71.3798 66.5313 71.2858 66.6177 71.1333 66.7016C70.93 66.8033 70.8029 66.8388 70.7521 66.8033C70.7191 66.7855 70.7064 66.7194 70.714 66.6V63.1589C69.9312 64.0764 69.0824 64.8235 68.165 65.403C67.3238 65.9214 66.4572 66.2874 65.5651 66.4983L65.4889 66.3839C66.3047 66.0866 67.1281 65.6241 67.9617 64.9938C68.8207 64.3483 69.55 63.6215 70.1549 62.8133H66.9045L65.7583 62.8895L65.6566 62.5592L66.6757 62.61H70.7165V61.0928L71.3671 61.2453C71.6645 61.3139 71.8042 61.3901 71.789 61.474C71.7814 61.5502 71.6441 61.6316 71.3798 61.7154V62.6075H75.3698L75.995 61.9442L75.9848 61.9543ZM68.1319 56.0405C68.0989 56.0736 67.9744 56.1041 67.7634 56.1295L67.7507 56.1422C67.6821 56.2184 67.5982 56.3303 67.4966 56.4726C67.4381 56.5666 67.339 56.714 67.2043 56.9199C67.0671 57.1333 66.9629 57.2934 66.8867 57.4053C66.7774 57.5755 66.6834 57.7102 66.6071 57.8144C66.7266 57.9161 66.8358 58.0177 66.9375 58.1194C67.0468 58.2388 67.1459 58.3608 67.2297 58.4879C67.2882 58.6505 67.3111 58.803 67.2933 58.9479C67.2755 59.0851 67.2348 59.1741 67.1662 59.2147C67.0976 59.2655 67.0264 59.2528 66.9502 59.1766C66.8663 59.0927 66.7977 58.9479 66.7469 58.742C66.7139 58.5794 66.5817 58.3608 66.353 58.0787C66.0988 57.7738 65.8345 57.5527 65.5626 57.4154L65.6388 57.3138C65.7837 57.3646 65.9184 57.4205 66.048 57.479C66.1929 57.5476 66.3276 57.6238 66.4572 57.7077L66.7113 57.0698C66.8892 56.653 67.0163 56.3506 67.0925 56.1651C67.2297 55.8423 67.339 55.6085 67.4229 55.4636L67.8575 55.7051C68.0964 55.8677 68.1878 55.977 68.137 56.0355L68.1319 56.0405ZM72.16 56.3836L72.6073 56.8055C72.7954 56.9503 72.8741 57.0571 72.8487 57.1232C72.8309 57.1816 72.7267 57.2248 72.5311 57.2502V60.6785L72.5438 60.8564C72.5616 60.9657 72.5616 61.047 72.5438 61.0979C72.5107 61.1741 72.4243 61.2478 72.2896 61.3139C72.1016 61.3901 71.9872 61.4105 71.9465 61.3774C71.9135 61.3596 71.9033 61.2961 71.9211 61.1868L71.9338 61.0598V60.8819H70.226V61.0089L70.2387 61.1614C70.2565 61.2376 70.2464 61.2936 70.2133 61.3266C70.1803 61.3774 70.0812 61.4333 69.9211 61.4918C69.7432 61.5426 69.6313 61.5375 69.5907 61.4791C69.5576 61.446 69.5475 61.3571 69.5653 61.2122L69.5907 61.0343V57.0063L69.5526 56.4192L70.254 56.7877H70.6886L70.93 55.2832L71.4027 55.4103C71.6568 55.4789 71.7839 55.5551 71.7839 55.639C71.7839 55.7152 71.6644 55.7839 71.4281 55.8423L71.3519 55.9821C71.2502 56.1701 71.174 56.3099 71.1231 56.404C71.0469 56.5488 70.9783 56.6708 70.9198 56.7724H71.7356L72.1702 56.3785L72.16 56.3836ZM70.2235 58.6785H71.9059V56.9961H70.2235V58.6785ZM70.2235 60.6811H71.9059V58.8843H70.2235V60.6811ZM76.5718 57.6086C76.5388 57.667 76.4016 57.7026 76.1627 57.7102L74.0076 60.31L75.8679 60.1576C75.8094 60.0635 75.7408 59.9619 75.6646 59.8526C75.6138 59.7941 75.5451 59.7027 75.4613 59.5858L75.2707 59.3316L75.3215 59.2045C75.6112 59.3672 75.8984 59.6086 76.1881 59.9314C76.4168 60.1957 76.5795 60.4193 76.6735 60.6074C76.6913 60.7777 76.6786 60.9352 76.6354 61.0801C76.6023 61.1995 76.5464 61.2809 76.4702 61.3215C76.4016 61.3546 76.338 61.3393 76.2796 61.2707C76.211 61.1868 76.1703 61.0445 76.1525 60.8488C76.1347 60.765 76.1093 60.6785 76.0763 60.5947C76.0509 60.5261 76.0178 60.4447 75.9746 60.3532L73.4892 60.8895C73.4129 61.1614 73.3265 61.2986 73.235 61.2986C73.1435 61.2986 73.0571 61.1589 72.9809 60.8768L72.8538 60.4549L73.3138 60.3914L73.6823 60.3532L75.8755 56.9758L76.3228 57.2553C76.5363 57.418 76.6201 57.5349 76.5769 57.6111L76.5718 57.6086ZM75.3088 56.193C75.3012 56.2769 75.1715 56.315 74.9276 56.3074C74.7497 56.5539 74.5972 56.7699 74.4676 56.958C74.2643 57.2299 74.0889 57.4586 73.9441 57.6467C74.0533 57.7305 74.1525 57.822 74.2363 57.9135C74.3202 57.9974 74.3863 58.0787 74.4269 58.155C74.5286 58.4955 74.5082 58.7039 74.3634 58.7801C74.2185 58.864 74.0788 58.7166 73.9415 58.3329C73.8907 58.188 73.789 58.0304 73.6366 57.8602C73.4663 57.6568 73.2426 57.4485 72.9606 57.235L73.0368 57.1206C73.1461 57.1537 73.2757 57.2147 73.418 57.2985C73.5273 57.357 73.6569 57.4383 73.7992 57.5399L74.1169 56.7369C74.2262 56.4649 74.3075 56.2693 74.3583 56.1498C74.4422 55.9363 74.5235 55.7686 74.5997 55.639L75.0724 55.9185C75.2351 56.0278 75.3113 56.1193 75.3012 56.1854L75.3088 56.193Z" fill="#EBBD2F"/>
</g>
<defs>
<clipPath id="clip0_185_5882">
<rect width="80" height="77.5323" fill="white" transform="translate(0 0.734375)"/>
</clipPath>
</defs>
</svg>
