<svg width="32" height="32" viewBox="0 0 32 32" fill="none" xmlns="http://www.w3.org/2000/svg">
<path d="M0 2.28571C0 1.67951 0.210714 1.09813 0.585787 0.669471C0.96086 0.240816 1.46957 0 2 0H30C30.5304 0 31.0391 0.240816 31.4142 0.669471C31.7893 1.09813 32 1.67951 32 2.28571C32 2.89192 31.7893 3.4733 31.4142 3.90196C31.0391 4.33061 30.5304 4.57143 30 4.57143H2C1.46957 4.57143 0.96086 4.33061 0.585787 3.90196C0.210714 3.4733 0 2.89192 0 2.28571ZM0 29.7143C0 29.1081 0.210714 28.5267 0.585787 28.098C0.96086 27.6694 1.46957 27.4286 2 27.4286H30C30.5304 27.4286 31.0391 27.6694 31.4142 28.098C31.7893 28.5267 32 29.1081 32 29.7143C32 30.3205 31.7893 30.9019 31.4142 31.3305C31.0391 31.7592 30.5304 32 30 32H2C1.46957 32 0.96086 31.7592 0.585787 31.3305C0.210714 30.9019 0 30.3205 0 29.7143ZM2 13.7143C1.46957 13.7143 0.96086 13.9551 0.585787 14.3838C0.210714 14.8124 0 15.3938 0 16C0 16.6062 0.210714 17.1876 0.585787 17.6162C0.96086 18.0449 1.46957 18.2857 2 18.2857H18C18.5304 18.2857 19.0391 18.0449 19.4142 17.6162C19.7893 17.1876 20 16.6062 20 16C20 15.3938 19.7893 14.8124 19.4142 14.3838C19.0391 13.9551 18.5304 13.7143 18 13.7143H2Z" fill="#1A2755"/>
</svg>
