<svg width="32" height="27" viewBox="0 0 32 27" fill="none" xmlns="http://www.w3.org/2000/svg">
<path d="M27.2726 14.3275L1.30995 14.3275C1.13828 14.3285 0.968112 14.2956 0.809226 14.2305C0.65034 14.1655 0.505874 14.0698 0.384135 13.9487C0.262396 13.8277 0.165786 13.6838 0.0998614 13.5253C0.0339372 13.3668 -7.44376e-07 13.1968 -7.46423e-07 13.0251C-7.48471e-07 12.8534 0.0339372 12.6835 0.0998614 12.5249C0.165786 12.3664 0.262396 12.2225 0.384135 12.1015C0.505874 11.9804 0.65034 11.8847 0.809226 11.8197C0.968112 11.7546 1.13828 11.7217 1.30995 11.7227L27.2726 11.7227L17.1814 2.22534C17.0535 2.1082 16.9513 1.96573 16.8815 1.80698C16.8116 1.64823 16.7755 1.47668 16.7755 1.30323C16.7755 1.12978 16.8116 0.958231 16.8815 0.799483C16.9513 0.640734 17.0535 0.498261 17.1814 0.381121C17.4482 0.136015 17.7972 1.69366e-07 18.1595 1.65046e-07C18.5218 1.60726e-07 18.8709 0.136015 19.1376 0.381121L31.5941 12.103C31.722 12.2201 31.8241 12.3626 31.894 12.5213C31.9639 12.6801 32 12.8516 32 13.0251C32 13.1986 31.9639 13.3701 31.894 13.5289C31.8241 13.6876 31.722 13.8301 31.5941 13.9472L19.1376 25.6691C18.871 25.9135 18.5225 26.0491 18.1608 26.0491C17.7991 26.0491 17.4506 25.9135 17.184 25.6691C17.0561 25.552 16.9539 25.4095 16.884 25.2508C16.8141 25.092 16.7781 24.9204 16.7781 24.747C16.7781 24.5735 16.8141 24.402 16.884 24.2432C16.9539 24.0845 17.0561 23.942 17.184 23.8249L27.27 14.3275L27.2726 14.3275Z" fill="white"/>
</svg>
