<svg width="84" height="81" viewBox="0 0 84 81" fill="none" xmlns="http://www.w3.org/2000/svg">
<rect x="0.114563" y="0.707031" width="83.6721" height="80" rx="10" fill="white"/>
<path d="M29.7776 49.2778V41.0733C29.7776 40.5637 29.9495 40.137 30.2932 39.7933C30.6369 39.4496 31.0635 39.2778 31.5732 39.2778H39.7776V31.0733C39.7776 30.5652 39.9495 30.1385 40.2932 29.7933C40.6369 29.4482 41.0635 29.2763 41.5732 29.2778H49.7776V21.0733C49.7776 20.5652 49.9495 20.1385 50.2932 19.7933C50.6369 19.4482 51.0635 19.2763 51.5732 19.2778H59.7776V12.6111C59.7776 12.2956 59.8843 12.0319 60.0976 11.82C60.3109 11.6082 60.5754 11.5015 60.8909 11.5C61.2065 11.4985 61.4702 11.6052 61.682 11.82C61.8939 12.0348 61.9998 12.2985 61.9998 12.6111V19.7045C61.9998 20.2126 61.828 20.6393 61.4843 20.9845C61.1406 21.3296 60.7139 21.5015 60.2043 21.5H51.9998V29.7045C51.9998 30.2126 51.828 30.6393 51.4843 30.9845C51.1406 31.3296 50.7139 31.5015 50.2043 31.5H41.9998V39.7044C41.9998 40.2141 41.828 40.6407 41.4843 40.9844C41.1406 41.3281 40.7139 41.5 40.2043 41.5H31.9998V49.7044C31.9998 50.2141 31.828 50.6407 31.4843 50.9844C31.1406 51.3281 30.7139 51.5 30.2043 51.5H23.1109C22.7954 51.5 22.5317 51.3933 22.3198 51.18C22.108 50.9667 22.0013 50.7022 21.9998 50.3867C21.9984 50.0711 22.105 49.8074 22.3198 49.5956C22.5346 49.3837 22.7984 49.2778 23.1109 49.2778H29.7776Z" fill="#1A2755" stroke="#1A2755" stroke-width="0.5"/>
<path d="M32.869 62.8867V63.8926H24.7635V62.8867H32.869ZM29.4217 58.541V59.3027H32.0877V60.2891H29.5291C29.6951 60.9043 30.6082 61.4756 32.5076 61.5879L32.1365 62.5352C30.4959 62.418 29.3631 61.9395 28.8065 61.2266C28.2449 61.9395 27.1121 62.418 25.4861 62.5352L25.1053 61.5879C27.0047 61.4756 27.908 60.9043 28.0838 60.2891H25.5447V59.3027H28.1912V58.541H29.4217ZM28.8065 64.3809C30.7498 64.3809 31.8924 64.9082 31.9022 65.8848C31.8924 66.8711 30.7498 67.3984 28.8065 67.3984C26.8533 67.3984 25.6912 66.8711 25.6912 65.8848C25.6912 64.9082 26.8533 64.3809 28.8065 64.3809ZM28.8065 65.2988C27.5662 65.2988 26.951 65.4844 26.9608 65.8848C26.951 66.2949 27.5662 66.4805 28.8065 66.4805C30.0174 66.4805 30.6424 66.2949 30.6522 65.8848C30.6424 65.4844 30.0174 65.2988 28.8065 65.2988ZM40.8963 58.5117V63.082H39.6561V62.1934H38.0154V62.8281H33.7869V58.8926H35.0369V59.9277H36.785V58.8926H38.0154V59.6445H39.6561V58.5117H40.8963ZM40.8963 63.4141V65.7871H36.2381V66.3242H41.16V67.3008H34.9881V64.8789H39.6561V64.3711H34.9783V63.4141H40.8963ZM35.0369 61.8516H36.785V60.875H35.0369V61.8516ZM38.0154 61.2559H39.6561V60.5723H38.0154V61.2559ZM49.0994 58.5117V61.0605H50.3006V62.0957H49.0994V64.9863H47.8494V58.5117H49.0994ZM49.4217 66.2461V67.2422H43.3377V64.3027H44.5779V66.2461H49.4217ZM44.5486 59.0879C45.9061 59.0879 46.9705 60.0254 46.9705 61.3438C46.9705 62.6426 45.9061 63.5996 44.5486 63.5996C43.1815 63.5996 42.1072 62.6426 42.1072 61.3438C42.1072 60.0254 43.1815 59.0879 44.5486 59.0879ZM44.5486 60.1719C43.8748 60.1621 43.3279 60.6016 43.3377 61.3438C43.3279 62.0664 43.8748 62.5156 44.5486 62.5156C45.2322 62.5156 45.7498 62.0664 45.7596 61.3438C45.7498 60.6016 45.2322 60.1621 44.5486 60.1719ZM58.3572 58.5117V67.3984H57.1561V62.9551H56.326V66.9688H55.1541V58.6582H56.326V61.9492H57.1561V58.5117H58.3572ZM52.3026 59.498V64.1367C53.0154 64.1221 53.7967 64.0586 54.6561 63.8926L54.783 64.9668C53.5916 65.1719 52.576 65.2305 51.658 65.2305H51.0526V59.498H52.3026Z" fill="#1A2755"/>
</svg>
