<svg width="84" height="81" viewBox="0 0 84 81" fill="none" xmlns="http://www.w3.org/2000/svg">
<rect x="0.114563" y="0.707031" width="83.6721" height="80" rx="10" fill="white"/>
<path d="M35.3338 42.6116V20.3887H42.0005C43.7686 20.3887 45.4643 21.091 46.7145 22.3413C47.9648 23.5915 48.6671 25.2872 48.6671 27.0553C48.6671 28.8234 47.9648 30.5191 46.7145 31.7694C45.4643 33.0196 43.7686 33.722 42.0005 33.722H35.3338" stroke="#1A2755" stroke-width="3" stroke-linecap="round" stroke-linejoin="round"/>
<path d="M59.778 11.5H24.2217C22.995 11.5 21.9998 12.4952 21.9998 13.7219V49.2781C21.9998 50.5048 22.995 51.5 24.2217 51.5H59.778C61.0046 51.5 61.9998 50.5048 61.9998 49.2781V13.7219C61.9998 12.4952 61.0046 11.5 59.778 11.5Z" stroke="#1A2755" stroke-width="3" stroke-linecap="round" stroke-linejoin="round"/>
<path d="M32.869 63.4141V64.4102H29.4119V67.3984H28.1815V64.4102H24.7635V63.4141H32.869ZM32.1463 58.9805V59.957H29.5584C29.6805 60.8262 30.6619 61.7002 32.4881 61.9199L32.0389 62.8965C30.4764 62.6865 29.3582 62.0176 28.826 61.0996C28.2791 62.0176 27.1707 62.6865 25.6229 62.8965L25.1639 61.9199C26.9608 61.7002 27.952 60.8262 28.0936 59.957H25.4959V58.9805H32.1463ZM36.619 61.2949C36.619 62.5547 37.2733 63.9902 38.6893 64.6543L37.9959 65.5918C37.0486 65.167 36.3895 64.3271 36.0135 63.3359C35.6326 64.4053 34.9295 65.3086 33.9236 65.748L33.2401 64.7812C34.6854 64.1465 35.3787 62.6328 35.3885 61.2949V60.9531H33.5526V59.957H35.3787V58.707H36.6287V59.957H38.4354V60.9531H36.619V61.2949ZM40.4178 58.5117V61.959H41.7264V63.0039H40.4178V67.3984H39.1678V58.5117H40.4178ZM49.0994 58.5117V61.0605H50.3006V62.0957H49.0994V64.9863H47.8494V58.5117H49.0994ZM49.4217 66.2461V67.2422H43.3377V64.3027H44.5779V66.2461H49.4217ZM44.5486 59.0879C45.9061 59.0879 46.9705 60.0254 46.9705 61.3438C46.9705 62.6426 45.9061 63.5996 44.5486 63.5996C43.1815 63.5996 42.1072 62.6426 42.1072 61.3438C42.1072 60.0254 43.1815 59.0879 44.5486 59.0879ZM44.5486 60.1719C43.8748 60.1621 43.3279 60.6016 43.3377 61.3438C43.3279 62.0664 43.8748 62.5156 44.5486 62.5156C45.2322 62.5156 45.7498 62.0664 45.7596 61.3438C45.7498 60.6016 45.2322 60.1621 44.5486 60.1719ZM58.3572 58.5117V67.3984H57.1561V62.9551H56.326V66.9688H55.1541V58.6582H56.326V61.9492H57.1561V58.5117H58.3572ZM52.3026 59.498V64.1367C53.0154 64.1221 53.7967 64.0586 54.6561 63.8926L54.783 64.9668C53.5916 65.1719 52.576 65.2305 51.658 65.2305H51.0526V59.498H52.3026Z" fill="#1A2755"/>
</svg>
