<svg width="84" height="81" viewBox="0 0 84 81" fill="none" xmlns="http://www.w3.org/2000/svg">
<rect x="0.114563" y="0.707031" width="83.6721" height="80" rx="10" fill="white"/>
<path d="M21.9998 26.2383H61.9998V49.3962C61.9998 50.5589 61.0573 51.5014 59.8946 51.5014H24.1051C22.9424 51.5014 21.9998 50.5589 21.9998 49.3962V26.2383Z" stroke="#1A2755" stroke-width="3" stroke-linejoin="round"/>
<path d="M21.9998 16.7635C21.9998 15.6008 22.9424 14.6582 24.1051 14.6582H59.8946C61.0573 14.6582 61.9998 15.6008 61.9998 16.7635V26.2371H21.9998V16.7635Z" stroke="#1A2755" stroke-width="3" stroke-linejoin="round"/>
<path d="M33.5779 38.8685L39.8937 45.1843L52.5253 32.5527" stroke="#1A2755" stroke-width="3" stroke-linecap="round" stroke-linejoin="round"/>
<path d="M33.5779 11.5V19.9211" stroke="#1A2755" stroke-width="3" stroke-linecap="round"/>
<path d="M50.4217 11.5V19.9211" stroke="#1A2755" stroke-width="3" stroke-linecap="round"/>
<path d="M32.8983 65.3281V66.3633H24.7635V65.3281H32.8983ZM32.2147 59.293V60.2891H30.9647V62.9844H32.1756V63.9609H25.4373V62.9844H26.6287V60.2891H25.3983V59.293H32.2147ZM27.8787 62.9844H29.7342V60.2891H27.8787V62.9844ZM41.5408 65.3867V66.4121H33.4061V65.3867H36.8338V64.0488H34.3436V61.0605H39.3729V60.084H34.3338V59.0879H40.6033V62.0371H35.5936V63.0332H40.8084V64.0488H38.074V65.3867H41.5408ZM49.158 59.332V60.3965C49.158 61.6172 49.158 62.8281 48.8358 64.6641L47.576 64.5566C47.908 62.8477 47.908 61.5781 47.9178 60.3965V60.3281H42.8885V59.332H49.158ZM50.1541 65.2109V66.2363H42.0486V65.2109H50.1541ZM58.3279 58.5215V63.7559H57.1463V61.6074H56.3748V63.6875H55.2127V58.6777H56.3748V60.6113H57.1463V58.5215H58.3279ZM58.3279 64.1172V67.3008H52.2635V64.1172H58.3279ZM53.5037 65.1035V66.3047H57.0975V65.1035H53.5037ZM54.4315 59.0391V61.6855H52.2537V62.4863C53.2254 62.4766 53.9481 62.4375 54.7928 62.2812L54.9002 63.2578C53.8651 63.4336 52.9861 63.4531 51.6678 63.4531H51.0526V60.7578H53.2303V60.0059H51.0428V59.0391H54.4315Z" fill="#1A2755"/>
</svg>
