<svg width="84" height="81" viewBox="0 0 84 81" fill="none" xmlns="http://www.w3.org/2000/svg">
<rect x="0.114563" y="0.707031" width="83.6721" height="79" rx="10" fill="white"/>
<path d="M54.0827 18.5L56.0966 16.5M27.9022 16.5L29.916 18.5" stroke="#1A2755" stroke-width="3" stroke-linecap="round" stroke-linejoin="round"/>
<path d="M41.9998 51.5C52.01 51.5 60.1248 43.4411 60.1248 33.5C60.1248 23.5589 52.01 15.5 41.9998 15.5C31.9897 15.5 23.8748 23.5589 23.8748 33.5C23.8748 43.4411 31.9897 51.5 41.9998 51.5Z" stroke="#1A2755" stroke-width="3" stroke-linecap="round" stroke-linejoin="round"/>
<path d="M42.0003 26.5V34.5L46.028 38.5M42.0003 14.5V11.5M37.9725 11.5H46.028" stroke="#1A2755" stroke-width="3" stroke-linecap="round" stroke-linejoin="round"/>
<path d="M32.8885 62.8379V63.834H29.5193V65.377H28.2596V63.834H24.7537V62.8379H32.8885ZM31.9901 66.2363V67.2422H25.7205V64.5859H26.9803V66.2363H31.9901ZM28.8162 58.6777C30.7401 58.6875 32.0193 59.4004 32.0291 60.5234C32.0193 61.6562 30.7401 62.3594 28.8162 62.3594C26.8826 62.3594 25.5936 61.6562 25.5936 60.5234C25.5936 59.4004 26.8826 58.6875 28.8162 58.6777ZM28.8162 59.6641C27.6639 59.6641 26.9315 59.957 26.9412 60.5234C26.9315 61.0703 27.6639 61.3633 28.8162 61.3633C29.9588 61.3633 30.6912 61.0703 30.6912 60.5234C30.6912 59.957 29.9588 59.6641 28.8162 59.6641ZM35.8865 58.9902C36.5945 58.9902 37.2147 59.249 37.6443 59.6836H39.6561V58.5117H40.8963V63.7168H39.6561V62.6523H37.6346C37.2049 63.082 36.5897 63.3408 35.8865 63.3359C34.5389 63.3457 33.5135 62.418 33.5233 61.168C33.5135 59.8984 34.5389 58.9902 35.8865 58.9902ZM35.8865 60.0547C35.1932 60.0547 34.6951 60.4648 34.7049 61.168C34.6951 61.8516 35.1932 62.291 35.8865 62.2812C36.5604 62.291 37.0486 61.8516 37.0486 61.168C37.0486 60.4648 36.5604 60.0547 35.8865 60.0547ZM37.8592 63.9023C39.744 63.9023 40.9158 64.5469 40.9256 65.6504C40.9158 66.7539 39.744 67.3984 37.8592 67.3984C35.9842 67.3984 34.8026 66.7539 34.8026 65.6504C34.8026 64.5469 35.9842 63.9023 37.8592 63.9023ZM37.8592 64.8496C36.6776 64.8496 36.0233 65.1133 36.0233 65.6504C36.0233 66.168 36.6776 66.4316 37.8592 66.4316C39.0604 66.4316 39.7049 66.168 39.7049 65.6504C39.7049 65.1133 39.0604 64.8496 37.8592 64.8496ZM38.1815 60.6699C38.2108 60.8262 38.2303 60.9971 38.2303 61.168C38.2303 61.3389 38.2108 61.5 38.1815 61.6562H39.6561V60.6699H38.1815ZM45.5057 60.5234C45.5057 62.1543 46.2479 63.7949 47.7518 64.4297L47.0193 65.4258C46.0037 64.9668 45.3006 64.083 44.9002 62.9844C44.4949 64.1807 43.7674 65.1475 42.6834 65.6406L41.9315 64.6055C43.4842 63.9512 44.2361 62.252 44.2459 60.5234V59.1953H45.5057V60.5234ZM49.4901 58.5117V67.418H48.2303V58.5117H49.4901ZM57.742 58.5117V61.002H58.9432V62.0273H57.742V64.8789H56.4822V58.5117H57.742ZM55.3201 59.1758C55.3201 61.5781 53.8162 63.2578 51.1502 64.0098L50.6326 63.0234C52.6199 62.4668 53.7479 61.4365 53.9529 60.1914H51.0233V59.1758H55.3201ZM58.0447 66.2461V67.2422H51.9608V64.2246H53.2205V66.2461H58.0447Z" fill="#1A2755"/>
</svg>
