<svg width="42" height="41" viewBox="0 0 42 41" fill="none" xmlns="http://www.w3.org/2000/svg">
<path d="M8.77761 38.2778V30.0733C8.77761 29.5637 8.94946 29.137 9.29316 28.7933C9.63687 28.4496 10.0635 28.2778 10.5732 28.2778H18.7776V20.0733C18.7776 19.5652 18.9495 19.1385 19.2932 18.7933C19.6369 18.4482 20.0635 18.2763 20.5732 18.2778H28.7776V10.0733C28.7776 9.5652 28.9495 9.13853 29.2932 8.79334C29.6369 8.44816 30.0635 8.27631 30.5732 8.27779H38.7776V1.61113C38.7776 1.29557 38.8843 1.03187 39.0976 0.820015C39.3109 0.608163 39.5754 0.501497 39.8909 0.500015C40.2065 0.498534 40.4702 0.6052 40.682 0.820015C40.8939 1.03483 40.9998 1.29853 40.9998 1.61113V8.70446C40.9998 9.2126 40.828 9.63927 40.4843 9.98446C40.1406 10.3296 39.7139 10.5015 39.2043 10.5H30.9998V18.7045C30.9998 19.2126 30.828 19.6393 30.4843 19.9845C30.1406 20.3296 29.7139 20.5015 29.2043 20.5H20.9998V28.7044C20.9998 29.2141 20.828 29.6407 20.4843 29.9844C20.1406 30.3281 19.7139 30.5 19.2043 30.5H10.9998V38.7044C10.9998 39.2141 10.828 39.6407 10.4843 39.9844C10.1406 40.3281 9.7139 40.5 9.20427 40.5H2.11094C1.79539 40.5 1.53168 40.3933 1.31983 40.18C1.10798 39.9667 1.00131 39.7022 0.999832 39.3867C0.998351 39.0711 1.10502 38.8074 1.31983 38.5956C1.53465 38.3837 1.79835 38.2778 2.11094 38.2778H8.77761Z" fill="#1A2755" stroke="#1A2755" stroke-width="0.5"/>
</svg>
