<svg width="44" height="43" viewBox="0 0 44 43" fill="none" xmlns="http://www.w3.org/2000/svg">
<path d="M15.3338 32.6116V10.3887H22.0005C23.7686 10.3887 25.4643 11.091 26.7145 12.3413C27.9648 13.5915 28.6671 15.2872 28.6671 17.0553C28.6671 18.8234 27.9648 20.5191 26.7145 21.7694C25.4643 23.0196 23.7686 23.722 22.0005 23.722H15.3338" stroke="#1A2755" stroke-width="3" stroke-linecap="round" stroke-linejoin="round"/>
<path d="M39.778 1.5H4.22168C2.99502 1.5 1.99982 2.4952 1.99982 3.72187V39.2781C1.99982 40.5048 2.99502 41.5 4.22168 41.5H39.778C41.0046 41.5 41.9998 40.5048 41.9998 39.2781V3.72187C41.9998 2.4952 41.0046 1.5 39.778 1.5Z" stroke="#1A2755" stroke-width="3" stroke-linecap="round" stroke-linejoin="round"/>
</svg>
