<svg width="473" height="182" viewBox="0 0 473 182" fill="none" xmlns="http://www.w3.org/2000/svg">
<path d="M109.964 42.9783C106.229 39.2131 101.249 37.1787 95.9352 37.1787H55.0344C49.7206 37.1787 44.7409 39.2435 41.0061 42.9783L12.0688 71.9155C8.30364 75.6807 6.26923 80.6605 6.26923 85.9439V126.845C6.26923 132.128 8.334 137.138 12.0688 140.873L41.0061 169.81C44.7713 173.575 49.751 175.64 55.0344 175.64H95.9352C101.249 175.64 106.229 173.575 109.964 169.81L138.901 140.873C142.666 137.138 144.731 132.128 144.731 126.845V85.9439C144.731 80.6301 142.666 75.6504 138.901 71.9155L109.964 42.9783ZM141.512 126.875C141.512 131.308 139.781 135.499 136.623 138.626L107.686 167.563C104.559 170.691 100.368 172.452 95.9352 172.452H55.0344C50.6012 172.452 46.4109 170.721 43.2834 167.563L14.3462 138.626C11.2186 135.499 9.48785 131.308 9.48785 126.875V85.9743C9.48785 81.541 11.2186 77.3508 14.3462 74.2232L43.2834 45.286C46.4109 42.1585 50.6012 40.4277 55.0344 40.4277H95.9352C100.368 40.4277 104.559 42.1585 107.686 45.286L136.623 74.2232C139.751 77.3508 141.512 81.541 141.512 85.9743V126.875Z" fill="#1A2755"/>
<path d="M150.5 128.636V84.2132C150.5 78.5047 148.283 73.1302 144.245 69.0918L136.198 61.0452L135.075 62.1687L143.334 53.9096C147.16 50.0837 147.16 43.8893 143.334 40.0634C139.508 36.2375 133.314 36.2375 129.488 40.0634L122.352 47.1687L112.848 37.6646C108.81 33.6262 103.435 31.4096 97.6964 31.4096H95.5405C95.5101 30.1646 95.419 28.8893 95.2672 27.614C93.8704 11.3995 89.9838 0.620117 75.4696 0.620117C60.9555 0.620117 57.0688 11.3995 55.6721 27.5533C55.5202 28.859 55.4291 30.1343 55.3684 31.3792H53.2733C47.5648 31.3792 42.1903 33.5958 38.1518 37.6343L30.1053 45.6808L23 38.5452C19.1741 34.7193 12.9798 34.7193 9.15384 38.5452C5.32793 42.3711 5.32793 48.5655 9.15384 52.3914L16.2591 59.4966L6.75506 69.0007C2.7166 73.0391 0.5 78.4136 0.5 84.1221V128.545C0.5 134.254 2.7166 139.628 6.75506 143.697L14.8016 151.744L7.66599 158.849C3.84008 162.675 3.84008 168.899 7.66599 172.695C9.57895 174.608 12.0688 175.549 14.5891 175.549C17.1093 175.549 19.6296 174.608 21.5121 172.695L28.6174 165.59L38.1215 175.094C42.1599 179.132 47.5344 181.379 53.2429 181.379H97.666C103.374 181.379 108.749 179.163 112.818 175.094L120.864 167.047L119.741 165.924L128 174.183C129.913 176.096 132.433 177.067 134.923 177.067C137.413 177.067 139.933 176.096 141.846 174.183C145.672 170.357 145.672 164.163 141.846 160.337L134.741 153.201L144.245 143.697C148.283 139.659 150.5 134.284 150.5 128.545V128.636ZM131.735 42.3408C134.285 39.7598 138.476 39.7598 141.026 42.3408C143.607 44.8914 143.607 49.0816 141.026 51.6323L133.921 58.7375L124.63 49.446L131.735 42.3408ZM58.8603 27.857C60.3785 10.1242 64.7206 3.80838 75.4696 3.80838C86.2186 3.80838 90.5304 10.0938 92.0789 27.8873C92.2004 29.1019 92.2915 30.2254 92.3219 31.3792H58.587C58.6478 30.2557 58.7085 29.0715 58.8603 27.857ZM11.4008 50.1748C8.81984 47.5938 8.81984 43.4339 11.4008 40.8529C13.9818 38.2719 18.1417 38.3023 20.6923 40.8529L27.7976 47.9885L18.5061 57.28L11.4008 50.1748ZM19.2652 170.509C16.6842 173.059 12.5243 173.059 9.94332 170.509C7.39271 167.928 7.39271 163.768 9.94332 161.217L17.0789 154.082L26.3704 163.373L19.2652 170.509ZM139.599 162.644C142.15 165.195 142.15 169.385 139.599 171.936C137.018 174.517 132.858 174.486 130.308 171.936L123.172 164.831L132.494 155.539L139.599 162.644ZM110.54 172.877C107.109 176.308 102.555 178.221 97.6964 178.221H53.2733C48.415 178.221 43.8603 176.339 40.4291 172.877L9.03239 141.48C5.60121 138.049 3.71862 133.495 3.71862 128.636V84.2132C3.71862 79.3549 5.60121 74.8003 9.03239 71.3691L40.4291 39.9723C43.8603 36.5412 48.4453 34.6586 53.2733 34.6586H97.6964C102.555 34.6586 107.14 36.5412 110.54 39.9723L141.937 71.3691C145.368 74.8003 147.251 79.3853 147.251 84.2132V128.636C147.251 133.495 145.368 138.08 141.937 141.48L110.54 172.877Z" fill="#1A2755"/>
<path d="M64.5081 50.8125H58.9514C56.3705 50.8125 53.9109 51.7842 52.0587 53.5453L23.9109 79.8408C21.9373 81.7234 20.8138 84.3651 20.8138 87.0979V94.8105C20.8138 100.337 25.3077 104.831 30.834 104.831H64.5385C70.0648 104.831 74.5587 100.337 74.5587 94.8105V60.8327C74.5587 55.3064 70.0648 50.8429 64.5385 50.8429L64.5081 50.8125ZM71.3097 94.8105C71.3097 98.5757 68.2733 101.612 64.5081 101.612H30.8037C27.0688 101.612 24.002 98.5757 24.002 94.8105V87.0979C24.002 85.2457 24.7611 83.4542 26.0972 82.1789L54.2449 55.8833C55.5203 54.6688 57.1599 54.0311 58.9211 54.0311H64.4777C68.2429 54.0311 71.2794 57.0676 71.2794 60.8024V94.7801L71.3097 94.8105Z" fill="#1A2755"/>
<path d="M64.5081 105.195H30.8036C25.0648 105.195 20.419 100.55 20.419 94.8107V87.0981C20.419 84.2742 21.6032 81.5414 23.6376 79.5678L51.7854 53.2722C53.6984 51.4504 56.249 50.418 58.921 50.418H64.4777C70.2166 50.418 74.8623 55.0637 74.8623 60.8026V94.7803C74.8623 100.519 70.1862 105.165 64.4777 105.165L64.5081 105.195ZM58.9514 51.2074C56.4615 51.2074 54.0931 52.1487 52.332 53.8491L24.1842 80.1447C22.3016 81.9362 21.2085 84.4868 21.2085 87.0981V94.8107C21.2085 100.124 25.5202 104.436 30.834 104.436H64.5384C69.8522 104.436 74.164 100.124 74.164 94.8107V60.8329C74.164 55.5192 69.8522 51.2074 64.5384 51.2074H58.9818H58.9514ZM64.5081 101.977H30.8036C26.8563 101.977 23.6376 98.758 23.6376 94.8107V87.0981C23.6376 85.1548 24.4575 83.2419 25.8542 81.9058L54.002 55.6103C55.338 54.335 57.0992 53.6366 58.9514 53.6366H64.5081C68.4555 53.6366 71.6741 56.8552 71.6741 60.8026V94.7803C71.6741 98.7277 68.4555 101.946 64.5081 101.946V101.977ZM58.9514 54.3957C57.2814 54.3957 55.7328 55.0334 54.5182 56.1568L26.3704 82.4524C25.1255 83.6366 24.3967 85.337 24.3967 87.0678V94.7803C24.3967 98.3026 27.2814 101.187 30.8036 101.187H64.5081C68.0607 101.187 70.915 98.3026 70.915 94.7803V60.8026C70.915 57.2803 68.0303 54.3957 64.5081 54.3957H58.9514Z" fill="#1A2755"/>
<path d="M127.909 95.3566C126.239 101.126 122.474 101.915 116.856 101.581C108.81 101.581 90.8644 101.581 87.7369 101.581C84.3665 101.733 80.8442 99.1825 80.4191 95.6602C80.1458 93.8687 80.3584 92.7149 80.2976 90.8323C80.2976 82.7857 80.2976 64.5367 80.2976 61.4092C80.2976 53.4234 88.9818 53.1804 94.9333 54.5165C95.8442 54.8505 96.5729 55.3363 97.2713 55.2452C98.4859 55.1845 99.4879 53.5752 98.5466 52.8161C94.9333 50.0226 88.9818 50.5995 84.6701 51.2068C77.2005 53.1501 76.6843 60.0124 77.0486 66.6926C77.0486 75.4072 77.0486 91.3181 77.0486 94.2027C76.8665 98.9396 80.3887 103.737 85.247 104.527C94.2349 105.225 106.138 104.587 114.883 104.8C118.891 104.648 121.897 105.407 125.632 103.555C128.364 102.948 134.194 93.474 128.182 95.1136L127.909 95.3566Z" fill="#1A2755"/>
<path d="M96.2388 105.256C92.3522 105.256 88.587 105.195 85.2166 104.922C80.2976 104.132 76.4716 99.3043 76.6842 94.2031V66.7233C76.2895 59.6788 76.9575 52.8468 84.5789 50.8427C87.919 50.3873 94.7814 49.446 98.7591 52.5431C99.2449 52.9379 99.3967 53.5452 99.1842 54.1525C98.9109 54.9723 98.0911 55.6099 97.2712 55.6707C96.6943 55.7314 96.1478 55.4885 95.5405 55.2152C95.2976 55.0937 95.0243 55.0027 94.751 54.8812C92.8988 54.4561 86.4312 53.3023 82.8785 56.1565C81.3907 57.3407 80.6316 59.1322 80.6316 61.4399V90.863C80.6316 91.5614 80.6316 92.1686 80.6316 92.7456C80.6316 93.7172 80.6012 94.5371 80.753 95.6302C81.1478 98.8184 84.3056 101.399 87.7065 101.217H116.826C122.565 101.551 125.935 100.701 127.514 95.2658V95.1747L127.939 94.78H128.03C129.275 94.4156 130.186 94.5067 130.702 95.0229C131.188 95.5391 131.279 96.3589 130.945 97.4824C130.217 99.8812 127.484 103.525 125.662 103.92C122.929 105.316 120.47 105.225 117.828 105.195C116.887 105.195 115.915 105.134 114.852 105.195C111.482 105.104 107.686 105.165 103.678 105.195C101.188 105.195 98.6984 105.256 96.2085 105.256H96.2388ZM90.5607 51.0857C88.3137 51.0857 86.1882 51.3893 84.7308 51.5715C77.6862 53.4237 77.0486 59.9217 77.4433 66.6626V94.1727C77.2611 98.9399 80.7834 103.403 85.3077 104.132C90.7733 104.557 97.3623 104.466 103.708 104.405C107.717 104.345 111.512 104.314 114.913 104.405C115.976 104.375 116.947 104.405 117.889 104.405C120.53 104.466 122.808 104.527 125.449 103.191C126.968 102.827 129.549 99.5775 130.247 97.2395C130.49 96.4197 130.459 95.8124 130.186 95.5391C129.883 95.2354 129.275 95.2051 128.364 95.448L128.243 95.5695C126.542 101.369 122.777 102.31 116.826 101.976H87.7368C84.002 102.159 80.4797 99.3043 80.0243 95.7213C79.8421 94.5674 79.8725 93.6565 79.9028 92.7152C79.9028 92.1383 79.9028 91.5614 79.9028 90.863V61.4399C79.9028 58.8893 80.753 56.9156 82.4534 55.5796C86.2793 52.5431 93.0202 53.7273 95.0243 54.1828C95.3583 54.3043 95.6316 54.4257 95.9048 54.5472C96.421 54.7597 96.8461 54.9723 97.2409 54.9116C97.8482 54.8812 98.3644 54.365 98.5162 53.9095C98.5769 53.697 98.6073 53.363 98.334 53.1201C96.2996 51.5411 93.3239 51.0857 90.5607 51.0857Z" fill="#1A2755"/>
<path d="M123.567 108.504H78.7492C77.8686 108.504 77.1399 109.233 77.1399 110.113C77.1399 110.994 77.8686 111.723 78.7492 111.723H123.567C125.814 111.723 127.636 113.544 127.636 115.791V120.346C127.636 122.593 125.814 124.415 123.567 124.415H84.4273C80.4192 124.415 77.1399 127.694 77.1399 131.702V153.625C77.1399 157.633 80.4192 160.913 84.4273 160.913H94.6298C96.5427 160.913 98.4253 160.123 99.7917 158.757L117.889 140.66C118.496 140.052 118.496 139.02 117.889 138.382C117.251 137.775 116.249 137.775 115.612 138.382L97.484 156.48C96.7249 157.239 95.6925 157.694 94.5994 157.694H84.397C82.15 157.694 80.3281 155.872 80.3281 153.625V131.702C80.3281 129.455 82.15 127.633 84.397 127.633H123.537C127.545 127.633 130.824 124.354 130.824 120.346V115.791C130.824 111.783 127.545 108.504 123.537 108.504H123.567Z" fill="#1A2755"/>
<path d="M94.5994 161.277H84.3969C80.1763 161.277 76.7451 157.846 76.7451 153.625V131.702C76.7451 127.482 80.1763 124.051 84.3969 124.051H123.537C125.571 124.051 127.241 122.381 127.241 120.346V115.791C127.241 113.757 125.571 112.087 123.537 112.087H78.7188C77.6257 112.087 76.7451 111.206 76.7451 110.113C76.7451 109.02 77.6257 108.14 78.7188 108.14H123.537C127.757 108.14 131.219 111.571 131.219 115.791V120.346C131.219 124.567 127.788 127.998 123.537 127.998H84.3969C82.3625 127.998 80.6925 129.668 80.6925 131.702V153.625C80.6925 155.66 82.3625 157.33 84.3969 157.33H94.5994C95.571 157.33 96.5123 156.935 97.2107 156.237L115.338 138.14C116.097 137.381 117.373 137.381 118.132 138.14C118.891 138.929 118.891 140.174 118.132 140.964L100.035 159.061C98.6075 160.488 96.6338 161.308 94.5994 161.308V161.277ZM84.4273 124.81C80.6318 124.81 77.5346 127.907 77.5346 131.702V153.625C77.5346 157.421 80.6318 160.518 84.4273 160.518H94.6297C96.4516 160.518 98.2127 159.789 99.5184 158.484L117.616 140.387C118.101 139.901 118.101 139.142 117.616 138.656C117.13 138.17 116.371 138.17 115.885 138.656L97.7573 156.753C96.9374 157.573 95.7836 158.059 94.6297 158.059H84.4273C81.9678 158.059 79.9637 156.055 79.9637 153.595V131.672C79.9637 129.213 81.9678 127.208 84.4273 127.208H123.567C127.363 127.208 130.49 124.111 130.49 120.316V115.761C130.49 111.966 127.393 108.868 123.567 108.868H78.7492C78.0811 108.868 77.5346 109.415 77.5346 110.083C77.5346 110.751 78.1115 111.298 78.7492 111.298H123.567C126.026 111.298 128.031 113.302 128.031 115.761V120.316C128.031 122.775 126.026 124.779 123.567 124.779H84.4273V124.81Z" fill="#1A2755"/>
<path d="M28.0708 111.723H72.8886C73.7692 111.723 74.4979 110.994 74.4979 110.113C74.4979 109.233 73.7692 108.504 72.8886 108.504H28.0708C24.0627 108.504 20.7833 111.783 20.7833 115.791V120.346C20.7833 124.354 24.0627 127.633 28.0708 127.633H67.2104C69.4574 127.633 71.2793 129.455 71.2793 131.702V153.625C71.2793 155.872 69.4574 157.694 67.2104 157.694H57.008C55.9149 157.694 54.8825 157.269 54.1234 156.48L36.0262 138.382C35.3886 137.775 34.3866 137.775 33.7489 138.382C33.1113 139.02 33.1113 140.022 33.7489 140.66L51.8461 158.757C53.2125 160.154 55.0647 160.913 56.9777 160.913H67.1801C71.1882 160.913 74.4675 157.633 74.4675 153.625V131.702C74.4675 127.694 71.1882 124.415 67.1801 124.415H28.0404C25.7934 124.415 23.9716 122.593 23.9716 120.346V115.791C23.9716 113.544 25.7934 111.723 28.0404 111.723H28.0708Z" fill="#1A2755"/>
<path d="M67.2408 161.277H57.0384C55.004 161.277 53.0607 160.488 51.6335 159.03L33.5364 140.933C33.172 140.569 32.9595 140.083 32.9595 139.536C32.9595 138.99 33.172 138.504 33.5364 138.109C34.2955 137.35 35.5708 137.35 36.3299 138.109L54.4271 156.237C55.1254 156.935 56.0364 157.33 57.0384 157.33H67.2408C69.2752 157.33 70.9453 155.66 70.9453 153.625V131.702C70.9453 129.668 69.2752 127.998 67.2408 127.998H28.1012C23.8805 127.998 20.4493 124.567 20.4493 120.346V115.791C20.4493 111.571 23.8805 108.14 28.1012 108.14H72.919C74.0121 108.14 74.8927 109.02 74.8927 110.113C74.8927 111.206 74.0121 112.087 72.919 112.087H28.1012C26.0667 112.087 24.3967 113.757 24.3967 115.791V120.346C24.3967 122.381 26.0667 124.051 28.1012 124.051H67.2408C71.4615 124.051 74.923 127.482 74.923 131.702V153.625C74.923 157.846 71.4918 161.277 67.2408 161.277ZM34.9331 138.291C34.6295 138.291 34.2955 138.413 34.0829 138.656C33.84 138.899 33.7186 139.202 33.7186 139.536C33.7186 139.87 33.84 140.174 34.0829 140.387L52.1801 158.484C53.4858 159.789 55.2165 160.518 57.0688 160.518H67.2712C71.0667 160.518 74.1943 157.421 74.1943 153.625V131.702C74.1943 127.907 71.0971 124.81 67.2712 124.81H28.1315C25.672 124.81 23.668 122.806 23.668 120.346V115.791C23.668 113.332 25.672 111.328 28.1315 111.328H72.9493C73.6173 111.328 74.1639 110.781 74.1639 110.113C74.1639 109.445 73.6173 108.899 72.9493 108.899H28.1315C24.336 108.899 21.2388 111.996 21.2388 115.791V120.346C21.2388 124.142 24.336 127.239 28.1315 127.239H67.2712C69.7307 127.239 71.7348 129.243 71.7348 131.702V153.625C71.7348 156.085 69.7307 158.089 67.2712 158.089H57.0688C55.8846 158.089 54.7611 157.634 53.9109 156.783L35.8137 138.686C35.5708 138.443 35.2672 138.322 34.9331 138.322V138.291Z" fill="#1A2755"/>
<rect x="208.216" y="48.5732" width="100" height="20" rx="10" transform="rotate(45 208.216 48.5732)" fill="#EBC229"/>
<rect x="278.926" y="62.7158" width="100" height="20" rx="10" transform="rotate(135 278.926 62.7158)" fill="#1A2755"/>
<path d="M450.358 16H344.642C332.413 16 322.5 25.9133 322.5 38.1419V143.858C322.5 156.087 332.413 166 344.642 166H450.358C462.587 166 472.5 156.087 472.5 143.858V38.1419C472.5 25.9133 462.587 16 450.358 16Z" fill="#1A2755"/>
<path d="M380.319 64.291C379.793 64.8166 378.61 64.948 376.771 64.8166C374.734 67.4448 372.171 70.7299 368.952 74.6721C365.798 78.5486 362.776 82.2936 359.951 85.7102L374.405 84.3961C373.617 83.0164 372.894 81.8337 372.237 80.9139C371.449 79.6655 370.66 78.68 369.872 77.8915L370.529 77.0374C372.566 78.2858 374.405 79.7312 376.048 81.3738C377.69 82.9507 379.202 84.9218 380.581 87.2214C381.041 88.7982 381.173 90.178 381.041 91.2292C380.91 92.0834 380.516 92.6747 379.924 92.9375C379.333 93.1346 378.742 93.0032 378.216 92.4776C377.559 91.8863 377.099 91.0978 376.902 89.9809C376.771 89.3896 376.508 88.7325 376.245 88.0098C375.982 87.3528 375.654 86.63 375.259 85.8416L367.441 87.4842C363.827 88.2069 361.265 88.7325 359.753 89.1268C357.322 89.7181 355.483 90.3094 354.234 90.835C353.38 92.8718 352.592 93.9231 351.935 93.9888C351.278 94.0545 350.621 93.0689 349.898 90.9664L348.715 86.9586C349.964 86.7614 351.409 86.4986 353.052 86.3015C354.3 86.1701 355.877 86.0387 357.914 85.8416C359.753 82.6879 361.856 79.0742 364.287 75.132C365.798 72.5696 368.098 69.0216 371.12 64.4224L374.931 58.4434L379.07 61.4001C380.516 62.7141 380.976 63.634 380.384 64.2253L380.319 64.291ZM438.334 98.6537L445.167 103.779C446.022 104.501 446.153 105.093 445.496 105.487C444.97 105.881 444.182 106.012 442.999 106.012H402.526C407.257 112.714 413.104 118.102 420.069 122.044C427.23 126.052 435.969 128.746 446.284 130.257V131.374C442.934 131.308 440.437 131.637 438.663 132.359C437.217 132.951 436.297 133.871 435.969 135.053C428.15 132.491 421.12 128.746 414.944 123.687C408.702 118.693 403.775 112.78 400.095 105.881H398.978V132.556L399.175 134.593C399.372 135.71 399.438 136.433 399.307 136.893C399.044 137.616 398.19 138.338 396.941 139.061C395.233 139.915 394.116 140.244 393.656 139.915C393.393 139.784 393.262 139.192 393.328 138.207V108.903C386.692 116.722 379.464 123.095 371.646 128.023C364.484 132.425 357.125 135.513 349.504 137.353L348.847 136.367C355.811 133.805 362.776 129.928 369.872 124.541C377.165 119.022 383.407 112.846 388.531 106.012H360.87L351.081 106.669L350.227 103.844L358.899 104.304H393.262V91.4264L398.781 92.7404C401.344 93.3317 402.526 93.9888 402.329 94.7115C402.263 95.3685 401.081 96.0256 398.847 96.7483V104.37H432.815L438.137 98.7194L438.334 98.6537ZM371.514 48.3252C371.514 48.3252 370.2 48.8508 368.361 49.1136L368.229 49.245C367.638 49.9021 366.915 50.8219 366.061 52.0703C365.535 52.8587 364.747 54.107 363.564 55.881C362.382 57.7207 361.527 59.0348 360.87 60.0203C359.951 61.4658 359.162 62.6484 358.505 63.5026C359.491 64.3567 360.476 65.2109 361.33 66.1307C362.25 67.1162 363.104 68.1675 363.827 69.2844C364.353 70.6642 364.484 71.9783 364.353 73.1609C364.221 74.3436 363.827 75.0663 363.236 75.4605C362.644 75.9204 362.053 75.789 361.396 75.132C360.673 74.4093 360.082 73.1609 359.688 71.4526C359.425 70.0729 358.308 68.1675 356.337 65.8022C354.169 63.1741 351.935 61.3344 349.635 60.1517L350.292 59.2976C351.541 59.7575 352.658 60.2174 353.774 60.6773C355.023 61.2687 356.14 61.9257 357.257 62.6484L359.425 57.1951C360.936 53.6471 362.053 51.0847 362.71 49.5078C363.893 46.7483 364.813 44.7772 365.535 43.5289L369.215 45.5657C371.252 46.9454 372.04 47.8653 371.58 48.3909L371.514 48.3252ZM405.811 51.2818L409.622 54.8298C411.199 56.0781 411.922 56.9323 411.659 57.5236C411.527 58.0492 410.608 58.3777 408.965 58.6406V87.8127L409.096 89.3239C409.228 90.2437 409.228 90.9664 409.096 91.3607C408.834 92.0177 408.111 92.609 406.928 93.2003C405.351 93.8574 404.366 94.0545 403.972 93.726C403.709 93.5946 403.577 93.0689 403.774 92.0834L403.906 90.9664V89.4553H389.386V90.5722L389.517 91.8863C389.648 92.5433 389.583 93.0032 389.32 93.266C389.057 93.726 388.203 94.1859 386.823 94.6458C385.312 95.1057 384.392 95.04 383.998 94.5144C383.735 94.2516 383.604 93.4631 383.801 92.2148L383.998 90.7036V56.4067L383.669 51.4132L389.648 54.567H393.328L395.365 41.7549L399.372 42.8718C401.541 43.4632 402.658 44.1202 402.658 44.8429C402.658 45.5 401.672 46.0913 399.635 46.5512L398.978 47.7339L397.007 51.2818C396.35 52.5302 395.759 53.5814 395.299 54.4356H402.263L405.943 51.0847L405.811 51.2818ZM389.32 70.7956H403.643V56.4724H389.32V70.7956ZM389.32 87.8127H403.643V72.5039H389.32V87.8127ZM443.328 61.6629C443.065 62.1885 441.882 62.4513 439.845 62.517L421.514 84.6589L437.349 83.3449C436.823 82.5565 436.232 81.7023 435.641 80.7168C435.181 80.1911 434.655 79.4684 433.932 78.4172L432.29 76.249L432.75 75.132C435.181 76.5118 437.677 78.5486 440.108 81.3081C442.079 83.542 443.459 85.4474 444.248 87.0243C444.379 88.4697 444.248 89.7838 443.919 91.0321C443.656 92.0177 443.131 92.7404 442.539 93.0689C441.948 93.3317 441.422 93.2003 440.897 92.609C440.305 91.8863 439.977 90.7036 439.78 89.061C439.648 88.3383 439.386 87.6156 439.123 86.8928C438.926 86.3015 438.597 85.6445 438.269 84.8561L417.112 89.3896C416.455 91.6892 415.732 92.8718 414.944 92.8718C414.156 92.8718 413.433 91.6892 412.776 89.3239L411.659 85.7759L415.535 85.2503L418.689 84.9218L437.349 56.2095L441.16 58.5749C442.999 59.9546 443.722 60.9402 443.328 61.5972V61.6629ZM432.552 49.6392C432.487 50.362 431.37 50.6905 429.267 50.6248C427.756 52.7273 426.442 54.567 425.391 56.1438C423.683 58.4434 422.171 60.4145 420.923 61.9914C421.843 62.7141 422.697 63.5026 423.42 64.291C424.142 65.0137 424.668 65.6708 425.062 66.3278C425.916 69.2187 425.719 70.9927 424.537 71.6497C423.288 72.3725 422.106 71.1241 420.989 67.839C420.529 66.5906 419.675 65.2766 418.361 63.8311C416.915 62.1228 415.01 60.3488 412.644 58.5091L413.301 57.5236C414.221 57.7864 415.338 58.312 416.587 59.0348C417.506 59.5604 418.623 60.2174 419.872 61.0716L422.566 54.2385C423.485 51.9388 424.208 50.2306 424.602 49.245C425.325 47.4053 425.982 45.9599 426.639 44.9086L430.647 47.2739C432.027 48.1938 432.684 48.9822 432.618 49.5735L432.552 49.6392Z" fill="#EBC229"/>
</svg>
