<svg width="28" height="29" viewBox="0 0 28 29" fill="none" xmlns="http://www.w3.org/2000/svg">
<path d="M11.7644 19.9911L6.36426 14.5896L8.16389 12.79L11.7644 16.3893L18.963 9.18945L20.7639 10.9904L11.7644 19.9911Z" fill="#FF0000"/>
<path fill-rule="evenodd" clip-rule="evenodd" d="M0 5.59091C0 4.24072 0.536362 2.94582 1.49109 1.99109C2.44582 1.03636 3.74072 0.5 5.09091 0.5H22.9091C24.2593 0.5 25.5542 1.03636 26.5089 1.99109C27.4636 2.94582 28 4.24072 28 5.59091V23.4091C28 24.7593 27.4636 26.0542 26.5089 27.0089C25.5542 27.9636 24.2593 28.5 22.9091 28.5H5.09091C3.74072 28.5 2.44582 27.9636 1.49109 27.0089C0.536362 26.0542 0 24.7593 0 23.4091V5.59091ZM5.09091 3.04545H22.9091C23.5842 3.04545 24.2316 3.31364 24.709 3.791C25.1864 4.26837 25.4545 4.91581 25.4545 5.59091V23.4091C25.4545 24.0842 25.1864 24.7316 24.709 25.209C24.2316 25.6864 23.5842 25.9545 22.9091 25.9545H5.09091C4.41581 25.9545 3.76837 25.6864 3.291 25.209C2.81364 24.7316 2.54545 24.0842 2.54545 23.4091V5.59091C2.54545 4.91581 2.81364 4.26837 3.291 3.791C3.76837 3.31364 4.41581 3.04545 5.09091 3.04545Z" fill="#FF0000"/>
</svg>
