<svg width="42" height="48" viewBox="0 0 42 48" fill="none" xmlns="http://www.w3.org/2000/svg">
<path d="M37.3333 43.2H4.66667V16.8H37.3333M37.3333 4.8H35V0H30.3333V4.8H11.6667V0H7V4.8H4.66667C3.42899 4.8 2.242 5.30571 1.36683 6.20589C0.491665 7.10606 0 8.32696 0 9.6V43.2C0 44.473 0.491665 45.6939 1.36683 46.5941C2.242 47.4943 3.42899 48 4.66667 48H37.3333C38.571 48 39.758 47.4943 40.6332 46.5941C41.5083 45.6939 42 44.473 42 43.2V9.6C42 8.32696 41.5083 7.10606 40.6332 6.20589C39.758 5.30571 38.571 4.8 37.3333 4.8ZM31.57 24.144L29.0967 21.6L17.71 33.312L12.7633 28.224L10.29 30.768L17.71 38.4L31.57 24.144Z" fill="black"/>
</svg>
