<svg width="248" height="51" viewBox="0 0 248 51" fill="none" xmlns="http://www.w3.org/2000/svg">
<g clip-path="url(#clip0_329_7111)">
<path d="M56.0648 25.7317C56.0648 25.161 56.1562 24.6131 56.3388 24.0767C56.5214 23.5402 56.7725 23.0494 57.1263 22.6043H54.8093V20.4471H60.0483V18.0273H63.1871V20.4471H68.426V22.6043H65.9607C66.2802 23.0494 66.5428 23.5402 66.7254 24.0767C66.9194 24.6131 67.0107 25.1724 67.0107 25.7317C67.0107 26.4508 66.8738 27.1242 66.5998 27.7519C66.3259 28.3797 65.9492 28.9276 65.4699 29.4069C64.9905 29.8863 64.4084 30.263 63.735 30.5369C63.0615 30.8109 62.331 30.9478 61.5435 30.9478C60.7331 30.9478 60.0026 30.8109 59.3178 30.5369C58.6444 30.263 58.0623 29.8863 57.5829 29.4069C57.1035 28.9276 56.7269 28.3797 56.4643 27.7519C56.1904 27.1242 56.0648 26.4508 56.0648 25.7317ZM59.0439 25.6974C59.0439 26.5649 59.2836 27.284 59.7629 27.8547C60.2423 28.4254 60.8358 28.6993 61.5321 28.6993C62.2169 28.6993 62.799 28.4139 63.2898 27.8547C63.7806 27.2954 64.0203 26.5763 64.0203 25.6974C64.0203 24.8414 63.7806 24.1223 63.2898 23.5516C62.799 22.981 62.2169 22.6956 61.5321 22.6956C60.8244 22.6956 60.2423 22.981 59.7629 23.5516C59.2836 24.1338 59.0439 24.8414 59.0439 25.6974ZM62.0685 40.3414C61.3495 40.3414 60.7674 40.1245 60.3336 39.6908C59.8999 39.2571 59.683 38.6293 59.683 37.8304V32.7398H62.9474V37.3053C62.9474 37.6363 63.0159 37.8532 63.1414 37.9902C63.267 38.1157 63.4382 38.1842 63.6436 38.1842H74.5325V39.2114C74.5325 39.5881 74.4183 39.8734 74.2014 40.0561C73.9732 40.2501 73.7449 40.3414 73.4824 40.3414H62.0685ZM70.7773 18.0273H74.0188V23.5288H77.7169V25.686H74.0188V33.1849C74.0188 33.6871 73.8819 34.0752 73.5965 34.372C73.3112 34.6573 72.9117 34.8057 72.4095 34.8057H70.7887V18.0273H70.7773Z" fill="black"/>
<path d="M97.8965 26.9652V27.9925C97.8965 28.3691 97.7824 28.6545 97.5656 28.8371C97.3373 29.0311 97.109 29.1224 96.8465 29.1224H89.1079V32.4895H94.4724V38.984C94.4724 39.4862 94.3354 39.8743 94.0501 40.1711C93.7647 40.4678 93.3653 40.6048 92.8516 40.6048H91.2309V34.6467H80.1594V32.4895H85.8664V29.1224H77.0435V26.9652H91.0939C91.3336 26.3489 91.539 25.5727 91.7217 24.6368C91.9043 23.7009 91.9956 22.6965 91.9956 21.6236V20.4365H80.148V18.2793H93.6049C94.0957 18.2793 94.4952 18.4277 94.792 18.7473C95.0887 19.0554 95.2257 19.4435 95.2257 19.9001V21.4866C95.2257 22.4682 95.1116 23.4384 94.8947 24.4199C94.6664 25.3901 94.3925 26.2462 94.0729 26.9652H97.8965Z" fill="black"/>
<path d="M106.765 20.2873V24.8642C106.765 25.8344 106.914 26.7019 107.222 27.4552C107.53 28.2085 107.929 28.8591 108.432 29.4069C108.922 29.9662 109.482 30.4456 110.098 30.8223C110.714 31.1989 111.331 31.4957 111.947 31.724L110.098 33.5159C109.436 33.3105 108.637 32.911 107.724 32.3061C106.811 31.7011 105.943 30.8337 105.11 29.6809C104.277 30.8223 103.398 31.7011 102.474 32.3061C101.56 32.911 100.796 33.3105 100.179 33.5159L98.3303 31.724C98.9124 31.4957 99.5059 31.1989 100.111 30.8223C100.716 30.4456 101.275 29.9776 101.789 29.4069C102.291 28.8591 102.69 28.2085 103.01 27.4552C103.33 26.7019 103.489 25.8344 103.489 24.8642V18.9861H105.418C105.863 18.9861 106.194 19.1002 106.423 19.3285C106.651 19.5454 106.765 19.8764 106.765 20.2873ZM114.88 18.0273H118.145V38.2184C118.145 38.7092 118.008 39.1087 117.722 39.4055C117.437 39.6908 117.038 39.8392 116.524 39.8392H114.88V18.0273Z" fill="black"/>
<path d="M123.92 32.6142C123.213 32.6142 122.642 32.386 122.208 31.9522C121.774 31.5071 121.557 30.8793 121.557 30.0804V18.9861H123.178C123.669 18.9861 124.069 19.1345 124.365 19.4541C124.651 19.7622 124.799 20.1503 124.799 20.6069V29.5211C124.799 29.8749 124.879 30.126 125.027 30.2516C125.176 30.3771 125.393 30.4456 125.666 30.4456H133.679V31.6555C133.679 31.9636 133.588 32.2033 133.394 32.3745C133.2 32.5458 132.96 32.6257 132.652 32.6257H123.92V32.6142ZM136.498 18.0273H139.763V38.2184C139.763 38.7092 139.626 39.1087 139.34 39.4055C139.055 39.6908 138.655 39.8392 138.153 39.8392H136.51V18.0273H136.498Z" fill="black"/>
<path d="M158.493 18.0273H161.757V38.2184C161.757 38.7092 161.62 39.1087 161.335 39.4055C161.049 39.6908 160.65 39.8392 160.148 39.8392H158.504V26.5535H154.601C154.475 27.3182 154.235 28.0259 153.859 28.6422C153.482 29.27 153.025 29.795 152.478 30.2173C151.93 30.6625 151.313 31.0049 150.629 31.2332C149.944 31.4614 149.236 31.5756 148.494 31.5756C147.672 31.5756 146.885 31.4386 146.143 31.1533C145.401 30.8679 144.739 30.4684 144.157 29.9548C143.598 29.4298 143.141 28.7906 142.81 28.0601C142.479 27.3182 142.308 26.4964 142.308 25.5719C142.308 24.6702 142.468 23.837 142.81 23.1065C143.141 22.376 143.598 21.7368 144.157 21.2004C144.739 20.6868 145.401 20.2873 146.143 19.9905C146.885 19.7052 147.672 19.5568 148.494 19.5568C149.213 19.5568 149.909 19.6709 150.571 19.8992C151.245 20.1275 151.85 20.4471 152.398 20.858C152.946 21.2689 153.402 21.7711 153.79 22.376C154.167 22.981 154.429 23.643 154.589 24.3734H158.516V18.0273H158.493ZM145.287 25.5491C145.287 26.6905 145.606 27.615 146.234 28.3112C146.862 29.0075 147.615 29.3499 148.471 29.3499C149.305 29.3499 150.046 29.0075 150.686 28.3112C151.313 27.615 151.633 26.7019 151.633 25.5491C151.633 24.4191 151.313 23.506 150.686 22.7983C150.058 22.0907 149.316 21.7483 148.471 21.7483C147.615 21.7483 146.873 22.1021 146.234 22.7983C145.606 23.506 145.287 24.4191 145.287 25.5491Z" fill="black"/>
<path d="M184.357 27.2163V28.2436C184.357 28.6202 184.242 28.9056 184.026 29.0882C183.797 29.2708 183.569 29.3736 183.306 29.3736H163.503V27.2163H177.6C177.702 26.8511 177.805 26.4516 177.908 26.0065C178.01 25.5613 178.09 25.0705 178.136 24.5455H166.631V22.4682H178.182V20.4365H166.345V18.2793H179.802C180.305 18.2793 180.693 18.4277 180.989 18.7473C181.286 19.0554 181.423 19.4435 181.423 19.9001V23.29C181.423 23.9063 181.343 24.5683 181.183 25.276C181.024 25.9836 180.807 26.6342 180.556 27.2163H184.357ZM181.423 38.7215V39.977C181.423 40.2167 181.332 40.4222 181.138 40.5934C180.955 40.7646 180.75 40.8445 180.544 40.8445H169.142C168.457 40.8445 167.886 40.6162 167.43 40.1596C166.973 39.7031 166.745 39.0753 166.745 38.2764V35.0006H177.451C177.634 35.0006 177.782 34.9549 177.896 34.8522C178.01 34.7495 178.067 34.6011 178.067 34.4185V33.3684H166.482V31.3938H181.149V34.8408C181.149 35.4457 180.967 35.9479 180.613 36.3588C180.248 36.7697 179.722 36.9752 179.026 36.9752H169.884V37.9796C169.884 38.2421 169.941 38.4247 170.066 38.5617C170.192 38.6873 170.363 38.7557 170.603 38.7557H181.423V38.7215Z" fill="black"/>
<path d="M196.603 23.2109C196.603 23.8158 196.421 24.318 196.067 24.7289C195.702 25.1398 195.177 25.3453 194.469 25.3453H189.105V27.2171C189.105 27.4797 189.162 27.6623 189.287 27.7992C189.413 27.9248 189.584 27.9933 189.824 27.9933H198.51V29.3059C198.51 29.5456 198.418 29.751 198.224 29.9222C198.03 30.0934 197.836 30.1847 197.631 30.1847H188.26C187.575 30.1847 187.004 29.9565 186.548 29.4999C186.091 29.0434 185.863 28.4156 185.863 27.6166V23.1766H192.848C193.031 23.1766 193.179 23.1196 193.293 23.0283C193.408 22.9255 193.465 22.7772 193.465 22.5945V20.7455H186.114V18.5654H194.971C195.474 18.5654 195.862 18.7252 196.158 19.0334C196.444 19.3416 196.592 19.7297 196.592 20.1862V23.2109H196.603ZM193.727 34.0769H201.078V31.5886H204.342V37.501C204.342 38.4255 204.068 39.2131 203.532 39.8751C202.995 40.5371 202.185 40.8681 201.101 40.8681H192.86C192.141 40.8681 191.559 40.6512 191.125 40.2175C190.691 39.7838 190.474 39.156 190.474 38.357V31.6001H193.739V34.0769H193.727ZM194.423 38.6995H199.925C200.267 38.6995 200.541 38.5967 200.758 38.4027C200.975 38.2087 201.078 37.9005 201.078 37.4896V36.1998H193.727V37.8206C193.727 38.1402 193.796 38.3685 193.921 38.5054C194.047 38.631 194.218 38.6995 194.423 38.6995ZM197.756 24.98V22.8228H201.329V18.0176H204.593V28.5526C204.593 29.0548 204.456 29.4428 204.171 29.7396C203.886 30.0249 203.486 30.1733 202.972 30.1733H201.329V24.98H197.756Z" fill="black"/>
<path d="M219.922 28.3234V26.1662H223.209V23.8035H219.922V22.0801H218.256C218.552 22.4453 218.769 22.8562 218.94 23.3242C219.1 23.7921 219.18 24.2943 219.18 24.8308C219.18 25.5499 219.043 26.2005 218.769 26.794C218.495 27.3875 218.119 27.8897 217.639 28.3234C217.16 28.7572 216.578 29.0767 215.904 29.3164C215.231 29.5447 214.5 29.6589 213.713 29.6589C212.902 29.6589 212.172 29.5447 211.487 29.3164C210.814 29.0882 210.232 28.7572 209.752 28.3234C209.273 27.8897 208.896 27.3875 208.634 26.794C208.371 26.2005 208.234 25.5499 208.234 24.8308C208.234 24.3058 208.314 23.8035 208.462 23.3242C208.611 22.8562 208.851 22.4339 209.159 22.0801H207.23V19.9228H212.218V17.7656H215.345V19.9228H220.333V21.6463H223.209V18.0281H226.473V28.5631C226.473 29.0653 226.337 29.4534 226.051 29.7502C225.766 30.0355 225.366 30.1839 224.853 30.1839H223.209V28.3348H219.922V28.3234ZM211.213 24.808C211.213 25.5727 211.441 26.2119 211.887 26.6913C212.332 27.182 212.937 27.4217 213.713 27.4217C214.466 27.4217 215.071 27.182 215.528 26.6913C215.984 26.2005 216.212 25.5727 216.212 24.808C216.212 24.0547 215.984 23.4269 215.528 22.9361C215.071 22.4453 214.466 22.1942 213.713 22.1942C212.937 22.1942 212.332 22.4453 211.887 22.9361C211.441 23.4269 211.213 24.0547 211.213 24.808ZM215.607 33.9162H222.958V31.3024H226.222V37.3404C226.222 38.2649 225.948 39.0524 225.412 39.7145C224.876 40.3765 224.065 40.7075 222.981 40.7075H214.74C214.021 40.7075 213.439 40.4906 213.005 40.0569C212.571 39.6231 212.355 38.9954 212.355 38.1964V31.3139H215.619V33.9162H215.607ZM216.304 38.5502H221.805C222.148 38.5502 222.433 38.4475 222.638 38.2535C222.855 38.0594 222.958 37.7513 222.958 37.3404V36.0506H215.607V37.6714C215.607 37.991 215.676 38.2192 215.802 38.3562C215.927 38.4818 216.098 38.5502 216.304 38.5502Z" fill="black"/>
<path d="M237.26 31.6326V34.2236H243.583V35.2508C243.583 35.6275 243.469 35.9128 243.252 36.0955C243.024 36.2895 242.795 36.3808 242.533 36.3808H228.893V34.2236H234.007V31.6326C232.888 31.3131 231.975 30.6853 231.245 29.7722C230.514 28.8591 230.149 27.7748 230.149 26.5192C230.149 25.8344 230.274 25.1952 230.514 24.5903C230.754 23.9968 231.073 23.4603 231.484 23.0038H229.144V20.8466H234.132V18.0273H237.271V20.8466H242.259V23.0038H239.771C240.182 23.4603 240.501 23.9968 240.741 24.5903C240.981 25.1952 241.106 25.8344 241.106 26.5192C241.106 27.7748 240.741 28.8591 239.999 29.7722C239.257 30.6853 238.333 31.3131 237.26 31.6326ZM232.865 26.4964C232.865 27.4209 233.128 28.1743 233.664 28.7564C234.189 29.3385 234.851 29.6238 235.616 29.6238C236.369 29.6238 237.02 29.3385 237.556 28.7564C238.093 28.1743 238.367 27.4209 238.367 26.4964C238.367 25.5719 238.093 24.8186 237.556 24.2365C237.02 23.6544 236.369 23.369 235.616 23.369C234.851 23.369 234.201 23.6544 233.664 24.2365C233.139 24.8186 232.865 25.5719 232.865 26.4964ZM244.861 18.0273H248V38.2184C248 38.7092 247.863 39.1087 247.578 39.4055C247.292 39.6908 246.893 39.8392 246.379 39.8392H244.861V18.0273Z" fill="black"/>
<path d="M24.6425 25.0368H16.63C16.5501 25.0368 16.4588 25.0368 16.3789 25.0368C10.4437 25.0368 5.63844 20.2315 5.63844 14.2963C5.63844 8.36115 10.4437 3.55592 16.3789 3.55592C20.3166 3.55592 23.7636 5.67889 25.6355 8.84053C25.6469 8.85194 25.6697 8.87477 25.6811 8.88618C23.6951 4.00106 18.9127 0.53125 13.3085 0.53125C5.95803 0.53125 0 6.48928 0 13.8398C0 21.1903 5.95803 27.1483 13.3085 27.1483C13.5482 27.1483 13.7879 27.1369 14.0162 27.1255H24.6425C25.2132 27.1255 25.6811 26.6575 25.6811 26.0868C25.6697 25.5047 25.2132 25.0368 24.6425 25.0368Z" fill="#F47B20"/>
<path d="M27.6215 26.5995H32.9176C32.9746 26.5995 33.0317 26.5995 33.0888 26.5995C37.0151 26.5995 40.1996 29.784 40.1996 33.6989C40.1996 37.6253 37.0151 40.8098 33.0888 40.8098C30.475 40.8098 28.2036 39.4059 26.9595 37.3057C26.9481 37.2943 26.9367 37.2829 26.9367 37.2715C28.2379 40.513 31.4109 42.8072 35.1204 42.8072C39.9827 42.8072 43.9205 38.8694 43.9205 34.0071C43.9205 29.1448 39.9827 25.207 35.1204 25.207C34.9606 25.207 34.8008 25.207 34.6525 25.2184H27.6215C27.2335 25.2184 26.9367 25.5266 26.9367 25.9033C26.9253 26.2913 27.2335 26.5995 27.6215 26.5995Z" fill="#768F49"/>
<path d="M17.0181 43.3095C11.9161 43.3095 7.77284 39.1662 7.77284 34.0642C7.77284 31.5988 8.74301 29.3503 10.3295 27.6953C5.62703 29.2019 2.22571 33.6077 2.22571 38.8124C2.22571 45.2612 7.45325 50.4773 13.9021 50.4773C20.3509 50.4773 25.567 45.2498 25.567 38.8124C25.567 38.4472 25.5556 38.0819 25.51 37.7167C24.106 40.9924 20.8303 43.3095 17.0181 43.3095Z" fill="#ED1C24"/>
<path d="M36.0563 7.66553C40.9643 9.05802 43.8177 14.16 42.4367 19.0794C41.7632 21.4534 40.211 23.3481 38.2478 24.5238C43.1786 24.3526 47.6528 21.0311 49.0567 16.0319C50.8144 9.83416 47.2076 3.37392 40.9985 1.6276C34.8008 -0.141542 28.352 3.46523 26.5942 9.67436C26.4915 10.0282 26.4116 10.382 26.3431 10.7473C28.6031 7.95087 32.3811 6.62687 36.0563 7.66553Z" fill="#5188C7"/>
</g>
<defs>
<clipPath id="clip0_329_7111">
<rect width="248" height="49.9356" fill="white" transform="translate(0 0.53125)"/>
</clipPath>
</defs>
</svg>
