<svg width="364" height="51" viewBox="0 0 364 51" fill="none" xmlns="http://www.w3.org/2000/svg">
<path d="M85.5299 0.631518C85.4574 0.5753 85.3717 0.534358 85.2793 0.511684C84.8848 0.440385 84.5022 0.70129 83.9062 1.13363L83.4559 1.45221C81.8407 2.2456 80.6133 5.96373 80.3424 7.49286L80.1731 7.57934C79.7041 6.76242 79.0422 6.04673 78.2336 5.48195C77.4249 4.91717 76.4889 4.51683 75.4902 4.3087C76.2352 6.95281 78.751 14.9367 82.093 14.2465C83.786 13.8976 87.3414 7.26836 87.3769 3.62758V3.48953C87.3549 1.5584 86.3916 0.863617 85.5299 0.631518Z" fill="#FF7F15"/>
<path d="M108.105 41.293C103.908 41.4553 102.518 41.252 98.3952 42.4975C97.7926 42.6981 97.2647 43.046 96.8715 43.5017C96.9341 44.3027 96.416 45.5694 97.2253 45.8728C97.2642 45.8728 97.2642 45.9972 97.3032 46.0639C97.5385 46.2839 97.784 46.3203 98.0244 46.5964C98.1802 46.8012 98.302 46.5782 98.4713 46.6586C98.5492 46.7299 98.5882 46.8573 98.6678 46.874C99.0741 47.0499 99.4415 46.9802 99.8427 47.1561C100.023 47.2639 100.237 47.317 100.454 47.3078C100.576 47.2654 100.738 47.5308 100.776 47.5945C101.512 47.7558 102.279 47.7626 103.019 47.6143C105.345 47.5809 104.908 47.37 107.233 47.3336C109.19 47.3078 111.103 47.5839 113.058 47.5566C114.122 47.5248 115.276 47.5566 116.329 47.4884C118.205 47.3867 120.086 47.6537 121.965 47.6734C122.903 47.6522 123.997 47.9935 124.943 48.0603C125.944 47.9484 126.956 47.9331 127.96 48.0148C128.296 47.9957 128.632 48.0365 128.949 48.1346C129.233 48.2881 129.546 48.3912 129.874 48.438C130.767 48.4292 131.647 48.2393 132.447 47.8828C132.979 47.7783 133.492 47.6073 133.971 47.3746C134.265 47.1817 134.463 46.893 134.523 46.5706C134.831 45.905 134.896 45.1689 134.709 44.468C134.66 44.468 134.54 44.5196 134.496 44.4528C134.409 44.3239 134.428 44.0266 134.306 44.0145C133.939 43.907 133.564 43.8218 133.183 43.7596C132.686 43.664 132.168 43.4562 131.682 43.3621C123.914 41.9999 116.019 41.307 108.105 41.293Z" fill="#00A475"/>
<path d="M67.4824 42.7179C67.9056 42.8044 68.3881 42.7938 68.6133 43.0547C68.8418 43.261 68.3915 43.5917 68.4203 43.8617C68.4101 44.5019 68.6692 45.0753 68.6607 45.7185C68.6613 45.7812 68.6465 45.8432 68.6172 45.9001C68.5879 45.957 68.545 46.0074 68.4914 46.0477C68.3534 46.2208 68.1812 46.3699 67.9835 46.4876C67.396 46.8305 66.6291 46.6985 65.9519 46.8805C65.0664 47.0994 64.1591 47.2396 63.243 47.2992C61.6278 47.3342 60.0119 47.2648 58.4078 47.0914C57.787 47.0568 57.1647 47.1336 56.5776 47.3174C55.8364 47.4661 55.0739 47.5106 54.3174 47.4494C50.3896 47.3174 46.5295 47.2401 42.6186 47.2719C41.9295 47.2947 41.1812 47.3736 40.4956 47.3978C37.3499 47.5617 34.211 47.5101 31.0586 47.5859C29.9616 47.6117 28.8696 47.6436 27.764 47.6178C27.1546 47.6284 26.5298 47.6436 25.9813 47.6542C23.6584 47.768 21.2696 47.8651 18.9298 47.774C18.041 47.7862 17.0845 47.7877 16.1905 47.7998C13.5786 48.059 10.9526 48.1871 8.32476 48.1836C6.40277 48.1073 4.52378 47.6487 2.82409 46.8411C1.6746 46.2985 0.702109 45.4977 0.00183105 44.5171C0.480631 44.0204 1.14054 43.6919 1.86417 43.5902C3.61983 43.1548 5.2502 42.8742 7.01433 42.5935C8.50758 42.3629 9.87214 42.2492 11.3112 42.1308C27.3341 40.9645 43.4287 40.8083 59.476 41.6636C62.1718 41.8241 64.849 42.1766 67.4824 42.7179Z" fill="#4370B5"/>
<path d="M101.459 26.4275V26.6293C101.629 27.0267 101.957 27.1238 102.306 27.4227H103.396C103.396 27.2239 103.649 27.4227 103.649 27.2239C103.809 27.2267 103.967 27.1917 104.107 27.1224C104.247 27.0532 104.365 26.9522 104.448 26.8295H104.627C104.696 26.6858 104.809 26.5624 104.953 26.4734C105.097 26.3844 105.265 26.3332 105.44 26.3259C105.885 25.8268 106.334 25.3323 106.784 24.8347C106.778 24.7375 106.8 24.6404 106.847 24.5526C106.894 24.4649 106.965 24.3892 107.053 24.3326C107.269 23.3823 107.568 22.4489 107.949 21.5413C108.024 21.2125 108.053 20.8768 108.037 20.5416C108.128 20.5416 108.216 20.5416 108.216 20.443C108.195 20.2937 108.216 20.1418 108.28 20.0022C108.343 19.8627 108.445 19.7401 108.577 19.6466C108.755 19.6466 108.936 19.6466 109.026 19.4479V19.2461C109.286 19.2736 109.537 19.3498 109.762 19.4697C109.988 19.5897 110.183 19.7507 110.334 19.9424H110.925C110.925 20.1442 111.039 20.1441 111.162 20.2458C111.825 20.1795 112.496 20.2128 113.146 20.3444C113.146 20.6478 113.62 20.5416 113.739 20.8389C113.8 21.1552 113.92 21.4599 114.095 21.74C114.103 21.7955 114.096 21.852 114.075 21.9047C114.054 21.9575 114.02 22.005 113.974 22.0434C114.21 22.3468 114.447 22.8429 114.095 23.1417C114.21 23.5362 114.094 24.0352 114.33 24.4342C114.094 24.6329 114.21 24.9363 114.21 25.1351C114.397 25.5852 114.518 26.0554 114.569 26.5337C115.041 27.0313 114.919 27.6275 115.278 28.1281V28.7227C115.512 28.7227 115.278 29.0261 115.512 29.0261C115.492 29.6639 115.414 30.2991 115.278 30.9254C115.156 31.0255 115.041 31.1241 114.919 31.2288V31.4291C114.802 31.4291 114.684 31.429 114.684 31.3274C114.448 31.6232 114.095 31.828 113.852 32.1253C113.62 32.0222 113.499 32.2209 113.387 32.2209C113.148 32.2209 113.387 32.5243 113.148 32.5243C112.931 32.5269 112.721 32.5972 112.556 32.723C112.32 32.8232 111.518 32.6229 111.279 32.8232L111.162 32.723C111.104 32.7845 111.032 32.8342 110.951 32.869C110.87 32.9038 110.781 32.9228 110.692 32.9248C110.692 32.8232 110.692 32.723 110.57 32.723C110.484 32.8741 110.345 32.9951 110.173 33.0668C110.002 33.1386 109.809 33.157 109.625 33.119C109.522 32.9233 109.564 32.7731 109.286 32.6806C109.275 32.0882 109.122 31.5048 108.839 30.9694C108.929 30.9694 108.929 30.8814 108.929 30.795C108.799 30.5351 108.709 30.2605 108.662 29.9788C108.389 29.6238 108.299 29.0823 107.94 28.8138C108.028 28.7212 107.761 28.6332 107.851 28.5392L107.4 28.0932C107.223 28.0932 107.223 28.1827 107.134 28.2707C107.043 28.7258 106.591 29.0807 106.505 29.5358L106.415 29.4418C106.324 29.7088 106.056 29.8893 106.056 30.1624C105.875 30.2503 105.787 30.5219 105.607 30.6175V30.7995C104.979 31.3395 104.639 32.2057 103.884 32.588C103.699 32.9612 103.225 33.0431 103.037 33.4557C102.669 33.4818 102.306 33.5522 101.959 33.6651C101.729 33.5604 101.375 33.3496 101.141 33.5604C101.141 33.4557 101.023 33.4557 100.906 33.4557L100.791 33.5604C100.555 33.3496 100.202 33.5604 99.8511 33.4557C99.109 33.0093 98.3237 32.6235 97.5046 32.3028C97.2659 32.3028 97.5046 31.9873 97.2659 31.9873C97.2043 31.9937 97.1419 31.9877 97.0832 31.9696C97.0246 31.9514 96.9713 31.9217 96.9273 31.8826C96.9273 31.5671 97.0407 31.3562 96.6868 31.1484L96.8037 31.0422C96.8037 30.9375 96.6869 30.9375 96.5734 30.9375C96.4566 30.311 96.1045 29.7846 95.9876 29.1596C95.8624 29.0519 95.8623 29.0519 95.7523 28.9488C95.7456 28.6569 95.6639 28.3704 95.5136 28.1114C95.4002 27.6927 95.8065 27.3377 95.5796 26.9388C95.5725 26.8853 95.5788 26.8312 95.5982 26.7802C95.6175 26.7293 95.6493 26.6829 95.6913 26.6445C95.616 26.21 95.6554 25.7658 95.8065 25.3474C95.6914 25.3474 95.6913 25.2488 95.6913 25.1472C95.8758 24.7716 95.9538 24.3609 95.9182 23.9518C96.0266 23.6484 96.2568 23.3541 96.3635 23.0538L96.2534 22.9536C96.4718 22.7534 96.3635 22.4515 96.7004 22.2528C96.7004 22.1572 96.7004 22.0556 96.5853 22.0556C96.5853 21.8538 96.8071 21.7522 96.9239 21.6536C97.1264 21.24 97.3994 20.8572 97.7332 20.5189L97.6468 20.4036C97.9383 20.1475 98.3305 20.0042 98.7388 20.0046C99.1093 20.0448 99.4651 20.1588 99.78 20.3383C99.9087 20.5735 99.78 20.7616 99.9493 21.0589H100.119V21.2592C100.119 21.3593 100.202 21.3593 100.288 21.3593C100.428 21.64 100.486 21.9479 100.457 22.2543C100.457 22.3574 100.544 22.3575 100.627 22.3575C100.54 22.5531 100.796 22.7549 100.796 22.9551C100.627 23.1554 100.796 23.4542 100.709 23.7516C100.962 24.2506 100.879 24.8514 101.126 25.349C101.147 25.7261 101.261 26.0945 101.459 26.4275Z" fill="#231815"/>
<path d="M58.1316 30.1254C58.3429 30.2498 58.5309 30.4034 58.6886 30.5805C58.8041 30.7852 58.9797 30.9577 59.1965 31.0796C59.3544 31.138 59.5073 31.2069 59.6537 31.2859L59.7993 31.5635L60.1632 31.876C60.5493 31.9822 60.6271 31.7744 60.9217 32.146C61.0521 32.146 61.1791 32.146 61.1791 32.2522L61.3077 32.146C61.4457 32.3174 61.6222 32.461 61.8258 32.5678C62.1902 32.5687 62.5409 32.6927 62.8078 32.9152C62.9331 32.9152 62.95 33.1563 62.95 33.0517C63.3461 33.1472 63.6153 33.396 63.8727 33.1791C63.9997 33.1791 64.13 33.1791 64.13 33.2853L64.257 33.1791C64.5143 33.0729 64.5702 33.3596 64.8275 33.2519C64.9613 33.2519 64.9612 33.3596 64.9612 33.4673H65.2152C65.476 33.6782 66.5697 33.3975 66.8355 33.619C68.1168 33.6942 69.4034 33.6469 70.6735 33.4779C70.6871 33.2686 71.046 33.4901 71.0544 33.2883L71.173 33.396C71.6606 33.5189 72.1888 32.9971 72.6628 33.2185C72.7932 33.126 72.7932 33.126 72.9219 33.032C73.1741 32.9394 73.5263 33.3657 73.7853 33.0684C73.7853 33.17 73.9072 33.1745 74.0257 33.1821C74.0257 33.079 74.0257 33.079 74.0392 32.9773C74.4202 32.7892 74.8858 32.8408 75.1651 32.5602C75.287 32.5693 75.5325 32.5935 75.6595 32.6057L75.9253 32.4251C76.5669 32.2841 77.1239 31.8183 77.8519 31.6666C77.9637 31.5529 78.2075 31.5347 78.3125 31.3223C78.436 31.3117 78.5562 31.3011 78.6815 31.2935C78.7933 31.1873 78.9101 31.072 79.0201 30.9643C79.4011 31.0325 79.7312 30.5502 80.0969 30.4986C80.0799 30.4 80.0597 30.2999 80.1816 30.2801L80.3221 30.3605C80.549 30.2286 80.5489 30.2286 80.6319 30.0071C81.0145 30.0541 81.2245 29.6217 81.4293 29.3851L81.6748 29.3502C81.7747 29.2319 81.7747 29.2319 81.8831 29.1151C82.005 29.0938 82.0049 29.0938 82.1268 29.0787C82.4553 28.8223 82.6449 28.487 83.1088 28.3202C83.0936 28.2201 83.0749 28.1184 83.1968 28.1002C83.4559 28.1685 83.4017 27.862 83.5066 27.7483C83.6099 27.6785 83.9316 27.4646 84.0146 27.5617C83.9993 27.7301 84.3345 27.1309 84.3159 27.2917C84.3989 27.3963 84.8238 26.3815 84.9271 26.3071L83.8978 23.8208C83.5185 24.3214 82.1691 25.9446 81.4479 26.0963C81.4598 26.6211 80.8333 26.6469 80.4033 26.9458C80.4287 27.0444 80.4592 27.1415 80.3322 27.1733C79.9716 27.2446 79.8243 27.6178 79.5772 27.6664C79.5484 27.5678 79.4349 27.5935 79.3063 27.6208C79.2115 27.7422 78.9761 27.7938 78.9084 28.0153C78.5461 28.0957 78.4394 28.4233 78.2312 28.6554L78.089 28.572C77.6556 28.9437 77.0257 28.9057 76.7345 29.3578C76.0353 29.6612 75.4377 29.7719 74.7148 30.0177C74.5929 30.0253 74.471 30.0329 74.4659 29.9297C74.3575 30.1406 73.848 29.9676 73.7379 30.18C73.0364 30.1716 72.3353 30.2158 71.6419 30.312C71.6318 30.1072 71.2729 30.3302 71.261 30.1284C70.6549 30.3666 70.0386 30.0511 69.4207 30.0511C69.2954 29.9494 69.0482 29.9494 68.9246 29.7477C68.689 29.8075 68.4399 29.811 68.2023 29.7578C67.9646 29.7046 67.7467 29.5965 67.5702 29.4443C67.1995 29.4443 66.9506 29.1409 66.5815 29.0362V28.8329L66.3309 28.6296C66.3309 28.3262 66.7034 28.3263 66.9489 28.2231C67.1994 27.9197 67.8648 27.9925 68.1103 27.6861C68.1103 27.5814 68.4489 27.3827 68.4489 27.2825C68.5691 27.0808 68.6588 26.8866 68.779 26.8866C69.1515 26.6849 68.9111 26.4528 69.4038 26.3481C69.4038 26.248 69.7949 25.9946 69.6662 25.893C70.1623 25.5896 70.1504 25.4152 70.274 24.8038C70.5933 24.5228 70.807 24.1596 70.8852 23.7646C71.0088 23.663 70.8564 23.2185 71.1103 23.1154C71.2289 22.4069 70.9105 22.0292 70.9105 21.3178L70.6651 21.1175C70.6651 20.8141 70.4196 20.6063 70.5432 20.3014C70.1758 19.998 70.2605 19.8978 69.8931 19.5975L69.678 19.3866H69.4326C69.3073 19.1834 68.9365 19.0832 68.9365 18.8815C68.4226 18.7212 67.9266 18.518 67.4551 18.2747L67.3315 18.3763L67.2079 18.2747L66.9573 18.478C66.9573 18.1746 66.59 18.478 66.4681 18.2747C66.2158 18.2747 65.972 18.17 65.7265 18.3763C64.985 18.17 64.1842 18.528 63.4409 18.2246C63.4409 18.4264 62.9449 18.1245 62.9449 18.4264C62.6977 18.525 62.3422 18.5189 62.2169 18.619H61.8478C61.678 18.8144 61.4629 18.9744 61.2174 19.088C60.9718 19.2017 60.7017 19.2663 60.4257 19.2774C60.1768 19.2774 60.4257 19.5808 60.1768 19.5808H59.9313C59.3712 20.1425 58.7514 20.6542 58.0808 21.1084C58.0808 21.207 57.8319 21.3056 57.9572 21.515C57.9572 21.6151 57.832 21.6151 57.7067 21.6151C57.7035 21.695 57.6796 21.7732 57.637 21.8435C57.5944 21.9137 57.5342 21.9742 57.4612 22.0201C57.4612 22.1202 57.4612 22.2264 57.5848 22.2264C57.5848 22.322 57.3952 22.586 57.2733 22.586C57.153 22.9895 57.153 23.3976 56.7806 23.6008C56.7806 24.4094 56.5233 24.8008 56.4657 25.6928C56.5476 26.2277 56.59 26.7669 56.5926 27.3068C56.9787 27.5222 56.4978 27.5101 56.762 27.8256C56.8872 27.8256 56.8178 28.0153 56.8178 28.1215C56.9465 28.3323 57.3596 28.484 57.2258 28.6949C57.2258 28.8011 57.4442 28.8966 57.5644 28.8966C57.6931 29.1105 57.3748 29.3517 57.6372 29.4473C57.6372 29.555 58.0486 29.4716 57.9132 29.6824L58.1316 30.1254ZM66.1921 23.5098C65.9365 23.6175 66.1921 23.8329 65.9365 23.9391L66.0618 24.0438C65.9752 24.6256 65.7528 25.1846 65.4092 25.6843C65.0656 26.184 64.6084 26.6133 64.0674 26.9443C63.9438 26.9443 63.8151 26.9443 63.8151 26.8411C63.8151 26.6211 63.5679 26.2995 63.6949 26.0826C63.6949 25.9764 63.5679 25.9764 63.4427 25.9764C63.6949 25.7595 63.2733 25.5456 63.402 25.2179C63.275 25.2179 63.275 25.1117 63.275 25.0025C63.6492 24.7871 63.3427 24.2319 63.7152 24.021L63.595 23.9149C63.7385 23.6369 63.9299 23.381 64.1622 23.1564V22.9409C64.6834 22.5588 65.2867 22.2769 65.9348 22.1127C66.06 22.1127 66.1904 22.1127 66.1904 22.2173C66.5629 22.6557 66.3157 23.0775 66.1921 23.5098Z" fill="#231815"/>
<path d="M87.6699 22.5311C87.6834 22.6737 87.6986 22.8148 87.7172 22.9498C88.5638 23.7083 88.3945 25.0023 88.9582 25.9261C88.689 26.2432 88.8837 26.6482 88.7686 26.9471C88.9379 27.0699 88.9379 27.0699 89.0937 27.1928C88.877 27.927 89.4069 28.5733 89.3341 29.2938L89.0581 29.6109C89.0717 29.7474 89.092 29.8885 89.2461 29.8688L89.1106 30.0205L89.2799 30.1449L89.1479 30.3072C89.2935 30.289 89.3172 30.4301 89.3172 30.5681C89.0531 30.8806 89.5491 31.2508 89.1275 31.58C89.1916 31.6308 89.2422 31.6938 89.2756 31.7644C89.309 31.835 89.3243 31.9114 89.3205 31.988C88.9023 32.3218 89.1513 32.9225 88.8651 33.3533L89.0175 33.4883L88.8736 33.64L88.7161 33.505C88.5688 33.505 88.5688 33.6567 88.5705 33.7917C88.7398 34.0663 89.0395 34.3333 88.7398 34.6261L88.9092 34.7626C88.5347 35.0269 88.2807 35.4044 88.1947 35.8245C88.0542 35.9671 88.0542 35.9671 87.9187 36.1097C87.974 36.1624 88.0157 36.2253 88.0411 36.2939C88.0666 36.3625 88.075 36.4353 88.066 36.5071C87.7934 36.7923 87.6563 37.0684 87.3888 37.3536C87.3888 37.4871 87.5412 37.7511 87.2601 37.9012L87.4057 38.0272C87.2686 38.3033 87.1382 38.7159 87.0096 38.9904C87.1501 38.9904 87.1501 39.1194 87.1535 39.2559C86.7353 39.5426 86.2528 39.8506 86.4052 40.3846C86.1377 40.8017 85.7889 40.9459 85.5129 41.363C85.6619 41.6285 85.005 41.7468 85.0236 42.0184C85.0423 42.2899 84.6038 42.1701 84.7545 42.4325L84.8983 42.5614C84.7544 42.5614 84.7545 42.5614 84.6173 42.5781C84.4785 42.8527 84.4785 42.8527 84.2059 42.9999C84.2059 43.1364 84.2059 43.2714 84.0671 43.2759C83.8286 43.4813 83.6116 43.7057 83.4187 43.9465C83.5643 44.0739 82.9666 44.3576 83.1072 44.3621C83.0141 44.4235 82.936 44.5014 82.8778 44.5909C82.8195 44.6804 82.7823 44.7796 82.7685 44.8824C82.6331 44.8824 82.4926 44.8688 82.4756 45.0068V45.1828C82.3757 45.2753 82.3521 45.2708 82.1371 45.3163C81.0332 46.4783 79.4282 46.941 78.321 48.0969L77.4372 48.4625C77.1393 48.5854 77.2374 48.992 76.9767 48.8418C76.9886 48.7068 76.5958 48.9556 76.4536 48.9541C76.1455 49.2059 75.6832 49.0223 75.4005 49.0087C75.4107 48.8721 75.2448 48.9025 75.1161 48.7629L74.9552 48.8858C74.83 48.7493 74.5134 48.4732 74.3712 48.4656C74.2476 48.3275 74.5235 48.1849 74.3864 48.1804L74.5388 48.0514C74.5506 47.9149 74.3203 47.8861 74.1781 47.8755C73.9242 47.5948 74.4659 47.8087 74.3474 47.5341L73.7955 47.4871C73.6635 47.2231 73.3943 47.2156 73.2775 46.9425C73.3062 46.677 73.9259 46.6801 73.9547 46.4131C74.2391 46.4237 74.1561 46.3827 74.4626 46.2614L74.3576 46.0672C74.6624 45.9428 74.6149 45.7122 74.7504 45.7198C74.7368 45.8548 74.8571 45.7001 74.9942 45.7077C75.1313 45.7153 75.2769 45.7198 75.2922 45.5848C75.2901 45.5118 75.305 45.4391 75.3359 45.3715C75.3668 45.3038 75.413 45.2427 75.4716 45.1919L75.7594 45.2056C76.0716 44.9598 76.3552 44.6863 76.606 44.3894C76.6178 44.2574 76.6178 44.2574 76.633 44.1209C76.7854 43.995 76.8023 43.7265 77.1071 43.6036C77.0935 43.7401 77.0749 43.8721 77.2205 43.8782C77.6692 43.6309 77.4017 43.4823 77.2882 43.2107C77.444 43.0787 77.444 43.0787 77.5981 42.9559C77.5862 43.0909 77.8351 42.9877 77.6929 42.9832C77.681 43.1151 77.8435 42.6661 77.9841 42.6798C78.3345 42.1807 78.0772 42.7723 78.5969 41.8545C78.7053 41.7514 78.9711 41.6558 78.9948 41.5906C78.9626 41.58 79.3216 41.4556 79.1946 41.319C79.1793 41.2083 79.2284 41.1673 78.9372 41.2902C79.1065 41.0293 79.6026 40.6303 79.6246 40.3633C80.0326 40.515 79.7093 39.9082 79.9852 39.9249C79.8329 40.0478 79.6974 39.7899 79.6991 39.9249L80.1681 39.9082C80.4796 39.6549 79.7313 39.667 80.0123 39.3803C80.0123 39.2453 79.9649 39.1695 79.8227 39.177C79.8227 39.042 79.7855 38.9328 79.9277 38.9222L80.0716 39.0511C80.2087 38.9116 79.9378 38.4595 80.2172 38.3093C80.2172 38.1713 80.2172 38.0378 80.2172 37.9058C80.632 37.6161 80.444 37.6616 80.5727 37.2505L80.4322 37.1246C80.4322 37.255 80.7352 36.9971 80.6015 37.0047C80.6015 36.8682 80.6015 36.8682 80.6015 36.7332C80.8808 36.5815 81.0806 35.6864 81.0704 35.4164C81.0806 35.6864 80.7403 34.8096 81.0247 34.9234C81.4327 34.3621 81.1517 33.6142 81.2177 32.9255C80.9232 32.8193 81.4463 32.6221 81.2821 32.3779C81.1382 32.39 81.0027 32.4113 80.9858 32.2763L81.233 31.9729C81.2211 31.8378 81.2059 31.7028 81.0637 31.7195C81.0484 31.5845 81.0349 31.4495 81.172 31.4358C81.1551 31.2993 81.1432 31.1673 81.0027 31.184C81.128 31.0323 81.128 31.0323 81.2533 30.8806C81.2381 30.7517 81.0976 30.7623 80.957 30.782C81.0417 30.2238 80.439 29.8248 80.6624 29.265C80.5202 29.2802 80.5067 29.1482 80.4931 29.0102C80.869 28.5551 80.3594 28.0165 80.5913 27.5842C80.2984 27.4795 80.4101 27.1943 80.3746 26.9243C80.5033 26.7726 80.1427 26.6406 80.1308 26.5102C79.9034 25.916 79.7418 25.3032 79.6483 24.6807C79.3673 24.9128 79.1675 22.8042 78.922 21.9835C78.5563 21.4525 78.8018 20.8609 78.5834 20.3148C78.7307 20.2951 78.8848 20.2753 78.8678 20.1388C78.6748 19.7353 79.1133 19.5442 79.2064 19.1073C79.5111 19.0724 79.7973 18.8949 80.1325 19.1406C80.4186 18.9677 80.2341 18.7053 80.2189 18.5657L81.8746 18.373C81.8967 18.5111 81.9034 18.6537 82.0609 18.634C82.5095 18.5854 82.6974 18.8433 83.1427 18.7856C83.1562 18.9282 83.1749 19.0693 83.3256 19.0511C83.442 19.0395 83.5599 19.0527 83.6697 19.0896C83.7794 19.1265 83.8778 19.1861 83.957 19.2635C84.1077 19.2408 84.2618 19.2271 84.2449 19.0891L84.4142 19.2089L84.5496 19.0572C84.6135 19.1034 84.6886 19.1355 84.7689 19.1508C84.8492 19.1661 84.9325 19.1642 85.0118 19.1452C85.1811 19.2696 85.2268 19.6913 85.5197 19.5138C86.2932 20.4862 87.0109 21.4932 87.6699 22.5311Z" fill="#231815"/>
<path d="M21.0782 25.0324C21.0274 24.8094 20.6735 24.7426 20.5296 24.729C20.3857 24.7153 20.1115 25.0111 19.971 24.7912C19.8305 25.0004 19.652 25.187 19.4427 25.3434C19.2934 25.425 19.1195 25.4631 18.945 25.4526C18.8739 25.7954 18.8316 25.8334 19.16 26.6389C19.3056 26.6647 19.4631 27.4368 19.6205 27.4672C19.5511 27.1638 20.0505 28.1088 20.2097 28.2378L20.4162 28.2848C20.5144 28.3106 20.4704 28.3956 20.4162 28.4805L20.8683 28.7748C20.914 28.8871 21.0138 28.9265 20.9004 29.0782C21.2074 29.1385 21.4988 29.2507 21.7588 29.4089C21.8519 29.4514 21.796 29.5272 21.7368 29.6046C21.8299 29.641 21.9298 29.682 21.9857 29.6046C22.2396 29.6046 22.0584 29.8382 22.0974 29.952L22.2497 29.9141C22.2887 30.0278 22.4783 30.1082 22.4783 30.1082C22.7864 30.536 24.256 31.0518 24.6251 31.4341L24.769 31.3719C24.8807 31.5919 25.5274 31.6343 25.5274 31.921L25.6646 31.8452C25.7323 31.9499 26.7058 32.1228 26.975 32.2548C27.1104 32.1744 26.9191 32.0424 27.0681 31.9741C27.2222 32.1046 27.5625 32.3883 27.7199 32.5202C27.9611 32.5386 28.2008 32.57 28.4377 32.6143C28.8136 32.9829 29.5941 32.7523 30.0546 32.948C30.0793 32.991 30.1159 33.0276 30.161 33.0542C30.2061 33.0808 30.2581 33.0965 30.312 33.0997L30.4576 33.0345L30.5151 33.1437C30.8012 33.0087 30.957 33.1437 31.1534 32.9814L31.2093 33.0937L31.3481 33.0239C31.409 33.1316 31.409 33.1316 31.4649 33.2439C31.8678 33.3273 32.2335 33.5017 32.6602 33.2954C32.6851 33.3386 32.722 33.3752 32.7674 33.4018C32.8128 33.4283 32.8651 33.444 32.9192 33.4471C33.0648 33.3834 33.0648 33.3834 33.2121 33.3152C33.5134 33.3743 33.5727 33.4866 33.9147 33.4669L33.9722 33.5791C34.1468 33.4993 34.3379 33.453 34.5335 33.4431C34.729 33.4331 34.9248 33.4598 35.1083 33.5215C35.1946 33.344 35.413 33.5867 35.4977 33.4077L35.5519 33.5184C35.8905 33.2954 36.3983 33.4153 36.7488 33.3986L36.8047 33.5108C36.9503 33.4441 36.8961 33.5184 36.8961 33.5184C37.1839 33.3925 37.8899 33.3834 38.0812 33.2348C38.372 33.3572 38.6992 33.3923 39.0141 33.3349C39.1258 33.3607 39.3527 33.4077 39.456 33.438C39.6252 33.3119 39.8351 33.2378 40.0548 33.2266C40.2746 33.2154 40.4925 33.2677 40.6766 33.3758C41.2103 33.2369 41.7222 33.0381 42.2003 32.7842C42.3104 32.8191 42.4255 32.8464 42.5389 32.8767C42.7082 32.8236 42.8098 32.8555 42.9232 32.6856C43.3866 32.5429 43.8255 32.3427 44.2269 32.091C44.2743 32.2078 44.5502 31.9863 44.6095 32.0985C44.6637 32.0151 44.6637 32.0151 44.723 31.9332C44.9414 31.9923 45.1056 31.7435 45.3257 31.8042C45.3849 31.7178 45.3849 31.7178 45.4391 31.6328C45.7777 31.5266 45.6406 31.4493 45.9724 31.3446C46.2568 31.1641 46.6496 30.5527 47.3082 30.2827C47.293 30.087 47.7213 29.9793 47.8161 29.8033C47.8601 29.7153 47.9752 29.7396 48.0853 29.7639L48.0176 29.6516C48.1869 29.5879 48.1378 29.2951 48.2867 29.4241C48.3274 29.3361 48.5204 29.1116 48.4239 29.0873C48.7422 28.8597 48.7388 28.1134 49.2027 28.0254C49.2264 27.9658 49.2541 27.9075 49.2857 27.8509C49.4719 27.6188 49.3974 27.188 49.5041 27.1349C49.543 27.0469 49.4888 26.9832 49.587 27.009C49.7055 26.6632 49.7935 26.1368 49.907 25.6756C49.8105 25.6528 49.8545 25.5648 49.8951 25.4753C49.9899 25.4996 50.0306 25.4086 50.0644 25.3236C49.9696 25.3024 50.0102 25.2114 50.0526 25.1219L50.1897 25.0536C49.9933 25.0157 50.2134 24.773 50.0204 24.7335L50.1491 24.6592C49.9798 24.242 50.2219 23.8097 50.0627 23.391L50.188 23.3243C50.0883 23.2213 50.0334 23.0896 50.0334 22.9533C50.0334 22.8171 50.0883 22.6854 50.188 22.5824C50.1636 22.5373 50.1509 22.4878 50.1509 22.4376C50.1509 22.3874 50.1636 22.3379 50.188 22.2927C49.9307 22.141 50.2439 21.9893 50.0813 21.8543C50.1761 21.5858 49.8579 21.3218 50.0492 21.0715C49.9222 20.8516 49.8985 20.7605 49.7597 20.5467C49.7885 20.4526 49.8155 20.3601 49.8426 20.269C49.7478 20.2493 49.653 20.2356 49.6733 20.1416C49.8274 19.9793 49.6615 19.8534 49.714 19.6713C49.5227 19.6334 49.6242 19.4802 49.5582 19.3679C49.5192 18.9082 49.3439 18.4662 49.0503 18.0876C49.179 17.9086 48.9098 17.1865 48.9267 16.965L48.7354 16.8725C48.6824 16.6823 48.5558 16.5151 48.3782 16.4007C48.3883 16.29 48.3884 16.29 48.3951 16.1792C48.2952 16.1792 48.2004 16.1701 48.2055 16.0548C48.2106 15.9396 48.2157 15.9441 48.2258 15.8288L48.1175 15.9395C48.0254 15.8698 47.9542 15.7805 47.9104 15.6799C47.8666 15.5792 47.8517 15.4703 47.8669 15.3631C47.5097 14.8943 47.3759 14.5606 46.8646 13.8871C46.6648 13.9933 46.8646 13.5321 46.6191 13.6367C46.4364 13.2234 46.1399 12.8581 45.7574 12.5749C45.7675 12.4641 45.7676 12.4641 45.7811 12.3473C45.7067 12.3508 45.632 12.3508 45.5576 12.3473C45.4442 12.3473 45.4577 12.2366 45.4712 12.1198C44.833 11.7648 42.5745 11.469 42.2291 10.8895C42.0294 10.8895 41.8397 10.7651 41.7212 10.9881L41.5434 10.7545C41.0169 11.0806 40.5716 10.5011 40.079 10.3737L39.9723 10.4829C39.803 10.1371 39.478 10.4647 39.2782 10.4617C39.2476 10.4198 39.2047 10.3863 39.1542 10.3649C39.1037 10.3435 39.0476 10.335 38.9921 10.3403C38.4706 10.5497 37.9983 10.31 37.5513 10.8652L37.4599 10.7499L38.5857 12.6947C38.6989 13.3529 38.8978 13.997 39.1783 14.6137C39.2782 14.638 39.4068 14.8549 39.4813 14.9778C39.4509 15.0855 39.4508 15.0855 39.4271 15.1932C39.5812 15.4465 39.7319 15.6953 39.8741 15.9517C39.7742 15.9274 39.7505 16.0351 39.7268 16.1428C39.847 16.5039 39.842 16.8861 39.9588 17.2366C40.1162 17.367 39.9334 17.4444 40.106 17.6082C40.1213 17.6249 40.0045 17.8358 40.0248 17.8509C39.9891 17.98 40.0065 18.1163 40.0739 18.2348C40.1315 18.6231 40.1111 18.3167 40.3989 18.5943C40.1315 18.8977 40.5869 19.377 40.3109 19.6744C40.4599 19.8124 40.4667 19.6152 40.5107 19.7305C40.4616 19.8063 40.4616 19.8064 40.4159 19.8822C40.3702 19.9581 40.4616 19.9929 40.5547 20.0339C40.6461 20.2523 40.4785 20.3843 40.6038 20.5952C40.702 20.6149 40.6038 20.888 40.7122 20.9062C40.7342 21.1019 41.0068 21.1625 40.7511 21.2991C40.6512 21.2778 40.7054 21.6738 40.6072 21.9347C40.647 22.1496 40.6373 22.3695 40.5784 22.5809C40.6732 22.6006 40.7477 22.4945 40.7054 22.5809C40.6631 22.6674 40.6732 22.6674 40.6394 22.7554C40.7342 22.7736 40.724 22.9329 40.6901 23.0239C40.6901 23.3015 40.4937 23.4456 40.3905 23.7065C40.2821 24.2709 40.6005 24.7335 40.1857 24.9368C40.333 25.0597 40.1569 25.2114 40.1112 25.2979C39.9689 25.3616 40.0079 25.6361 39.8809 25.7029C39.7251 26.0548 39.6557 26.0351 39.4983 26.381C39.246 26.516 39.2054 26.6647 38.9548 26.8012C38.9312 26.8586 38.904 26.9148 38.8735 26.9696C38.8346 27.0591 38.7517 27.0394 38.6603 27.0212C38.4909 27.1729 37.9255 27.4201 37.8476 27.5885L37.8933 27.6993C37.6061 27.7884 37.3316 27.9075 37.0756 28.0542C36.7014 28.2621 36.422 28.2621 36.0343 28.4441C35.6957 28.3622 35.3978 28.5958 35.0575 28.5017C34.9288 28.5654 34.7967 28.6322 34.6715 28.6899C34.5022 28.6489 34.2397 28.7703 34.1077 28.6443C33.9384 28.6034 33.979 28.8946 33.808 28.8522L33.6387 28.8112L33.5964 28.702C33.3356 28.8309 33.1291 28.6807 32.8633 28.7991L32.821 28.6989C32.5637 28.8188 32.3486 28.6883 32.1827 28.8415C31.8405 28.7117 31.4643 28.6712 31.0975 28.7247C31.1381 28.6368 31.0518 28.6231 30.9604 28.6079L30.8419 28.6838C30.874 28.5913 30.1037 28.6459 30.0191 28.6337L29.8413 28.6034L29.7939 28.4987L29.6635 28.5731C29.528 28.4517 28.6037 28.3698 28.3836 28.1452C28.2143 28.2969 28.045 28.2317 27.8401 28.1953C27.1809 28.122 26.5322 27.9862 25.905 27.7903L25.8491 27.678C25.6933 27.7342 25.5211 27.7423 25.3595 27.7011C25.198 27.6599 25.0563 27.5717 24.9569 27.4505C24.843 27.437 24.73 27.4182 24.6183 27.3943C24.5133 27.1713 23.8598 27.2138 23.7718 26.9832C23.6039 26.8779 23.4484 26.7574 23.3079 26.6237C23.0979 26.742 22.5596 26.1504 22.4614 26.114L22.1025 26.0973L21.9721 25.7408L21.493 25.4131C21.3389 25.0567 21.1391 25.3161 21.0782 25.0324Z" fill="#231815"/>
<path d="M28.6528 12.085C28.7882 12.085 28.9202 12.0956 29.0506 12.1047C29.6889 12.7115 30.9485 12.5325 31.7814 12.9178C32.1201 12.7009 32.4756 12.8283 32.7736 12.7312L32.9751 12.9694C33.7081 12.7676 34.1043 13.1105 34.7984 13.065L35.137 12.8617C35.2589 12.8708 35.3943 12.8905 35.3554 13.0028L35.5247 12.9042L35.6195 13.0301L35.7888 12.9315C35.7499 13.0407 35.882 13.0604 36.0072 13.0665C36.3458 12.8708 36.5541 13.1363 36.9452 12.8374C36.9821 12.8881 37.0322 12.9298 37.0912 12.9592C37.1502 12.9885 37.2163 13.0045 37.2838 13.0058C37.6749 12.7024 37.8103 13.0225 38.2878 12.8799L38.3707 13.0149L38.54 12.9315L38.4604 12.7919C38.5061 12.6797 38.6298 12.707 38.7618 12.7328C38.97 12.8951 39.1157 13.1423 39.478 12.9891L39.5456 13.1272C39.7691 12.9846 38.0406 12.9072 40.7308 12.8238C40.9001 12.754 40.9001 12.754 41.0694 12.6812C41.0993 12.7344 41.1434 12.7802 41.1977 12.8146C41.252 12.8489 41.3149 12.8709 41.3809 12.8784C41.7195 12.7373 42.0158 12.6933 42.3578 12.5537C42.4797 12.5826 42.6693 12.7449 42.8928 12.5719L42.9622 12.7039C43.2568 12.6629 43.6665 12.6523 43.9593 12.6114C43.9086 12.7115 43.763 12.4718 43.8747 12.5173C44.2895 12.3262 44.7433 12.0956 45.1327 12.3808C45.5898 12.3338 45.7895 12.1184 46.2551 12.088C46.4075 12.2928 46.7817 11.8923 47.0001 12.0046C47.2185 12.1168 47.2286 11.8195 47.3691 12.0289L47.4098 12.1806L47.552 11.997C47.6416 12.0175 47.7353 12.0191 47.8258 12.0018C47.9163 11.9844 48.001 11.9485 48.0734 11.8969C48.1801 11.95 48.2884 12.0106 48.3595 11.9196C48.6293 11.847 48.9049 11.7932 49.184 11.7588C49.2246 11.9105 49.4719 11.6845 49.4092 11.777C49.5007 11.7475 49.5982 11.7362 49.6951 11.7441C49.7919 11.752 49.8856 11.7787 49.9696 11.8225C50.0373 11.7315 50.1067 11.6375 50.2151 11.6982L50.3421 11.7877C50.4589 11.7679 50.4724 11.7543 50.6163 11.6466C52.0588 11.5283 52.863 10.876 54.2936 10.876L55.0436 10.5619C55.2976 10.4527 55.5244 10.7409 55.5701 10.4997C55.4685 10.4345 55.8647 10.348 55.9392 10.26C56.2931 10.2236 56.508 9.65325 56.6503 9.4788C56.5487 9.4166 56.6503 9.3271 56.6232 9.17541L56.7925 9.14809C56.7412 8.85457 56.7412 8.55569 56.7925 8.26217C56.762 8.11047 56.5132 8.20907 56.5826 8.12109L56.5182 8.01491C56.4183 7.94816 56.5504 7.78281 56.6181 7.69483C56.5504 7.39143 56.249 7.73577 56.1102 7.51884L56.3675 7.15781C56.249 6.93784 55.7191 6.81194 55.5092 6.68148C55.367 6.86503 55.3788 6.79221 55.1384 6.90902L55.0487 6.74062C54.7998 6.8635 54.6559 6.7118 54.5882 6.79978C54.6881 6.8635 54.5154 6.8544 54.4476 6.93784C54.3799 7.02127 54.3071 7.11835 54.2022 7.05767C54.1505 7.01729 54.0897 6.98734 54.024 6.9698C53.9583 6.95227 53.8891 6.94758 53.8212 6.95605C53.7518 7.05162 53.7518 7.05162 53.6824 7.13808C52.8795 7.28491 52.0497 7.26571 51.2563 7.08195C51.087 7.11988 51.087 7.11988 50.9177 7.16387C51.0294 7.21848 50.828 7.33075 50.8889 7.23669C51.0007 7.28979 50.574 7.18663 50.5148 7.28523C49.9561 7.27765 48.7303 7.39596 48.9707 7.25792C48.688 7.24578 48.136 7.38383 47.916 7.28067C47.8381 7.61289 47.4453 7.0865 47.3251 7.28067C47.4944 7.23516 47.1101 7.21696 47.2218 7.26095L47.2337 7.39444C46.8951 7.49001 46.8595 7.19117 46.5158 7.30646C46.4007 7.26095 46.3465 7.21089 46.4108 7.1138C46.294 7.07284 46.2145 7.01065 46.1586 7.1138L46.2162 7.25185C46.0469 7.3095 45.7472 6.98335 45.5152 7.13202C45.4035 7.08803 45.2884 7.04858 45.1767 7.00763C44.7875 7.16832 44.3624 7.24718 43.934 7.2382L43.8561 7.10774C43.9746 7.13353 43.6563 7.31102 43.6969 7.20635C43.6163 7.18601 43.5343 7.1703 43.4515 7.15931C43.0334 7.31835 42.5721 7.3627 42.1258 7.28674C42.3713 7.33528 41.6315 6.88778 41.6721 7.12139C41.0558 7.34439 40.3464 7.00763 39.6912 7.00763C39.6523 6.77249 39.3747 7.15932 39.1613 7.00763C39.2037 6.90599 39.2443 6.79676 39.1275 6.77856C38.9582 6.86199 38.838 6.82407 38.6788 6.91661C38.5519 6.90599 38.4249 6.88475 38.4672 6.78159C38.3385 6.76794 38.2099 6.7558 38.1777 6.86048C38.0524 6.84076 37.9254 6.82862 37.9644 6.71939C37.7951 6.81193 37.6359 6.92418 37.4802 7.02279C37.3566 7.0152 37.3854 6.90447 37.4175 6.79525C36.8775 6.86806 36.571 6.41599 35.9988 6.59044C36.0275 6.48577 35.9073 6.47818 35.7804 6.46604C35.3029 6.75882 34.6325 6.44026 34.1906 6.64354C34.1178 6.43268 33.8351 6.53585 33.5812 6.5313C33.4254 6.63445 33.3255 6.36897 33.2019 6.36593C32.6389 6.23287 32.0617 6.15304 31.4801 6.12777C31.7256 5.90174 29.7244 5.89264 28.9558 5.76218C28.4767 5.52401 27.8858 5.747 27.383 5.62109C27.3576 5.73639 27.3237 5.85471 27.1917 5.85016C26.8226 5.73032 26.5991 6.07618 26.1758 6.18541C26.12 6.41599 25.8373 6.52673 25.9185 6.72546C25.7323 6.95301 25.7086 6.99549 25.5799 6.9879C25.4631 7.4521 25.3818 7.40507 25.2515 7.86623C25.3852 7.86623 25.5189 7.87687 25.4817 7.98609C25.3852 8.33348 25.6154 8.46242 25.5189 8.80526C25.6476 8.80526 25.7882 8.82043 25.7509 8.92965C25.7269 9.01284 25.7266 9.10013 25.7503 9.18341C25.774 9.2667 25.8208 9.34325 25.8863 9.40598C25.8542 9.51823 25.8203 9.63353 25.695 9.62898L25.7898 9.74881L25.6205 9.85652C25.6596 9.90755 25.6834 9.96682 25.6893 10.0285C25.6952 10.0902 25.6832 10.1522 25.6544 10.2085C25.7577 10.3268 26.1623 10.3465 25.9609 10.5695C26.8222 11.1242 27.7212 11.6304 28.6528 12.085Z" fill="#231815"/>
<path d="M154.441 39.0758C154.056 39.0776 153.671 39.044 153.293 38.9757C153.415 40.0847 153.472 41.1987 153.462 42.3131C153.609 44.2384 153.51 46.1725 153.166 48.0776C152.949 48.3916 152.692 48.4159 152.362 48.557C152.408 48.6571 152.431 48.7224 152.469 48.821C152.506 48.9196 152.528 48.9939 152.555 49.1046C153.274 49.0624 153.953 48.7883 154.464 48.3329C154.976 47.8776 155.286 47.2718 155.338 46.6274C155.421 44.9587 155.36 43.9863 155.37 42.3237C155.37 41.0433 155.447 40.2621 155.491 38.9727C155.146 39.0398 154.794 39.0744 154.441 39.0758Z" fill="#717071"/>
<path d="M159.872 41.3162C159.441 41.2908 159.009 41.3515 158.607 41.4938C158.205 41.6362 157.844 41.8566 157.549 42.1393C157.253 42.422 157.032 42.7598 156.9 43.1285C156.768 43.4972 156.729 43.8875 156.786 44.2713C156.729 44.6577 156.766 45.0506 156.895 45.4229C157.024 45.7952 157.241 46.1381 157.532 46.4279C157.823 46.7177 158.181 46.9475 158.58 47.1016C158.98 47.2557 159.412 47.3303 159.847 47.3204C160.559 47.3533 161.262 47.1611 161.833 46.7773L162.102 46.1311L161.933 46.0264C161.526 46.3675 160.993 46.5629 160.436 46.5756C158.611 46.5756 158.611 44.476 158.635 44.3577H162.313C162.413 43.8859 162.495 41.3162 159.872 41.3162ZM160.617 43.757H158.677C158.655 43.7221 158.687 41.8168 159.718 41.8168C160.67 41.8168 160.615 43.7509 160.615 43.7509L160.617 43.757Z" fill="#717071"/>
<path d="M164.956 41.5147C164.632 41.5187 164.307 41.4994 163.986 41.457C164.049 42.4795 164.062 43.0635 164.062 44.0799C164.209 45.5989 164.136 47.1285 163.846 48.6309C163.645 48.9047 163.366 49.1244 163.036 49.2665L163.158 49.67C163.854 49.5884 164.505 49.3155 165.021 48.8888C166.121 47.9786 165.779 46.3706 165.779 44.0192C165.779 43.0378 165.83 42.4537 165.913 41.4646C165.596 41.504 165.276 41.5208 164.956 41.5147Z" fill="#717071"/>
<path d="M164.968 38.3872C164.763 38.3812 164.561 38.4301 164.387 38.5277C164.214 38.6253 164.076 38.7671 163.993 38.935C163.91 39.103 163.885 39.2893 163.921 39.4701C163.957 39.651 164.052 39.8182 164.194 39.9502C164.337 40.0823 164.52 40.1732 164.721 40.2113C164.921 40.2494 165.13 40.233 165.32 40.1642C165.51 40.0953 165.673 39.9772 165.788 39.825C165.902 39.6727 165.964 39.4932 165.964 39.3095C165.965 39.0698 165.861 38.8393 165.675 38.667C165.489 38.4947 165.236 38.3943 164.968 38.3872Z" fill="#717071"/>
<path d="M172.216 41.5329C171.91 41.5366 171.604 41.5112 171.303 41.457C171.303 41.4661 171.386 43.3745 171.361 44.5456C171.339 45.3466 171.17 46.3069 170.213 46.2993C169.214 46.2856 169.197 45.3239 169.197 44.5456C169.184 43.3093 169.304 41.5116 169.339 41.457C169.038 41.5044 168.733 41.5297 168.427 41.5329C168.086 41.5366 167.746 41.5112 167.411 41.457C167.411 41.457 167.45 42.9042 167.45 43.8114C167.45 45.3284 166.99 47.3399 169.421 47.3399C169.815 47.3239 170.199 47.2223 170.539 47.0439C170.88 46.8656 171.167 46.6157 171.376 46.316L171.327 47.1306C171.618 47.0877 171.911 47.0659 172.206 47.0654C172.501 47.0539 172.796 47.0758 173.084 47.1306C173.044 46.1081 173.027 45.6136 173.027 44.6109C173.039 43.3867 173.057 42.6661 173.135 41.457C172.833 41.5113 172.525 41.5367 172.216 41.5329Z" fill="#717071"/>
<path d="M181.954 42.2825C181.489 42.0534 179.968 41.5922 179.982 40.6426C179.982 40.4904 180.017 40.3398 180.083 40.1997C180.15 40.0597 180.247 39.9329 180.369 39.8269C180.491 39.7209 180.635 39.6378 180.793 39.5825C180.952 39.5272 181.121 39.5008 181.291 39.5049C181.648 39.4938 182 39.59 182.29 39.7782C182.58 39.9664 182.792 40.2359 182.892 40.544H183.09L183.473 39.3683C182.868 38.9497 182.111 38.7484 181.35 38.804C180.681 38.7942 180.03 38.9991 179.515 39.3816C179.001 39.7642 178.655 40.2991 178.542 40.8898C178.429 41.4805 178.556 42.088 178.899 42.6024C179.242 43.1169 179.779 43.5043 180.414 43.6948C181.247 44.0664 182.391 44.4426 182.367 45.4044C182.37 45.5771 182.331 45.7482 182.253 45.906C182.174 46.0637 182.059 46.2044 181.914 46.3182C181.769 46.432 181.598 46.5163 181.413 46.5652C181.229 46.6141 181.034 46.6264 180.844 46.6013C180.427 46.6068 180.021 46.4782 179.701 46.2389C179.381 45.9995 179.167 45.6653 179.098 45.2967H178.864C178.843 45.5446 178.803 45.791 178.744 46.034C178.684 46.3042 178.604 46.5708 178.506 46.8319C179.13 47.1865 179.861 47.3597 180.6 47.328C181.012 47.3748 181.431 47.3435 181.829 47.2361C182.227 47.1287 182.595 46.9475 182.91 46.7044C183.225 46.4613 183.48 46.1616 183.657 45.8248C183.834 45.4879 183.931 45.1214 183.94 44.7491C183.932 43.5567 183.424 43.0197 181.954 42.2825Z" fill="#717071"/>
<path d="M188.66 41.3381C188.239 41.3194 187.822 41.4232 187.471 41.6339C187.121 41.8446 186.856 42.1511 186.715 42.5077L186.81 41.4564C186.516 41.5267 186.212 41.5604 185.907 41.5565C185.621 41.5586 185.337 41.5249 185.061 41.4564C185.144 43.3329 185.156 44.4327 185.13 46.3108C185.107 47.9248 185.069 48.873 184.961 50.481C185.266 50.4369 185.575 50.4141 185.884 50.4127C186.204 50.4097 186.523 50.4398 186.835 50.5022C186.822 49.9242 186.81 49.592 186.81 48.9989C186.8 48.0705 186.8 47.5198 186.788 46.5884C186.947 46.8859 187.204 47.1327 187.524 47.2954C187.844 47.4581 188.212 47.529 188.579 47.4986C190.243 47.4986 191.102 46.1044 191.102 44.3766C191.112 42.5092 190.253 41.3381 188.66 41.3381ZM187.902 46.7021C186.886 46.7158 186.774 45.4613 186.774 44.5222C186.774 43.4846 187.062 42.095 187.993 42.095C189.075 42.095 189.207 43.433 189.207 44.4358C189.207 45.4385 188.957 46.7021 187.902 46.7021Z" fill="#717071"/>
<path d="M195.358 41.316C194.927 41.2911 194.495 41.3521 194.094 41.4947C193.693 41.6372 193.332 41.8577 193.037 42.1403C192.742 42.423 192.521 42.7606 192.389 43.1291C192.257 43.4975 192.218 43.8875 192.275 44.2711C192.232 44.8124 192.362 45.3535 192.651 45.8307C192.94 46.3079 193.374 46.7013 193.904 46.9645C194.434 47.2278 195.036 47.35 195.641 47.3168C196.246 47.2836 196.827 47.0964 197.317 46.7771L197.588 46.1309L197.418 46.0262C197.014 46.3668 196.483 46.5622 195.929 46.5754C194.098 46.5754 194.098 44.4758 194.119 44.3575H197.796C197.897 43.8857 197.982 41.316 195.358 41.316ZM196.105 43.7568H194.164C194.141 43.7219 194.18 41.8166 195.207 41.8166C196.152 41.8166 196.105 43.7507 196.105 43.7507V43.7568Z" fill="#717071"/>
<path d="M202.548 41.9196C202.895 41.9212 203.227 42.0461 203.471 42.2668C203.715 42.4876 203.851 42.7861 203.85 43.0968L204.163 43.1438L204.671 41.8878C204.021 41.5004 203.25 41.309 202.47 41.3417C202.02 41.3162 201.569 41.3758 201.147 41.5166C200.724 41.6574 200.339 41.8762 200.017 42.1588C199.695 42.4415 199.443 42.7816 199.277 43.1573C199.111 43.5329 199.035 43.9356 199.054 44.3392C199.02 44.7323 199.081 45.1273 199.232 45.4976C199.383 45.8678 199.621 46.2047 199.93 46.4854C200.239 46.7661 200.612 46.9841 201.023 47.1247C201.434 47.2653 201.874 47.3252 202.313 47.3004C202.972 47.3347 203.626 47.1749 204.175 46.8453L204.468 46.146L204.246 45.9943C204.051 46.1859 203.809 46.335 203.539 46.4302C203.27 46.5254 202.979 46.5641 202.69 46.5434C201.493 46.5434 201.009 45.4891 201.009 44.227C201.008 43.1742 201.456 41.9196 202.548 41.9196Z" fill="#717071"/>
<path d="M208.372 41.459C208.049 41.5011 207.723 41.5204 207.397 41.5166C207.07 41.526 206.742 41.5067 206.419 41.459C206.464 42.4814 206.476 43.0503 206.476 44.0712C206.464 45.2848 206.43 45.9402 206.347 47.1325C206.667 47.0813 206.991 47.0519 207.316 47.0445C207.645 47.0471 207.974 47.0766 208.298 47.1325C208.22 45.9038 208.191 45.2484 208.22 44.0136C208.238 43.0321 208.277 42.4481 208.372 41.459Z" fill="#717071"/>
<path d="M207.383 38.3086C207.112 38.3122 206.852 38.4119 206.662 38.5861C206.472 38.7603 206.366 38.9948 206.368 39.2385C206.366 39.358 206.39 39.4767 206.439 39.5878C206.489 39.6989 206.562 39.8002 206.655 39.8859C206.843 40.059 207.1 40.1582 207.369 40.1616C207.638 40.165 207.898 40.0724 208.092 39.9041C208.285 39.7358 208.395 39.5057 208.399 39.2643C208.402 39.0178 208.298 38.7801 208.108 38.6017C207.918 38.4232 207.658 38.3181 207.383 38.3086Z" fill="#717071"/>
<path d="M215.215 46.6064C215.134 46.543 215.072 46.463 215.033 46.3731C214.994 46.2833 214.98 46.1864 214.992 46.0906V42.9929C214.992 41.931 214.044 41.3242 212.633 41.3242C211.77 41.3244 210.936 41.6046 210.285 42.1131L210.455 42.8276L210.563 42.8382C210.751 42.6295 210.988 42.4597 211.256 42.34C211.524 42.2204 211.818 42.1539 212.117 42.1449C212.421 42.1428 212.714 42.2472 212.934 42.436C213.153 42.6247 213.282 42.8828 213.292 43.1552C213.292 43.9137 212.39 43.8272 211.726 44.0078C211.345 44.12 209.854 44.3825 209.854 45.6765C209.833 45.8901 209.865 46.1052 209.946 46.307C210.027 46.5087 210.156 46.6924 210.323 46.8454C210.491 46.9984 210.694 47.1171 210.917 47.1934C211.141 47.2697 211.381 47.3018 211.619 47.2875C211.964 47.2923 212.304 47.213 212.602 47.058C212.9 46.903 213.146 46.6782 213.312 46.4077C213.386 46.6526 213.546 46.87 213.767 47.0282C213.988 47.1864 214.26 47.2773 214.543 47.2875C214.973 47.2782 215.39 47.1593 215.747 46.9447L215.735 46.6519C215.65 46.6781 215.559 46.6875 215.47 46.6797C215.38 46.6718 215.293 46.6468 215.215 46.6064ZM213.297 45.3928C213.297 45.945 212.974 46.5123 212.346 46.5123C211.684 46.5123 211.646 46.0102 211.636 45.5794C211.605 45.3706 211.642 45.1582 211.743 44.9678C211.843 44.7775 212.003 44.6174 212.203 44.5069C212.622 44.3279 213.258 44.0867 213.297 44.0867V45.3928Z" fill="#717071"/>
<path d="M219.258 38.0898C218.941 38.1439 218.618 38.1729 218.295 38.1763C217.975 38.1767 217.655 38.1478 217.342 38.0898C217.425 39.9421 217.45 41.1056 217.44 42.973C217.44 44.6235 217.401 45.4973 217.318 47.1326C217.628 47.0703 217.945 47.0408 218.263 47.0446C218.604 47.0348 218.946 47.0643 219.279 47.1326C219.24 45.4761 219.197 44.5901 219.175 42.9321C219.14 41.0829 219.224 39.933 219.258 38.0898Z" fill="#717071"/>
<path d="M228.443 42.2825C227.979 42.0534 226.455 41.5923 226.469 40.6426C226.469 40.4902 226.504 40.3394 226.57 40.1991C226.637 40.0589 226.734 39.932 226.856 39.8259C226.978 39.7199 227.123 39.6368 227.282 39.5817C227.44 39.5265 227.609 39.5004 227.779 39.5049C228.137 39.494 228.488 39.5902 228.778 39.7785C229.067 39.9667 229.278 40.2361 229.378 40.544H229.577L229.958 39.3683C229.355 38.9496 228.598 38.7484 227.837 38.804C227.169 38.7962 226.521 39.002 226.007 39.3844C225.494 39.7669 225.15 40.301 225.037 40.8905C224.924 41.48 225.049 42.0864 225.391 42.6004C225.732 43.1145 226.267 43.5025 226.899 43.6948C227.727 44.0665 228.88 44.4427 228.853 45.4044C228.856 45.5772 228.817 45.7486 228.739 45.9066C228.661 46.0646 228.546 46.2055 228.401 46.3195C228.256 46.4334 228.085 46.5176 227.9 46.5663C227.714 46.615 227.52 46.6269 227.329 46.6013C226.912 46.6071 226.507 46.4786 226.187 46.2391C225.867 45.9997 225.653 45.6653 225.585 45.2967H225.35C225.332 45.545 225.292 45.7916 225.23 46.034C225.171 46.3044 225.093 46.5709 224.994 46.8319C225.618 47.1866 226.349 47.3598 227.087 47.328C227.499 47.3753 227.918 47.3443 228.317 47.2371C228.715 47.1299 229.083 46.9488 229.399 46.7056C229.714 46.4623 229.968 46.1625 230.145 45.8254C230.322 45.4883 230.419 45.1216 230.427 44.7491C230.419 43.5567 229.914 43.0197 228.443 42.2825Z" fill="#717071"/>
<path d="M234.65 41.316C234.219 41.2911 233.787 41.3521 233.386 41.4946C232.985 41.6372 232.624 41.8577 232.329 42.1404C232.034 42.423 231.813 42.7608 231.682 43.1292C231.55 43.4976 231.511 43.8876 231.568 44.2711C231.525 44.8122 231.655 45.353 231.944 45.8301C232.232 46.3071 232.666 46.7004 233.196 46.9637C233.725 47.2269 234.327 47.3493 234.932 47.3162C235.536 47.2832 236.117 47.0961 236.607 46.7771L236.878 46.1309L236.708 46.0262C236.303 46.3671 235.771 46.5625 235.215 46.5754C233.388 46.5754 233.388 44.4759 233.412 44.3575H237.084C237.186 43.8857 237.272 41.316 234.65 41.316ZM235.398 43.7568H233.453C233.432 43.7219 233.468 41.8166 234.496 41.8166C235.44 41.8166 235.396 43.7507 235.396 43.7507L235.398 43.7568Z" fill="#717071"/>
<path d="M240.694 38.0898C240.377 38.1439 240.056 38.1728 239.734 38.1763C239.413 38.177 239.093 38.148 238.779 38.0898C238.86 39.9421 238.887 41.1056 238.874 42.973C238.874 44.6235 238.836 45.4973 238.752 47.1326C239.063 47.0702 239.381 47.0406 239.7 47.0446C240.041 47.0347 240.383 47.0643 240.716 47.1326C240.682 45.4761 240.64 44.5901 240.616 42.9321C240.579 41.0829 240.663 39.933 240.694 38.0898Z" fill="#717071"/>
<path d="M243.076 41.5458H242.165C242.192 41.6384 242.2 41.7345 242.189 41.8295C242.183 41.9381 242.163 42.0456 242.128 42.1496H243.076C243.054 43.0416 243.054 43.5619 243.017 44.4585C242.972 45.8238 242.934 46.0665 242.888 47.1314C243.194 47.0863 243.504 47.0685 243.814 47.0783C244.148 47.063 244.482 47.0808 244.811 47.1314C244.811 46.2106 244.765 45.4278 244.765 44.5161C244.765 43.4861 244.811 43.2343 244.811 42.2057H246.042C246.014 42.101 246.003 41.9932 246.01 41.8857C246.007 41.7821 246.026 41.6791 246.067 41.5822H244.767L244.378 40.3414C244.181 39.7224 244.586 39.4858 245.067 39.5055C245.476 39.506 245.873 39.6335 246.189 39.8665L246.379 39.7664C246.379 39.4858 246.392 39.3007 246.392 39.0079C246.392 38.7151 246.442 38.5528 246.464 38.2707C246.261 38.232 246.056 38.2107 245.849 38.207C243.611 38.1144 243.049 41.4685 243.076 41.5458Z" fill="#717071"/>
<path d="M251.39 42.7187C251.128 42.7293 250.114 42.7733 249.316 42.7733C248.46 42.7733 247.674 42.6747 247.131 42.7081C247.172 42.9323 247.194 43.1589 247.198 43.3861C247.198 43.6744 247.154 44.1007 247.154 44.1234C247.92 44.0688 248.378 44.046 249.149 44.046C250.016 44.046 250.535 44.0688 251.4 44.134C251.33 43.8978 251.291 43.6549 251.284 43.4104C251.28 43.1763 251.316 42.943 251.39 42.7187Z" fill="#717071"/>
<path d="M260.163 43.5996C259.81 43.6119 259.456 43.5849 259.11 43.5192C259.176 44.0476 259.206 44.5789 259.202 45.1105C259.202 45.6051 259.202 45.9024 259.17 46.3985C258.715 46.5834 258.219 46.6697 257.72 46.6503C257.434 46.6503 254.673 46.5274 254.673 43.2446C254.661 41.6017 255.646 39.613 257.91 39.613C258.401 39.6038 258.887 39.7044 259.324 39.9057C259.761 40.107 260.135 40.4026 260.412 40.7659L260.582 40.7993L260.92 39.6023C260.027 39.1003 258.988 38.8454 257.934 38.8696C257.236 38.7981 256.529 38.8648 255.863 39.0649C255.197 39.265 254.588 39.5937 254.08 40.0278C253.571 40.4618 253.175 40.9907 252.919 41.5769C252.664 42.1632 252.555 42.7926 252.601 43.4206C252.601 45.7917 254.883 47.3178 258.079 47.3178C259.096 47.3229 260.104 47.1428 261.04 46.7883C260.981 46.1512 260.981 45.7902 260.981 45.1576C260.981 44.525 261.029 44.123 261.1 43.4889C260.793 43.5582 260.479 43.5953 260.163 43.5996Z" fill="#717071"/>
<path d="M265.436 41.2587C265.003 41.2656 264.577 41.3507 264.182 41.5087C263.787 41.6668 263.431 41.8946 263.137 42.1785C262.842 42.4625 262.615 42.7967 262.468 43.1613C262.321 43.5258 262.257 43.9132 262.281 44.3002C262.221 44.6877 262.258 45.0824 262.39 45.4553C262.523 45.8281 262.747 46.1695 263.047 46.4541C263.346 46.7388 263.714 46.9594 264.121 47.0997C264.529 47.2399 264.967 47.2962 265.402 47.2644C265.851 47.2823 266.299 47.2116 266.714 47.0573C267.13 46.9029 267.502 46.6687 267.805 46.3712C268.108 46.0736 268.335 45.7201 268.468 45.3355C268.602 44.9509 268.64 44.5447 268.58 44.1455C268.62 43.7633 268.568 43.3776 268.426 43.0155C268.283 42.6533 268.054 42.3233 267.755 42.0485C267.456 41.7737 267.093 41.5606 266.693 41.4242C266.292 41.2878 265.863 41.2313 265.436 41.2587ZM265.376 46.7638C264.487 46.7638 264.201 45.6731 264.201 44.2593C264.201 43.1974 264.442 41.7699 265.458 41.7699C266.504 41.7699 266.707 43.1867 266.707 44.1713C266.707 45.5366 266.375 46.7638 265.375 46.7638H265.376Z" fill="#717071"/>
<path d="M273.631 41.459C273.631 41.459 273.239 42.5983 272.975 43.3173C272.636 44.2457 272.05 45.6944 272.05 45.6944C272.05 45.6944 271.566 44.4808 271.305 43.6814C271.019 42.8258 270.628 41.459 270.628 41.459C270.32 41.5213 270.006 41.5548 269.69 41.5591C269.34 41.5631 268.99 41.5295 268.649 41.459C269.135 42.5861 269.409 43.2703 269.842 44.4156C270.259 45.4881 270.481 46.0297 270.858 47.134C271.304 47.045 271.767 47.045 272.213 47.134C272.673 46.0024 272.947 45.3652 273.41 44.2381C273.852 43.1762 274.114 42.5345 274.547 41.4605C274.413 41.5063 274.271 41.53 274.128 41.5303C273.959 41.5347 273.79 41.5105 273.631 41.459Z" fill="#717071"/>
<path d="M277.779 41.316C277.348 41.291 276.916 41.3518 276.515 41.4943C276.113 41.6367 275.752 41.8572 275.456 42.1398C275.161 42.4224 274.94 42.7601 274.808 43.1287C274.676 43.4972 274.637 43.8874 274.693 44.2711C274.636 44.6576 274.673 45.0505 274.802 45.4228C274.931 45.7951 275.148 46.1379 275.439 46.4277C275.73 46.7175 276.088 46.9474 276.487 47.1015C276.887 47.2556 277.319 47.3302 277.754 47.3203C278.467 47.3535 279.17 47.1613 279.742 46.7772L280.009 46.131L279.84 46.0263C279.433 46.367 278.901 46.5624 278.345 46.5754C276.52 46.5754 276.52 44.4759 276.538 44.3576H280.214C280.317 43.8858 280.402 41.316 277.779 41.316ZM278.524 43.7569H276.586C276.557 43.722 276.596 41.8166 277.624 41.8166C278.575 41.8166 278.524 43.7508 278.524 43.7508V43.7569Z" fill="#717071"/>
<path d="M284.655 41.3568C284.314 41.5026 284.016 41.7159 283.781 41.9806C283.546 42.2453 283.382 42.5543 283.3 42.8844L283.327 41.4584C283.072 41.5157 282.81 41.5452 282.547 41.5464C282.236 41.5525 281.926 41.5229 281.624 41.4584C281.683 42.493 281.687 43.0088 281.687 44.0373C281.687 45.2372 281.667 45.9396 281.584 47.1335C281.886 47.0946 282.191 47.0768 282.496 47.0804C282.806 47.0768 283.117 47.0945 283.424 47.1335C283.412 47.0455 283.324 45.794 283.363 44.9369C283.402 44.0798 283.229 43.2894 284.182 42.9329C284.364 42.868 284.561 42.8448 284.755 42.8654C284.949 42.8861 285.134 42.95 285.293 43.0513L285.413 42.9329C285.367 42.66 285.35 42.3835 285.364 42.1077C285.374 41.838 285.405 41.5692 285.459 41.3037C285.19 41.2669 284.915 41.2851 284.655 41.3568Z" fill="#717071"/>
<path d="M290.133 41.3027C289.741 41.3176 289.359 41.4188 289.021 41.5974C288.683 41.776 288.399 42.0265 288.195 42.3267L288.229 41.459C287.939 41.5126 287.644 41.5381 287.348 41.5348C287.054 41.5383 286.761 41.5129 286.473 41.459C286.519 42.4814 286.532 43.02 286.532 44.0379C286.519 45.2515 286.493 45.9159 286.424 47.134C286.726 47.0854 287.032 47.0636 287.338 47.0688C287.647 47.0638 287.956 47.0856 288.261 47.134C288.251 47.1234 288.166 45.259 288.205 44.091C288.205 43.3006 288.384 42.3282 289.346 42.3495C290.335 42.3601 290.362 43.3249 290.374 44.091C290.374 45.3379 290.252 47.0673 290.228 47.134C290.531 47.0871 290.838 47.0612 291.146 47.0567C291.479 47.0556 291.812 47.0815 292.14 47.134C292.14 47.134 292.096 45.5564 292.096 44.5916C292.096 43.1337 292.378 41.3027 290.133 41.3027Z" fill="#717071"/>
<path d="M295.905 41.459C295.583 41.5013 295.257 41.5205 294.931 41.5166C294.602 41.5258 294.273 41.5065 293.948 41.459C294 42.4814 294.014 43.0503 294.014 44.0712C294 45.2848 293.965 45.9402 293.88 47.1325C294.202 47.0815 294.527 47.0521 294.854 47.0445C295.182 47.0471 295.51 47.0766 295.832 47.1325C295.749 45.9038 295.724 45.2484 295.749 44.0136C295.776 43.0321 295.81 42.4481 295.905 41.459Z" fill="#717071"/>
<path d="M294.923 38.3073C294.713 38.3004 294.506 38.3496 294.328 38.4486C294.15 38.5477 294.009 38.6922 293.922 38.8635C293.836 39.0348 293.809 39.2253 293.844 39.4105C293.88 39.5958 293.976 39.7674 294.12 39.9035C294.265 40.0396 294.452 40.1339 294.656 40.1745C294.861 40.2151 295.075 40.2 295.27 40.1313C295.465 40.0625 295.633 39.9432 295.752 39.7885C295.871 39.6339 295.936 39.4509 295.939 39.263C295.942 39.0165 295.837 38.7788 295.647 38.6004C295.458 38.4219 295.198 38.3167 294.923 38.3073Z" fill="#717071"/>
<path d="M301.04 41.3027C300.647 41.3183 300.264 41.4198 299.925 41.5982C299.586 41.7767 299.301 42.0268 299.095 42.3267L299.134 41.459C298.845 41.5125 298.55 41.5379 298.255 41.5348C297.96 41.5383 297.666 41.5128 297.378 41.459C297.429 42.4814 297.437 43.02 297.437 44.0379C297.427 45.2515 297.403 45.9159 297.33 47.134C297.631 47.0854 297.936 47.0635 298.241 47.0688C298.553 47.0639 298.864 47.0857 299.171 47.134C299.157 47.1234 299.076 45.259 299.108 44.091C299.12 43.3006 299.286 42.3282 300.251 42.3495C301.216 42.3707 301.267 43.3249 301.275 44.091C301.275 45.3379 301.16 47.0673 301.135 47.134C301.437 47.0868 301.742 47.061 302.049 47.0567C302.383 47.0557 302.717 47.0816 303.046 47.134C303.046 47.134 303 45.5564 303 44.5916C303 43.1337 303.278 41.3027 301.04 41.3027Z" fill="#717071"/>
<path d="M310.065 41.4278C309.488 41.4475 309.138 41.4475 308.562 41.4475C307.588 41.44 307.588 41.3398 306.938 41.3398C305.829 41.3398 304.275 41.6432 304.253 43.2346C304.235 43.6603 304.384 44.0783 304.675 44.4157C304.965 44.753 305.379 44.9884 305.843 45.0807V45.19C305.829 45.19 304.637 45.4934 304.637 46.308C304.635 46.5351 304.719 46.7563 304.874 46.9357C305.03 47.1152 305.248 47.2425 305.494 47.297C305.099 47.3537 304.739 47.534 304.478 47.8058C304.217 48.0777 304.072 48.4236 304.069 48.7822C304.069 50.0185 305.562 50.328 306.791 50.328C307.588 50.3755 308.375 50.1433 308.984 49.6803C309.593 49.2174 309.977 48.5601 310.055 47.8477C310.068 47.5746 309.997 47.3035 309.852 47.0632C309.706 46.8228 309.491 46.6222 309.229 46.4824C308.349 46.0122 305.987 46.6341 306.048 45.6117C306.095 44.7349 307.194 45.5358 308.406 44.9321C308.742 44.7788 309.025 44.5446 309.221 44.2558C309.417 43.9669 309.519 43.6349 309.517 43.2968C309.531 43.0335 309.473 42.7712 309.347 42.533C309.222 42.2948 309.032 42.0882 308.796 41.9315L309.998 41.9876L310.065 41.4278ZM306.938 47.3911C307.717 47.3911 308.562 47.5686 308.562 48.4621C308.536 48.8409 308.351 49.1967 308.043 49.4574C307.735 49.718 307.328 49.8638 306.905 49.8651C306.481 49.8665 306.073 49.7233 305.763 49.4646C305.454 49.206 305.265 48.8513 305.237 48.4727C305.237 47.3426 306.141 47.3775 306.938 47.3911ZM306.888 44.7637C306.198 44.7637 306.021 43.9597 306.021 43.3119C306.021 42.6642 306.225 41.8101 306.94 41.8101C307.654 41.8101 307.731 42.6778 307.731 43.3271C307.731 43.9764 307.588 44.7637 306.888 44.7637Z" fill="#717071"/>
<path d="M318.315 38.9533C317.463 39.0155 316.607 39.0231 315.754 38.976C315.825 40.5628 315.796 41.4169 315.835 43.0082C315.866 44.6329 315.796 45.5037 315.703 47.1314C316.115 47.1208 316.362 47.1056 316.782 47.1056C317.201 47.1056 317.445 47.1056 317.855 47.1314C317.821 46.2849 317.797 45.8601 317.76 45.0243C317.738 44.4751 317.726 44.1459 317.716 43.5983C317.907 43.6969 321.832 43.9806 321.832 40.9997C321.832 39.5631 320.758 38.7985 318.315 38.9533ZM317.738 42.949L317.772 39.5843C319.543 39.5843 319.744 40.3155 319.744 41.1499C319.774 41.3925 319.743 41.638 319.652 41.8683C319.562 42.0986 319.415 42.3078 319.223 42.4805C319.03 42.6532 318.797 42.7849 318.54 42.866C318.283 42.9471 318.009 42.9755 317.738 42.949Z" fill="#717071"/>
<path d="M325.922 41.3565C325.582 41.5024 325.283 41.7157 325.048 41.9804C324.814 42.245 324.649 42.5541 324.568 42.8841L324.597 41.4582C324.341 41.515 324.078 41.5446 323.814 41.5462C323.504 41.5523 323.194 41.5227 322.892 41.4582C322.949 42.4928 322.958 43.0085 322.958 44.037C322.958 45.237 322.932 45.9394 322.848 47.1332C323.15 47.0945 323.455 47.0767 323.76 47.0801C324.071 47.0765 324.382 47.0943 324.69 47.1332C324.676 47.0452 324.59 45.7937 324.625 44.9366C324.661 44.0795 324.495 43.2892 325.448 42.9327C325.63 42.8679 325.826 42.8448 326.02 42.8654C326.214 42.8861 326.399 42.9499 326.559 43.051L326.679 42.9327C326.631 42.6599 326.614 42.3833 326.63 42.1074C326.638 41.8377 326.669 41.5689 326.723 41.3034C326.455 41.267 326.181 41.2852 325.922 41.3565Z" fill="#717071"/>
<path d="M330.578 41.2587C330.146 41.2658 329.719 41.351 329.325 41.5092C328.93 41.6673 328.575 41.8952 328.28 42.1791C327.986 42.463 327.759 42.7972 327.612 43.1616C327.465 43.5261 327.402 43.9134 327.426 44.3002C327.365 44.6873 327.401 45.0818 327.533 45.4544C327.666 45.827 327.889 46.1682 328.189 46.4529C328.488 46.7375 328.854 46.9582 329.261 47.0987C329.669 47.2392 330.106 47.2958 330.541 47.2644C330.99 47.2826 331.438 47.212 331.854 47.0578C332.269 46.9035 332.642 46.6693 332.945 46.3718C333.249 46.0743 333.475 45.7206 333.609 45.3359C333.743 44.9512 333.781 44.5448 333.72 44.1455C333.762 43.7634 333.709 43.3778 333.567 43.0156C333.425 42.6534 333.196 42.3234 332.897 42.0486C332.598 41.7737 332.235 41.5606 331.835 41.4242C331.434 41.2878 331.005 41.2313 330.578 41.2587ZM330.519 46.7638C329.63 46.7638 329.345 45.6731 329.345 44.2593C329.345 43.1974 329.579 41.7699 330.602 41.7699C331.624 41.7699 331.853 43.1868 331.853 44.1713C331.846 45.5366 331.509 46.7638 330.512 46.7638H330.519Z" fill="#717071"/>
<path d="M338.771 41.459C338.771 41.459 338.378 42.5983 338.114 43.3173C337.775 44.2457 337.186 45.6944 337.186 45.6944C337.186 45.6944 336.702 44.4808 336.441 43.6814C336.151 42.8258 335.764 41.459 335.764 41.459C335.455 41.5219 335.139 41.5554 334.822 41.5591C334.474 41.563 334.127 41.5294 333.788 41.459C334.27 42.5861 334.548 43.2703 334.983 44.4156C335.393 45.4881 335.622 46.0297 335.999 47.134C336.445 47.0453 336.907 47.0453 337.354 47.134C337.814 46.0024 338.087 45.3652 338.539 44.2381C338.982 43.1762 339.248 42.5345 339.673 41.4605C339.54 41.5073 339.398 41.531 339.255 41.5303C339.09 41.534 338.926 41.5099 338.771 41.459Z" fill="#717071"/>
<path d="M342.957 41.459C342.635 41.5013 342.31 41.5206 341.984 41.5166C341.657 41.526 341.33 41.5067 341.007 41.459C341.049 42.4814 341.063 43.0503 341.063 44.0712C341.049 45.2848 341.017 45.9402 340.936 47.1325C341.257 47.0813 341.582 47.0519 341.908 47.0445C342.236 47.0473 342.564 47.0768 342.886 47.1325C342.803 45.9038 342.778 45.2484 342.803 44.0136C342.829 43.0321 342.861 42.4481 342.957 41.459Z" fill="#717071"/>
<path d="M341.972 38.3086C341.7 38.3122 341.441 38.4119 341.25 38.5861C341.06 38.7603 340.954 38.9948 340.956 39.2385C340.954 39.3586 340.979 39.4779 341.029 39.5895C341.078 39.7012 341.152 39.803 341.245 39.8891C341.339 39.9752 341.45 40.044 341.573 40.0916C341.696 40.1391 341.829 40.1644 341.963 40.1661C342.097 40.1678 342.23 40.1458 342.355 40.1014C342.479 40.057 342.593 39.9911 342.689 39.9073C342.785 39.8236 342.862 39.7237 342.915 39.6134C342.968 39.503 342.996 39.3844 342.998 39.2643C343 39.0164 342.894 38.7776 342.703 38.599C342.511 38.4203 342.249 38.3161 341.972 38.3086Z" fill="#717071"/>
<path d="M348.089 41.3027C347.697 41.3177 347.314 41.419 346.976 41.5976C346.638 41.7761 346.354 42.0265 346.149 42.3267L346.188 41.459C345.899 41.5123 345.604 41.5377 345.309 41.5348C345.013 41.5383 344.717 41.5128 344.427 41.459C344.474 42.4814 344.485 43.02 344.485 44.0379C344.474 45.2515 344.452 45.9159 344.38 47.134C344.682 47.0854 344.988 47.0636 345.295 47.0688C345.603 47.0638 345.911 47.0857 346.215 47.134C346.205 47.1234 346.12 45.259 346.157 44.091C346.172 43.3006 346.337 42.3282 347.298 42.3495C348.292 42.3601 348.314 43.3249 348.324 44.091C348.324 45.3379 348.207 47.0673 348.185 47.134C348.487 47.0868 348.792 47.061 349.098 47.0567C349.433 47.0559 349.767 47.0817 350.097 47.134C350.097 47.134 350.048 45.5564 350.048 44.5916C350.048 43.1337 350.331 41.3027 348.089 41.3027Z" fill="#717071"/>
<path d="M354.853 41.9197C355.024 41.9203 355.194 41.9512 355.353 42.0107C355.511 42.0702 355.655 42.1572 355.776 42.2665C355.897 42.3758 355.992 42.5054 356.057 42.6479C356.122 42.7904 356.155 42.943 356.154 43.0969L356.464 43.1439L356.972 41.8879C356.323 41.4998 355.551 41.3084 354.771 41.3418C354.321 41.3161 353.87 41.3755 353.447 41.5162C353.024 41.6569 352.639 41.8756 352.317 42.1583C351.995 42.441 351.742 42.7812 351.576 43.157C351.41 43.5327 351.334 43.9356 351.353 44.3393C351.32 44.7324 351.381 45.1274 351.532 45.4975C351.684 45.8676 351.922 46.2043 352.231 46.485C352.54 46.7656 352.913 46.9836 353.324 47.1243C353.735 47.2649 354.175 47.325 354.614 47.3005C355.273 47.3352 355.928 47.1753 356.476 46.8454L356.766 46.1461L356.549 45.9944C356.353 46.1855 356.112 46.3343 355.843 46.4294C355.573 46.5246 355.283 46.5636 354.995 46.5435C353.793 46.5435 353.302 45.4892 353.302 44.2271C353.31 43.1743 353.759 41.9197 354.853 41.9197Z" fill="#717071"/>
<path d="M361.254 41.3161C360.823 41.2909 360.391 41.3518 359.989 41.4942C359.588 41.6367 359.226 41.8572 358.931 42.1398C358.636 42.4225 358.415 42.7602 358.283 43.1288C358.151 43.4973 358.112 43.8875 358.169 44.2712C358.112 44.6574 358.149 45.0501 358.278 45.4223C358.406 45.7945 358.623 46.1373 358.914 46.4271C359.204 46.7169 359.562 46.9469 359.961 47.101C360.36 47.2552 360.792 47.33 361.227 47.3203C361.94 47.3535 362.643 47.1613 363.214 46.7772L363.485 46.131L363.316 46.0263C362.908 46.3668 362.375 46.5621 361.818 46.5755C359.991 46.5755 359.991 44.4759 360.013 44.3576H363.692C363.793 43.8858 363.875 41.3161 361.254 41.3161ZM361.999 43.7569H360.057C360.035 43.722 360.07 41.8167 361.1 41.8167C362.048 41.8167 361.999 43.7508 361.999 43.7508V43.7569Z" fill="#717071"/>
<path d="M154.356 24.9311C154.356 24.9311 156.794 22.3962 160.451 18.2381C162.241 20.1834 163.804 22.2873 165.117 24.5169L165.244 24.7718L167.753 21.304L167.652 21.2114C165.826 19.5618 163.878 18.0251 161.821 16.6119C162.038 16.3555 167.223 10.148 167.223 10.148L164.882 7.02148C163.788 7.22955 162.68 7.37446 161.565 7.45534C160.211 7.45534 153.376 7.24449 153.376 7.24449L153.952 10.0024C153.952 10.0024 160.79 9.63072 162.161 9.54729C159.867 13.6068 152.245 24.168 152.245 24.168L154.356 24.9311Z" fill="#717071"/>
<path d="M169.202 14.5937C167.245 14.5026 164.924 14.3449 164.924 14.3449L165.143 17.4062C165.143 17.4062 168.92 16.7842 169.274 16.7205C169.499 21.367 169.526 30.4022 169.526 30.4022L172.467 29.0597V28.9626C172.509 28.1131 173.384 5.66618 173.384 5.66618L168.718 4.83789C168.718 4.83789 168.976 8.18134 169.202 14.5937Z" fill="#717071"/>
<path d="M179.576 4.30919L174.534 3.95117C174.534 3.95117 175.39 27.152 175.414 31.8562L178.502 30.3074L179.576 4.30919Z" fill="#717071"/>
<path d="M330.879 30.3113L331.958 4.3131L326.726 3.95508C326.726 3.95508 327.583 27.1559 327.603 31.8601L330.879 30.3113Z" fill="#717071"/>
<path d="M299.953 16.7205C301.6 17.0042 304.834 17.4351 304.834 17.4351C304.942 16.4885 305.078 14.5179 305.078 14.5179C305.078 14.5179 301.639 14.747 300.024 14.8729L300.466 4.31308L295.234 3.95508C295.234 3.95508 296.081 27.1559 296.111 31.8601L299.384 30.3113L299.953 16.7205Z" fill="#717071"/>
<path d="M188.166 16.8872C188.166 16.8872 195.417 13.8533 198.693 12.1724C201.563 13.7031 206.512 16.3366 208.132 17.1451L208.286 17.2225L210.04 13.9913C210.04 13.9913 201.923 11.1242 201.261 10.8936C201.796 10.6327 207.881 7.73373 207.881 7.73373L204.629 5.08203C201.92 6.15454 187.67 5.44915 187.67 5.44915L187.922 7.70795C187.922 7.70795 198.14 7.75801 198.962 7.75801C194.831 10.8111 190.399 13.522 185.721 15.8572L188.166 16.8872Z" fill="#717071"/>
<path d="M196.096 31.863L200.242 30.1047C200.242 30.1047 200.816 22.8854 200.816 20.6205C201.145 20.6205 212.234 20.5887 212.234 20.5887L212.505 18.3359C197.125 18.9427 183.554 18.4224 183.554 18.4224L184.477 20.8496C184.477 20.8496 188.923 20.6979 195.312 20.6463C195.94 26.8903 196.059 28.6667 196.096 31.863Z" fill="#717071"/>
<path d="M360.375 18.4411L360.318 15.9244C360.318 15.9244 348.512 16.4796 344.742 16.3142C344.671 15.7439 344.432 8.70349 344.471 7.86156C352.118 7.58851 359.823 7.94804 359.823 7.94804L360.076 5.36914L339.59 5.47381L340.003 18.5199L360.375 18.4411Z" fill="#717071"/>
<path d="M352.3 26.5624C352.3 26.5093 352.613 19.9635 352.613 19.9635L347.331 19.5918C347.331 19.5918 347.703 24.9665 347.876 26.5836C343.193 26.5836 335.258 26.3212 335.258 26.3212L335.554 28.988C335.554 28.988 351.235 28.6649 363.827 28.8364L363.997 26.2984C363.997 26.2984 358.804 26.4971 352.3 26.5624Z" fill="#717071"/>
<path d="M261.181 17.5702L261.89 5.53289L257.524 5.1582L257.658 9.63788C256.198 9.69553 253.136 9.66366 252.071 9.65304L251.954 5.89545L247.459 5.53289L248.7 17.5672C248.7 17.5672 256.31 17.3396 261.181 17.5702ZM257.72 11.839L257.827 15.4646L252.24 15.5359L252.123 11.795C253.962 11.7708 256.601 11.8163 257.72 11.839Z" fill="#717071"/>
<path d="M267.631 19.5801L270.752 18.3832C270.897 17.2318 271.871 8.63195 272.16 4.31308L267.118 3.95508C267.184 5.46145 267.237 6.8859 267.288 8.37862C265.984 8.14804 263.825 7.78094 263.284 7.75515L263.404 10.5919L267.347 10.2733C267.376 11.1577 267.408 12.0846 267.435 13.0737C266.081 13.013 264.091 13.1435 263.153 13.0206L263.091 15.4675L267.493 15.0124C267.538 16.3883 267.581 17.8871 267.631 19.5801Z" fill="#717071"/>
<path d="M266.074 22.793L265.905 24.8015C263.214 24.7727 256.126 24.618 253.016 24.4799L254.397 30.8513C260.153 30.7603 271.131 30.7603 271.131 30.7603L271.38 28.3194C267.08 28.6968 262.759 28.8331 258.44 28.7275L258.101 26.5916C263.111 26.7023 269.941 26.4535 269.941 26.4535L270.664 20.5039C266.453 20.8179 252.582 20.5615 252.582 20.5615L253.158 22.8901C255.408 22.8765 264.201 22.8036 266.074 22.793Z" fill="#717071"/>
<path d="M292.949 10.1609L290.127 7.12695C288.889 7.38169 287.624 7.51947 286.355 7.53805C283.104 7.45765 279.54 7.35904 277.466 7.25892L278.143 10.1776C283.319 9.97131 287.265 9.64514 287.265 9.64514C285.831 11.9737 279.772 19.4934 275.985 24.0565L277.981 24.9121C279.518 23.6151 282.122 21.0635 284.787 18.3891C286.973 20.3844 289.019 22.4997 290.912 24.7225L292.962 20.9407C291.139 19.6391 288.188 17.887 286.36 16.8175C289.052 14.0899 291.611 11.4731 292.949 10.1609Z" fill="#717071"/>
<path d="M320.836 7.34314L320.936 5.3301C317.982 5.32252 311.586 4.92658 309.96 4.875L310.38 7.53277C310.38 7.53277 317.662 7.47664 320.836 7.34314Z" fill="#717071"/>
<path d="M321.436 25.2014L323.584 21.5712C321.553 20.256 318.844 18.6798 317.271 17.7787C320.582 14.7447 323.34 12.1128 323.34 12.1128L320.516 9.40039C319.189 9.67225 317.828 9.79506 316.467 9.76598C313.12 9.69013 310.269 9.55057 307.961 9.53388L308.65 12.492C311.784 12.2887 317.334 11.776 317.334 11.776C314.054 16.1169 310.52 20.299 306.747 24.3048L308.857 25.171C310.641 23.745 313.062 21.6061 315.414 19.4793C317.536 21.287 319.546 23.1972 321.436 25.2014Z" fill="#717071"/>
<path d="M240.032 15.2106L239.923 12.8259C234.821 13.1093 229.706 13.1635 224.598 12.9882L224.622 10.9873C229.266 11.0025 234.303 11.0677 239.776 11.2907V8.97732C235.232 9.15936 231.311 9.30802 224.64 9.09715L224.662 7.38297C228.648 7.48916 235.269 7.565 239.9 7.41179L239.967 5.15299C233.243 5.42983 226.507 5.37614 219.79 4.99219L220.325 15.0604C222.997 15.1469 231.961 15.0089 240.032 15.2106Z" fill="#717071"/>
<path d="M235.518 24.6951C235.518 24.6951 235.877 30.2958 235.83 31.8856L239.588 30.2033L240.557 22.4863C240.557 22.4863 223.774 22.6092 219.548 22.5318L219.969 24.7497C227.96 24.5252 235.518 24.6951 235.518 24.6951Z" fill="#717071"/>
<path d="M244.131 19.8621L244.403 17.6094C229.022 18.2162 215.813 17.6974 215.813 17.6974L216.741 20.1246C230.92 19.6148 244.131 19.8621 244.131 19.8621Z" fill="#717071"/>
</svg>
