<svg width="3696" height="689" viewBox="0 0 3696 689" fill="none" xmlns="http://www.w3.org/2000/svg">
<path d="M342.141 48.457C428.566 48.457 493.386 66.6455 536.599 103.022C579.812 139.399 601.418 185.42 601.418 241.084C601.418 296.26 579.567 342.036 535.866 378.413C503.151 405.513 458.84 422.48 402.932 429.316V515.742H683.449V594.844H0.0996094V515.742H281.35V429.683C224.221 422.847 179.421 406.001 146.95 379.146C103.737 343.257 82.1309 297.236 82.1309 241.084C82.1309 186.396 103.493 140.62 146.218 103.755C188.942 66.8896 254.25 48.457 342.141 48.457ZM342.141 127.559C297.707 127.559 263.527 137.935 239.602 158.687C215.676 179.438 203.713 206.904 203.713 241.084C203.713 275.752 216.164 303.218 241.066 323.481C265.969 343.745 299.66 353.877 342.141 353.877C387.062 353.877 421.242 343.257 444.68 322.017C468.117 300.776 479.836 273.799 479.836 241.084C479.836 205.439 467.629 177.607 443.215 157.588C418.801 137.568 385.109 127.559 342.141 127.559ZM1101.66 512.08H839.455C792.092 512.08 768.41 488.398 768.41 441.035V244.014H964.699V140.01H768.41V60.9082H1086.28V323.115H889.992V432.979H1101.66V512.08ZM1397.56 681.27H1283.3V140.01H1243.75V681.27H1129.49V118.037C1129.49 100.459 1134.5 86.543 1144.51 76.2891C1154.52 66.0352 1169.53 60.9082 1189.55 60.9082H1397.56V681.27ZM2114.6 312.129V391.23H1902.93V515.742H2183.45V594.844H1500.1V515.742H1781.35V391.23H1639.99C1592.63 391.23 1568.95 366.328 1568.95 316.523V60.9082H2114.6V140.01H1690.53V312.129H2114.6ZM2871.93 342.158H2652.93V373.652H2933.45V452.754H2250.1V373.652H2531.35V342.158H2389.99C2342.63 342.158 2318.95 319.453 2318.95 274.043V162.715H2743.02V138.545H2318.95V60.9082H2864.6V240.352H2440.53V264.521H2871.93V342.158ZM2743.02 688.594V554.561H2311.62V475.459H2799.42C2842.87 475.459 2864.6 495.234 2864.6 534.785V688.594H2743.02ZM3015 429H3681V479.25H3015V429ZM3317.25 359.25H3374.25V688.5H3317.25V359.25ZM3291.75 448.5L3338.25 469.5C3270 560.25 3147.75 640.5 3038.25 680.25C3029.25 666 3012.75 644.25 3000 633C3109.5 599.25 3230.25 528 3291.75 448.5ZM3400.5 450C3461.25 528 3581.25 596.25 3695.25 627C3683.25 638.25 3666 660 3657.75 675C3543.75 637.5 3421.5 561 3353.25 472.5L3400.5 450ZM3288 242.25V324.75H3405.75V242.25H3288ZM3288 118.5V199.5H3405.75V118.5H3288ZM3239.25 74.25H3455.25V369H3239.25V74.25ZM3327 -2.5034e-05L3383.25 8.99995C3371.25 42.75 3358.5 78.75 3347.25 102.75L3303 93C3312 66.75 3322.5 27 3327 -2.5034e-05ZM3020.25 146.25L3045 110.25C3083.25 138.75 3128.25 180.75 3147.75 209.25L3121.5 250.5C3102 220.5 3057.75 177 3020.25 146.25ZM3156.75 256.5L3194.25 244.5C3216.75 286.5 3238.5 342.75 3245.25 377.25L3205.5 393C3199.5 357 3178.5 299.25 3156.75 256.5ZM3175.5 109.5L3219.75 126.75C3180 201 3126.75 291.75 3083.25 349.5L3046.5 332.25C3090 273.75 3144.75 177.75 3175.5 109.5ZM3117 5.24995L3162 21.75C3139.5 70.5 3112.5 127.5 3089.25 165L3051.75 148.5C3073.5 110.25 3102 48.75 3117 5.24995ZM3013.5 327.75C3064.5 323.25 3135 315 3209.25 306.75L3210 347.25C3141 358.5 3074.25 367.5 3019.5 376.5L3013.5 327.75ZM3450.75 140.25L3479.25 105.75C3518.25 138.75 3564 186 3584.25 217.5L3555 256.5C3535.5 223.5 3490.5 174.75 3450.75 140.25ZM3590.25 250.5L3629.25 236.25C3655.5 282 3681.75 343.5 3690 381.75L3648 399C3640.5 359.25 3615.75 297.75 3590.25 250.5ZM3609 108.75L3653.25 126.75C3613.5 201 3558.75 292.5 3513.75 351L3477 333.75C3521.25 274.5 3578.25 177.75 3609 108.75ZM3554.25 2.99998L3600 19.5C3576.75 69 3549 125.25 3525 162.75L3487.5 146.25C3510 108 3539.25 46.5 3554.25 2.99998ZM3453.75 327.75C3506.25 323.25 3577.5 316.5 3651.75 309.75L3652.5 351C3583.5 360 3515.25 369 3460.5 376.5L3453.75 327.75Z" fill="black" fill-opacity="0.04"/>
</svg>
