<svg width="21" height="27" viewBox="0 0 21 27" fill="none" xmlns="http://www.w3.org/2000/svg">
<path d="M11.6517 4.33062V25.2181C11.6525 25.3562 11.629 25.4931 11.5827 25.6209C11.5363 25.7488 11.4681 25.865 11.3818 25.9629C11.2956 26.0609 11.1931 26.1386 11.0801 26.1916C10.9672 26.2447 10.8461 26.272 10.7238 26.272C10.6015 26.272 10.4803 26.2447 10.3674 26.1916C10.2545 26.1386 10.1519 26.0609 10.0657 25.9629C9.97945 25.865 9.9112 25.7488 9.86489 25.6209C9.81857 25.4931 9.79508 25.3562 9.79579 25.2181V4.33062L3.02892 12.4492C2.94545 12.5521 2.84394 12.6343 2.73083 12.6905C2.61773 12.7467 2.4955 12.7758 2.37191 12.7758C2.24833 12.7758 2.1261 12.7467 2.01299 12.6905C1.89988 12.6343 1.79837 12.5521 1.71491 12.4492C1.54027 12.2346 1.44336 11.9537 1.44336 11.6623C1.44336 11.3708 1.54027 11.09 1.71491 10.8754L10.0667 0.853925C10.1502 0.751008 10.2517 0.668826 10.3648 0.612602C10.4779 0.556379 10.6002 0.527344 10.7238 0.527344C10.8474 0.527344 10.9696 0.556379 11.0827 0.612602C11.1958 0.668826 11.2973 0.751008 11.3808 0.853925L19.7327 10.8754C19.9068 11.0899 20.0034 11.3703 20.0034 11.6612C20.0034 11.9522 19.9068 12.2326 19.7327 12.4471C19.6492 12.55 19.5477 12.6322 19.4346 12.6884C19.3215 12.7447 19.1992 12.7737 19.0756 12.7737C18.9521 12.7737 18.8298 12.7447 18.7167 12.6884C18.6036 12.6322 18.5021 12.55 18.4186 12.4471L11.6517 4.33274V4.33062Z" fill="white" stroke="white"/>
</svg>
