<svg width="32" height="32" viewBox="0 0 32 32" fill="none" xmlns="http://www.w3.org/2000/svg">
<path d="M31.3239 28.0929C31.7532 28.5222 31.9943 29.1043 31.9943 29.7113C31.9943 30.3183 31.7532 30.9004 31.3239 31.3297C30.8947 31.7589 30.3126 32 29.7056 32C29.0986 32 28.5164 31.7589 28.0872 31.3297L15.999 19.2377L3.90706 31.3258C3.47784 31.7551 2.89571 31.9962 2.2887 31.9962C1.6817 31.9962 1.09956 31.7551 0.670346 31.3258C0.241131 30.8966 6.3958e-09 30.3145 0 29.7075C-6.3958e-09 29.1005 0.241131 28.5183 0.670346 28.0891L12.7623 16.001L0.674153 3.90896C0.244938 3.47975 0.00380798 2.89761 0.00380799 2.29061C0.00380799 1.68361 0.244938 1.10146 0.674153 0.67225C1.10337 0.243034 1.68551 0.00190364 2.29251 0.00190363C2.89951 0.00190362 3.48165 0.243034 3.91087 0.67225L15.999 12.7642L28.091 0.670345C28.5202 0.24113 29.1024 -1.01127e-08 29.7094 0C30.3164 1.01127e-08 30.8985 0.24113 31.3277 0.670345C31.757 1.09956 31.9981 1.6817 31.9981 2.2887C31.9981 2.8957 31.757 3.47785 31.3277 3.90706L19.2358 16.001L31.3239 28.0929Z" fill="black"/>
</svg>
